<svg xmlns="http://www.w3.org/2000/svg" width="50" height="50" viewBox="0 0 50 50">
  <path id="Path_883250" data-name="Path 883250" d="M48.048,31.112H31.857a2.307,2.307,0,0,0-2.3,2.3V44.032a2.307,2.307,0,0,0,2.3,2.3H37.07a5.635,5.635,0,0,1-.27,1.711H34.907a.977.977,0,1,0,0,1.953h9.739a.977.977,0,0,0,0-1.953H42.735a5.492,5.492,0,0,1-.312-1.711H47.7a2.307,2.307,0,0,0,2.3-2.3V33.064a1.954,1.954,0,0,0-1.952-1.952ZM31.857,33.065H48.047v8.1H31.506V33.416A.351.351,0,0,1,31.857,33.065ZM40.7,48.047H38.824a7.326,7.326,0,0,0,.2-1.711H40.47A7.12,7.12,0,0,0,40.7,48.047Zm7-3.664H31.857a.351.351,0,0,1-.351-.351v-.914h16.54v.914A.351.351,0,0,1,47.7,44.383ZM48.048,0H31.857a2.307,2.307,0,0,0-2.3,2.3V12.92a2.307,2.307,0,0,0,2.3,2.3H37.07a5.638,5.638,0,0,1-.27,1.711H34.907a.977.977,0,1,0,0,1.953h9.739a.977.977,0,0,0,0-1.953H42.735a5.492,5.492,0,0,1-.312-1.711H47.7a2.307,2.307,0,0,0,2.3-2.3V1.952A1.954,1.954,0,0,0,48.048,0ZM31.857,1.953H48.047v8.1H31.506V2.3A.351.351,0,0,1,31.857,1.953ZM40.7,16.935H38.824a7.326,7.326,0,0,0,.2-1.711H40.47A7.12,7.12,0,0,0,40.7,16.935Zm7-3.664H31.857a.352.352,0,0,1-.351-.351v-.914h16.54v.914A.351.351,0,0,1,47.7,13.271Zm-29.2,17.84H2.3a2.307,2.307,0,0,0-2.3,2.3V44.032a2.307,2.307,0,0,0,2.3,2.3H7.517a5.635,5.635,0,0,1-.27,1.711H5.354a.977.977,0,1,0,0,1.953h9.739a.977.977,0,1,0,0-1.953H13.182a5.492,5.492,0,0,1-.312-1.711h5.273a2.307,2.307,0,0,0,2.3-2.3V33.064a1.954,1.954,0,0,0-1.952-1.952ZM2.3,33.065H18.494v8.1H1.953V33.416a.352.352,0,0,1,.351-.351Zm8.84,14.982H9.271a7.326,7.326,0,0,0,.2-1.711h1.448A7.12,7.12,0,0,0,11.145,48.047Zm7-3.664H2.3a.352.352,0,0,1-.351-.351v-.914h16.54v.914A.351.351,0,0,1,18.142,44.383ZM2.3,15.224H7.517a5.638,5.638,0,0,1-.27,1.711H5.354a.977.977,0,1,0,0,1.953h9.739a.977.977,0,1,0,0-1.953H13.182a5.492,5.492,0,0,1-.312-1.711h5.273a2.307,2.307,0,0,0,2.3-2.3V1.952A1.954,1.954,0,0,0,18.495,0H2.3A2.307,2.307,0,0,0,0,2.3V12.92a2.307,2.307,0,0,0,2.3,2.3Zm8.84,1.711H9.271a7.326,7.326,0,0,0,.2-1.711h1.448A7.12,7.12,0,0,0,11.145,16.935Zm7-3.664H2.3a.352.352,0,0,1-.351-.351v-.914h16.54v.914A.351.351,0,0,1,18.142,13.271ZM2.3,1.953H18.494v8.1H1.953V2.3A.352.352,0,0,1,2.3,1.953ZM26.153,26.1v1.932a.977.977,0,1,1-1.953,0V26.1H11.376v1.932a.977.977,0,1,1-1.953,0V22.218a.977.977,0,1,1,1.953,0V24.15H24.2V22.218a.977.977,0,0,1,1.953,0V24.15H38.976V22.218a.977.977,0,1,1,1.953,0v5.818a.977.977,0,1,1-1.953,0V26.1Z" transform="translate(0)" fill="#4dceff"/>
</svg>
