<svg xmlns="http://www.w3.org/2000/svg" width="50" height="50" viewBox="0 0 50 50">
  <path id="Path_883251" data-name="Path 883251" d="M46.49,6.586H30.622V.977A.977.977,0,0,0,29.645,0H20.355a.977.977,0,0,0-.977.977V6.586H4.426A4.431,4.431,0,0,0,0,11.012v27.58a4.431,4.431,0,0,0,4.426,4.426H18.14a16.853,16.853,0,0,1-.289,5.029h-5.5a.977.977,0,1,0,0,1.953h25.3a.977.977,0,0,0,0-1.953H32.095a16.164,16.164,0,0,1-.344-5.029H45.574A4.431,4.431,0,0,0,50,38.592V10.1a3.515,3.515,0,0,0-3.51-3.511ZM21.331,1.953h7.338V9.291H21.331ZM4.426,8.539H19.378v1.728a.977.977,0,0,0,.977.977h3.669V14.81H13.782a.977.977,0,0,0-.977.977s0,0,0,0,0,0,0,0V21.89H10.331a.977.977,0,0,0-.977.977v6.9a.977.977,0,0,0,.977.977h6.9a.977.977,0,0,0,.977-.977v-6.9a.977.977,0,0,0-.977-.977H14.759V16.763h9.265V21.89H21.548a.977.977,0,0,0-.977.977v6.9a.977.977,0,0,0,.977.977h6.9a.977.977,0,0,0,.977-.977v-6.9a.977.977,0,0,0-.977-.977H25.977V16.763h9.265V21.89H32.766a.977.977,0,0,0-.977.977v6.9a.977.977,0,0,0,.977.977h6.9a.977.977,0,0,0,.977-.977v-6.9a.977.977,0,0,0-.977-.977H37.194V16.021a.966.966,0,0,0-.008-.117.971.971,0,0,0-.969-1.094H25.977V11.244h3.669a.977.977,0,0,0,.977-.977V8.539H46.49A1.559,1.559,0,0,1,48.047,10.1V34.2H1.953V11.012A2.476,2.476,0,0,1,4.426,8.539Zm11.831,15.3v4.95h-4.95v-4.95Zm11.218,0v4.95h-4.95v-4.95Zm11.218,0v4.95h-4.95v-4.95ZM30.1,48.047H19.839a18.915,18.915,0,0,0,.265-5.029h9.683A18.194,18.194,0,0,0,30.1,48.047Zm15.473-6.982H4.426a2.475,2.475,0,0,1-2.473-2.473V36.157H48.047v2.435A2.476,2.476,0,0,1,45.574,41.065Z" fill="#4dceff"/>
</svg>
