<svg xmlns="http://www.w3.org/2000/svg" width="50" height="50" viewBox="0 0 50 50">
  <path id="Path_883249" data-name="Path 883249" d="M45.577,20.576a4.43,4.43,0,0,0-4.313,3.447H36.411V16.387a.977.977,0,0,0-.543-.875l1.323-1.323a4.429,4.429,0,1,0-1.381-1.381l-2.27,2.27a15.216,15.216,0,0,1-4.917-2.363.977.977,0,0,0-.567-.182H25.975v-3.8a4.423,4.423,0,1,0-1.953,0v3.8H21.942a.977.977,0,0,0-.567.182,15.217,15.217,0,0,1-4.918,2.363l-2.268-2.268a4.429,4.429,0,1,0-1.381,1.381l1.322,1.322a.977.977,0,0,0-.542.875v7.638H8.736a4.423,4.423,0,1,0,0,1.953H13.6a11.736,11.736,0,0,0,2.54,6.5l-3.331,3.331a4.429,4.429,0,1,0,1.381,1.381l3.229-3.229A17.492,17.492,0,0,0,24,38.241l.017,3.023a4.423,4.423,0,1,0,1.953,0l-.017-3.008a17.472,17.472,0,0,0,6.625-4.294l3.23,3.23a4.429,4.429,0,1,0,1.381-1.381L33.86,32.478a11.732,11.732,0,0,0,2.538-6.5h4.865a4.423,4.423,0,1,0,4.313-5.4ZM22.529,4.423A2.47,2.47,0,1,1,25,6.893,2.473,2.473,0,0,1,22.529,4.423ZM4.423,27.471A2.47,2.47,0,1,1,6.893,25,2.473,2.473,0,0,1,4.423,27.471Zm6.028,14.55a2.47,2.47,0,1,1,2.47-2.47,2.473,2.473,0,0,1-2.47,2.47Zm29.1-4.942a2.47,2.47,0,1,1-2.47,2.47A2.473,2.473,0,0,1,39.551,37.079Zm0-29.1a2.47,2.47,0,1,1-2.47,2.47,2.473,2.473,0,0,1,2.47-2.47Zm-29.1,4.942a2.47,2.47,0,1,1,2.47-2.47A2.473,2.473,0,0,1,10.449,12.921ZM27.471,45.577A2.47,2.47,0,1,1,25,43.107,2.473,2.473,0,0,1,27.471,45.577ZM34.458,25.5c0,5.343-5.5,9.823-9.459,11.007C21.044,35.327,15.54,30.847,15.54,25.5V17.256a16.184,16.184,0,0,0,6.71-2.771h5.5a16.184,16.184,0,0,0,6.71,2.771V25.5Zm11.119,1.965A2.47,2.47,0,1,1,48.047,25,2.473,2.473,0,0,1,45.577,27.469Z" fill="#4dceff"/>
</svg>
