<svg xmlns="http://www.w3.org/2000/svg" width="100" height="100" viewBox="0 0 100 100">
  <g id="Group_1100965" data-name="Group 1100965" transform="translate(0.242)">
    <g id="Group_1098742" data-name="Group 1098742" transform="translate(0)">
      <rect id="Rectangle_400898" data-name="Rectangle 400898" width="100" height="100" rx="50" transform="translate(-0.242)" fill="#fff" opacity="0.859"/>
      <g id="Rectangle_400907" data-name="Rectangle 400907" transform="translate(-0.242)" fill="none" stroke="#6018ec" stroke-linecap="round" stroke-width="2" stroke-dasharray="7">
        <rect width="100" height="100" rx="50" stroke="none"/>
        <rect x="1" y="1" width="98" height="98" rx="49" fill="none"/>
      </g>
    </g>
    <g id="Group_1106094" data-name="Group 1106094" transform="translate(20.17 -9.255)">
      <g id="Group_1106092" data-name="Group 1106092" transform="translate(1.105 34.414)">
        <path id="Path_883291" data-name="Path 883291" d="M91.758,122.3H47.77a2.474,2.474,0,0,0-2.474,2.474v35.5H94.232v-35.5A2.474,2.474,0,0,0,91.758,122.3Z" transform="translate(-41.162 -112.904)" fill="#b5adb6"/>
        <g id="Group_1106091" data-name="Group 1106091" transform="translate(0 0)">
          <path id="Path_883292" data-name="Path 883292" d="M63.723,430.916H12.584a3.032,3.032,0,0,1-3.032-3.032v-1.3a.87.87,0,0,1,.87-.87H65.886a.87.87,0,0,1,.87.87v1.3A3.032,3.032,0,0,1,63.723,430.916Z" transform="translate(-9.552 -381.234)" fill="#aa9ea9"/>
          <path id="Path_883293" data-name="Path 883293" d="M150.61,146h14.923a5.338,5.338,0,0,0,5.338-5.338V128.175a3.883,3.883,0,0,0-2.313-3.547V122.3h-8.789v.554a1.443,1.443,0,0,1-1.443,1.443h-.409a1.443,1.443,0,0,1-1.443-1.443V122.3h-8.789v2.286a3.883,3.883,0,0,0-2.413,3.59v12.491A5.338,5.338,0,0,0,150.61,146Z" transform="translate(-129.577 -112.904)" fill="#a79ba7"/>
          <g id="Group_1106089" data-name="Group 1106089" transform="translate(7.602 12.866)">
            <g id="XMLID_203_">
              <g id="Group_1106088" data-name="Group 1106088">
                <path id="Path_883294" data-name="Path 883294" d="M116.622,180.454H75.963a.67.67,0,0,1-.67-.67V152.974a.67.67,0,0,1,.67-.67h40.658a.67.67,0,0,1,.67.67v26.809A.67.67,0,0,1,116.622,180.454Z" transform="translate(-75.293 -152.304)" fill="#f9f7f8"/>
              </g>
            </g>
          </g>
          <path id="Path_883295" data-name="Path 883295" d="M145.271,154.708V167.2a5.338,5.338,0,0,0,5.338,5.338h14.923a5.338,5.338,0,0,0,5.338-5.338V154.708a3.855,3.855,0,0,0-.841-2.405H146.11A3.857,3.857,0,0,0,145.271,154.708Z" transform="translate(-129.576 -139.437)" fill="#efedef"/>
          <path id="Path_883296" data-name="Path 883296" d="M202.381,49.171a8.124,8.124,0,1,0-16.247,0V61.835H190.3V49.171a3.961,3.961,0,0,1,7.921,0V61.835h4.163Z" transform="translate(-165.714 -41.047)" fill="#e5e1e5"/>
          <path id="Path_883297" data-name="Path 883297" d="M183.219,176.651H168.3a3.025,3.025,0,0,1-3.025-3.025V161.135a1.565,1.565,0,0,1,1.565-1.565h17.843a1.565,1.565,0,0,1,1.565,1.565v12.491A3.025,3.025,0,0,1,183.219,176.651Z" transform="translate(-147.263 -145.864)" fill="#f79595"/>
          <g id="Group_1106090" data-name="Group 1106090" transform="translate(18.008 13.706)">
            <path id="Path_883298" data-name="Path 883298" d="M172.483,174.261a3.025,3.025,0,0,1-3.025-3.025V159.57h-2.621a1.565,1.565,0,0,0-1.565,1.565v12.491a3.025,3.025,0,0,0,3.025,3.025H183.22a3.026,3.026,0,0,0,2.958-2.39Z" transform="translate(-165.272 -159.57)" fill="#f37c7c"/>
            <path id="Path_883299" data-name="Path 883299" d="M238.856,205.58l-.694-2.191a.69.69,0,0,1,.13-.647,2.545,2.545,0,1,0-3.93,0,.692.692,0,0,1,.132.649l-.694,2.191a.812.812,0,0,0,.774,1.057h3.507A.812.812,0,0,0,238.856,205.58Z" transform="translate(-225.842 -194.066)" fill="#f37c7c"/>
          </g>
        </g>
      </g>
      <g id="Group_1106093" data-name="Group 1106093" transform="translate(0 33.547)">
        <path id="Path_883300" data-name="Path 883300" d="M60.123,289.053H56.857V273.03a.867.867,0,0,0-1.735,0v16.023H16.748a.867.867,0,1,0,0,1.735H59.256v1.3a2.167,2.167,0,0,1-2.165,2.165H5.951a2.167,2.167,0,0,1-2.165-2.165v-1.3h9.266a.867.867,0,1,0,0-1.735H7.92V273.03a.867.867,0,0,0-1.735,0v16.023H2.919a.867.867,0,0,0-.867.867v2.166a3.9,3.9,0,0,0,3.9,3.9H57.091a3.9,3.9,0,0,0,3.9-3.9V289.92A.867.867,0,0,0,60.123,289.053Z" transform="translate(-1.815 -244.569)"/>
        <path id="Path_883301" data-name="Path 883301" d="M350,116.535h10.459a1.609,1.609,0,0,1,1.607,1.607v5.029a.867.867,0,0,0,1.735,0v-5.029a3.345,3.345,0,0,0-3.342-3.342H350a.867.867,0,0,0,0,1.735Z" transform="translate(-308.758 -105.404)"/>
        <path id="Path_883302" data-name="Path 883302" d="M38.663,124.039a.867.867,0,0,0,.867-.867v-5.029a1.609,1.609,0,0,1,1.607-1.607H51.481a.867.867,0,1,0,0-1.735H41.138a3.345,3.345,0,0,0-3.342,3.342v5.029A.867.867,0,0,0,38.663,124.039Z" transform="translate(-33.425 -105.405)"/>
        <path id="Path_883303" data-name="Path 883303" d="M68.663,144.8a.867.867,0,0,0-.867.867V149.7a.867.867,0,1,0,1.735,0v-3.167h6.684a.867.867,0,1,0,0-1.735Z" transform="translate(-59.956 -131.935)"/>
        <path id="Path_883304" data-name="Path 883304" d="M372.45,150.569a.867.867,0,0,0,.867-.867v-4.034a.867.867,0,0,0-.867-.867h-7.766a.867.867,0,0,0,0,1.735h6.9V149.7A.867.867,0,0,0,372.45,150.569Z" transform="translate(-321.745 -131.935)"/>
        <path id="Path_883305" data-name="Path 883305" d="M68.663,272.163a.867.867,0,0,0-.867.867v13.421a.867.867,0,0,0,.867.867h42a.867.867,0,0,0,.867-.867V273.03a.867.867,0,0,0-1.735,0v12.554H69.531V273.03A.867.867,0,0,0,68.663,272.163Z" transform="translate(-59.956 -244.569)"/>
        <path id="Path_883306" data-name="Path 883306" d="M226.6,200.182a1.685,1.685,0,0,0,1.355.687h3.507a1.679,1.679,0,0,0,1.6-2.186l-.664-2.1a3.412,3.412,0,1,0-5.381,0l-.664,2.1A1.685,1.685,0,0,0,226.6,200.182Zm1.812-4.628a1.678,1.678,0,0,1,1.4-2.74,1.7,1.7,0,0,1,1.566,1.572,1.677,1.677,0,0,1-.38,1.169,1.552,1.552,0,0,0-.288,1.461l.671,2.119h-3.356l.671-2.118a1.556,1.556,0,0,0-.289-1.463Z" transform="translate(-200.106 -172.858)"/>
        <path id="Path_883307" data-name="Path 883307" d="M2.745,59.406H4.424a2.749,2.749,0,0,0,2.6-1.878H9.253a2.749,2.749,0,0,0,2.6,1.878h1.679a2.749,2.749,0,0,0,2.6-1.878h2.106v4.648a3.9,3.9,0,0,0,3.893,3.893H33.609a.867.867,0,1,0,0-1.735H22.138a2.16,2.16,0,0,1-2.158-2.158V49.686a.7.7,0,0,1,.7-.7H38.521a.7.7,0,0,1,.7.7V62.176a2.167,2.167,0,0,1-1.982,2.15.867.867,0,1,0,.139,1.729,3.911,3.911,0,0,0,3.578-3.879V57.528h2.083a2.75,2.75,0,0,0,2.6,1.878h1.678a2.749,2.749,0,0,0,2.6-1.878h2.224a2.75,2.75,0,0,0,2.6,1.878H56.43a2.745,2.745,0,1,0,0-5.491H54.752a2.749,2.749,0,0,0-2.6,1.878H49.923a2.75,2.75,0,0,0-2.6-1.878H45.64a2.749,2.749,0,0,0-2.6,1.878H40.953V49.686a2.433,2.433,0,0,0-2.313-2.427V42.538a9.032,9.032,0,0,0-.266-2.175.867.867,0,0,0-1.684.418,7.29,7.29,0,0,1,.215,1.756v4.715H34.477V42.538a4.828,4.828,0,1,0-9.656,0v4.715H22.392V42.538a7.255,7.255,0,0,1,12.789-4.692A.867.867,0,1,0,36.5,36.723a8.989,8.989,0,0,0-15.846,5.815v4.716a2.435,2.435,0,0,0-2.413,2.431v6.108H16.139a2.75,2.75,0,0,0-2.6-1.878H11.857a2.749,2.749,0,0,0-2.6,1.878H7.028a2.749,2.749,0,0,0-2.6-1.878H2.745a2.745,2.745,0,0,0,0,5.491ZM54.752,55.65H56.43a1.011,1.011,0,1,1,0,2.021H54.752a1.011,1.011,0,0,1,0-2.021Zm-9.111,0h1.678a1.011,1.011,0,0,1,0,2.021H45.64a1.011,1.011,0,0,1,0-2.021ZM26.555,42.538a3.093,3.093,0,0,1,6.187,0v4.715H26.555ZM11.857,55.65h1.679a1.011,1.011,0,1,1,0,2.021H11.857a1.011,1.011,0,1,1,0-2.021Zm-9.111,0H4.424a1.011,1.011,0,1,1,0,2.021H2.745a1.011,1.011,0,1,1,0-2.021Z" transform="translate(0 -33.547)"/>
      </g>
    </g>
  </g>
</svg>
