<svg xmlns="http://www.w3.org/2000/svg" width="100" height="100" viewBox="0 0 100 100">
  <g id="Group_1100965" data-name="Group 1100965" transform="translate(0.242)">
    <g id="Group_1098742" data-name="Group 1098742" transform="translate(0)">
      <rect id="Rectangle_400898" data-name="Rectangle 400898" width="100" height="100" rx="50" transform="translate(-0.242)" fill="#fff" opacity="0.859"/>
      <g id="Rectangle_400907" data-name="Rectangle 400907" transform="translate(-0.242)" fill="none" stroke="#6018ec" stroke-linecap="round" stroke-width="2" stroke-dasharray="7">
        <rect width="100" height="100" rx="50" stroke="none"/>
        <rect x="1" y="1" width="98" height="98" rx="49" fill="none"/>
      </g>
    </g>
    <g id="Group_1106105" data-name="Group 1106105" transform="translate(17.47 -36.894)">
      <g id="Group_1106103" data-name="Group 1106103" transform="translate(0.947 63.441)">
        <g id="XMLID_144_" transform="translate(6.46 8.332)">
          <g id="Group_1106100" data-name="Group 1106100">
            <path id="Path_883333" data-name="Path 883333" d="M114.892,187.023V214.69a4.463,4.463,0,0,1-4.463,4.463h-47.3a4.462,4.462,0,0,1-4.463-4.463V187.023Z" transform="translate(-58.67 -180.581)" fill="#f9f7f8"/>
            <path id="Path_883334" data-name="Path 883334" d="M114.892,140.456v1.979H58.67v-1.222a5.219,5.219,0,0,1,5.219-5.22h46.541A4.463,4.463,0,0,1,114.892,140.456Z" transform="translate(-58.67 -135.993)" fill="#b3dafe"/>
          </g>
        </g>
        <path id="Path_883335" data-name="Path 883335" d="M59.259,69.992h-47.3A4.463,4.463,0,0,0,7.5,74.455v1.979L13.96,84.6H58.593l5.129-8.166V74.455a4.463,4.463,0,0,0-4.463-4.463Z" transform="translate(-7.5 -69.992)" fill="#b3dafe"/>
        <g id="Group_1106102" data-name="Group 1106102" transform="translate(0 6.442)">
          <g id="XMLID_143_">
            <g id="Group_1106101" data-name="Group 1106101">
              <path id="Path_883336" data-name="Path 883336" d="M110.957,187.023H58.67v26.322h45.3a7,7,0,0,0,6.987-6.987V187.023Z" transform="translate(-52.21 -178.691)" fill="#efedef"/>
              <path id="Path_883337" data-name="Path 883337" d="M110.957,136.025a4.5,4.5,0,0,0-.528-.032H63.889a5.219,5.219,0,0,0-5.219,5.22v1.222h52.287v-6.41Z" transform="translate(-52.21 -134.103)" fill="#8ac9fe"/>
              <path id="Path_883338" data-name="Path 883338" d="M63.722,121.023V148.69a4.463,4.463,0,0,1-4.463,4.463h-47.3A4.463,4.463,0,0,1,7.5,148.69V121.023Z" transform="translate(-7.5 -121.023)" fill="#f9f7f8"/>
            </g>
          </g>
          <path id="Path_883339" data-name="Path 883339" d="M189.185,233.433h-7.873a.62.62,0,0,0-.416.159,6.491,6.491,0,1,0,8.706,0A.62.62,0,0,0,189.185,233.433Z" transform="translate(-157.137 -219.242)" fill="#f79595"/>
        </g>
      </g>
      <g id="Group_1106104" data-name="Group 1106104" transform="translate(0 62.495)">
        <path id="Path_883340" data-name="Path 883340" d="M59.166,70.827h-1.05V67.9a5.415,5.415,0,0,0-5.409-5.409H48.947a.947.947,0,1,0,0,1.894h3.759A3.519,3.519,0,0,1,56.222,67.9v1.033H11.441a.947.947,0,1,0,0,1.894H56.222V97.55a3.519,3.519,0,0,1-3.516,3.516H5.409A3.519,3.519,0,0,1,1.894,97.55V70.83H7.406a.947.947,0,0,0,0-1.894H1.894V67.9a3.519,3.519,0,0,1,3.515-3.515h39.5a.947.947,0,0,0,0-1.894H5.409A5.415,5.415,0,0,0,0,67.9V97.55a5.415,5.415,0,0,0,5.409,5.409H6.46v2.923a5.415,5.415,0,0,0,5.409,5.409h47.3a5.415,5.415,0,0,0,5.409-5.409v-5.631a.947.947,0,0,0-1.894,0v5.631a3.519,3.519,0,0,1-3.516,3.516h-47.3a3.52,3.52,0,0,1-3.516-3.516v-2.923H52.706a5.415,5.415,0,0,0,5.409-5.409V79.162h4.566V96.216a.947.947,0,0,0,1.894,0V76.236a5.415,5.415,0,0,0-5.409-5.409Zm-1.051,6.442V72.72h1.05a3.519,3.519,0,0,1,3.516,3.515v1.033Z" transform="translate(0 -62.495)"/>
        <path id="Path_883341" data-name="Path 883341" d="M178.7,178.21a3.964,3.964,0,0,0-3.959,3.959v2.067a1.564,1.564,0,0,0-1.029.4,7.443,7.443,0,0,0,4.883,12.955h.107a7.438,7.438,0,0,0,4.987-12.956,1.564,1.564,0,0,0-1.029-.4v-2.067A3.964,3.964,0,0,0,178.7,178.21Zm-2.066,3.959a2.065,2.065,0,1,1,4.131,0v2.066h-4.131v-2.066Zm7.61,7.987a5.544,5.544,0,0,1-5.624,5.544,5.544,5.544,0,0,1-3.731-9.572h7.619A5.556,5.556,0,0,1,184.241,190.156Z" transform="translate(-149.639 -163.602)"/>
        <path id="Path_883342" data-name="Path 883342" d="M219.3,254.513h-2.38a.947.947,0,1,0,0,1.894h.243v1.687a.947.947,0,1,0,1.894,0v-1.687h.243a.947.947,0,1,0,0-1.894Z" transform="translate(-188.707 -230.273)"/>
      </g>
    </g>
  </g>
</svg>
