<svg xmlns="http://www.w3.org/2000/svg" width="85" height="85" viewBox="0 0 85 85">
  <g id="Group_1105666" data-name="Group 1105666" transform="translate(-199.711 -651)">
    <rect id="Rectangle_403232" data-name="Rectangle 403232" width="85" height="85" rx="10" transform="translate(199.711 651)" fill="#6018ec"/>
    <g id="Group_1106117" data-name="Group 1106117" transform="translate(183.966 662.075)">
      <g id="Group_1106115" data-name="Group 1106115" transform="translate(31.526 0.926)">
        <g id="Group_1106110" data-name="Group 1106110">
          <path id="Path_883352" data-name="Path 883352" d="M62.052,67.711,45.879,57.926a16.038,16.038,0,0,1-5.091-22.545l1.927-2.925a2.6,2.6,0,0,0,.041-2.8L38.4,22.6a1.647,1.647,0,0,1,.194-1.986L45.937,12.7a1.647,1.647,0,0,1,1.991-.329l.794.429a10.356,10.356,0,0,0,12.252-1.793l3.194-3.2a1.056,1.056,0,0,1,1.5,0l3.075,3.12a10.356,10.356,0,0,0,12.3,1.841l.747-.4a1.647,1.647,0,0,1,1.991.329l7.344,7.916a1.647,1.647,0,0,1,.194,1.986l-4.356,7.057a2.6,2.6,0,0,0,.041,2.8l1.927,2.925A16.038,16.038,0,0,1,83.84,57.927L67.667,67.712A5.424,5.424,0,0,1,62.052,67.711Z" transform="translate(-38.141 -7.5)" fill="#baafb9"/>
        </g>
        <g id="Group_1106114" data-name="Group 1106114" transform="translate(4.315 5.688)">
          <path id="Path_883353" data-name="Path 883353" d="M105.067,60.867,100.434,53.6h0l0,0-.871.872a14.672,14.672,0,0,1-16.3,3.06l-4.588,4.945L81.96,67.8a6.945,6.945,0,0,1-.11,7.441l-1.927,2.925a12.038,12.038,0,0,0-.691,1.192l5.79,5.3L105.435,83.6Z" transform="translate(-77.985 -53.599)" fill="#fee45a"/>
          <g id="Group_1106113" data-name="Group 1106113" transform="translate(0 0.002)">
            <g id="XMLID_162_">
              <g id="Group_1106112" data-name="Group 1106112">
                <path id="Path_883354" data-name="Path 883354" d="M225.449,237.18l-4.87-3.549-17.789.476-5.592,14.2,7.155,14.1a1.091,1.091,0,0,0,.512-.157l16.172-9.785a11.725,11.725,0,0,0,4.412-15.284Z" transform="translate(-181.889 -211.422)" fill="#fee45a"/>
                <g id="Group_1106111" data-name="Group 1106111">
                  <path id="Path_883355" data-name="Path 883355" d="M95.569,262.4l.009,25.226a.494.494,0,0,1-.06,0,1.112,1.112,0,0,1-.572-.159l-16.172-9.785A11.725,11.725,0,0,1,74.36,262.4Z" transform="translate(-73.113 -236.639)" fill="#fef0ae"/>
                  <path id="Path_883356" data-name="Path 883356" d="M272.144,57.544l4.591,4.949-3.289,5.327a6.943,6.943,0,0,0,.11,7.44l1.927,2.925a12.037,12.037,0,0,1,.691,1.192h-21.1l-.007-25.759.764.776a14.573,14.573,0,0,0,10.455,4.374A14.728,14.728,0,0,0,272.144,57.544Z" transform="translate(-232.613 -53.618)" fill="#fef0ae"/>
                </g>
              </g>
            </g>
          </g>
          <path id="Path_883357" data-name="Path 883357" d="M225.472,225.335a4.616,4.616,0,1,0-6.142,0l-.949,4.039a2.066,2.066,0,0,0,2.011,2.538h4.018a2.066,2.066,0,0,0,2.011-2.538Z" transform="translate(-199.936 -197.079)" fill="#baafb9"/>
          <path id="Path_883358" data-name="Path 883358" d="M221.887,229.375l.71-3.023a1.991,1.991,0,0,0-.362-1.664,4.615,4.615,0,0,1,1.92-7.069,4.616,4.616,0,0,0-4.825,7.717l-.949,4.038a2.066,2.066,0,0,0,2.011,2.538H223.9A2.066,2.066,0,0,1,221.887,229.375Z" transform="translate(-199.936 -197.081)" fill="#aa9ea9"/>
        </g>
      </g>
      <g id="Group_1106116" data-name="Group 1106116" transform="translate(30.595 0.001)">
        <path id="Path_883359" data-name="Path 883359" d="M83.089,100.769l-1.927-2.925a1.681,1.681,0,0,1-.027-1.8l4.356-7.057a2.58,2.58,0,0,0-.3-3.1l-2.707-2.918a.925.925,0,0,0-1.357,1.259l2.707,2.918a.724.724,0,0,1,.085.87L79.561,95.07a3.538,3.538,0,0,0,.056,3.792l1.927,2.925a15.113,15.113,0,0,1-4.8,21.244l-16.173,9.785a4.486,4.486,0,0,1-4.657,0l-16.173-9.785a15.113,15.113,0,0,1-4.8-21.244l1.927-2.925a3.538,3.538,0,0,0,.056-3.792l-4.356-7.057a.724.724,0,0,1,.085-.87L35.105,84.5a.925.925,0,0,0-1.357-1.259L31.3,85.884a2.58,2.58,0,0,0-.3,3.1l4.356,7.057a1.681,1.681,0,0,1-.027,1.8L33.4,100.769a16.964,16.964,0,0,0,5.385,23.846L54.958,134.4a6.331,6.331,0,0,0,6.573,0L77.7,124.615a16.964,16.964,0,0,0,5.385-23.846Z" transform="translate(-30.595 -72.471)"/>
        <path id="Path_883360" data-name="Path 883360" d="M76.875,9.431a.923.923,0,0,0,.679-.3L79.76,6.757a.722.722,0,0,1,.872-.144l.794.429a11.2,11.2,0,0,0,7,1.238,11.2,11.2,0,0,0,6.349-3.191l3.194-3.2a.128.128,0,0,1,.093-.038h0a.129.129,0,0,1,.093.039l3.075,3.12a11.2,11.2,0,0,0,6.365,3.238,11.2,11.2,0,0,0,7.034-1.233l.747-.4a.722.722,0,0,1,.873.144L118.2,8.862A.925.925,0,1,0,119.557,7.6L117.6,5.5a2.572,2.572,0,0,0-3.109-.513l-.747.4a9.478,9.478,0,0,1-11.2-1.677L99.472.591a1.968,1.968,0,0,0-1.4-.59H98.06a1.968,1.968,0,0,0-1.4.581l-3.194,3.2a9.363,9.363,0,0,1-5.308,2.668,9.367,9.367,0,0,1-5.85-1.035l-.794-.429A2.572,2.572,0,0,0,78.4,5.5L76.2,7.877a.925.925,0,0,0,.678,1.555Z" transform="translate(-70.354 -0.001)"/>
        <path id="Path_883361" data-name="Path 883361" d="M69.723,61.716a6.014,6.014,0,0,1-.095,6.446L67.7,71.087a12.645,12.645,0,0,0,4.014,17.776l2.739,1.657a.925.925,0,0,0,.958-1.583l-2.739-1.657a10.8,10.8,0,0,1-4.3-13.566H83.789a5.55,5.55,0,0,0,1.121,1.861l-.831,3.535a2.991,2.991,0,0,0,2.912,3.675h1.084V96.6L78.8,90.984a.925.925,0,1,0-.958,1.583l10.049,6.08a2.031,2.031,0,0,0,2.1,0l16.173-9.785a12.645,12.645,0,0,0,4.014-17.776l-1.927-2.925a6.014,6.014,0,0,1-.095-6.445l3.288-5.327a.925.925,0,0,0-.109-1.115l-4.591-4.948a.926.926,0,0,0-1.048-.219,13.87,13.87,0,0,1-5.494,1.148,13.653,13.653,0,0,1-9.8-4.1l-.767-.778a.925.925,0,0,0-.656-.276h0a.926.926,0,0,0-.655.271l-.871.872a13.662,13.662,0,0,1-9.732,4.034,13.867,13.867,0,0,1-5.541-1.168.925.925,0,0,0-1.051.218l-4.588,4.945a.926.926,0,0,0-.109,1.115ZM86.1,80.5a1.134,1.134,0,0,1-.216-.969l.949-4.039a.925.925,0,0,0-.285-.9,3.691,3.691,0,1,1,4.91,0,.925.925,0,0,0-.285.9l.949,4.039a1.14,1.14,0,0,1-1.11,1.4H86.992A1.134,1.134,0,0,1,86.1,80.5Zm24.049-.08a10.7,10.7,0,0,1-4.942,6.858L89.926,96.523V82.784H91.01a2.991,2.991,0,0,0,2.912-3.675l-.831-3.535a5.553,5.553,0,0,0,1.121-1.861h15.293A10.69,10.69,0,0,1,110.147,80.421ZM100.2,53.1a15.74,15.74,0,0,0,5.621-1.051l3.676,3.962-2.919,4.728a7.871,7.871,0,0,0,.124,8.436l1.767,2.683H94.542c0-.009,0-.017,0-.026a5.55,5.55,0,0,0-4.637-5.466V49.227A15.476,15.476,0,0,0,100.2,53.1ZM72.05,52.059a15.737,15.737,0,0,0,5.673,1.071,15.488,15.488,0,0,0,10.332-3.91V66.377a5.549,5.549,0,0,0-4.6,5.459c0,.009,0,.017,0,.026H69.406l1.767-2.683a7.871,7.871,0,0,0,.124-8.436l-2.919-4.728Z" transform="translate(-61.29 -40.413)"/>
      </g>
    </g>
  </g>
</svg>
