<svg xmlns="http://www.w3.org/2000/svg" width="40" height="40" viewBox="0 0 40 40">
  <g id="Group_1106124" data-name="Group 1106124" transform="translate(-205 -4796)">
    <rect id="Rectangle_405649" data-name="Rectangle 405649" width="40" height="40" rx="5" transform="translate(205 4796)" fill="#6018ec"/>
    <path id="to-do" d="M16.5,18H16V4.5A4.505,4.505,0,0,0,11.5,0h-7A4.505,4.505,0,0,0,0,4.5v16A3.5,3.5,0,0,0,3.5,24H16a3,3,0,0,0,3-3v-.5A2.5,2.5,0,0,0,16.5,18ZM5,20.5a1.5,1.5,0,0,1-3,0V4.5A2.5,2.5,0,0,1,4.5,2h7A2.5,2.5,0,0,1,14,4.5V18H7.5A2.5,2.5,0,0,0,5,20.5ZM17,21a1,1,0,0,1-1,1H6.662A3.476,3.476,0,0,0,7,20.5a.5.5,0,0,1,.5-.5h9a.5.5,0,0,1,.5.5ZM21,0a3,3,0,0,0-3,3V13.343a4.969,4.969,0,0,0,1.465,3.536l.828.828a1,1,0,0,0,1.414,0l.828-.828A4.969,4.969,0,0,0,24,13.343V3A3,3,0,0,0,21,0Zm1,13.343a2.983,2.983,0,0,1-.879,2.122L21,15.586l-.121-.121A2.983,2.983,0,0,1,20,13.343V3a1,1,0,0,1,2,0ZM3.293,7.1A1,1,0,0,1,4.707,5.683L5.995,6.972a.11.11,0,0,0,.139,0L8.313,4.793A1,1,0,0,1,9.727,6.207L7.548,8.386a2.1,2.1,0,0,1-2.966,0L3.294,7.1Zm4.255,7.289a2.1,2.1,0,0,1-2.966,0L3.294,13.1a1,1,0,1,1,1.414-1.414L6,12.972a.11.11,0,0,0,.139,0l2.179-2.179a1,1,0,0,1,1.414,1.414L7.549,14.386Z" transform="translate(212.711 4804)" fill="#fff"/>
  </g>
</svg>
