<svg xmlns="http://www.w3.org/2000/svg" width="40" height="40" viewBox="0 0 40 40">
  <g id="Group_1106129" data-name="Group 1106129" transform="translate(-495 -5159)">
    <rect id="Rectangle_405662" data-name="Rectangle 405662" width="40" height="40" rx="5" transform="translate(495 5159)" fill="#6018ec"/>
    <path id="data-backup" d="M21,0H14a3,3,0,0,0-3,3V6H24V3A3,3,0,0,0,21,0ZM14.5,4.5A1.5,1.5,0,1,1,16,3,1.5,1.5,0,0,1,14.5,4.5ZM21,4H19a1,1,0,0,1,0-2h2a1,1,0,0,1,0,2ZM11,10a3,3,0,0,0,3,3h7a3,3,0,0,0,3-3V7H11Zm8-1h2a1,1,0,0,1,0,2H19a1,1,0,0,1,0-2Zm-4.5-.5A1.5,1.5,0,1,1,13,10,1.5,1.5,0,0,1,14.5,8.5ZM4.5,13C1.85,13,0,13.617,0,14.5v7.333C0,23.21,1.641,24,4.5,24S9,23.21,9,21.833V14.5C9,13.617,7.15,13,4.5,13ZM7,15.773V17.51A4.754,4.754,0,0,1,4.5,18,4.924,4.924,0,0,1,2,17.541V15.772A12.562,12.562,0,0,0,4.5,16,12.562,12.562,0,0,0,7,15.772ZM4.5,22A5.963,5.963,0,0,1,2,21.607V19.679A8.687,8.687,0,0,0,4.5,20,8.539,8.539,0,0,0,7,19.669v1.938A5.963,5.963,0,0,1,4.5,22ZM9,2A1,1,0,0,1,8,3H7A2,2,0,0,0,5,5V7.029l1.307-1.25A1,1,0,0,1,7.694,7.221l-2.3,2.212A1.963,1.963,0,0,1,4.005,10,1.987,1.987,0,0,1,2.6,9.42L.307,7.221A1,1,0,0,1,1.694,5.779L3,7.035V5A4,4,0,0,1,7,1H8A1,1,0,0,1,9,2ZM21,16v1a4,4,0,0,1-4,4H14.971l1.25,1.307a1,1,0,1,1-1.441,1.386l-2.212-2.3a1.988,1.988,0,0,1,.013-2.8l2.2-2.287a1,1,0,1,1,1.441,1.386L14.964,19H17a2,2,0,0,0,2-2V16a1,1,0,0,1,2,0Z" transform="translate(502.711 5167)" fill="#fff"/>
  </g>
</svg>
