<svg xmlns="http://www.w3.org/2000/svg" width="40" height="40" viewBox="0 0 40 40">
  <g id="Group_1106127" data-name="Group 1106127" transform="translate(-495 -5016)">
    <rect id="Rectangle_405661" data-name="Rectangle 405661" width="40" height="40" rx="5" transform="translate(495 5016)" fill="#6018ec"/>
    <path id="blockchain-3" d="M21.5,13.163V10.837a3.491,3.491,0,1,0-3.507-5.77L15.486,3.5a3.5,3.5,0,0,0-7,0c0,.005,0,.01,0,.016L6.007,5.067A3.492,3.492,0,1,0,2.5,10.837v2.326a3.491,3.491,0,1,0,3.507,5.77l2.481,1.551s0,.01,0,.016a3.5,3.5,0,1,0,7,0l2.507-1.567a3.492,3.492,0,1,0,3.507-5.77ZM20.5,6A1.5,1.5,0,1,1,19,7.5,1.5,1.5,0,0,1,20.5,6ZM11.986,2a1.5,1.5,0,1,1-1.4,2.011A.966.966,0,0,0,10.5,3.6c0-.033-.01-.064-.01-.1a1.5,1.5,0,0,1,1.5-1.5ZM2,7.5A1.5,1.5,0,1,1,3.5,9,1.5,1.5,0,0,1,2,7.5ZM3.5,18A1.5,1.5,0,1,1,5,16.5,1.5,1.5,0,0,1,3.5,18Zm8.486,4a1.5,1.5,0,1,1,1.5-1.5A1.5,1.5,0,0,1,11.986,22Zm2.886-3.474a3.49,3.49,0,0,0-5.762-.012l-2.176-1.36A3.453,3.453,0,0,0,4.5,13.163V10.837A3.453,3.453,0,0,0,6.934,6.846L9.11,5.486a3.49,3.49,0,0,0,5.762-.012l2.194,1.371A3.453,3.453,0,0,0,19.5,10.836v2.326a3.453,3.453,0,0,0-2.434,3.991l-2.194,1.371ZM20.5,18A1.5,1.5,0,1,1,22,16.5,1.5,1.5,0,0,1,20.5,18ZM13,13.108l3-1.715v2.116a1.774,1.774,0,0,1-.832,1.5L13,16.366Zm2.343-3.519L12,11.5,8.657,9.589l2.185-1.366a2.184,2.184,0,0,1,2.316,0l2.185,1.366ZM8,11.393l3,1.715v3.258L8.832,15.011A1.771,1.771,0,0,1,8,13.509Z" transform="translate(502.711 5024)" fill="#fff"/>
  </g>
</svg>
