<svg xmlns="http://www.w3.org/2000/svg" width="40" height="40" viewBox="0 0 40 40">
  <g id="Group_1106125" data-name="Group 1106125" transform="translate(-495 -4871)">
    <rect id="Rectangle_405658" data-name="Rectangle 405658" width="40" height="40" rx="5" transform="translate(495 4871)" fill="#6018ec"/>
    <path id="home-control-app" d="M24,9a1,1,0,0,1-2,0,7.008,7.008,0,0,0-7-7,1,1,0,0,1,0-2A9.01,9.01,0,0,1,24,9ZM15,4a1,1,0,0,0,0,2,3,3,0,0,1,3,3,1,1,0,0,0,2,0A5.006,5.006,0,0,0,15,4ZM12,8.195v3.281A1.524,1.524,0,0,1,10.476,13H5.524A1.524,1.524,0,0,1,4,11.476V8.195a1.524,1.524,0,0,1,.672-1.263L7.148,5.261a1.523,1.523,0,0,1,1.7,0l2.476,1.671A1.524,1.524,0,0,1,12,8.195ZM9,9.5A.5.5,0,0,0,8.5,9h-1a.5.5,0,0,0-.5.5v1a.5.5,0,0,0,.5.5h1a.5.5,0,0,0,.5-.5ZM16,13v6a5.006,5.006,0,0,1-5,5H5a5.006,5.006,0,0,1-5-5V5A5.006,5.006,0,0,1,5,0h6a1,1,0,0,1,0,2H5A3,3,0,0,0,2,5V16H14V13a1,1,0,0,1,2,0Zm-2,5H2v1a3,3,0,0,0,3,3h6a3,3,0,0,0,3-3Zm1-8a1,1,0,1,0-1-1A1,1,0,0,0,15,10ZM10,20a1,1,0,0,0-1-1H7a1,1,0,0,0,0,2H9A1,1,0,0,0,10,20Z" transform="translate(502.711 4879)" fill="#fff"/>
  </g>
</svg>
