<svg xmlns="http://www.w3.org/2000/svg" width="40" height="40" viewBox="0 0 40 40">
  <g id="Group_1106128" data-name="Group 1106128" transform="translate(-495 -5088)">
    <rect id="Rectangle_405660" data-name="Rectangle 405660" width="40" height="40" rx="5" transform="translate(495 5088)" fill="#6018ec"/>
    <path id="data-model" d="M24.013,1.5c0-.883-1.85-1.5-4.5-1.5s-4.5.617-4.5,1.5H15V4H9V1.5C9,.617,7.15,0,4.5,0S0,.617,0,1.5V8.833C0,10.04,1.262,10.8,3.5,10.964v2.069c-2.1.136-3.5.7-3.5,1.467v7.333C0,23.21,1.64,24,4.5,24S9,23.21,9,21.833V14.5c0-.767-1.4-1.332-3.5-1.467V10.964a5.416,5.416,0,0,0,2.8-.82L15,15.912v5.921C15,23.21,16.64,24,19.5,24s4.5-.79,4.5-2.167V14.5c0-.883-1.85-1.5-4.5-1.5a8.123,8.123,0,0,0-3.947.749L9,8.111V6h6V8.833C15,10.21,16.64,11,19.5,11S24,10.21,24,8.833C24,8.833,24.013,1.517,24.013,1.5ZM7,2.773V4.511A4.784,4.784,0,0,1,4.5,5,4.966,4.966,0,0,1,2,4.542V2.772A12.562,12.562,0,0,0,4.5,3,12.562,12.562,0,0,0,7,2.772ZM7,17.511A4.784,4.784,0,0,1,4.5,18,4.966,4.966,0,0,1,2,17.542v-1.77A12.562,12.562,0,0,0,4.5,16,12.562,12.562,0,0,0,7,15.772V17.51ZM4.5,22A5.963,5.963,0,0,1,2,21.606V19.678A8.687,8.687,0,0,0,4.5,20,8.539,8.539,0,0,0,7,19.668v1.938A5.98,5.98,0,0,1,4.5,22Zm0-13A5.963,5.963,0,0,1,2,8.606V6.678A8.687,8.687,0,0,0,4.5,7,8.539,8.539,0,0,0,7,6.668V8.606A5.98,5.98,0,0,1,4.5,9Zm15,13a5.963,5.963,0,0,1-2.5-.393V19.678A8.687,8.687,0,0,0,19.5,20a8.539,8.539,0,0,0,2.5-.331v1.938A5.98,5.98,0,0,1,19.5,22ZM22,15.772V17.51A4.784,4.784,0,0,1,19.5,18a4.966,4.966,0,0,1-2.5-.457v-1.77A12.562,12.562,0,0,0,19.5,16a12.562,12.562,0,0,0,2.5-.227Zm0-13V4.518A4.831,4.831,0,0,1,19.513,5,4.886,4.886,0,0,1,17,4.534V2.77A12.525,12.525,0,0,0,19.513,3,12.622,12.622,0,0,0,22,2.775ZM19.5,9A5.963,5.963,0,0,1,17,8.605V6.673A8.673,8.673,0,0,0,19.513,7,8.58,8.58,0,0,0,22,6.671V8.6A5.98,5.98,0,0,1,19.5,9Z" transform="translate(502.994 5096)" fill="#fff"/>
  </g>
</svg>
