<svg id="Group_1107157" data-name="Group 1107157" xmlns="http://www.w3.org/2000/svg" xmlns:xlink="http://www.w3.org/1999/xlink" width="175.434" height="218.501" viewBox="0 0 175.434 218.501">
  <defs>
    <clipPath id="clip-path">
      <rect id="Rectangle_406700" data-name="Rectangle 406700" width="175.434" height="218.501" fill="none"/>
    </clipPath>
    <clipPath id="clip-path-3">
      <rect id="Rectangle_406636" data-name="Rectangle 406636" width="41.947" height="23.161" fill="none"/>
    </clipPath>
    <clipPath id="clip-path-4">
      <rect id="Rectangle_406637" data-name="Rectangle 406637" width="13.731" height="13.854" fill="none"/>
    </clipPath>
    <clipPath id="clip-path-5">
      <rect id="Rectangle_406638" data-name="Rectangle 406638" width="3.831" height="3.694" fill="none"/>
    </clipPath>
    <clipPath id="clip-path-6">
      <rect id="Rectangle_406639" data-name="Rectangle 406639" width="4.901" height="5.445" fill="none"/>
    </clipPath>
    <clipPath id="clip-path-7">
      <rect id="Rectangle_406642" data-name="Rectangle 406642" width="66.97" height="42.196" fill="none"/>
    </clipPath>
    <clipPath id="clip-path-8">
      <path id="Path_885325" data-name="Path 885325" d="M165.053,224.985a12.328,12.328,0,1,0,12.328-12.328,12.328,12.328,0,0,0-12.328,12.328" transform="translate(-165.053 -212.657)" fill="none"/>
    </clipPath>
    <radialGradient id="radial-gradient" cx="0.5" cy="1.075" r="0.773" gradientTransform="translate(0)" gradientUnits="objectBoundingBox">
      <stop offset="0" stop-color="#edff5e"/>
      <stop offset="1" stop-color="#ffcb2c"/>
    </radialGradient>
    <clipPath id="clip-path-10">
      <rect id="Rectangle_406663" data-name="Rectangle 406663" width="23.43" height="10.103" fill="none"/>
    </clipPath>
    <clipPath id="clip-path-12">
      <rect id="Rectangle_406666" data-name="Rectangle 406666" width="37.427" height="10.021" fill="none"/>
    </clipPath>
    <clipPath id="clip-path-13">
      <rect id="Rectangle_406684" data-name="Rectangle 406684" width="91.321" height="48.376" fill="none"/>
    </clipPath>
    <clipPath id="clip-path-14">
      <rect id="Rectangle_406686" data-name="Rectangle 406686" width="9.823" height="28.853" fill="none"/>
    </clipPath>
    <clipPath id="clip-path-16">
      <rect id="Rectangle_406688" data-name="Rectangle 406688" width="9.106" height="26.392" fill="none"/>
    </clipPath>
    <clipPath id="clip-path-18">
      <rect id="Rectangle_406689" data-name="Rectangle 406689" width="9.138" height="21.245" fill="none"/>
    </clipPath>
    <clipPath id="clip-path-19">
      <rect id="Rectangle_406690" data-name="Rectangle 406690" width="10.736" height="7.518" fill="none"/>
    </clipPath>
    <clipPath id="clip-path-20">
      <rect id="Rectangle_406691" data-name="Rectangle 406691" width="102.616" height="68.898" fill="none"/>
    </clipPath>
    <clipPath id="clip-path-21">
      <rect id="Rectangle_406692" data-name="Rectangle 406692" width="61.913" height="4.2" fill="none"/>
    </clipPath>
    <clipPath id="clip-path-23">
      <rect id="Rectangle_406694" data-name="Rectangle 406694" width="14.906" height="36.035" fill="none"/>
    </clipPath>
    <clipPath id="clip-path-24">
      <rect id="Rectangle_406695" data-name="Rectangle 406695" width="14.836" height="26.924" fill="none"/>
    </clipPath>
    <clipPath id="clip-path-25">
      <rect id="Rectangle_406696" data-name="Rectangle 406696" width="2.466" height="6.124" fill="none"/>
    </clipPath>
    <clipPath id="clip-path-26">
      <rect id="Rectangle_406698" data-name="Rectangle 406698" width="20.213" height="14.094" fill="none"/>
    </clipPath>
  </defs>
  <g id="Group_1107156" data-name="Group 1107156" clip-path="url(#clip-path)">
    <g id="Group_1107100" data-name="Group 1107100">
      <g id="Group_1107099" data-name="Group 1107099" clip-path="url(#clip-path)">
        <path id="Path_885271" data-name="Path 885271" d="M75.149,90.533a10.979,10.979,0,1,0,10.979,10.979A10.979,10.979,0,0,0,75.149,90.533m0,18.1a7.122,7.122,0,1,1,7.122-7.122,7.122,7.122,0,0,1-7.122,7.122" transform="translate(-6.118 -8.631)" fill="#ffd997"/>
        <path id="Path_885272" data-name="Path 885272" d="M78.643,87.553H73.355l-.308,3.788h5.907Z" transform="translate(-6.964 -8.347)" fill="#ffd997"/>
        <path id="Path_885273" data-name="Path 885273" d="M78.643,117.255H73.355l-.308-3.786h5.907Z" transform="translate(-6.964 -10.818)" fill="#ffd997"/>
        <path id="Path_885274" data-name="Path 885274" d="M88.319,93.636l-3.742-3.742-2.895,2.46,4.174,4.175Z" transform="translate(-7.787 -8.57)" fill="#ffd997"/>
        <path id="Path_885275" data-name="Path 885275" d="M67.339,114.614l-3.74-3.74,2.46-2.9,4.175,4.175Z" transform="translate(-6.063 -10.294)" fill="#ffd997"/>
        <path id="Path_885276" data-name="Path 885276" d="M90.959,104.939V99.65l-3.788-.308v5.907Z" transform="translate(-8.311 -9.471)" fill="#ffd997"/>
        <path id="Path_885277" data-name="Path 885277" d="M61.258,104.939V99.65l3.788-.308v5.907Z" transform="translate(-5.84 -9.471)" fill="#ffd997"/>
        <path id="Path_885278" data-name="Path 885278" d="M84.579,114.614l3.742-3.74-2.46-2.9-4.175,4.175Z" transform="translate(-7.788 -10.294)" fill="#ffd997"/>
        <path id="Path_885279" data-name="Path 885279" d="M63.6,93.636l3.74-3.742,2.9,2.46-4.174,4.175Z" transform="translate(-6.063 -8.57)" fill="#ffd997"/>
        <path id="Path_885280" data-name="Path 885280" d="M155.278,143.22a22.25,22.25,0,1,1,22.255-22.249,22.251,22.251,0,0,1-22.255,22.249m0-43.947a21.7,21.7,0,1,0,21.7,21.7,21.7,21.7,0,0,0-21.7-21.7" transform="translate(-12.683 -9.412)" fill="#006099"/>
        <rect id="Rectangle_406634" data-name="Rectangle 406634" width="0.555" height="43.947" transform="translate(142.318 89.585)" fill="#006099"/>
        <rect id="Rectangle_406635" data-name="Rectangle 406635" width="43.947" height="0.555" transform="translate(120.622 111.282)" fill="#006099"/>
        <path id="Path_885281" data-name="Path 885281" d="M156.227,143.22c-7.3,0-13.233-9.981-13.233-22.249s5.936-22.255,13.233-22.255,13.233,9.981,13.233,22.255-5.936,22.249-13.233,22.249m0-43.947c-6.992,0-12.68,9.732-12.68,21.7s5.688,21.7,12.68,21.7,12.68-9.732,12.68-21.7-5.688-21.7-12.68-21.7" transform="translate(-13.632 -9.411)" fill="#006099"/>
        <path id="Path_885282" data-name="Path 885282" d="M155.741,109.873c-6.875,0-13.241-.755-17.465-2.073l-.38-.119.243-.315a22.238,22.238,0,0,1,35.2,0l.244.315-.38.119c-4.226,1.317-10.592,2.073-17.466,2.073m-16.917-2.484a64.148,64.148,0,0,0,16.917,1.931,64.125,64.125,0,0,0,16.917-1.931,21.685,21.685,0,0,0-33.829,0Z" transform="translate(-13.146 -9.411)" fill="#006099"/>
        <path id="Path_885283" data-name="Path 885283" d="M155.741,146.735a22.114,22.114,0,0,1-17.6-8.647l-.243-.315.38-.119c4.225-1.317,10.591-2.073,17.465-2.073s13.241.755,17.465,2.073l.38.119-.244.315a22.112,22.112,0,0,1-17.6,8.647m-16.917-8.669a21.685,21.685,0,0,0,33.829,0,64.148,64.148,0,0,0-16.917-1.931,64.092,64.092,0,0,0-16.908,1.93Z" transform="translate(-13.146 -12.926)" fill="#006099"/>
        <path id="Path_885284" data-name="Path 885284" d="M158.907,145.312c3.341-.156,6.285-3.081,8.077-7.487a65.858,65.858,0,0,0-8.077-.5Z" transform="translate(-15.149 -13.092)" fill="#016cb6"/>
        <path id="Path_885285" data-name="Path 885285" d="M158.907,133.739a69.635,69.635,0,0,1,8.768.557,28.54,28.54,0,0,0,1.711-9.689H158.907Z" transform="translate(-15.149 -11.879)" fill="#016cb6"/>
        <path id="Path_885286" data-name="Path 885286" d="M169.689,107.839a27.107,27.107,0,0,0,4.161-.882c-2.9-2.789-6.237-5.225-9.363-5.964a17.617,17.617,0,0,1,5.2,6.847" transform="translate(-15.681 -9.628)" fill="#016cb6"/>
        <path id="Path_885287" data-name="Path 885287" d="M158.907,108.51a66.451,66.451,0,0,0,8.179-.508c-1.815-4.462-4.795-7.424-8.179-7.582Z" transform="translate(-15.149 -9.574)" fill="#016cb6"/>
        <path id="Path_885288" data-name="Path 885288" d="M176.028,109.791a36.376,36.376,0,0,1-5.206,1.1,29.669,29.669,0,0,1,1.752,10h7.276a18.8,18.8,0,0,0-3.822-11.093" transform="translate(-16.285 -10.467)" fill="#016cb6"/>
        <path id="Path_885289" data-name="Path 885289" d="M158.907,121.085h10.67a29.024,29.024,0,0,0-1.741-9.861,70.978,70.978,0,0,1-8.928.567Z" transform="translate(-15.149 -10.604)" fill="#016cb6"/>
        <path id="Path_885290" data-name="Path 885290" d="M179.833,124.607H172.6a29.527,29.527,0,0,1-1.744,9.951,36.15,36.15,0,0,1,5.181,1.092,18.723,18.723,0,0,0,3.8-11.043" transform="translate(-16.288 -11.879)" fill="#016cb6"/>
        <path id="Path_885291" data-name="Path 885291" d="M169.689,138.141a27.112,27.112,0,0,1,4.161.883c-2.9,2.789-6.237,5.225-9.363,5.964a17.6,17.6,0,0,0,5.2-6.846" transform="translate(-15.681 -13.17)" fill="#016cb6"/>
        <path id="Path_885292" data-name="Path 885292" d="M155.476,145.312c-3.341-.156-6.285-3.081-8.077-7.487a65.858,65.858,0,0,1,8.077-.5Z" transform="translate(-14.052 -13.092)" fill="#016cb6"/>
        <path id="Path_885293" data-name="Path 885293" d="M155.228,133.739a69.635,69.635,0,0,0-8.768.557,28.54,28.54,0,0,1-1.711-9.689h10.478v9.132Z" transform="translate(-13.8 -11.879)" fill="#016cb6"/>
        <path id="Path_885294" data-name="Path 885294" d="M144.563,107.839a27.108,27.108,0,0,1-4.161-.882c2.9-2.789,6.237-5.225,9.363-5.964a17.609,17.609,0,0,0-5.2,6.847" transform="translate(-13.385 -9.628)" fill="#016cb6"/>
        <path id="Path_885295" data-name="Path 885295" d="M155.469,108.51a66.466,66.466,0,0,1-8.18-.508c1.815-4.462,4.795-7.424,8.18-7.582Z" transform="translate(-14.042 -9.574)" fill="#016cb6"/>
        <path id="Path_885296" data-name="Path 885296" d="M138.258,109.791a36.376,36.376,0,0,0,5.206,1.1,29.692,29.692,0,0,0-1.753,10h-7.276a18.809,18.809,0,0,1,3.823-11.093" transform="translate(-12.816 -10.467)" fill="#016cb6"/>
        <path id="Path_885297" data-name="Path 885297" d="M155.208,121.085h-10.67a29.024,29.024,0,0,1,1.741-9.861,70.977,70.977,0,0,0,8.928.567Z" transform="translate(-13.78 -10.604)" fill="#016cb6"/>
        <path id="Path_885298" data-name="Path 885298" d="M134.463,124.607H141.7a29.527,29.527,0,0,0,1.744,9.951,36.15,36.15,0,0,0-5.181,1.092,18.711,18.711,0,0,1-3.8-11.043" transform="translate(-12.819 -11.879)" fill="#016cb6"/>
        <path id="Path_885299" data-name="Path 885299" d="M144.563,138.141a27.112,27.112,0,0,0-4.161.883c2.9,2.789,6.237,5.225,9.363,5.964a17.6,17.6,0,0,1-5.2-6.846" transform="translate(-13.385 -13.17)" fill="#016cb6"/>
        <g id="Group_1107086" data-name="Group 1107086" transform="translate(121.618 109.059)" opacity="0.5">
          <g id="Group_1107085" data-name="Group 1107085">
            <g id="Group_1107084" data-name="Group 1107084" clip-path="url(#clip-path-3)">
              <path id="Path_885300" data-name="Path 885300" d="M158.906,137.324v7.988c3.341-.156,6.285-3.081,8.077-7.487a65.677,65.677,0,0,0-8.077-.5" transform="translate(-136.767 -122.151)" fill="#016cb6"/>
              <path id="Path_885301" data-name="Path 885301" d="M167.674,134.855a26.044,26.044,0,0,0,1.2-4.348,24.406,24.406,0,0,1-9.964,2.629V134.3a69.641,69.641,0,0,1,8.768.552" transform="translate(-136.767 -121.501)" fill="#016cb6"/>
              <path id="Path_885302" data-name="Path 885302" d="M180.627,120.558q-.427.691-.9,1.352h.971c-.007-.455-.033-.906-.072-1.352" transform="translate(-138.752 -120.553)" fill="#016cb6"/>
              <path id="Path_885303" data-name="Path 885303" d="M176.027,135.648a18.713,18.713,0,0,0,3.805-11.037h-2.824a24.636,24.636,0,0,1-4.7,4,27.827,27.827,0,0,1-1.459,5.948,36.313,36.313,0,0,1,5.183,1.089" transform="translate(-137.905 -120.939)" fill="#016cb6"/>
              <path id="Path_885304" data-name="Path 885304" d="M164.491,144.988c3.127-.738,6.462-3.175,9.363-5.964a27.107,27.107,0,0,0-4.161-.882,17.587,17.587,0,0,1-5.2,6.846" transform="translate(-137.3 -122.229)" fill="#016cb6"/>
              <path id="Path_885305" data-name="Path 885305" d="M155.475,145.312v-7.988a65.677,65.677,0,0,0-8.077.5c1.8,4.406,4.74,7.332,8.077,7.487" transform="translate(-135.67 -122.151)" fill="#016cb6"/>
              <path id="Path_885306" data-name="Path 885306" d="M155.282,134.3v-1.165a24.413,24.413,0,0,1-9.964-2.624,25.974,25.974,0,0,0,1.2,4.351,69.63,69.63,0,0,1,8.768-.563" transform="translate(-135.472 -121.502)" fill="#016cb6"/>
              <path id="Path_885307" data-name="Path 885307" d="M135.412,121.909q-.475-.664-.9-1.357c-.039.452-.066.9-.073,1.357Z" transform="translate(-134.434 -120.552)" fill="#016cb6"/>
              <path id="Path_885308" data-name="Path 885308" d="M138.263,135.648a36.145,36.145,0,0,1,5.181-1.092,27.858,27.858,0,0,1-1.461-5.953,24.64,24.64,0,0,1-4.694-3.994h-2.825a18.715,18.715,0,0,0,3.8,11.039" transform="translate(-134.437 -120.939)" fill="#016cb6"/>
              <path id="Path_885309" data-name="Path 885309" d="M144.562,138.142a27.107,27.107,0,0,0-4.161.882c2.9,2.79,6.237,5.226,9.363,5.964a17.609,17.609,0,0,1-5.2-6.846" transform="translate(-135.003 -122.229)" fill="#016cb6"/>
            </g>
          </g>
        </g>
        <path id="Path_885310" data-name="Path 885310" d="M168.188,146.439a7.4,7.4,0,0,1,1.732-4.838,5.247,5.247,0,0,1,7.182,0,7.408,7.408,0,0,1,1.736,4.837l-2.347-.049a4.984,4.984,0,0,0-1.072-3.153,2.918,2.918,0,0,0-3.815,0,4.978,4.978,0,0,0-1.069,3.157Z" transform="translate(-16.034 -13.364)" fill="#ffda78"/>
        <path id="Path_885311" data-name="Path 885311" d="M178.182,146.648h-9.874a2.011,2.011,0,0,0-2.009,2.009v9.874a2.009,2.009,0,0,0,2.009,2.009h9.874a2.009,2.009,0,0,0,2.009-2.009v-9.874a2.011,2.011,0,0,0-2.009-2.009m-3.613,10.463H171.9l.581-3.709a1.344,1.344,0,1,1,1.509.014Z" transform="translate(-15.854 -13.981)" fill="#ffda78"/>
        <g id="Group_1107089" data-name="Group 1107089" transform="translate(150.691 132.724)" opacity="0.4" style="isolation: isolate">
          <g id="Group_1107088" data-name="Group 1107088">
            <g id="Group_1107087" data-name="Group 1107087" clip-path="url(#clip-path-4)">
              <path id="Path_885312" data-name="Path 885312" d="M178.674,146.711a2,2,0,0,1,.162.789v9.874a2.009,2.009,0,0,1-2.009,2.009h-9.874a2,2,0,0,1-.381-.039,2.009,2.009,0,0,0,1.848,1.221h9.874a2.009,2.009,0,0,0,2.009-2.009V148.68a2.008,2.008,0,0,0-1.628-1.969" transform="translate(-166.571 -146.711)" fill="#ffda78"/>
            </g>
          </g>
        </g>
        <path id="Path_885313" data-name="Path 885313" d="M178.246,160.188h-9.873a2.288,2.288,0,0,1-2.287-2.287v-9.874a2.288,2.288,0,0,1,1.646-2.194,7.285,7.285,0,0,1,1.789-4.455,5.519,5.519,0,0,1,7.578,0,7.292,7.292,0,0,1,1.793,4.457,2.289,2.289,0,0,1,1.64,2.192V157.9a2.288,2.288,0,0,1-2.287,2.287m-4.937-19.761a4.556,4.556,0,0,0-3.393,1.339,6.86,6.86,0,0,0-1.645,4.3l-.011.218-.214.041a1.732,1.732,0,0,0-1.407,1.7V157.9a1.735,1.735,0,0,0,1.733,1.733h9.874a1.735,1.735,0,0,0,1.733-1.733v-9.874a1.732,1.732,0,0,0-1.4-1.7l-.214-.042-.011-.217a6.864,6.864,0,0,0-1.649-4.3A4.565,4.565,0,0,0,173.309,140.427Zm1.647,16.33h-3.315l.606-3.87a1.621,1.621,0,1,1,2.287-.159,1.65,1.65,0,0,1-.179.176Zm-2.668-.554h2.02l-.556-3.553.147-.1a1.069,1.069,0,1,0-1.481-.3,1.081,1.081,0,0,0,.284.29l.142.1Zm4.284-9.91H170.05l.021-.3a5.1,5.1,0,0,1,1.134-2.985,3.19,3.19,0,0,1,4.208,0A5.1,5.1,0,0,1,176.55,146Zm-5.92-.555h5.316a4.238,4.238,0,0,0-.949-2.339,2.646,2.646,0,0,0-3.421,0,4.235,4.235,0,0,0-.946,2.339" transform="translate(-15.834 -13.335)" fill="#fcb738"/>
        <g id="Group_1107092" data-name="Group 1107092" transform="translate(151.433 133.728)" opacity="0.2" style="isolation: isolate">
          <g id="Group_1107091" data-name="Group 1107091">
            <g id="Group_1107090" data-name="Group 1107090" clip-path="url(#clip-path-5)">
              <path id="Path_885314" data-name="Path 885314" d="M167.42,151.516s-.157-2.906.265-3.393,3.537-.236,3.537-.236a5.458,5.458,0,0,0-3.8,3.63" transform="translate(-167.391 -147.821)" fill="#fff"/>
            </g>
          </g>
        </g>
        <g id="Group_1107095" data-name="Group 1107095" transform="translate(152.655 127.499)" opacity="0.4" style="isolation: isolate">
          <g id="Group_1107094" data-name="Group 1107094">
            <g id="Group_1107093" data-name="Group 1107093" clip-path="url(#clip-path-6)">
              <path id="Path_885315" data-name="Path 885315" d="M168.742,146.38h.784s.292-4.711,4.117-5.428c0,0-4.246-.594-4.9,5.428" transform="translate(-168.742 -140.935)" fill="#fff"/>
            </g>
          </g>
        </g>
        <rect id="Rectangle_406640" data-name="Rectangle 406640" width="66.972" height="42.201" rx="4.2" transform="translate(101.508 165.506)" fill="#302d39"/>
        <path id="Path_885316" data-name="Path 885316" d="M180.921,208.756a.524.524,0,0,0,.524.524h1.7a.524.524,0,0,0,.524-.524v-5.271a.524.524,0,0,0-.524-.524h-1.7a.523.523,0,0,0-.523.524Zm1.909-5.389a.523.523,0,0,1,.523.524v4.46a.523.523,0,0,1-.523.524h-1.074a.524.524,0,0,1-.524-.524v-4.46a.524.524,0,0,1,.524-.524Z" transform="translate(-17.248 -19.35)" fill="#fff"/>
        <rect id="Rectangle_406641" data-name="Rectangle 406641" width="53.745" height="36.112" transform="translate(106.576 168.549)" fill="#fff"/>
        <g id="Group_1107098" data-name="Group 1107098" transform="translate(101.511 165.507)" opacity="0.1">
          <g id="Group_1107097" data-name="Group 1107097">
            <g id="Group_1107096" data-name="Group 1107096" clip-path="url(#clip-path-7)">
              <path id="Path_885317" data-name="Path 885317" d="M120.674,182.949l-8.466,9.349v29.05a3.793,3.793,0,0,0,1.9,3.288c5.8-9.288,19.564-31.1,26.254-41.687Z" transform="translate(-112.208 -182.949)" fill="#fff"/>
              <path id="Path_885318" data-name="Path 885318" d="M159.576,225.145c5.285-9.589,14.486-25.63,21.068-37.04v-1.357a3.8,3.8,0,0,0-3.8-3.8H152.625l-25.02,42.2Z" transform="translate(-113.676 -182.949)" fill="#fff"/>
              <path id="Path_885319" data-name="Path 885319" d="M180.818,226.719a3.8,3.8,0,0,0,3.8-3.8V199.461l-15.362,27.258Z" transform="translate(-117.647 -184.523)" fill="#fff"/>
            </g>
          </g>
        </g>
        <rect id="Rectangle_406643" data-name="Rectangle 406643" width="53.745" height="3.989" transform="translate(106.576 168.549)" fill="#a6a9d6"/>
        <rect id="Rectangle_406644" data-name="Rectangle 406644" width="10.925" height="11.682" transform="translate(109.444 175.019)" fill="#a6a9d6"/>
        <rect id="Rectangle_406645" data-name="Rectangle 406645" width="10.196" height="10.904" transform="translate(109.807 175.409)" fill="#c9d1f0"/>
        <path id="Path_885320" data-name="Path 885320" d="M130.248,204.578c0-1.784-.738-3.229-2.378-3.229H125.4c-1.639,0-2.377,1.447-2.377,3.229v.931h7.229Z" transform="translate(-11.728 -19.196)" fill="#8f98c1"/>
        <path id="Path_885321" data-name="Path 885321" d="M126.8,195.536a2.49,2.49,0,1,1-2.075,2.455,2.29,2.29,0,0,1,2.075-2.455" transform="translate(-11.89 -18.642)" fill="#8f98c1"/>
        <rect id="Rectangle_406646" data-name="Rectangle 406646" width="8.228" height="1.827" transform="translate(110.791 187.755)" fill="#a6a9d6"/>
        <rect id="Rectangle_406647" data-name="Rectangle 406647" width="8.228" height="1.827" transform="translate(110.791 200.564)" fill="#a6a9d6"/>
        <rect id="Rectangle_406648" data-name="Rectangle 406648" width="8.831" height="1.999" transform="translate(123.78 175.409)" fill="#a6a9d6"/>
        <rect id="Rectangle_406649" data-name="Rectangle 406649" width="3.678" height="3.591" transform="translate(123.78 195.418)" fill="#a6a9d6"/>
        <rect id="Rectangle_406650" data-name="Rectangle 406650" width="46.268" height="0.377" transform="translate(109.807 192.121)" fill="#a6a9d6"/>
        <rect id="Rectangle_406651" data-name="Rectangle 406651" width="32.295" height="2.02" transform="translate(123.78 179.792)" fill="#c9d1f0"/>
        <rect id="Rectangle_406652" data-name="Rectangle 406652" width="25.649" height="1.011" transform="translate(130.426 195.418)" fill="#c9d1f0"/>
        <rect id="Rectangle_406653" data-name="Rectangle 406653" width="25.649" height="1.011" transform="translate(130.426 197.998)" fill="#c9d1f0"/>
        <rect id="Rectangle_406654" data-name="Rectangle 406654" width="3.678" height="3.184" transform="translate(123.78 201.477)" fill="#a6a9d6"/>
        <rect id="Rectangle_406655" data-name="Rectangle 406655" width="25.649" height="1.011" transform="translate(130.426 201.477)" fill="#c9d1f0"/>
        <rect id="Rectangle_406656" data-name="Rectangle 406656" width="25.649" height="0.604" transform="translate(130.426 204.058)" fill="#c9d1f0"/>
        <rect id="Rectangle_406657" data-name="Rectangle 406657" width="32.295" height="2.02" transform="translate(123.78 183.676)" fill="#c9d1f0"/>
        <rect id="Rectangle_406658" data-name="Rectangle 406658" width="32.295" height="2.02" transform="translate(123.78 187.56)" fill="#c9d1f0"/>
        <rect id="Rectangle_406659" data-name="Rectangle 406659" width="3.591" height="3.591" transform="translate(110.825 195.418)" fill="#c9d1f0"/>
        <rect id="Rectangle_406660" data-name="Rectangle 406660" width="3.591" height="3.591" transform="translate(115.395 195.418)" fill="#c9d1f0"/>
        <path id="Path_885322" data-name="Path 885322" d="M171.817,222.69H117.479V185.984h54.338Zm-53.745-.593h53.153v-35.52H118.072Z" transform="translate(-11.2 -17.731)" fill="#706c7f"/>
        <path id="Path_885323" data-name="Path 885323" d="M164.009,220.881a13.79,13.79,0,1,1,9.268,17.159,13.79,13.79,0,0,1-9.268-17.159" transform="translate(-15.581 -20.119)" fill="#302d39"/>
        <path id="Path_885324" data-name="Path 885324" d="M177.279,211.587a13.3,13.3,0,1,1-13.3,13.3,13.3,13.3,0,0,1,13.3-13.3" transform="translate(-15.633 -20.172)" fill="#fff"/>
      </g>
    </g>
    <g id="Group_1107102" data-name="Group 1107102" transform="translate(149.318 192.383)">
      <g id="Group_1107101" data-name="Group 1107101" clip-path="url(#clip-path-8)">
        <rect id="Rectangle_406662" data-name="Rectangle 406662" width="24.656" height="24.656" transform="translate(0)" fill="url(#radial-gradient)"/>
      </g>
    </g>
    <g id="Group_1107155" data-name="Group 1107155">
      <g id="Group_1107154" data-name="Group 1107154" clip-path="url(#clip-path)">
        <path id="Path_885326" data-name="Path 885326" d="M186.859,223.263s-2.262-6.677-9.143-6.677-9.143,6.677-9.143,6.677h8.435v8.383a1.081,1.081,0,0,1-1.078,1.078,1.125,1.125,0,0,1-1.125-1.125.7.7,0,0,0-1.408,0,2.534,2.534,0,0,0,2.533,2.533,2.489,2.489,0,0,0,2.486-2.485v-8.383Z" transform="translate(-16.071 -20.648)" fill="#302d39"/>
        <g id="Group_1107105" data-name="Group 1107105" transform="translate(149.949 192.923)" opacity="0.2" style="isolation: isolate">
          <g id="Group_1107104" data-name="Group 1107104">
            <g id="Group_1107103" data-name="Group 1107103" clip-path="url(#clip-path-10)">
              <path id="Path_885327" data-name="Path 885327" d="M177.262,220.227A22.752,22.752,0,0,0,165.75,223.1a11.868,11.868,0,0,1,23.431.254,22.42,22.42,0,0,0-11.919-3.129" transform="translate(-165.751 -213.253)" fill="#fff"/>
            </g>
          </g>
        </g>
        <g id="Group_1107108" data-name="Group 1107108" transform="translate(149.949 206.485)" opacity="0.2" style="isolation: isolate">
          <g id="Group_1107107" data-name="Group 1107107">
            <g id="Group_1107106" data-name="Group 1107106" clip-path="url(#clip-path-10)">
              <path id="Path_885328" data-name="Path 885328" d="M177.262,231.374A22.752,22.752,0,0,1,165.75,228.5a11.868,11.868,0,0,0,23.431-.254,22.42,22.42,0,0,1-11.919,3.129" transform="translate(-165.751 -228.245)" fill="#ffcb2c"/>
            </g>
          </g>
        </g>
        <rect id="Rectangle_406665" data-name="Rectangle 406665" width="102.612" height="68.897" rx="7.793" transform="translate(22.275 101.081)" fill="#016cb6"/>
        <path id="Path_885329" data-name="Path 885329" d="M120.141,181.005H31.629a7.477,7.477,0,0,1-7.47-7.469v-54.8a7.477,7.477,0,0,1,7.47-7.47h88.512a7.477,7.477,0,0,1,7.469,7.47v54.8a7.478,7.478,0,0,1-7.469,7.469m-88.511-68.9A6.64,6.64,0,0,0,25,118.739v54.8a6.64,6.64,0,0,0,6.631,6.631h88.512a6.638,6.638,0,0,0,6.631-6.631v-54.8a6.638,6.638,0,0,0-6.631-6.631Z" transform="translate(-2.303 -10.608)" fill="#302d39"/>
        <path id="Path_885330" data-name="Path 885330" d="M127.235,179.573a7.05,7.05,0,0,1-7.05,7.05H31.673a7.05,7.05,0,0,1-7.05-7.05v-4.957H127.235Z" transform="translate(-2.347 -16.647)" fill="#302d39"/>
        <path id="Path_885331" data-name="Path 885331" d="M89.111,201.04H71.73l2.513-18.009H86.6Z" transform="translate(-6.838 -17.449)" fill="#302d39"/>
        <path id="Path_885332" data-name="Path 885332" d="M99.412,207.728a4.055,4.055,0,0,0-3.528-4.022L87.9,202.66H70.516l-7.987,1.046A4.056,4.056,0,0,0,59,207.728Z" transform="translate(-5.625 -19.321)" fill="#302d39"/>
        <path id="Path_885333" data-name="Path 885333" d="M80.968,177.412a3.49,3.49,0,1,0,3.49,3.49,3.49,3.49,0,0,0-3.49-3.49m0,6.212A2.722,2.722,0,1,1,83.69,180.9a2.722,2.722,0,0,1-2.722,2.722" transform="translate(-7.386 -16.914)" fill="#fff"/>
        <path id="Path_885334" data-name="Path 885334" d="M92.077,180.1a1.134,1.134,0,1,1-1.134,1.134,1.134,1.134,0,0,1,1.134-1.134" transform="translate(-8.67 -17.17)" fill="#fff"/>
        <path id="Path_885335" data-name="Path 885335" d="M98.5,180.1a1.134,1.134,0,1,1-1.134,1.134A1.134,1.134,0,0,1,98.5,180.1" transform="translate(-9.283 -17.17)" fill="#fff"/>
        <g id="Group_1107111" data-name="Group 1107111" transform="translate(54.869 175.246)" opacity="0.1" style="isolation: isolate">
          <g id="Group_1107110" data-name="Group 1107110">
            <g id="Group_1107109" data-name="Group 1107109" clip-path="url(#clip-path-12)">
              <path id="Path_885336" data-name="Path 885336" d="M96.042,202.853l-7.987-1.046L86.9,193.713l-7.426.663-1.223,7.543L60.841,203.6c-.063.046-.13.09-.19.135H98.078a4.038,4.038,0,0,0-2.036-.881" transform="translate(-60.651 -193.713)" fill="#fff"/>
            </g>
          </g>
        </g>
        <rect id="Rectangle_406667" data-name="Rectangle 406667" width="4.467" height="4.467" transform="translate(31.525 110.365)" fill="#c0daff"/>
        <rect id="Rectangle_406668" data-name="Rectangle 406668" width="4.467" height="1.047" transform="translate(31.525 115.74)" fill="#c0daff"/>
        <rect id="Rectangle_406669" data-name="Rectangle 406669" width="4.467" height="4.467" transform="translate(39.063 110.365)" fill="#c0daff"/>
        <rect id="Rectangle_406670" data-name="Rectangle 406670" width="4.467" height="1.047" transform="translate(39.063 115.74)" fill="#c0daff"/>
        <rect id="Rectangle_406671" data-name="Rectangle 406671" width="4.467" height="4.467" transform="translate(31.525 120.277)" fill="#c0daff"/>
        <rect id="Rectangle_406672" data-name="Rectangle 406672" width="4.467" height="1.047" transform="translate(31.525 125.652)" fill="#c0daff"/>
        <rect id="Rectangle_406673" data-name="Rectangle 406673" width="4.467" height="4.467" transform="translate(39.063 120.277)" fill="#c0daff"/>
        <rect id="Rectangle_406674" data-name="Rectangle 406674" width="4.467" height="1.047" transform="translate(39.063 125.652)" fill="#c0daff"/>
        <rect id="Rectangle_406675" data-name="Rectangle 406675" width="4.467" height="4.467" transform="translate(31.525 130.467)" fill="#c0daff"/>
        <rect id="Rectangle_406676" data-name="Rectangle 406676" width="4.467" height="1.047" transform="translate(31.525 135.843)" fill="#c0daff"/>
        <rect id="Rectangle_406677" data-name="Rectangle 406677" width="4.467" height="4.467" transform="translate(39.063 130.467)" fill="#c0daff"/>
        <rect id="Rectangle_406678" data-name="Rectangle 406678" width="4.467" height="1.047" transform="translate(39.063 135.843)" fill="#c0daff"/>
        <rect id="Rectangle_406679" data-name="Rectangle 406679" width="4.467" height="4.467" transform="translate(111.968 146.412)" fill="#c0daff"/>
        <rect id="Rectangle_406680" data-name="Rectangle 406680" width="4.467" height="1.047" transform="translate(111.968 151.786)" fill="#c0daff"/>
        <rect id="Rectangle_406681" data-name="Rectangle 406681" width="4.467" height="4.467" transform="translate(104.603 146.412)" fill="#c0daff"/>
        <rect id="Rectangle_406682" data-name="Rectangle 406682" width="4.467" height="1.047" transform="translate(104.603 151.786)" fill="#c0daff"/>
        <g id="Group_1107114" data-name="Group 1107114" transform="translate(28.332 107.364)" opacity="0.3">
          <g id="Group_1107113" data-name="Group 1107113">
            <g id="Group_1107112" data-name="Group 1107112" clip-path="url(#clip-path-13)">
              <rect id="Rectangle_406683" data-name="Rectangle 406683" width="91.32" height="48.375" transform="translate(0)" fill="#0062a3"/>
            </g>
          </g>
        </g>
        <path id="Path_885337" data-name="Path 885337" d="M90.149,131.055a.681.681,0,0,0-.5-.667,39.8,39.8,0,0,0-9.363-1.077A38.767,38.767,0,0,0,71,130.387a.681.681,0,0,0-.5.666v19.4a.7.7,0,0,0,.251.543l9.2,7.036a.641.641,0,0,0,.821,0l9.124-7.034a.7.7,0,0,0,.249-.536v-19.4Z" transform="translate(-6.721 -12.328)" fill="#ffda78"/>
        <path id="Path_885338" data-name="Path 885338" d="M71,130.676a.675.675,0,0,0-.494.664v.09l.06,9.527.025,9.589a.692.692,0,0,0,.25.533l9.116,6.966a.634.634,0,0,0,.814,0l2.289-1.757,6.753-5.206a.692.692,0,0,0,.248-.531l.031-9.6.059-9.528v-.09a.676.676,0,0,0-.5-.665,36.68,36.68,0,0,0-4.631-.8,43.175,43.175,0,0,0-4.738-.263A39.482,39.482,0,0,0,71,130.676" transform="translate(-6.722 -12.356)" fill="#ffd977"/>
        <path id="Path_885339" data-name="Path 885339" d="M70.989,130.966a.669.669,0,0,0-.484.661v.09l.12,9.447.052,9.485a.686.686,0,0,0,.248.527l9.028,6.9a.633.633,0,0,0,.8,0c.006.005,2.262-1.728,2.269-1.733l6.695-5.157a.686.686,0,0,0,.246-.526l.061-9.493.119-9.448v-.09a.668.668,0,0,0-.486-.662,37.213,37.213,0,0,0-4.635-.789,43.668,43.668,0,0,0-4.74-.26,40.078,40.078,0,0,0-9.295,1.047" transform="translate(-6.722 -12.386)" fill="#ffd976"/>
        <path id="Path_885340" data-name="Path 885340" d="M70.983,131.255a.663.663,0,0,0-.475.66V132l.181,9.369.077,9.379a.679.679,0,0,0,.246.521l8.94,6.832a.625.625,0,0,0,.794,0c.009.008,2.241-1.7,2.25-1.71l6.631-5.112a.68.68,0,0,0,.245-.52l.09-9.39L90.144,132v-.09a.663.663,0,0,0-.477-.66,37.764,37.764,0,0,0-4.638-.779,44.4,44.4,0,0,0-4.742-.256,40.805,40.805,0,0,0-9.3,1.037" transform="translate(-6.722 -12.414)" fill="#ffd875"/>
        <path id="Path_885341" data-name="Path 885341" d="M70.977,131.543a.655.655,0,0,0-.466.657v.09l.239,9.29.1,9.273a.671.671,0,0,0,.244.515l8.85,6.764a.619.619,0,0,0,.786,0c.013.01,2.218-1.676,2.231-1.687l6.569-5.066a.679.679,0,0,0,.243-.514l.122-9.288.237-9.291v-.09a.658.658,0,0,0-.468-.658,38.4,38.4,0,0,0-4.643-.768,45.161,45.161,0,0,0-4.744-.252,41.473,41.473,0,0,0-9.3,1.021" transform="translate(-6.722 -12.443)" fill="#ffd874"/>
        <path id="Path_885342" data-name="Path 885342" d="M70.971,131.834a.652.652,0,0,0-.457.655v.09l.3,9.21.128,9.166a.669.669,0,0,0,.242.509l8.762,6.695a.615.615,0,0,0,.777.006c.015.013,2.2-1.651,2.211-1.664l6.507-5.017a.672.672,0,0,0,.242-.509l.152-9.185.3-9.211v-.09a.651.651,0,0,0-.459-.656,38.991,38.991,0,0,0-4.646-.757,45.956,45.956,0,0,0-4.747-.249,42.054,42.054,0,0,0-9.308,1.007" transform="translate(-6.722 -12.472)" fill="#ffd873"/>
        <path id="Path_885343" data-name="Path 885343" d="M70.965,132.125a.644.644,0,0,0-.448.653v.09L70.879,142l.153,9.059a.665.665,0,0,0,.241.5l8.673,6.628a.608.608,0,0,0,.769.007c.019.015,2.171-1.628,2.192-1.641l6.447-4.969a.669.669,0,0,0,.241-.5L89.774,142l.356-9.132v-.09a.646.646,0,0,0-.452-.653,39.577,39.577,0,0,0-4.65-.746,46.528,46.528,0,0,0-4.749-.246,42.758,42.758,0,0,0-9.314.991" transform="translate(-6.723 -12.502)" fill="#ffd872"/>
        <path id="Path_885344" data-name="Path 885344" d="M70.958,132.413a.64.64,0,0,0-.439.65.605.605,0,0,0,0,.09l.418,9.053.181,8.956a.656.656,0,0,0,.239.5l8.584,6.561a.6.6,0,0,0,.76.009c.022.018,2.15-1.6,2.171-1.618l6.385-4.922a.662.662,0,0,0,.239-.5l.214-8.98.415-9.053v-.09a.64.64,0,0,0-.441-.651,40.031,40.031,0,0,0-4.654-.736,47.369,47.369,0,0,0-4.752-.242,43.426,43.426,0,0,0-9.325.974" transform="translate(-6.723 -12.531)" fill="#ffd771"/>
        <path id="Path_885345" data-name="Path 885345" d="M70.952,132.7a.634.634,0,0,0-.43.648.532.532,0,0,0,.005.09l.479,8.973.2,8.847a.654.654,0,0,0,.236.491l8.5,6.493a.6.6,0,0,0,.752.011c.025.021,2.129-1.574,2.153-1.595l6.323-4.875a.661.661,0,0,0,.238-.492l.243-8.877.473-8.974a.554.554,0,0,1,0-.086.633.633,0,0,0-.431-.65,40.675,40.675,0,0,0-4.657-.724c-1.232-.139-3.176-.239-4.754-.239a44.276,44.276,0,0,0-9.335.959" transform="translate(-6.723 -12.56)" fill="#ffd670"/>
        <path id="Path_885346" data-name="Path 885346" d="M70.944,132.992a.634.634,0,0,0-.421.645.462.462,0,0,0,.006.09l.538,8.894.23,8.74a.645.645,0,0,0,.235.486l8.407,6.423a.592.592,0,0,0,.743.012c.028.024,2.106-1.549,2.134-1.572l6.262-4.827a.657.657,0,0,0,.236-.486l.271-8.775.533-8.895a.529.529,0,0,1,0-.084.633.633,0,0,0-.422-.648,41.147,41.147,0,0,0-4.661-.716c-1.214-.138-3.2-.235-4.757-.235a45.063,45.063,0,0,0-9.341.948" transform="translate(-6.723 -12.588)" fill="#ffd66f"/>
        <path id="Path_885347" data-name="Path 885347" d="M70.939,133.282a.622.622,0,0,0-.411.643s0,.085.006.09l.6,8.815.255,8.634a.641.641,0,0,0,.233.479l8.318,6.357a.586.586,0,0,0,.734.014c.032.026,2.081-1.523,2.115-1.549l6.2-4.78a.65.65,0,0,0,.234-.481l.3-8.673.593-8.816a.447.447,0,0,1,.005-.084.622.622,0,0,0-.413-.645,42.046,42.046,0,0,0-4.664-.7c-1.2-.135-3.226-.232-4.759-.232a45.773,45.773,0,0,0-9.35.932" transform="translate(-6.724 -12.618)" fill="#ffd56e"/>
        <path id="Path_885348" data-name="Path 885348" d="M70.932,133.572a.619.619,0,0,0-.4.64l.007.086.658,8.736.281,8.527a.633.633,0,0,0,.231.473l8.232,6.289a.581.581,0,0,0,.724.015c.034.028,2.062-1.5,2.1-1.525l6.139-4.732a.645.645,0,0,0,.233-.475l.335-8.571.651-8.737a.373.373,0,0,1,.006-.083.619.619,0,0,0-.4-.642,42.56,42.56,0,0,0-4.669-.694c-1.176-.133-3.251-.229-4.761-.229a46.37,46.37,0,0,0-9.358.921" transform="translate(-6.724 -12.646)" fill="#ffd56d"/>
        <path id="Path_885349" data-name="Path 885349" d="M70.926,133.861a.612.612,0,0,0-.393.639l.008.085.717,8.657.307,8.422a.63.63,0,0,0,.229.468l8.142,6.221a.575.575,0,0,0,.716.016c.037.031,2.039-1.471,2.076-1.5l6.078-4.685a.643.643,0,0,0,.232-.47l.362-8.468.711-8.658.006-.082a.612.612,0,0,0-.394-.641,43.022,43.022,0,0,0-4.672-.683c-1.161-.131-3.277-.225-4.763-.225a47.22,47.22,0,0,0-9.363.906" transform="translate(-6.724 -12.675)" fill="#ffd46c"/>
        <path id="Path_885350" data-name="Path 885350" d="M70.919,134.149a.607.607,0,0,0-.384.633l.009.085.777,8.578.332,8.315a.626.626,0,0,0,.227.461l8.052,6.152a.571.571,0,0,0,.708.019c.041.033,2.016-1.447,2.057-1.479l6.016-4.638a.634.634,0,0,0,.231-.464l.4-8.365.77-8.578.007-.082a.608.608,0,0,0-.384-.639,43.787,43.787,0,0,0-4.676-.673c-1.143-.129-3.3-.222-4.766-.222a47.991,47.991,0,0,0-9.371.9" transform="translate(-6.724 -12.704)" fill="#ffd46b"/>
        <path id="Path_885351" data-name="Path 885351" d="M70.914,134.439a.6.6,0,0,0-.375.633l.009.084.837,8.5.362,8.208a.616.616,0,0,0,.226.452l7.961,6.086a.567.567,0,0,0,.7.02c.044.036,1.99-1.42,2.037-1.456l5.955-4.59a.633.633,0,0,0,.229-.459l.425-8.262.83-8.5.007-.081a.6.6,0,0,0-.375-.633,44.316,44.316,0,0,0-4.679-.663c-1.125-.128-3.327-.218-4.768-.218a48.716,48.716,0,0,0-9.38.879" transform="translate(-6.724 -12.733)" fill="#ffd46a"/>
        <path id="Path_885352" data-name="Path 885352" d="M70.907,134.729a.6.6,0,0,0-.362.633.756.756,0,0,0,.01.084l.9,8.42.383,8.1a.616.616,0,0,0,.223.452l7.871,6.018a.563.563,0,0,0,.691.022c.047.039,1.971-1.395,2.018-1.433l5.894-4.543a.631.631,0,0,0,.227-.452l.452-8.16.888-8.421.008-.081a.6.6,0,0,0-.362-.633,44.876,44.876,0,0,0-4.683-.652c-1.107-.125-3.353-.214-4.769-.214a49.643,49.643,0,0,0-9.386.859" transform="translate(-6.725 -12.763)" fill="#ffd369"/>
        <path id="Path_885353" data-name="Path 885353" d="M70.9,135.02a.589.589,0,0,0-.356.633.753.753,0,0,0,.011.083l.956,8.341.408,7.995a.6.6,0,0,0,.222.443l7.786,5.95a.556.556,0,0,0,.683.024c.05.042,1.949-1.369,2-1.41l5.831-4.5a.629.629,0,0,0,.226-.447l.487-8.058.948-8.341.009-.08a.592.592,0,0,0-.357-.633,45.389,45.389,0,0,0-4.686-.641c-1.086-.123-3.378-.211-4.772-.211a50.491,50.491,0,0,0-9.394.849" transform="translate(-6.725 -12.791)" fill="#ffd368"/>
        <path id="Path_885354" data-name="Path 885354" d="M70.9,135.307a.586.586,0,0,0-.347.628.563.563,0,0,0,.012.082l1.017,8.261.434,7.889a.6.6,0,0,0,.22.438l7.7,5.88a.55.55,0,0,0,.674.024c.053.043,1.927-1.343,1.979-1.387l5.77-4.449a.622.622,0,0,0,.224-.441l.517-7.956,1.007-8.262.009-.08a.585.585,0,0,0-.347-.633,45.991,45.991,0,0,0-4.691-.633c-1.072-.121-3.4-.208-4.775-.208a51.257,51.257,0,0,0-9.4.847" transform="translate(-6.725 -12.819)" fill="#ffd267"/>
        <path id="Path_885355" data-name="Path 885355" d="M70.888,135.6a.582.582,0,0,0-.338.625.72.72,0,0,0,.012.082l1.076,8.183.46,7.78a.6.6,0,0,0,.218.433l7.608,5.814a.542.542,0,0,0,.666.026c.057.046,1.9-1.317,1.96-1.364l5.709-4.4a.625.625,0,0,0,.223-.437l.547-7.853L90.1,136.3a.669.669,0,0,1,.01-.079.583.583,0,0,0-.338-.628,46.837,46.837,0,0,0-4.694-.621c-1.054-.118-3.429-.2-4.778-.2a52.152,52.152,0,0,0-9.408.825" transform="translate(-6.725 -12.849)" fill="#ffd266"/>
        <path id="Path_885356" data-name="Path 885356" d="M70.881,135.888a.576.576,0,0,0-.329.622.75.75,0,0,0,.013.081l1.135,8.1.485,7.676a.593.593,0,0,0,.216.426l7.52,5.747a.543.543,0,0,0,.657.028,23.2,23.2,0,0,0,1.941-1.341l5.648-4.35a.614.614,0,0,0,.222-.431l.578-7.75,1.125-8.1a.653.653,0,0,1,.01-.078.577.577,0,0,0-.329-.625q-2.333-.422-4.7-.61c-1.036-.118-3.453-.2-4.779-.2a53.048,53.048,0,0,0-9.414.8" transform="translate(-6.725 -12.878)" fill="#ffd165"/>
        <path id="Path_885357" data-name="Path 885357" d="M70.875,136.176a.573.573,0,0,0-.32.621.483.483,0,0,0,.014.081l1.2,8.024.51,7.569a.588.588,0,0,0,.214.421l7.431,5.679a.534.534,0,0,0,.648.029,21.219,21.219,0,0,0,1.922-1.317l5.585-4.306a.611.611,0,0,0,.22-.425L88.9,144.9l1.185-8.025a.628.628,0,0,1,.011-.077.575.575,0,0,0-.319-.623c-.557-.2-3.06-.414-4.7-.6-1.018-.115-3.478-.2-4.782-.2a53.958,53.958,0,0,0-9.418.8" transform="translate(-6.726 -12.907)" fill="#ffd164"/>
        <path id="Path_885358" data-name="Path 885358" d="M70.869,136.466a.567.567,0,0,0-.311.618s.009.076.014.08l1.256,7.946.536,7.463a.588.588,0,0,0,.213.414l7.342,5.609a.53.53,0,0,0,.64.032,19.91,19.91,0,0,0,1.9-1.295l5.525-4.259a.606.606,0,0,0,.219-.419l.639-7.545,1.244-7.946a.666.666,0,0,1,.012-.077.568.568,0,0,0-.31-.621c-.543-.2-3.092-.407-4.7-.589-1-.113-3.5-.194-4.784-.194a54.886,54.886,0,0,0-9.428.783" transform="translate(-6.726 -12.935)" fill="#ffd063"/>
        <path id="Path_885359" data-name="Path 885359" d="M70.863,136.751a.562.562,0,0,0-.3.616s.01.075.015.08l1.314,7.871.562,7.356a.577.577,0,0,0,.211.408l7.253,5.543a.523.523,0,0,0,.633.033,18.354,18.354,0,0,0,1.883-1.272l5.463-4.211a.6.6,0,0,0,.217-.413l.669-7.443,1.3-7.871a.652.652,0,0,1,.012-.076.565.565,0,0,0-.3-.619c-.536-.2-3.125-.4-4.709-.579-.982-.11-3.528-.191-4.786-.191a56.919,56.919,0,0,0-9.438.769" transform="translate(-6.726 -12.964)" fill="#ffcf62"/>
        <path id="Path_885360" data-name="Path 885360" d="M70.856,137.044a.559.559,0,0,0-.293.613s.01.074.015.08l1.375,7.787.587,7.25a.57.57,0,0,0,.209.4l7.164,5.476a.518.518,0,0,0,.622.034,17.029,17.029,0,0,0,1.864-1.248l5.4-4.161a.6.6,0,0,0,.216-.408l.7-7.34,1.362-7.788s.009-.071.013-.075a.559.559,0,0,0-.291-.617c-.524-.2-3.157-.393-4.712-.568-.964-.109-3.554-.187-4.788-.187a56.848,56.848,0,0,0-9.443.751" transform="translate(-6.726 -12.994)" fill="#ffd061"/>
        <path id="Path_885361" data-name="Path 885361" d="M70.85,137.337a.554.554,0,0,0-.284.612c.005.005.011.074.016.079l1.435,7.709.612,7.147a.566.566,0,0,0,.207.4l7.075,5.408a.514.514,0,0,0,.613.036A15.872,15.872,0,0,0,82.37,157.5l5.338-4.117a.6.6,0,0,0,.214-.4l.73-7.237,1.421-7.709s.009-.071.014-.074a.555.555,0,0,0-.283-.615c-.514-.2-3.189-.385-4.717-.557-.946-.107-3.579-.181-4.795-.181a56.706,56.706,0,0,0-9.442.733" transform="translate(-6.726 -13.023)" fill="#ffcf60"/>
        <path id="Path_885362" data-name="Path 885362" d="M70.845,137.629a.548.548,0,0,0-.271.61c.005.005.012.072.016.078l1.495,7.629.638,7.037a.565.565,0,0,0,.205.391l6.988,5.338a.51.51,0,0,0,.605.037,14.875,14.875,0,0,0,1.825-1.2l5.279-4.071a.589.589,0,0,0,.213-.4l.761-7.136,1.481-7.629s.009-.07.014-.074a.549.549,0,0,0-.271-.612c-.5-.2-3.222-.377-4.72-.543-.928-.1-3.6-.181-4.795-.181a57.686,57.686,0,0,0-9.461.726" transform="translate(-6.727 -13.052)" fill="#ffcf5f"/>
        <path id="Path_885363" data-name="Path 885363" d="M70.837,137.913a.543.543,0,0,0-.266.607c.005.005.012.072.018.077l1.554,7.55.664,6.931a.556.556,0,0,0,.2.385l6.9,5.272a.5.5,0,0,0,.6.039,13.987,13.987,0,0,0,1.809-1.176l5.217-4.022a.587.587,0,0,0,.211-.391l.791-7.033,1.538-7.55s.009-.069.014-.073a.542.542,0,0,0-.264-.61c-.491-.2-3.257-.371-4.724-.536-.91-.1-3.63-.181-4.795-.181a59.248,59.248,0,0,0-9.466.711" transform="translate(-6.726 -13.08)" fill="#ffce5e"/>
        <path id="Path_885364" data-name="Path 885364" d="M70.831,138.2a.542.542,0,0,0-.256.605c.006.006.012.071.019.077l1.614,7.471.689,6.824a.555.555,0,0,0,.2.379l6.809,5.2a.5.5,0,0,0,.587.041,12.9,12.9,0,0,0,1.787-1.156l5.157-3.974a.582.582,0,0,0,.21-.385l.821-6.931,1.6-7.472c.005,0,.01-.068.014-.072a.543.543,0,0,0-.255-.608c-.48-.2-3.287-.362-4.728-.527-.893-.1-3.655-.173-4.795-.173-2.989,0-8.706.378-9.475.7" transform="translate(-6.727 -13.109)" fill="#ffce5d"/>
        <path id="Path_885365" data-name="Path 885365" d="M70.824,138.492a.536.536,0,0,0-.247.6c.006.006.013.071.019.076l1.674,7.392.715,6.718a.544.544,0,0,0,.2.373l6.721,5.137a.494.494,0,0,0,.579.042,12.135,12.135,0,0,0,1.767-1.133l5.094-3.927a.577.577,0,0,0,.208-.38l.852-6.828,1.658-7.392c.005,0,.011-.067.015-.072a.538.538,0,0,0-.246-.605c-.469-.2-3.32-.356-4.731-.516-.875-.1-3.679-.17-4.8-.17-2.92,0-8.726.365-9.477.684" transform="translate(-6.727 -13.138)" fill="#ffcd5c"/>
        <path id="Path_885366" data-name="Path 885366" d="M70.819,138.782a.534.534,0,0,0-.239.6c.006.006.013.07.02.075l1.734,7.313.74,6.611a.544.544,0,0,0,.2.367l6.632,5.066a.489.489,0,0,0,.57.043,11.322,11.322,0,0,0,1.748-1.11l5.033-3.88a.575.575,0,0,0,.207-.375l.882-6.725,1.719-7.313c.005,0,.011-.066.016-.071a.532.532,0,0,0-.236-.6c-.459-.2-3.347-.349-4.735-.5-.858-.1-3.709-.166-4.8-.166-2.864,0-8.754.356-9.486.673" transform="translate(-6.727 -13.167)" fill="#ffcc5b"/>
        <path id="Path_885367" data-name="Path 885367" d="M70.813,139.072a.53.53,0,0,0-.229.6c.006.006.014.07.021.075l1.793,7.237.766,6.5a.536.536,0,0,0,.2.362l6.543,5a.484.484,0,0,0,.562.045,10.668,10.668,0,0,0,1.729-1.086l4.976-3.833a.572.572,0,0,0,.205-.369l.913-6.623,1.777-7.237c.006,0,.011-.065.016-.07a.53.53,0,0,0-.227-.6c-.447-.2-3.384-.342-4.739-.494-.84-.09-3.73-.163-4.8-.163-2.809,0-8.784.338-9.5.654" transform="translate(-6.727 -13.196)" fill="#ffcc5a"/>
        <path id="Path_885368" data-name="Path 885368" d="M70.8,139.361a.526.526,0,0,0-.22.6c.006.006.014.069.022.074l1.853,7.155.792,6.4a.533.533,0,0,0,.194.355l6.455,4.933a.48.48,0,0,0,.553.047,9.917,9.917,0,0,0,1.709-1.064l4.91-3.785a.567.567,0,0,0,.2-.362l.944-6.52,1.836-7.155c.006,0,.012-.064.016-.07a.575.575,0,0,0-.218-.6c-.463-.117-3.417-.335-4.742-.484-.821-.09-3.755-.159-4.806-.159-2.738,0-8.8.327-9.5.641" transform="translate(-6.727 -13.225)" fill="#ffcc59"/>
        <path id="Path_885369" data-name="Path 885369" d="M70.8,139.65a.571.571,0,0,0-.211.593c.006.006.014.067.022.074l1.913,7.075.814,6.293a.527.527,0,0,0,.193.349L79.9,158.9a.475.475,0,0,0,.543.048,9.447,9.447,0,0,0,1.69-1.04l4.848-3.738a.562.562,0,0,0,.2-.362l.973-6.418,1.9-7.075c.006,0,.012-.063.017-.069a.573.573,0,0,0-.208-.6c-.452-.114-3.449-.327-4.746-.473-.8-.09-3.78-.156-4.809-.156a94.089,94.089,0,0,0-9.508.63" transform="translate(-6.728 -13.254)" fill="#ffcc58"/>
        <path id="Path_885370" data-name="Path 885370" d="M70.794,139.939a.571.571,0,0,0-.2.591c.007.007.014.067.023.073l1.972,7,.842,6.186a.524.524,0,0,0,.191.344l6.277,4.795a.472.472,0,0,0,.536.05,8.757,8.757,0,0,0,1.671-1.018l4.787-3.691a.561.561,0,0,0,.2-.352l1-6.315,1.955-7c.006-.005.012-.062.018-.068a.571.571,0,0,0-.2-.594c-.443-.111-3.482-.319-4.749-.463-.786-.09-3.805-.153-4.811-.153-2.625,0-8.806.435-9.515.616" transform="translate(-6.728 -13.282)" fill="#ffcb57"/>
        <path id="Path_885371" data-name="Path 885371" d="M70.787,140.229a.569.569,0,0,0-.193.589c.007.007.015.066.024.072l2.032,6.917.868,6.079a.524.524,0,0,0,.188.337l6.189,4.73a.467.467,0,0,0,.527.052,8.276,8.276,0,0,0,1.651-1l4.726-3.643a.562.562,0,0,0,.2-.346l1.034-6.213,2.014-6.918c.006-.005.013-.062.019-.067a.569.569,0,0,0-.191-.593c-.433-.109-3.515-.312-4.754-.452-.768-.09-3.83-.149-4.814-.149-2.562,0-8.826.424-9.519.6" transform="translate(-6.728 -13.312)" fill="#ffcb56"/>
        <path id="Path_885372" data-name="Path 885372" d="M70.781,140.518a.57.57,0,0,0-.181.586c.007.007.015.065.024.072l2.092,6.838.893,5.971a.519.519,0,0,0,.186.332l6.1,4.662a.46.46,0,0,0,.518.052,7.782,7.782,0,0,0,1.628-.971l4.664-3.6a.559.559,0,0,0,.2-.344l1.065-6.111,2.073-6.838c.006-.005.013-.061.019-.067a.571.571,0,0,0-.181-.591c-.423-.107-3.547-.306-4.757-.441-.75-.085-3.856-.146-4.816-.146-2.5,0-8.849.417-9.526.59" transform="translate(-6.729 -13.34)" fill="#ffca55"/>
        <path id="Path_885373" data-name="Path 885373" d="M70.774,140.809a.567.567,0,0,0-.175.584c.008.008.016.064.024.071l2.152,6.76.919,5.866a.51.51,0,0,0,.181.326l6.011,4.594a.457.457,0,0,0,.509.054,7.332,7.332,0,0,0,1.613-.948l4.6-3.548a.551.551,0,0,0,.2-.335l1.095-6.008,2.133-6.76c.006-.005.014-.06.019-.066a.568.568,0,0,0-.172-.588c-.413-.1-3.58-.3-4.76-.432-.732-.082-3.881-.142-4.818-.142-2.441,0-8.872.4-9.531.571" transform="translate(-6.729 -13.37)" fill="#ffca54"/>
        <path id="Path_885374" data-name="Path 885374" d="M70.768,141.1a.566.566,0,0,0-.166.582c.008.008.016.064.025.071l2.211,6.68.944,5.76a.508.508,0,0,0,.181.319l5.922,4.523a.452.452,0,0,0,.5.056,7.023,7.023,0,0,0,1.593-.925l4.541-3.5a.553.553,0,0,0,.2-.329l1.125-5.906,2.192-6.68c.006-.006.014-.06.02-.065a.569.569,0,0,0-.163-.586c-.4-.1-3.612-.291-4.765-.421-.714-.081-3.905-.138-4.82-.138-2.382,0-8.894.4-9.539.561" transform="translate(-6.729 -13.398)" fill="#ffca53"/>
        <path id="Path_885375" data-name="Path 885375" d="M70.761,141.387a.569.569,0,0,0-.157.58c.008.008.016.062.026.071l2.272,6.6.97,5.653a.5.5,0,0,0,.181.314l5.833,4.458a.451.451,0,0,0,.492.058c.119.1,1.456-.8,1.574-.9l4.479-3.454a.55.55,0,0,0,.194-.324l1.155-5.8,2.252-6.6c.007-.006.014-.059.021-.064a.566.566,0,0,0-.153-.584c-.393-.1-3.645-.284-4.768-.411-.7-.079-3.932-.135-4.823-.135-2.325,0-8.919.385-9.548.546" transform="translate(-6.729 -13.427)" fill="#ffc952"/>
        <path id="Path_885376" data-name="Path 885376" d="M70.756,141.676a.566.566,0,0,0-.147.577c.009.009.017.062.027.07l2.331,6.523,1,5.547a.5.5,0,0,0,.181.308l5.745,4.391a.443.443,0,0,0,.484.06c.122.1,1.433-.779,1.554-.879l4.418-3.406a.543.543,0,0,0,.193-.318l1.186-5.7,2.311-6.523c.007-.006.014-.057.022-.064a.569.569,0,0,0-.144-.583c-.383-.1-3.677-.277-4.772-.4-.678-.077-3.956-.132-4.825-.132-2.268,0-8.945.374-9.558.529" transform="translate(-6.729 -13.456)" fill="#ffc952"/>
        <path id="Path_885377" data-name="Path 885377" d="M70.749,141.967a.565.565,0,0,0-.138.574c.009.009.018.062.027.07l2.391,6.443,1.021,5.441a.5.5,0,0,0,.181.3l5.656,4.322a.44.44,0,0,0,.475.061c.125.1,1.41-.754,1.538-.856l4.357-3.359a.542.542,0,0,0,.191-.312l1.216-5.6,2.37-6.443c.007-.006.014-.057.022-.063a.567.567,0,0,0-.135-.58c-.373-.09-3.709-.271-4.776-.39-.66-.074-3.981-.128-4.827-.128-2.214,0-8.977.364-9.57.517" transform="translate(-6.729 -13.485)" fill="#ffc851"/>
        <path id="Path_885378" data-name="Path 885378" d="M70.742,142.256a.567.567,0,0,0-.129.573c.009.009.018.061.028.07l2.451,6.363,1.047,5.338a.49.49,0,0,0,.176.3l5.567,4.252c.112.09.355.156.466.062.128.1,1.388-.724,1.516-.832l4.3-3.312a.545.545,0,0,0,.189-.307l1.247-5.495,2.429-6.363c.008-.006.015-.056.022-.062a.567.567,0,0,0-.125-.577c-.362-.09-3.742-.261-4.779-.378-.642-.073-4.007-.126-4.83-.126-2.146,0-8.989.351-9.569.5" transform="translate(-6.729 -13.514)" fill="#ffc850"/>
        <path id="Path_885379" data-name="Path 885379" d="M70.736,142.544a.564.564,0,0,0-.12.57c.009.009.019.06.029.068l2.51,6.285,1.072,5.227a.493.493,0,0,0,.174.29l5.479,4.187c.109.09.348.154.458.064.131.108,1.366-.7,1.5-.814l4.234-3.264a.542.542,0,0,0,.188-.3l1.277-5.394,2.489-6.285c.008-.006.015-.054.023-.062a.568.568,0,0,0-.116-.575c-.353-.09-3.774-.254-4.783-.368-.625-.071-4.032-.121-4.833-.121-2.087.007-9.013.35-9.577.494" transform="translate(-6.729 -13.542)" fill="#ffc74f"/>
        <path id="Path_885380" data-name="Path 885380" d="M70.73,142.833a.566.566,0,0,0-.11.568c.009.009.019.06.029.067l2.57,6.206,1.1,5.121a.488.488,0,0,0,.172.284l5.39,4.119a.426.426,0,0,0,.452.065c.135.109,1.343-.676,1.477-.787l4.172-3.216a.542.542,0,0,0,.186-.3l1.307-5.29,2.547-6.206c.008-.006.016-.054.024-.062a.567.567,0,0,0-.108-.574c-.343-.086-3.807-.247-4.787-.362-.607-.069-4.057-.118-4.835-.118-2.028.006-9.037.34-9.585.479" transform="translate(-6.729 -13.571)" fill="#ffc74e"/>
        <path id="Path_885381" data-name="Path 885381" d="M70.723,143.124a.569.569,0,0,0-.1.567c.009.008.019.058.03.066l2.631,6.126L74.4,154.9a.483.483,0,0,0,.17.278l5.3,4.051c.1.084.337.152.441.067.138.112,1.321-.65,1.458-.764l4.111-3.166a.539.539,0,0,0,.181-.29l1.338-5.188,2.606-6.126c.008-.006.016-.053.024-.061a.567.567,0,0,0-.1-.571c-.333-.084-3.84-.24-4.795-.347-.59-.067-4.083-.115-4.836-.115-1.96,0-9.056.322-9.583.458" transform="translate(-6.729 -13.601)" fill="#ffc74d"/>
        <path id="Path_885382" data-name="Path 885382" d="M70.716,143.414a.568.568,0,0,0-.09.564c.01.01.02.057.031.067l2.69,6.048L74.5,155a.479.479,0,0,0,.168.271l5.212,3.981c.1.082.332.151.432.069.14.115,1.3-.625,1.438-.741l4.05-3.122a.547.547,0,0,0,.181-.284l1.369-5.085,2.666-6.048c.009-.006.016-.052.024-.06a.569.569,0,0,0-.09-.569c-.322-.081-3.872-.232-4.795-.337-.572-.064-4.108-.111-4.839-.111-1.905,0-9.079.318-9.595.45" transform="translate(-6.73 -13.63)" fill="#ffc64c"/>
        <path id="Path_885383" data-name="Path 885383" d="M70.707,143.7a.57.57,0,0,0-.083.562c.01.01.021.057.032.066L73.4,150.3l1.176,4.8a.472.472,0,0,0,.166.266l5.123,3.916c.1.08.327.15.423.07.144.118,1.276-.6,1.419-.717l3.988-3.076a.544.544,0,0,0,.181-.279l1.4-4.983,2.725-5.971c.009-.007.016-.052.024-.06a.573.573,0,0,0-.08-.567c-.312-.079-3.9-.225-4.795-.327-.554-.062-4.133-.108-4.841-.108-1.848,0-9.105.306-9.608.434" transform="translate(-6.729 -13.659)" fill="#ffc64b"/>
        <path id="Path_885384" data-name="Path 885384" d="M70.708,143.992a.57.57,0,0,0-.074.559c.01.01.021.056.032.065l2.81,5.889,1.2,4.7a.473.473,0,0,0,.165.261l5.034,3.848c.09.077.321.149.414.072.147.12,1.254-.574,1.4-.695l3.926-3.027a.54.54,0,0,0,.181-.271l1.429-4.881,2.785-5.889c.009-.007.017-.051.025-.059a.571.571,0,0,0-.07-.564c-.3-.076-3.937-.218-4.8-.316-.536-.061-4.161-.1-4.844-.1-1.792,0-9.133.293-9.612.417" transform="translate(-6.73 -13.688)" fill="#ffc54a"/>
        <path id="Path_885385" data-name="Path 885385" d="M70.7,144.281a.573.573,0,0,0-.065.557c.011.011.022.055.033.064l2.87,5.811,1.226,4.589a.463.463,0,0,0,.163.254l4.947,3.78c.09.074.316.147.405.073.15.123,1.231-.547,1.381-.671l3.866-2.98c.059-.05.181-.189.181-.271l1.46-4.778L90,144.9c.009-.007.018-.049.026-.058a.574.574,0,0,0-.061-.562c-.292-.073-3.97-.211-4.8-.3-.517-.059-4.183-.1-4.845-.1-1.733,0-9.161.287-9.624.406" transform="translate(-6.729 -13.716)" fill="#ffc549"/>
        <path id="Path_885386" data-name="Path 885386" d="M70.691,144.572a.573.573,0,0,0-.056.555c.011.011.022.054.033.064l2.928,5.732,1.251,4.483a.463.463,0,0,0,.16.249l4.858,3.709c.09.072.309.147.4.074.153.125,1.209-.522,1.357-.648l3.8-2.933c.057-.047.181-.186.181-.262l1.49-4.675,2.9-5.731c.009-.007.018-.049.026-.057a.576.576,0,0,0-.052-.56c-.282-.071-4-.2-4.809-.295-.5-.057-4.208-.1-4.848-.1-1.665,0-9.17.278-9.62.393" transform="translate(-6.73 -13.745)" fill="#ffc448"/>
        <path id="Path_885387" data-name="Path 885387" d="M70.684,144.861a.574.574,0,0,0-.047.552c.011.011.022.054.034.063l2.985,5.652,1.276,4.376a.463.463,0,0,0,.158.242l4.768,3.645c.084.07.3.146.388.077.157.128,1.186-.5,1.343-.625l3.742-2.885c.055-.045.176-.181.176-.256l1.521-4.573,2.962-5.652c.009-.008.019-.048.027-.057a.577.577,0,0,0-.042-.558c-.271-.069-4.035-.2-4.813-.284-.482-.054-4.233-.09-4.851-.09-1.6,0-9.193.262-9.628.374" transform="translate(-6.729 -13.775)" fill="#ffc447"/>
        <path id="Path_885388" data-name="Path 885388" d="M70.676,145.151a.578.578,0,0,0-.038.55c.012.012.023.052.034.062l3.049,5.573,1.3,4.27a.461.461,0,0,0,.157.237l4.68,3.577c.081.067.3.146.38.078.159.13,1.164-.471,1.323-.6l3.681-2.838c.053-.044.175-.181.175-.251l1.551-4.471,3.022-5.573c.009-.008.019-.047.028-.056a.58.58,0,0,0-.033-.555c-.262-.066-4.071-.189-4.816-.271-.464-.052-4.258-.09-4.853-.09-1.551,0-9.222.255-9.642.362" transform="translate(-6.729 -13.804)" fill="#ffc446"/>
        <path id="Path_885389" data-name="Path 885389" d="M70.67,145.44a.582.582,0,0,0-.029.547c.012.012.023.052.035.062l3.108,5.495,1.327,4.161c0,.068.1.188.156.231l4.591,3.509c.078.064.294.145.372.08.163.133,1.142-.445,1.3-.579l3.619-2.79c.052-.042.173-.181.173-.245l1.581-4.368,3.08-5.494c.01-.008.019-.046.028-.054a.583.583,0,0,0-.024-.555c-.251-.063-4.1-.181-4.82-.262-.446-.051-4.284-.091-4.855-.091-1.488.005-9.247.25-9.646.354" transform="translate(-6.729 -13.832)" fill="#ffc345"/>
        <path id="Path_885390" data-name="Path 885390" d="M70.663,145.726a.511.511,0,0,0-.019.543.379.379,0,0,0,.036.062l3.166,5.415L75.2,155.8c0,.065.1.181.153.225l4.5,3.438c.075.062.288.143.362.081.166.136,1.119-.42,1.285-.556l3.557-2.743c.05-.041.172-.175.172-.24l1.612-4.266,3.14-5.415a.389.389,0,0,0,.029-.054.512.512,0,0,0-.014-.552c-.242-.061-4.132-.175-4.824-.252-.428-.049-4.309-.083-4.857-.083-1.433.008-9.27.243-9.657.34" transform="translate(-6.728 -13.86)" fill="#ffc344"/>
        <path id="Path_885391" data-name="Path 885391" d="M70.657,146.02a.513.513,0,0,0-.011.543.378.378,0,0,0,.036.062l3.228,5.338,1.379,3.951c0,.062.1.181.151.219l4.414,3.368c.071.059.282.142.355.082.168.138,1.1-.394,1.267-.533l3.5-2.7c.047-.039.17-.172.17-.234l1.643-4.161,3.2-5.338a.436.436,0,0,0,.029-.053.518.518,0,0,0-.005-.549c-.232-.058-4.161-.167-4.827-.242-.411-.047-4.333-.08-4.86-.08-1.376,0-9.293.229-9.663.325" transform="translate(-6.728 -13.89)" fill="#ffc243"/>
        <path id="Path_885392" data-name="Path 885392" d="M70.65,146.313a.519.519,0,0,0,0,.543.418.418,0,0,0,.037.061l3.288,5.257,1.4,3.844c0,.06.1.176.149.213l4.325,3.306c.069.057.277.141.346.084.172.141,1.075-.368,1.246-.509l3.438-2.648c.045-.037.169-.169.169-.229l1.673-4.06,3.257-5.257c.011-.009.022-.042.03-.052a.523.523,0,0,0,0-.543c-.222-.056-4.2-.16-4.831-.232-.393-.044-4.359-.077-4.862-.077-1.311-.011-9.314.209-9.668.3" transform="translate(-6.728 -13.92)" fill="#ffc242"/>
        <path id="Path_885393" data-name="Path 885393" d="M70.643,146.6a.525.525,0,0,0,.008.543.415.415,0,0,0,.038.06l3.347,5.178,1.429,3.737c0,.057.1.172.147.207l4.237,3.238c.066.054.271.14.337.086.176.143,1.052-.342,1.226-.487l3.373-2.6c.043-.035.167-.166.167-.223l1.7-3.958,3.317-5.177c.011-.009.022-.042.031-.052a.525.525,0,0,0,.014-.543c-.212-.053-4.229-.153-4.835-.221-.375-.043-4.384-.073-4.864-.073-1.252-.006-9.337.2-9.676.286" transform="translate(-6.728 -13.949)" fill="#ffc241"/>
        <path id="Path_885394" data-name="Path 885394" d="M70.636,146.888a.53.53,0,0,0,.016.536.521.521,0,0,0,.039.06l3.407,5.1,1.456,3.63c0,.054.1.168.146.2l4.148,3.166c.062.052.266.139.328.09.181.146,1.029-.317,1.207-.463l3.312-2.553c.041-.034.166-.163.166-.217l1.734-3.856,3.377-5.1a.37.37,0,0,0,.031-.052.531.531,0,0,0,.023-.543c-.2-.051-4.262-.146-4.838-.211-.357-.041-4.409-.07-4.866-.07-1.2,0-9.361.2-9.684.28" transform="translate(-6.728 -13.977)" fill="#ffc140"/>
        <path id="Path_885395" data-name="Path 885395" d="M70.63,147.177a.536.536,0,0,0,.026.534.509.509,0,0,0,.039.059l3.467,5.02,1.481,3.528c0,.052.1.163.144.2l4.059,3.1c.059.049.261.138.319.09.181.148,1.007-.291,1.188-.441l3.25-2.506c.039-.032.165-.16.165-.212l1.764-3.753,3.438-5.02a.592.592,0,0,0,.032-.051.542.542,0,0,0,.032-.543c-.192-.048-4.294-.138-4.843-.2-.339-.039-4.433-.066-4.869-.066-1.134,0-9.386.183-9.692.261" transform="translate(-6.728 -14.006)" fill="#ffc13f"/>
        <path id="Path_885396" data-name="Path 885396" d="M70.62,147.467a.538.538,0,0,0,.035.532.366.366,0,0,0,.04.058L74.224,153l1.506,3.419c0,.05.1.159.142.19l3.97,3.034c.057.046.255.137.311.09.181.151.984-.266,1.168-.418l3.189-2.459c.036-.031.163-.157.163-.206L86.467,153l3.495-4.94a.357.357,0,0,0,.032-.05.543.543,0,0,0,.042-.538c-.181-.045-4.328-.131-4.845-.19-.322-.036-4.459-.062-4.871-.062-1.073,0-9.407.175-9.7.25" transform="translate(-6.727 -14.035)" fill="#ffc03e"/>
        <path id="Path_885397" data-name="Path 885397" d="M70.622,147.755a.542.542,0,0,0,.044.529.417.417,0,0,0,.041.058l3.586,4.862,1.532,3.312c0,.047.1.156.14.181l3.881,2.966c.053.043.249.136.3.09.188.154.962-.24,1.149-.394l3.128-2.411c.034-.029.162-.155.162-.2l1.825-3.548,3.554-4.861A.458.458,0,0,0,90,148.29a.55.55,0,0,0,.051-.536c-.171-.043-4.36-.124-4.85-.181-.3-.034-4.484-.06-4.873-.06-1.02.005-9.433.17-9.7.242" transform="translate(-6.728 -14.063)" fill="#ffc03d"/>
        <path id="Path_885398" data-name="Path 885398" d="M70.609,148.045a.552.552,0,0,0,.053.527.416.416,0,0,0,.042.057l3.646,4.782,1.557,3.205c0,.044.1.15.138.181l3.792,2.895c.05.042.244.135.294.09.191.156.94-.214,1.13-.371l3.066-2.364c.033-.027.16-.152.16-.2l1.855-3.446,3.613-4.782a.36.36,0,0,0,.033-.049.555.555,0,0,0,.06-.534c-.161-.041-4.392-.117-4.854-.168-.286-.032-4.51-.056-4.876-.056-.953,0-9.453.158-9.711.227" transform="translate(-6.727 -14.092)" fill="#ffbf3c"/>
        <path id="Path_885399" data-name="Path 885399" d="M70.6,148.334a.557.557,0,0,0,.062.525.51.51,0,0,0,.042.057l3.709,4.7,1.582,3.1c0,.041.106.147.137.172l3.7,2.831c.047.039.239.134.285.095.194.158.917-.188,1.11-.348l3-2.317c.031-.025.158-.148.158-.189l1.885-3.347,3.673-4.7a.568.568,0,0,0,.033-.048.56.56,0,0,0,.069-.532c-.151-.038-4.425-.109-4.857-.158-.271-.03-4.535-.052-4.878-.052-.895,0-9.477.147-9.719.213" transform="translate(-6.727 -14.121)" fill="#ffbf3b"/>
        <path id="Path_885400" data-name="Path 885400" d="M70.6,148.625a.565.565,0,0,0,.071.523.435.435,0,0,0,.043.056l3.766,4.625,1.608,2.993c0,.038.106.143.135.166l3.619,2.763c.044.036.232.133.277.1.2.161.895-.163,1.091-.325l2.944-2.269c.029-.024.157-.146.157-.181l1.916-3.241,3.732-4.624a.347.347,0,0,0,.034-.047.566.566,0,0,0,.078-.529c-.141-.035-4.457-.1-4.861-.147-.25-.028-4.56-.049-4.881-.049-.838-.005-9.5.132-9.73.19" transform="translate(-6.727 -14.151)" fill="#ffbf3a"/>
        <path id="Path_885401" data-name="Path 885401" d="M70.59,148.914a.569.569,0,0,0,.081.52.365.365,0,0,0,.043.055l3.825,4.545,1.634,2.886c0,.035.106.138.133.16l3.528,2.695c.041.033.227.132.271.1.2.164.873-.138,1.072-.3l2.882-2.221c.027-.022.156-.143.156-.181l1.946-3.138,3.791-4.545a.348.348,0,0,0,.034-.047.575.575,0,0,0,.09-.527c-.131-.033-4.49-.09-4.864-.137-.232-.026-4.586-.045-4.885-.045-.781,0-9.529.13-9.738.185" transform="translate(-6.727 -14.179)" fill="#ffbe39"/>
        <path id="Path_885402" data-name="Path 885402" d="M70.582,149.2a.581.581,0,0,0,.09.518.5.5,0,0,0,.044.054l3.886,4.466,1.659,2.779c0,.033.106.134.131.154l3.438,2.624c.037.031.222.13.259.1.2.166.849-.111,1.052-.28l2.82-2.171c.024-.021.155-.14.155-.173l1.977-3.035,3.85-4.466a.443.443,0,0,0,.035-.046.583.583,0,0,0,.1-.526c-.121-.031-4.523-.09-4.868-.127-.214-.024-4.614-.042-4.885-.042-.716,0-9.546.12-9.74.17" transform="translate(-6.727 -14.208)" fill="#ffbe38"/>
        <path id="Path_885403" data-name="Path 885403" d="M70.577,149.492a.588.588,0,0,0,.1.516.517.517,0,0,0,.045.054l3.945,4.388,1.685,2.673c0,.03.107.13.129.147l3.347,2.559c.034.028.216.13.251.1.206.169.827-.086,1.033-.256l2.759-2.127c.023-.019.153-.137.153-.167l2.007-2.933,3.91-4.387a.345.345,0,0,0,.036-.045.591.591,0,0,0,.106-.523c-.111-.028-4.555-.081-4.872-.116-.2-.022-4.635-.039-4.885-.039-.655,0-9.572.109-9.75.154" transform="translate(-6.726 -14.237)" fill="#ffbd37"/>
        <path id="Path_885404" data-name="Path 885404" d="M70.569,149.783a.6.6,0,0,0,.108.514.427.427,0,0,0,.045.053l4,4.308,1.711,2.567c0,.027.107.125.128.143l3.257,2.491c.032.025.211.128.242.1.21.172.805-.06,1.014-.232l2.7-2.081c.021-.016.151-.134.151-.161l2.037-2.829,3.969-4.308a.552.552,0,0,0,.036-.044.6.6,0,0,0,.115-.521c-.1-.025-4.588-.073-4.876-.106-.181-.02-4.661-.034-4.885-.034-.6-.005-9.591.1-9.753.137" transform="translate(-6.726 -14.267)" fill="#ffbd36"/>
        <path id="Path_885405" data-name="Path 885405" d="M70.562,150.071a.6.6,0,0,0,.118.511.367.367,0,0,0,.046.053l4.065,4.229,1.736,2.461c0,.024.107.121.125.137l3.171,2.424c.028.024.205.128.233.1.213.174.783-.034,1-.21l2.636-2.032c.019-.015.15-.131.15-.156l2.068-2.728,4.028-4.228a.336.336,0,0,0,.036-.044.609.609,0,0,0,.125-.519c-.09-.023-4.62-.066-4.879-.095-.16-.018-4.686-.032-4.892-.032-.538,0-9.617.088-9.762.125" transform="translate(-6.726 -14.295)" fill="#ffbc35"/>
        <path id="Path_885406" data-name="Path 885406" d="M70.556,150.361a.616.616,0,0,0,.126.509.433.433,0,0,0,.047.052l4.124,4.151,1.761,2.352c0,.022.108.117.124.13l3.082,2.352c.025.021.2.127.224.107.216.181.76-.009.975-.186l2.575-1.985c.016-.014.148-.128.148-.15l2.1-2.624,4.088-4.15a.336.336,0,0,0,.037-.043.614.614,0,0,0,.134-.517c-.081-.02-4.653-.059-4.885-.085-.143-.016-4.712-.028-4.894-.028-.475,0-9.637.081-9.766.114" transform="translate(-6.725 -14.324)" fill="#ffbc34"/>
        <path id="Path_885407" data-name="Path 885407" d="M70.549,150.651a.626.626,0,0,0,.136.507.515.515,0,0,0,.048.052l4.184,4.071,1.787,2.247c0,.019.108.112.122.125l2.994,2.288c.022.018.194.126.216.108.219.181.738.016.956-.163l2.513-1.938a.93.93,0,0,0,.147-.145l2.129-2.523,4.147-4.071a.425.425,0,0,0,.038-.043.624.624,0,0,0,.143-.514c-.071-.018-4.685-.052-4.885-.074-.125-.014-4.737-.024-4.9-.024-.422,0-9.667.068-9.779.1" transform="translate(-6.725 -14.353)" fill="#ffbc33"/>
        <path id="Path_885408" data-name="Path 885408" d="M70.538,150.94a.633.633,0,0,0,.145.5.657.657,0,0,0,.049.052l4.245,3.991,1.809,2.14c0,.016.108.109.12.119l2.906,2.221c.019.015.188.125.207.109.222.181.716.043.936-.14l2.452-1.891a1.054,1.054,0,0,0,.145-.139l2.159-2.421,4.207-3.991c.014-.012.026-.029.039-.042a.633.633,0,0,0,.152-.512c-.061-.015-4.717-.044-4.891-.063-.108-.012-4.762-.022-4.9-.022-.353,0-9.682.061-9.781.085" transform="translate(-6.724 -14.382)" fill="#ffbb32"/>
        <path id="Path_885409" data-name="Path 885409" d="M70.534,151.23a.646.646,0,0,0,.153.5.441.441,0,0,0,.05.051l4.3,3.914,1.838,2.035a.862.862,0,0,0,.118.112L79.813,160c.015.013.181.124.2.111a.845.845,0,0,0,.917-.118l2.39-1.843a1.251,1.251,0,0,0,.144-.133l2.19-2.318,4.265-3.912a.562.562,0,0,0,.039-.042.646.646,0,0,0,.161-.51c-.051-.013-4.749-.036-4.894-.053-.09-.01-4.787-.018-4.9-.018-.3,0-9.707.048-9.788.069" transform="translate(-6.724 -14.411)" fill="#ffbb31"/>
        <path id="Path_885410" data-name="Path 885410" d="M70.528,151.518a.655.655,0,0,0,.163.5.43.43,0,0,0,.05.05L75.1,155.9l1.864,1.929a.925.925,0,0,0,.116.107l2.728,2.081a.954.954,0,0,0,.19.112.8.8,0,0,0,.9-.09l2.329-1.795a1.6,1.6,0,0,0,.143-.128l2.22-2.216,4.325-3.833a.422.422,0,0,0,.04-.041.655.655,0,0,0,.17-.508c-.041-.01-4.782-.029-4.9-.043-.071-.008-4.812-.014-4.9-.014-.237,0-9.731.038-9.8.054" transform="translate(-6.723 -14.44)" fill="#ffba30"/>
        <path id="Path_885411" data-name="Path 885411" d="M70.521,151.809a.665.665,0,0,0,.172.5.432.432,0,0,0,.051.049l4.424,3.754,1.889,1.821a1.1,1.1,0,0,0,.115.1l2.639,2.017a1.216,1.216,0,0,0,.181.114.754.754,0,0,0,.878-.071l2.267-1.748c.006-.005.141-.114.141-.122l2.251-2.112,4.384-3.754a.405.405,0,0,0,.04-.039.666.666,0,0,0,.181-.506c-.03-.007-4.816-.022-4.9-.032-.054-.006-4.837-.011-4.906-.011-.179,0-9.757.031-9.8.043" transform="translate(-6.723 -14.469)" fill="#ffba2f"/>
        <path id="Path_885412" data-name="Path 885412" d="M70.514,152.1a.674.674,0,0,0,.181.5.524.524,0,0,0,.052.049l4.484,3.676,1.915,1.719c0,.006.109.09.112.095l2.55,1.949a1.685,1.685,0,0,0,.173.115.712.712,0,0,0,.859-.048l2.206-1.7s.14-.111.14-.117l2.282-2.01,4.444-3.675c.014-.012.028-.026.041-.039a.676.676,0,0,0,.189-.5c-.02-.005-4.848-.014-4.905-.022l-4.908-.006c-.123,0-9.785.014-9.815.024" transform="translate(-6.722 -14.498)" fill="#ffba2e"/>
        <path id="Path_885413" data-name="Path 885413" d="M70.506,152.388a.688.688,0,0,0,.19.493.659.659,0,0,0,.052.049l4.542,3.6,1.941,1.609.11.09,2.462,1.881s.16.12.164.118a.677.677,0,0,0,.84-.024l2.144-1.653.138-.111,2.311-1.908,4.5-3.6c.014-.012.028-.025.042-.038a.69.69,0,0,0,.2-.5c-.01,0-4.88-.008-4.909-.012s-4.885,0-4.911,0c-.057-.007-9.8,0-9.815.006" transform="translate(-6.722 -14.527)" fill="#ffba2d"/>
        <path id="Path_885414" data-name="Path 885414" d="M70.5,152.677a.7.7,0,0,0,.252.543l4.6,3.517,4.6,3.518a.641.641,0,0,0,.821,0l4.561-3.517,4.561-3.517a.7.7,0,0,0,.249-.536H70.5Z" transform="translate(-6.721 -14.556)" fill="#ffb92c"/>
        <g id="Group_1107120" data-name="Group 1107120" transform="translate(73.607 116.986)" opacity="0.7">
          <g id="Group_1107119" data-name="Group 1107119">
            <g id="Group_1107118" data-name="Group 1107118" clip-path="url(#clip-path-14)">
              <g id="Group_1107117" data-name="Group 1107117" opacity="0.5" style="isolation: isolate">
                <g id="Group_1107116" data-name="Group 1107116">
                  <g id="Group_1107115" data-name="Group 1107115" clip-path="url(#clip-path-14)">
                    <path id="Path_885415" data-name="Path 885415" d="M81.815,158.022l9.124-7.033a.7.7,0,0,0,.249-.536v-19.4a.681.681,0,0,0-.5-.667,39.8,39.8,0,0,0-9.318-1.076v28.851a.637.637,0,0,0,.451-.143" transform="translate(-81.364 -129.314)" fill="#ffda78"/>
                  </g>
                </g>
              </g>
            </g>
          </g>
        </g>
        <path id="Path_885416" data-name="Path 885416" d="M75.678,142.165a5.263,5.263,0,1,1,3.908,6.334,5.263,5.263,0,0,1-3.908-6.334" transform="translate(-7.201 -13.167)" fill="#fff"/>
        <path id="Path_885417" data-name="Path 885417" d="M81.046,147a19.545,19.545,0,0,0-4.6-4.184l.679-.943a12.761,12.761,0,0,1,3.742,2.592,15.108,15.108,0,0,1,6.315-4.982A44.566,44.566,0,0,0,81.046,147" transform="translate(-7.288 -13.297)" fill="#6bc189"/>
        <path id="Path_885418" data-name="Path 885418" d="M80.153,160.066a.419.419,0,0,1-.259-.09l-11.029-8.644a.418.418,0,0,1-.16-.329V129.685a.418.418,0,0,1,.271-.392c.166-.062,4.132-1.538,11.177-1.538s10.974,1.473,11.136,1.538a.42.42,0,0,1,.271.391V151a.418.418,0,0,1-.16.329l-10.987,8.644a.422.422,0,0,1-.261.091M69.542,150.8l10.61,8.316L90.72,150.8V129.984A35.406,35.406,0,0,0,80.152,128.6a35.865,35.865,0,0,0-10.61,1.389Z" transform="translate(-6.55 -12.18)" fill="#fff"/>
        <g id="Group_1107126" data-name="Group 1107126" transform="translate(73.603 118.475)" opacity="0.9">
          <g id="Group_1107125" data-name="Group 1107125">
            <g id="Group_1107124" data-name="Group 1107124" clip-path="url(#clip-path-16)">
              <g id="Group_1107123" data-name="Group 1107123" opacity="0.5" style="isolation: isolate">
                <g id="Group_1107122" data-name="Group 1107122">
                  <g id="Group_1107121" data-name="Group 1107121" clip-path="url(#clip-path-16)">
                    <path id="Path_885419" data-name="Path 885419" d="M90.465,150.114V131.372c0-.293-.718-.412-.718-.412v18.746a.644.644,0,0,1-.231.5l-8.157,6.189v.959l8.876-6.733a.647.647,0,0,0,.231-.5" transform="translate(-81.359 -130.96)" fill="#fff"/>
                  </g>
                </g>
              </g>
            </g>
          </g>
        </g>
        <g id="Group_1107129" data-name="Group 1107129" transform="translate(64.464 117.607)" opacity="0.7" style="isolation: isolate">
          <g id="Group_1107128" data-name="Group 1107128">
            <g id="Group_1107127" data-name="Group 1107127" clip-path="url(#clip-path-18)">
              <path id="Path_885420" data-name="Path 885420" d="M80.4,130a35.218,35.218,0,0,0-8.67,1.019.633.633,0,0,0-.468.62V150.4c0,.2,1.1.84,1.1.84V132.331a.633.633,0,0,1,.468-.62,35.524,35.524,0,0,1,7.57-1.059Z" transform="translate(-71.258 -130.001)" fill="#fff"/>
            </g>
          </g>
        </g>
        <g id="Group_1107132" data-name="Group 1107132" transform="translate(69.156 126.181)" opacity="0.5" style="isolation: isolate">
          <g id="Group_1107131" data-name="Group 1107131">
            <g id="Group_1107130" data-name="Group 1107130" clip-path="url(#clip-path-19)">
              <path id="Path_885421" data-name="Path 885421" d="M81.046,146.473a24.928,24.928,0,0,0-4.454-3.867l-.148.206a19.546,19.546,0,0,1,4.6,4.184,44.493,44.493,0,0,1,6.133-7.518,26.754,26.754,0,0,0-6.134,6.995" transform="translate(-76.444 -139.478)" fill="#6bc189"/>
            </g>
          </g>
        </g>
        <g id="Group_1107135" data-name="Group 1107135" transform="translate(22.275 101.081)" opacity="0.1">
          <g id="Group_1107134" data-name="Group 1107134">
            <g id="Group_1107133" data-name="Group 1107133" clip-path="url(#clip-path-20)">
              <path id="Path_885422" data-name="Path 885422" d="M24.623,158.365c10.624-10.111,37.617-36.1,48.552-46.631H44.536c-5.85,4.238-14.475,10.493-19.913,14.462Z" transform="translate(-24.623 -111.733)" fill="#fff"/>
              <path id="Path_885423" data-name="Path 885423" d="M31.814,180.631H77.327l50.053-52.553v-9.295a7.049,7.049,0,0,0-7.05-7.049H98.8L26.1,177.7a7.033,7.033,0,0,0,5.709,2.927" transform="translate(-24.764 -111.733)" fill="#fff"/>
              <path id="Path_885424" data-name="Path 885424" d="M127.829,184.065a7.05,7.05,0,0,0,7.05-7.05v-29.25c-8.43,10.179-22.361,27-30.084,36.3Z" transform="translate(-32.266 -115.168)" fill="#fff"/>
            </g>
          </g>
        </g>
        <path id="Path_885425" data-name="Path 885425" d="M173.262,62.644a3.172,3.172,0,0,1-3.171,3.173h-55.57a3.172,3.172,0,0,1-3.173-3.171V55.327a3.172,3.172,0,0,1,3.171-3.173h55.57a3.172,3.172,0,0,1,3.173,3.171v7.319Z" transform="translate(-10.616 -4.972)" fill="#fff9e9"/>
        <path id="Path_885426" data-name="Path 885426" d="M111.35,63.359a3.172,3.172,0,0,0,3.172,3.173h55.569a3.173,3.173,0,0,0,3.173-3.171V59.7H111.35Z" transform="translate(-10.616 -5.692)" fill="#f4ecd4"/>
        <path id="Path_885427" data-name="Path 885427" d="M122.988,59.247l1.658-1.145a1,1,0,1,0-1.139-1.648l-1.267.872V55.787a1,1,0,0,0-2,0v1.5l-1.223-.87a1,1,0,0,0-1.238,1.574.892.892,0,0,0,.076.054l1.642,1.168-1.658,1.145a1,1,0,0,0,.571,1.826.984.984,0,0,0,.568-.181l1.267-.872v1.538a1,1,0,1,0,2,0v-1.5l1.223.87a1,1,0,0,0,1.163-1.628Z" transform="translate(-11.192 -5.223)" fill="#af9e82"/>
        <path id="Path_885428" data-name="Path 885428" d="M136.261,59.247,137.92,58.1a1,1,0,1,0-1.139-1.648l-1.267.872V55.787a1,1,0,0,0-2,0v1.5l-1.223-.87a1,1,0,0,0-1.163,1.628l1.642,1.168-1.658,1.145a1,1,0,0,0,.571,1.826.984.984,0,0,0,.568-.181l1.267-.872v1.538a1,1,0,1,0,2,0v-1.5l1.223.87a1,1,0,0,0,1.162-1.628Z" transform="translate(-12.458 -5.223)" fill="#af9e82"/>
        <path id="Path_885429" data-name="Path 885429" d="M169.164,59.247l1.658-1.145a1,1,0,1,0-1.139-1.648l-1.267.872V55.787a1,1,0,0,0-2,0v1.5l-1.223-.87a1,1,0,0,0-1.238,1.574.888.888,0,0,0,.076.054l1.642,1.168-1.658,1.145a1,1,0,0,0,.571,1.826.984.984,0,0,0,.568-.181l1.267-.872v1.538a1,1,0,1,0,2,0v-1.5l1.223.87a1,1,0,0,0,1.162-1.628Z" transform="translate(-15.594 -5.223)" fill="#af9e82"/>
        <g id="Group_1107138" data-name="Group 1107138" transform="translate(100.733 47.177)" opacity="0.2" style="isolation: isolate">
          <g id="Group_1107137" data-name="Group 1107137">
            <g id="Group_1107136" data-name="Group 1107136" clip-path="url(#clip-path-21)">
              <path id="Path_885430" data-name="Path 885430" d="M170.091,52.149H114.522a3.172,3.172,0,0,0-3.172,3.171v1.03a3.172,3.172,0,0,1,3.172-3.173h55.569a3.172,3.172,0,0,1,3.172,3.171V55.326a3.173,3.173,0,0,0-3.168-3.177Z" transform="translate(-111.349 -52.149)" fill="#c1ae95"/>
            </g>
          </g>
        </g>
        <g id="Group_1107141" data-name="Group 1107141" transform="translate(100.733 56.644)" opacity="0.2" style="isolation: isolate">
          <g id="Group_1107140" data-name="Group 1107140">
            <g id="Group_1107139" data-name="Group 1107139" clip-path="url(#clip-path-21)">
              <path id="Path_885431" data-name="Path 885431" d="M170.091,66.813H114.522a3.172,3.172,0,0,1-3.172-3.171v-1.03a3.172,3.172,0,0,0,3.172,3.173h55.569a3.172,3.172,0,0,0,3.172-3.173v1.028a3.172,3.172,0,0,1-3.172,3.173" transform="translate(-111.349 -62.613)" fill="#c1ae95"/>
            </g>
          </g>
        </g>
        <path id="Path_885432" data-name="Path 885432" d="M170.07,66.016H114.5a3.4,3.4,0,0,1-3.4-3.4V55.3a3.4,3.4,0,0,1,3.4-3.4H170.07a3.4,3.4,0,0,1,3.4,3.4V62.62a3.4,3.4,0,0,1-3.4,3.4M114.5,52.356a2.952,2.952,0,0,0-2.948,2.948v7.317a2.952,2.952,0,0,0,2.948,2.948H170.07a2.952,2.952,0,0,0,2.948-2.948V55.3a2.952,2.952,0,0,0-2.948-2.948Z" transform="translate(-10.592 -4.948)" fill="#c1ae95"/>
        <path id="Path_885433" data-name="Path 885433" d="M115.766,53.84a4.326,4.326,0,0,0-1.925,1.7,21.033,21.033,0,0,0-1.074,5.447s-.6-4.017.211-5.831c.69-1.551,2.788-1.317,2.788-1.317" transform="translate(-10.73 -5.132)" fill="#fff"/>
        <path id="Path_885434" data-name="Path 885434" d="M175.027,64.673a4.324,4.324,0,0,0,1.924-1.7,20.989,20.989,0,0,0,1.074-5.446s.6,4.017-.211,5.831c-.691,1.55-2.787,1.316-2.787,1.316" transform="translate(-16.686 -5.484)" fill="#fff"/>
        <g id="Group_1107144" data-name="Group 1107144" transform="translate(129.687 39.83)" opacity="0.5" style="isolation: isolate">
          <g id="Group_1107143" data-name="Group 1107143">
            <g id="Group_1107142" data-name="Group 1107142" clip-path="url(#clip-path-23)">
              <path id="Path_885435" data-name="Path 885435" d="M152.032,59.694q.326-.046.638-.118l.025-.005c.205-.047.408-.1.607-.163l.029-.009c.2-.063.393-.133.583-.211l.013-.005a6.909,6.909,0,0,0,2.453-1.694c.034-.037.071-.072.1-.109.09-.1.181-.215.264-.326.052-.067.107-.134.157-.2.073-.1.141-.208.209-.315.055-.09.111-.174.162-.264s.113-.206.167-.312.1-.208.15-.315.09-.206.131-.312.09-.242.129-.362c.034-.1.068-.205.1-.31.039-.137.07-.277.1-.419.022-.1.047-.2.065-.3.03-.163.051-.332.071-.5.01-.09.025-.172.032-.261.024-.261.036-.528.036-.8a9.019,9.019,0,0,0-1.273-4.668,7.268,7.268,0,0,0-6.18-3.681,7.159,7.159,0,0,0-5.751,3.038,8.938,8.938,0,0,0-1.7,5.31c0,.271.014.543.037.8.007.09.022.174.032.261.02.169.043.337.071.5.019.1.043.2.065.3.032.141.063.282.1.419.031.106.064.208.1.31.041.123.083.245.129.362s.085.209.131.312.1.212.15.315.109.211.167.312.108.181.162.264c.068.107.137.213.209.315.051.07.1.137.156.2.086.11.173.221.264.326.035.038.071.073.1.109a6.929,6.929,0,0,0,2.453,1.694l.012.005q.286.117.584.211l.029.009q.3.092.605.163l.025.005q.315.071.638.118V80.063h2.643v-.736h4.41V78.018h-1.308V75.076h.735V73.768h-.654V71.4h1.227V70.252h-4.606V59.694Zm-3.14-9.16a2.16,2.16,0,0,1-.283-1.058,2.2,2.2,0,0,1,4.019-1.229,2.124,2.124,0,0,1,.2.373,2.191,2.191,0,0,1-3.938,1.913Z" transform="translate(-143.354 -44.027)" fill="#c1ae95"/>
            </g>
          </g>
        </g>
        <path id="Path_885436" data-name="Path 885436" d="M150.8,42.694c-4.116,0-7.453,3.738-7.453,8.348a7.453,7.453,0,1,0,14.905,0c0-4.611-3.336-8.348-7.453-8.348m0,7.649a2.2,2.2,0,1,1,2.2-2.2,2.2,2.2,0,0,1-2.2,2.2" transform="translate(-13.667 -4.07)" fill="#ffda78"/>
        <path id="Path_885437" data-name="Path 885437" d="M150.234,58.041V80.2h2.453V79.46H157.1V78.151H155.8V75.208h.736V73.9h-.658V71.528H157.1V70.384h-4.416V58.041Z" transform="translate(-14.323 -5.533)" fill="#ffda78"/>
        <g id="Group_1107147" data-name="Group 1107147" transform="translate(129.72 47.737)" opacity="0.4" style="isolation: isolate">
          <g id="Group_1107146" data-name="Group 1107146">
            <g id="Group_1107145" data-name="Group 1107145" clip-path="url(#clip-path-24)">
              <path id="Path_885438" data-name="Path 885438" d="M158.226,52.768a9.371,9.371,0,0,1-14.836,0,7.09,7.09,0,0,0,7.418,6.649c.063,0,.125-.006.188-.007V79.692h.814V59.353a7,7,0,0,0,6.416-6.585" transform="translate(-143.39 -52.768)" fill="#ffda78"/>
            </g>
          </g>
        </g>
        <g id="Group_1107150" data-name="Group 1107150" transform="translate(138.141 66.222)" opacity="0.4" style="isolation: isolate">
          <g id="Group_1107149" data-name="Group 1107149">
            <g id="Group_1107148" data-name="Group 1107148" clip-path="url(#clip-path-25)">
              <path id="Path_885439" data-name="Path 885439" d="M152.7,73.2v6.124h2.466V76.941H153.9V75.061h1.261V73.2Z" transform="translate(-152.699 -73.201)" fill="#ffda78"/>
            </g>
          </g>
        </g>
        <path id="Path_885440" data-name="Path 885440" d="M152.231,78.933h-2.9v-20.4a7.237,7.237,0,0,1-6.226-7.509c0-4.727,3.443-8.574,7.676-8.574s7.677,3.846,7.677,8.574a7.237,7.237,0,0,1-6.226,7.509V68.673h4.415v1.592h-1.224v1.927h.654v1.757h-.736v2.5h1.308V78.2h-4.415v.736Zm-2.453-.452h2v-.735H156.2v-.86h-1.308V73.5h.736v-.86h-.656V69.819H156.2v-.7h-4.415V58.146l.193-.027a6.814,6.814,0,0,0,6.036-7.1c0-4.48-3.242-8.125-7.229-8.125s-7.228,3.645-7.228,8.125a6.813,6.813,0,0,0,6.033,7.1l.193.027V78.481Zm1-27.941a2.421,2.421,0,1,1,2.421-2.421,2.421,2.421,0,0,1-2.421,2.421Zm0-4.394a1.973,1.973,0,1,0,1.973,1.973,1.973,1.973,0,0,0-1.973-1.973Z" transform="translate(-13.642 -4.047)" fill="#fcb738"/>
        <path id="Path_885441" data-name="Path 885441" d="M55.6,59.246A10.061,10.061,0,1,0,65.663,69.308,10.061,10.061,0,0,0,55.6,59.246m0,16.587a6.526,6.526,0,1,1,6.525-6.525A6.525,6.525,0,0,1,55.6,75.833" transform="translate(-4.342 -5.648)" fill="#ffd997"/>
        <path id="Path_885442" data-name="Path 885442" d="M58.806,56.516H53.959l-.283,3.47h5.412Z" transform="translate(-5.117 -5.388)" fill="#ffd997"/>
        <path id="Path_885443" data-name="Path 885443" d="M58.806,83.733H53.959l-.283-3.47h5.412Z" transform="translate(-5.117 -7.652)" fill="#ffd997"/>
        <path id="Path_885444" data-name="Path 885444" d="M67.673,62.088l-3.429-3.43-2.653,2.255,3.826,3.827Z" transform="translate(-5.872 -5.592)" fill="#ffd997"/>
        <path id="Path_885445" data-name="Path 885445" d="M48.447,81.308,45.019,77.88l2.254-2.654L51.1,79.052Z" transform="translate(-4.292 -7.172)" fill="#ffd997"/>
        <path id="Path_885446" data-name="Path 885446" d="M70.093,72.445V67.6l-3.47-.283v5.412Z" transform="translate(-6.351 -6.418)" fill="#ffd997"/>
        <path id="Path_885447" data-name="Path 885447" d="M42.877,72.445V67.6l3.47-.283v5.412Z" transform="translate(-4.088 -6.418)" fill="#ffd997"/>
        <path id="Path_885448" data-name="Path 885448" d="M64.245,81.308l3.429-3.429L65.42,75.225,61.6,79.058Z" transform="translate(-5.872 -7.172)" fill="#ffd997"/>
        <path id="Path_885449" data-name="Path 885449" d="M45.018,62.088l3.429-3.43L51.1,60.913,47.274,64.74Z" transform="translate(-4.292 -5.592)" fill="#ffd997"/>
        <path id="Path_885450" data-name="Path 885450" d="M13.636,63.869l1.9-1.312a1.147,1.147,0,0,0-1.3-1.887l-1.447,1v-1.76a1.148,1.148,0,1,0-2.3,0V61.63l-1.4-1A1.148,1.148,0,1,0,7.758,62.5l1.881,1.338-1.9,1.312a1.145,1.145,0,1,0,1.305,1.883l1.447-1V67.8a1.148,1.148,0,1,0,2.3,0V66.079l1.4,1A1.148,1.148,0,0,0,15.518,65.2Z" transform="translate(-0.69 -5.602)" fill="#ffd997"/>
        <path id="Path_885451" data-name="Path 885451" d="M170.708,77.463,172,76.57a.781.781,0,0,0-.888-1.285l-.984.679v-1.2a.782.782,0,1,0-1.562-.053.519.519,0,0,0,0,.053v1.171l-.954-.678a.781.781,0,0,0-.94,1.248l.035.024,1.28.91-1.294.893a.781.781,0,0,0,.445,1.423.77.77,0,0,0,.443-.138l.985-.68v1.2a.782.782,0,1,0,1.562.053.519.519,0,0,0,0-.053v-1.17l.954.678a.781.781,0,0,0,.94-1.248l-.035-.024Z" transform="translate(-15.86 -7.051)" fill="#ffd997"/>
        <path id="Path_885452" data-name="Path 885452" d="M161.559,90.748s8.949-3.573,17.9,0c0,0-1.583,12.872-8.949,18.785a31.074,31.074,0,0,1-8.949-18.785" transform="translate(-15.402 -8.5)" fill="#ffd997"/>
        <path id="Path_885453" data-name="Path 885453" d="M171.454,90.91v8.6h5.178a63.548,63.548,0,0,0,1.751-7.461,14.858,14.858,0,0,0-6.929-1.138" transform="translate(-16.346 -8.663)" fill="#fff4bb"/>
        <path id="Path_885454" data-name="Path 885454" d="M170.893,100.42v8.125a21.586,21.586,0,0,1-5.325-8.125Z" transform="translate(-15.785 -9.574)" fill="#fff4bb"/>
        <rect id="Rectangle_406697" data-name="Rectangle 406697" width="30.035" height="19.878" rx="5.057" transform="translate(0 108.468)" fill="#ffd997"/>
        <path id="Path_885455" data-name="Path 885455" d="M24.406,138.913H5.837A4.621,4.621,0,0,1,1.1,134.423v-8.968a4.622,4.622,0,0,1,4.733-4.491H24.406a4.622,4.622,0,0,1,4.734,4.491v8.968a4.623,4.623,0,0,1-4.734,4.491M5.837,122.3a3.29,3.29,0,0,0-3.4,3.158v8.968a3.29,3.29,0,0,0,3.4,3.158H24.406a3.291,3.291,0,0,0,3.4-3.158v-8.968a3.291,3.291,0,0,0-3.4-3.158Z" transform="translate(-0.105 -11.532)" fill="#fff4bb"/>
        <path id="Path_885456" data-name="Path 885456" d="M11.258,130.668A2.054,2.054,0,1,1,9.2,128.614a2.053,2.053,0,0,1,2.054,2.054" transform="translate(-0.682 -12.261)" fill="#fff4bb"/>
        <path id="Path_885457" data-name="Path 885457" d="M18.436,130.668a2.054,2.054,0,1,1-2.054-2.054,2.053,2.053,0,0,1,2.054,2.054" transform="translate(-1.366 -12.261)" fill="#fff4bb"/>
        <path id="Path_885458" data-name="Path 885458" d="M25.614,130.668a2.054,2.054,0,1,1-2.054-2.054,2.053,2.053,0,0,1,2.054,2.054" transform="translate(-2.05 -12.261)" fill="#fff4bb"/>
        <path id="Path_885459" data-name="Path 885459" d="M28.142,141.389H34.4a.381.381,0,0,0,.339-.55l-2.024-4.025Z" transform="translate(-2.683 -13.043)" fill="#ffd997"/>
        <path id="Path_885460" data-name="Path 885460" d="M129.424,81.955a3.952,3.952,0,0,0-.865-2.472L119.778,87l8.775,6.756a3.953,3.953,0,0,0,.873-2.481V81.956Z" transform="translate(-11.419 -7.578)" fill="#ffd997"/>
        <path id="Path_885461" data-name="Path 885461" d="M114.795,88.233l11.337-9.705a3.954,3.954,0,0,0-2.262-.707H105.73a3.955,3.955,0,0,0-2.485.876Z" transform="translate(-9.843 -7.419)" fill="#ffd997"/>
        <path id="Path_885462" data-name="Path 885462" d="M102.3,79.728a3.954,3.954,0,0,0-.7,2.249V91.3a3.953,3.953,0,0,0,.873,2.481l8.716-6.712Z" transform="translate(-9.686 -7.601)" fill="#ffd997"/>
        <path id="Path_885463" data-name="Path 885463" d="M117.328,88.642,115.2,90.46a.578.578,0,0,1-.745.006l-2.171-1.794-8.775,6.755a3.957,3.957,0,0,0,2.242.693H123.9a3.957,3.957,0,0,0,2.242-.693Z" transform="translate(-9.868 -8.451)" fill="#ffd997"/>
        <path id="Path_885464" data-name="Path 885464" d="M82.905.387,72.711,16,71.152,33.233,87.57,31.814s17.644-20.075,16.211-18.641C86.62,7.433,82.905.387,82.905.387" transform="translate(-6.783 -0.037)" fill="#75b2d1"/>
        <path id="Path_885465" data-name="Path 885465" d="M78.018,12.84,75.13,17.02A15.487,15.487,0,0,0,79.092,19.9l2.756-3.689a19.821,19.821,0,0,1-3.829-3.373" transform="translate(-7.163 -1.224)" fill="#4e81a4"/>
        <path id="Path_885466" data-name="Path 885466" d="M80.141,10.078l-1.148,1.559s5.876,6.686,17.291,9.862l1.247-1.486a32.318,32.318,0,0,1-17.389-9.934" transform="translate(-7.531 -0.961)" fill="#4e81a4"/>
        <path id="Path_885467" data-name="Path 885467" d="M83.8,17.46l-.88,1.188s3.793,3.326,11.905,5.8l.887-1.18S88.418,21.082,83.8,17.46" transform="translate(-7.905 -1.665)" fill="#4e81a4"/>
        <path id="Path_885468" data-name="Path 885468" d="M81.972,20.185l-.88,1.188s3.793,3.32,11.905,5.8L93.885,26s-7.3-2.189-11.913-5.811" transform="translate(-7.731 -1.924)" fill="#4e81a4"/>
        <path id="Path_885469" data-name="Path 885469" d="M83.831,4.332l-2.972,4.29s6.923,8.072,17.457,9.861l3.277-3.867S90.315,11.758,83.831,4.332" transform="translate(-7.709 -0.413)" fill="#4e81a4"/>
        <path id="Path_885470" data-name="Path 885470" d="M72.6,18.178,69.63,22.466s6.923,8.073,17.457,9.862l3.277-3.867S79.086,25.608,72.6,18.178" transform="translate(-6.638 -1.733)" fill="#4e81a4"/>
        <g id="Group_1107153" data-name="Group 1107153" transform="translate(74.407 15.958)" opacity="0.5" style="isolation: isolate">
          <g id="Group_1107152" data-name="Group 1107152">
            <g id="Group_1107151" data-name="Group 1107151" clip-path="url(#clip-path-26)">
              <path id="Path_885471" data-name="Path 885471" d="M102.461,17.64A24.988,24.988,0,0,0,82.248,29.094l4.62,2.64,12.17-10.157Z" transform="translate(-82.248 -17.64)" fill="#75b2d1"/>
            </g>
          </g>
        </g>
        <path id="Path_885472" data-name="Path 885472" d="M71.118,33.545a.35.35,0,0,1-.349-.351c0-.01,0-.02,0-.03l1.553-17.237a.362.362,0,0,1,.056-.16L82.578.158A.354.354,0,0,1,82.889,0a.35.35,0,0,1,.293.185c.037.07,3.893,7,20.672,12.618a.349.349,0,0,1,.222.441.335.335,0,0,1-.069.119L87.8,32.006a.355.355,0,0,1-.234.119L71.15,33.542Zm1.889-17.469L71.5,32.811l15.856-1.371L103.131,13.3C88.8,8.409,84.011,2.691,82.859,1Z" transform="translate(-6.747 0)" fill="#4e81a4"/>
        <path id="Path_885473" data-name="Path 885473" d="M113.785,41.621l1.553,1.1.845-1.52-.85-.252Z" transform="translate(-10.848 -3.904)" fill="#8c92a5"/>
        <path id="Path_885474" data-name="Path 885474" d="M84.79,30.278s8.51-8.815,18.44-8.815c0,0,4.291,12.847,9.219,17.628a155.538,155.538,0,0,0-19.655,5.065H83.473Z" transform="translate(-7.958 -2.046)" fill="#c9d1f0"/>
        <path id="Path_885475" data-name="Path 885475" d="M92.812,44.471H83.043l1.366-14.383L84.494,30c.086-.09,8.728-8.921,18.69-8.921h.251l.081.239c.043.128,4.321,12.821,9.131,17.489l.489.473-.67.121a156.3,156.3,0,0,0-19.6,5.056Zm-9-.7h8.878A156.412,156.412,0,0,1,111.7,38.833c-4.418-4.75-8.152-15.275-8.763-17.055-9.046.138-16.952,7.726-17.854,8.625Z" transform="translate(-7.917 -2.009)" fill="#989db2"/>
        <path id="Path_885476" data-name="Path 885476" d="M90.055,28.472A14.851,14.851,0,0,1,94.738,26a55.922,55.922,0,0,0,6.941,14.236,32.1,32.1,0,0,0-5.483,1.9c-4.294-5.2-6.141-13.669-6.141-13.669" transform="translate(-8.585 -2.479)" fill="#989db2"/>
        <path id="Path_885477" data-name="Path 885477" d="M102.531,23.405a41.325,41.325,0,0,0,1.892,4.458,35.018,35.018,0,0,0-5.742,1.351,25.13,25.13,0,0,1-1.621-4.171,21.415,21.415,0,0,1,5.471-1.638" transform="translate(-9.253 -2.231)" fill="#989db2"/>
        <path id="Path_885478" data-name="Path 885478" d="M111.171,39.585s-.727.084-1.443.237a23.187,23.187,0,0,1-1.656-2.634,11.265,11.265,0,0,1,1.342-.286c.659,1.115,1.757,2.683,1.757,2.683" transform="translate(-10.303 -3.518)" fill="#989db2"/>
        <path id="Path_885479" data-name="Path 885479" d="M106.688,39.789c.443-.086.872-.162,1.277-.228a29.965,29.965,0,0,1-3.9-8.455c-.519.1-1.01.2-1.463.3a30.254,30.254,0,0,0,4.089,8.378" transform="translate(-9.781 -2.966)" fill="#989db2"/>
        <path id="Path_885480" data-name="Path 885480" d="M100.939,31.828c-.5.138-.9.258-1.168.344a34.855,34.855,0,0,0,4.215,8.241c.441-.117.873-.219,1.295-.312-1.987-2.307-3.873-7.039-4.341-8.272" transform="translate(-9.512 -3.034)" fill="#989db2"/>
        <path id="Path_885481" data-name="Path 885481" d="M88.468,44.938c0,8.682-7.765,15.72-17.341,15.72H29.784c-9.578,0-17.342-7.038-17.342-15.72v-.71c0-8.681,7.765-15.719,17.342-15.719H71.126c9.578,0,17.342,7.038,17.342,15.719v.71Z" transform="translate(-1.186 -2.718)" fill="#fff9e9"/>
        <path id="Path_885482" data-name="Path 885482" d="M29.268,24.7a7.849,7.849,0,1,1,5.825,9.448A7.849,7.849,0,0,1,29.268,24.7" transform="translate(-2.77 -1.779)" fill="#fff9e9"/>
        <path id="Path_885483" data-name="Path 885483" d="M47.669,12.941a16.913,16.913,0,1,1,0,23.918,16.913,16.913,0,0,1,0-23.918" transform="translate(-4.072 -0.761)" fill="#fff9e9"/>
        <path id="Path_885484" data-name="Path 885484" d="M71.093,58.98H29.75c-9.732,0-17.649-7.189-17.649-16.03v-.709c0-7.95,6.465-14.717,15.088-15.856a7.519,7.519,0,0,1-.062-.935A8.146,8.146,0,0,1,40.46,19.156a17.222,17.222,0,0,1,33.473,5.7c0,.507-.024,1.027-.071,1.547,8.5,1.218,14.882,7.976,14.882,15.829v.71c0,8.842-7.919,16.033-17.65,16.033M35.284,17.913A7.489,7.489,0,0,0,27.84,26.6l.049.312-.318.036c-8.469.979-14.86,7.549-14.86,15.282v.709c0,8.5,7.641,15.412,17.034,15.412H71.088c9.392,0,17.034-6.914,17.034-15.412v-.709c0-7.635-6.294-14.2-14.638-15.258l-.3-.038.033-.3a16.957,16.957,0,0,0,.1-1.78,16.606,16.606,0,0,0-32.421-5.074l-.147.46-.356-.329a7.518,7.518,0,0,0-5.1-2" transform="translate(-1.154 -0.728)" fill="#c1ae95"/>
        <path id="Path_885485" data-name="Path 885485" d="M48.564,24.287A14.285,14.285,0,0,1,71.55,17.217a14.282,14.282,0,0,0-26.259,5.1Z" transform="translate(-4.318 -0.991)" fill="#fff"/>
        <path id="Path_885486" data-name="Path 885486" d="M37.558,22.706a5.879,5.879,0,0,1,3,.823,5.923,5.923,0,0,0-10.522,5.29c-8.384.591-14.988,6.945-14.988,14.7v.667a14.583,14.583,0,0,0,8.343,12.876A14.2,14.2,0,0,1,17.613,45.8v-.667c0-6.587,4.791-13.189,14.33-14.637-1.293-2.957,1.036-7.786,5.615-7.786" transform="translate(-1.435 -1.985)" fill="#fff"/>
        <path id="Path_885487" data-name="Path 885487" d="M67.458,44.714A2.882,2.882,0,0,1,64.576,47.6H35.155a2.882,2.882,0,0,1-2.882-2.882V44.6a2.882,2.882,0,0,1,2.882-2.882H64.579A2.883,2.883,0,0,1,67.463,44.6Z" transform="translate(-3.077 -3.977)" fill="#af9e82"/>
        <path id="Path_885488" data-name="Path 885488" d="M66.545,44.775a2.182,2.182,0,0,1-2.177,2.187H35.624a2.182,2.182,0,0,1-2.182-2.182v-.089a2.182,2.182,0,0,1,2.182-2.182H64.357a2.182,2.182,0,0,1,2.187,2.177v.089Z" transform="translate(-3.188 -4.053)" fill="#c9d1f0"/>
        <path id="Path_885489" data-name="Path 885489" d="M79.49,44.649A3.054,3.054,0,1,1,76.436,41.6a3.054,3.054,0,0,1,3.054,3.054" transform="translate(-6.996 -3.965)" fill="#0d66a8"/>
        <path id="Path_885490" data-name="Path 885490" d="M37.819,44.742l.671-.462a.405.405,0,0,0-.43-.688.374.374,0,0,0-.031.022l-.511.352v-.623a.405.405,0,0,0-.811,0v.61l-.495-.353a.405.405,0,1,0-.47.66l.664.471-.671.462a.406.406,0,0,0,.46.668l.511-.353v.624a.405.405,0,0,0,.811,0v-.608l.495.352a.405.405,0,1,0,.47-.659Z" transform="translate(-3.39 -4.093)" fill="#af9e82"/>
        <path id="Path_885491" data-name="Path 885491" d="M42.759,44.742l.671-.462a.405.405,0,0,0-.43-.688.374.374,0,0,0-.031.022l-.511.352v-.623a.405.405,0,0,0-.811,0v.61l-.495-.353a.405.405,0,0,0-.47.66l.664.471-.671.462a.406.406,0,0,0,.461.668l.511-.353v.624a.405.405,0,0,0,.811,0h0v-.608l.495.352a.405.405,0,1,0,.47-.659Z" transform="translate(-3.861 -4.093)" fill="#af9e82"/>
        <path id="Path_885492" data-name="Path 885492" d="M47.7,44.742l.671-.462a.405.405,0,0,0-.43-.688.375.375,0,0,0-.031.022l-.511.352v-.623a.405.405,0,0,0-.811,0v.61l-.495-.353a.405.405,0,1,0-.47.66l.664.471-.671.462a.406.406,0,0,0,.46.668l.511-.353v.624a.405.405,0,0,0,.811,0h0v-.608l.495.352a.405.405,0,1,0,.47-.659Z" transform="translate(-4.332 -4.093)" fill="#af9e82"/>
        <path id="Path_885493" data-name="Path 885493" d="M52.639,44.742l.671-.462a.405.405,0,0,0-.43-.688.374.374,0,0,0-.031.022l-.511.352v-.623a.405.405,0,1,0-.811,0v.61l-.495-.353a.405.405,0,1,0-.47.66l.664.471-.671.462a.406.406,0,1,0,.461.668l.511-.353v.624a.405.405,0,0,0,.811,0h0v-.608l.495.352a.405.405,0,1,0,.47-.659Z" transform="translate(-4.803 -4.093)" fill="#af9e82"/>
        <path id="Path_885494" data-name="Path 885494" d="M62.286,46.723H56.409a.35.35,0,0,1,0-.7h5.877a.35.35,0,1,1,0,.7" transform="translate(-5.345 -4.388)" fill="#af9e82"/>
        <path id="Path_885495" data-name="Path 885495" d="M77.958,45.184H74.41a.242.242,0,1,1,0-.484h3.545a.242.242,0,0,1,0,.484Z" transform="translate(-7.071 -4.262)" fill="#fff"/>
        <path id="Path_885496" data-name="Path 885496" d="M78.332,45.054a.235.235,0,0,1-.164-.064L76.81,43.742a.242.242,0,0,1,.327-.356l1.357,1.247a.243.243,0,0,1,.005.343.237.237,0,0,1-.169.072Z" transform="translate(-7.316 -4.131)" fill="#fff"/>
        <path id="Path_885497" data-name="Path 885497" d="M76.974,46.433a.242.242,0,0,1-.237-.247.238.238,0,0,1,.073-.168l1.357-1.248a.242.242,0,0,1,.327.356l-1.357,1.248a.238.238,0,0,1-.163.059" transform="translate(-7.316 -4.263)" fill="#fff"/>
      </g>
    </g>
  </g>
</svg>
