<svg xmlns="http://www.w3.org/2000/svg" width="85" height="91" viewBox="0 0 85 91">
  <g id="Group_1106235" data-name="Group 1106235" transform="translate(-599.755 -2139)">
    <rect id="Rectangle_405977" data-name="Rectangle 405977" width="85" height="91" transform="translate(599.755 2139)" fill="#4dceff"/>
    <g id="FILLED_OUTLINE" data-name="FILLED OUTLINE" transform="translate(599.257 2141.502)">
      <path id="Path_883609" data-name="Path 883609" d="M16,240H70v1.8H16Z" transform="translate(-0.001 -198.802)" fill="#c1b6a7"/>
      <rect id="Rectangle_406088" data-name="Rectangle 406088" width="24" height="3" rx="1.5" transform="translate(31 36.997)" fill="#d6cbb9"/>
      <path id="Path_883610" data-name="Path 883610" d="M168,232l1.8,18H186l1.8-18Z" transform="translate(-134.902 -191.702)" fill="#c1b6a7"/>
      <path id="Path_883611" data-name="Path 883611" d="M40.977,24H25.8A1.8,1.8,0,0,0,24,25.8V36.6a1.8,1.8,0,0,0,1.8,1.8H36.6a1.8,1.8,0,0,0,1.8-1.8V29.725a.9.9,0,0,1,.209-.576l3.061-3.673A.9.9,0,0,0,40.977,24Z" transform="translate(-7.101 -7.1)" fill="#9bcbd3"/>
      <path id="Path_883612" data-name="Path 883612" d="M142.148,120h-27.9a2.25,2.25,0,0,0,0,4.5h7.65V129h12.6v-4.5h7.65a2.25,2.25,0,1,0,0-4.5Z" transform="translate(-85.201 -92.301)" fill="#03628c"/>
      <path id="Path_883613" data-name="Path 883613" d="M242.7,152h-1.8l-.9,5.4h3.6Z" transform="translate(-198.802 -120.701)" fill="#e2493d"/>
      <ellipse id="Ellipse_11859" data-name="Ellipse 11859" cx="2" cy="1.5" rx="2" ry="1.5" transform="translate(41 28.997)" fill="#c93831"/>
      <path id="Path_883614" data-name="Path 883614" d="M360,124.5V120h2.25a2.25,2.25,0,0,1,0,4.5Z" transform="translate(-305.303 -92.301)" fill="#e8d6d6"/>
      <path id="Path_883615" data-name="Path 883615" d="M358.4,24H344.9a.9.9,0,0,0-.72,1.44l1.44,1.92a.9.9,0,0,1,.18.54V33a1.8,1.8,0,0,0,1.8,1.8h10.8a1.8,1.8,0,0,0,1.8-1.8V25.8a1.8,1.8,0,0,0-1.8-1.8Z" transform="translate(-291.103 -7.1)" fill="#9bcbd3"/>
      <path id="Path_883616" data-name="Path 883616" d="M233.2,285.3a2.7,2.7,0,0,0-1.2,2.246v1.61a2.7,2.7,0,0,0,1.2,2.246l1.435.957a.112.112,0,0,0,.125,0l1.435-.957a2.7,2.7,0,0,0,1.2-2.246v-1.61a2.7,2.7,0,0,0-4.2-2.246Z" transform="translate(-191.702 -238.601)" fill="#7f7367"/>
      <path id="Path_883617" data-name="Path 883617" d="M197.737,353.88,192.1,352l-5.638,1.879A3.6,3.6,0,0,0,184,357.295v6.4a1.8,1.8,0,0,0,3.6,0v3.6h9v-3.6a1.8,1.8,0,0,0,3.6,0v-6.4A3.6,3.6,0,0,0,197.737,353.88Z" transform="translate(-149.102 -298.203)" fill="#03506b"/>
      <path id="Path_883618" data-name="Path 883618" d="M73.2,285.3a2.7,2.7,0,0,0-1.2,2.246v1.61a2.7,2.7,0,0,0,1.2,2.246l1.435.957a.112.112,0,0,0,.125,0L76.2,291.4a2.7,2.7,0,0,0,1.2-2.246v-1.61a2.7,2.7,0,0,0-4.2-2.246Z" transform="translate(-49.701 -238.601)" fill="#7f7367"/>
      <path id="Path_883619" data-name="Path 883619" d="M40.2,280a1.8,1.8,0,0,0-1.8,1.8v5.713a1.8,1.8,0,0,1-2.294,1.731L32.1,288.1l-5.638,1.879A3.6,3.6,0,0,0,24,293.394v6.4a1.8,1.8,0,0,0,3.6,0v3.6h9.9v-9h.9a3.6,3.6,0,0,0,3.6-3.6v-9A1.8,1.8,0,0,0,40.2,280Z" transform="translate(-7.101 -234.302)" fill="#03628c"/>
      <path id="Path_883620" data-name="Path 883620" d="M155.6,283.6H152v-1.8a1.8,1.8,0,1,1,3.6,0Z" transform="translate(-120.701 -234.302)" fill="#e8d6d6"/>
      <path id="Path_883621" data-name="Path 883621" d="M48,48h8.1v1.8H48Z" transform="translate(-28.401 -28.4)" fill="#3497b2"/>
      <path id="Path_883622" data-name="Path 883622" d="M48,80h8.1v1.8H48Z" transform="translate(-28.401 -56.801)" fill="#3497b2"/>
      <path id="Path_883623" data-name="Path 883623" d="M48,112h4.5v1.8H48Z" transform="translate(-28.401 -85.201)" fill="#3497b2"/>
      <path id="Path_883624" data-name="Path 883624" d="M384,48h9v1.8h-9Z" transform="translate(-326.603 -28.4)" fill="#3497b2"/>
      <path id="Path_883625" data-name="Path 883625" d="M384,80h9v1.8h-9Z" transform="translate(-326.603 -56.801)" fill="#3497b2"/>
      <path id="Path_883626" data-name="Path 883626" d="M216,48v4.652a4.5,4.5,0,1,0,9,0V48Z" transform="translate(-177.502 -28.4)" fill="#e8d6d6"/>
      <path id="Path_883627" data-name="Path 883627" d="M218.7,24h8.1v.9a2.7,2.7,0,0,1-2.7,2.7H216v-.9A2.7,2.7,0,0,1,218.7,24Z" transform="translate(-177.502 -7.1)" fill="#7f7367"/>
      <path id="Path_883628" data-name="Path 883628" d="M116.5,120v4.5h-2.25a2.25,2.25,0,1,1,0-4.5Z" transform="translate(-85.201 -92.301)" fill="#e8d6d6"/>
      <path id="Path_883629" data-name="Path 883629" d="M24,440h3.6v1.8a1.8,1.8,0,1,1-3.6,0Z" transform="translate(-7.101 -376.303)" fill="#e8d6d6"/>
      <rect id="Rectangle_406089" data-name="Rectangle 406089" width="1" height="5" rx="0.5" transform="translate(20 58.997)" fill="#03506b"/>
      <path id="Path_883630" data-name="Path 883630" d="M377.2,285.3a2.7,2.7,0,0,0-1.2,2.246v1.61a2.7,2.7,0,0,0,1.2,2.246l1.435.957a.112.112,0,0,0,.125,0l1.435-.957a2.7,2.7,0,0,0,1.2-2.246v-1.61a2.7,2.7,0,0,0-4.2-2.246Z" transform="translate(-319.503 -238.601)" fill="#7f7367"/>
      <path id="Path_883631" data-name="Path 883631" d="M344.2,280a1.8,1.8,0,0,0-1.8,1.8v5.713a1.8,1.8,0,0,1-2.294,1.731L336.1,288.1l-5.638,1.879A3.6,3.6,0,0,0,328,293.394v6.4a1.8,1.8,0,0,0,3.6,0v3.6h9.9v-9h.9a3.6,3.6,0,0,0,3.6-3.6v-9A1.8,1.8,0,0,0,344.2,280Z" transform="translate(-276.903 -234.302)" fill="#03628c"/>
      <path id="Path_883632" data-name="Path 883632" d="M459.6,283.6H456v-1.8a1.8,1.8,0,1,1,3.6,0Z" transform="translate(-390.504 -234.302)" fill="#e8d6d6"/>
      <path id="Path_883633" data-name="Path 883633" d="M328,440h3.6v1.8a1.8,1.8,0,0,1-3.6,0Z" transform="translate(-276.903 -376.303)" fill="#e8d6d6"/>
      <rect id="Rectangle_406090" data-name="Rectangle 406090" width="2" height="5" rx="1" transform="translate(54 58.997)" fill="#03506b"/>
      <path id="Path_883634" data-name="Path 883634" d="M184,440h3.6v1.8a1.8,1.8,0,1,1-3.6,0Z" transform="translate(-149.102 -376.303)" fill="#e0bfbf"/>
      <path id="Path_883635" data-name="Path 883635" d="M296,440h3.6v1.8a1.8,1.8,0,1,1-3.6,0Z" transform="translate(-248.502 -376.303)" fill="#e0bfbf"/>
      <rect id="Rectangle_406091" data-name="Rectangle 406091" width="1" height="5" rx="0.5" transform="translate(47 58.997)" fill="#024456"/>
      <rect id="Rectangle_406092" data-name="Rectangle 406092" width="1" height="5" rx="0.5" transform="translate(38 58.997)" fill="#024456"/>
      <g id="Group_1106234" data-name="Group 1106234" transform="translate(15.999 16)">
        <path id="Path_883636" data-name="Path 883636" d="M53.725,41.068A2.7,2.7,0,0,0,52.9,35.8H50.2V33.1h6.75a3.15,3.15,0,1,0,0-6.3h-9.2a5.394,5.394,0,0,0,.646-2.548V20.915A3.6,3.6,0,0,0,50.2,17.8V16h-9a3.6,3.6,0,0,0-3.6,3.6v4.652a5.394,5.394,0,0,0,.646,2.548h-9.2a3.15,3.15,0,0,0,0,6.3H35.8v2.7H33.1a2.7,2.7,0,0,0-.824,5.271l.014.129H16V43H32.478l.193,1.834A2.7,2.7,0,0,0,30.4,47.5v5.713a.9.9,0,0,1-1.147.865l-2.14-.611A3.591,3.591,0,0,0,28.6,50.552v-1.61a3.6,3.6,0,0,0-7.2,0v1.61a3.592,3.592,0,0,0,1.571,2.972l-3.894,1.3A4.494,4.494,0,0,0,16,59.092v6.4a2.7,2.7,0,0,0,3.6,2.546V70H31.3V61a4.476,4.476,0,0,0,2.7-.9v5.4a2.7,2.7,0,0,0,3.6,2.545V70H48.4V68.042a2.693,2.693,0,0,0,2.7-.535,2.7,2.7,0,0,0,2.7.535V70H65.5V61A4.5,4.5,0,0,0,70,56.5v-9a2.7,2.7,0,1,0-5.4,0v5.713a.9.9,0,0,1-1.147.865l-2.14-.611A3.591,3.591,0,0,0,62.8,50.552v-1.61a3.6,3.6,0,1,0-7.2,0v1.61a3.592,3.592,0,0,0,1.571,2.972l-3.894,1.3a4.512,4.512,0,0,0-.971.458L53.532,43H70V41.2H53.712ZM55.6,28.6h1.35a1.35,1.35,0,0,1,0,2.7H55.6Zm-1.8,0v2.7H48.4v4.5H45.56l-.593-3.556a2.687,2.687,0,0,0,.4-3.14c.14-.068.278-.14.413-.221s.284-.183.419-.283ZM41.2,17.8h7.2a1.8,1.8,0,0,1-1.8,1.8H39.4A1.8,1.8,0,0,1,41.2,17.8Zm-1.8,3.6h7.2v2.852a3.6,3.6,0,0,1-7.2,0ZM43,31.3a.9.9,0,0,1-.466-1.669c.155.013.31.023.466.023s.311-.009.466-.023A.9.9,0,0,1,43,31.3Zm.737,4.5H42.26l.452-2.715a2.687,2.687,0,0,0,.57,0ZM30.4,31.3h-1.35a1.35,1.35,0,0,1,0-2.7H30.4Zm1.8,0V28.6h7.6c.135.1.274.2.419.283s.273.153.413.221a2.687,2.687,0,0,0,.4,3.14L40.435,35.8H37.6V31.3Zm-9,17.644a1.8,1.8,0,1,1,3.6,0v1.61a1.8,1.8,0,0,1-.8,1.5l-1,.666-1-.666a1.8,1.8,0,0,1-.8-1.5ZM19.6,65.5a.9.9,0,0,1-1.8,0v-.9h1.8Zm14.4-9a2.7,2.7,0,0,1-2.7,2.7H29.5v9H21.4v-9H19.6v3.6H17.8V59.092a2.7,2.7,0,0,1,1.846-2.561l5.374-1.791,3.738,1.068a2.7,2.7,0,0,0,3.441-2.6V50.2H34Zm0-8.1H32.2v-.9a.9.9,0,1,1,1.8,0Zm3.6,17.1a.9.9,0,0,1-1.8,0v-.9h1.8Zm12.6,0a.9.9,0,0,1-1.8,0v-.9h1.8Zm0-2.7H48.4V59.2H46.6v9H39.4v-9H37.6v3.6H35.8V59.092a2.7,2.7,0,0,1,1.846-2.561L43,54.746l5.353,1.785A2.7,2.7,0,0,1,50.2,59.092Zm-9-12.244v-1.61a1.8,1.8,0,0,1,3.6,0v1.61a1.8,1.8,0,0,1-.8,1.5l-1,.666-1-.666a1.8,1.8,0,0,1-.8-1.5ZM50.453,55.7a4.5,4.5,0,0,0-1.532-.874l-3.894-1.3A3.592,3.592,0,0,0,46.6,50.552v-1.61a3.6,3.6,0,1,0-7.2,0v1.61a3.592,3.592,0,0,0,1.571,2.972l-3.894,1.3a4.5,4.5,0,0,0-1.277.668V47.5A2.7,2.7,0,0,0,34.52,45.2L34.1,41.2H51.9ZM53.8,65.5a.9.9,0,1,1-1.8,0v-.9h1.8Zm12.6-18a.9.9,0,1,1,1.8,0v.9H66.4Zm-9,1.445a1.8,1.8,0,1,1,3.6,0v1.61a1.8,1.8,0,0,1-.8,1.5l-1,.666-1-.666a1.8,1.8,0,0,1-.8-1.5ZM53.843,56.53l5.374-1.791,3.738,1.068a2.7,2.7,0,0,0,3.441-2.6V50.2h1.8v6.3a2.7,2.7,0,0,1-2.7,2.7H63.7v9H55.6v-9H53.8v3.6H52V59.092a2.7,2.7,0,0,1,1.846-2.561ZM52.9,39.4H33.1a.9.9,0,1,1,0-1.8H52.9a.9.9,0,1,1,0,1.8Z" transform="translate(-15.999 -16)"/>
        <path id="Path_883637" data-name="Path 883637" d="M351.3,16H337.8a1.8,1.8,0,0,0-1.44,2.88l1.44,1.92V25h1.8V20.8a1.811,1.811,0,0,0-.36-1.08L337.8,17.8h13.5a.9.9,0,0,1,.9.9v7.2a.9.9,0,0,1-.9.9h-5.4v1.8h5.4a2.7,2.7,0,0,0,2.7-2.7V18.7a2.7,2.7,0,0,0-2.7-2.7Z" transform="translate(-300.002 -16)"/>
        <path id="Path_883638" data-name="Path 883638" d="M18.7,32.2h5.4V30.4H18.7a.9.9,0,0,1-.9-.9V18.7a.9.9,0,0,1,.9-.9H33.877l-3.061,3.673a1.8,1.8,0,0,0-.417,1.152V25h1.8V22.625l3.061-3.673A1.8,1.8,0,0,0,33.877,16H18.7A2.7,2.7,0,0,0,16,18.7V29.5a2.7,2.7,0,0,0,2.7,2.7Z" transform="translate(-16 -16)"/>
        <path id="Path_883639" data-name="Path 883639" d="M48,48h8.1v1.8H48Z" transform="translate(-44.4 -44.4)"/>
        <path id="Path_883640" data-name="Path 883640" d="M48,80h8.1v1.8H48Z" transform="translate(-44.4 -72.8)"/>
        <path id="Path_883641" data-name="Path 883641" d="M48,112h4.5v1.8H48Z" transform="translate(-44.4 -101.201)"/>
        <path id="Path_883642" data-name="Path 883642" d="M384,48h9v1.8h-9Z" transform="translate(-342.603 -44.4)"/>
        <path id="Path_883643" data-name="Path 883643" d="M384,80h9v1.8h-9Z" transform="translate(-342.603 -72.8)"/>
      </g>
    </g>
  </g>
</svg>
