<svg xmlns="http://www.w3.org/2000/svg" width="80" height="80" viewBox="0 0 80 80">
  <g id="Group_1105746" data-name="Group 1105746" transform="translate(-704.668 -6155.5)">
    <rect id="Rectangle_402033" data-name="Rectangle 402033" width="80" height="80" rx="40" transform="translate(704.668 6155.5)" fill="#bfa2f7"/>
    <g id="_14-Phone" data-name="14-Phone" transform="translate(720.4 6171.748)">
      <path id="Path_883396" data-name="Path 883396" d="M23,6H51.206V43.855H23Z" transform="translate(-5.413 -1.546)" fill="#b5efff"/>
      <path id="Path_883397" data-name="Path 883397" d="M23,6h2.227V43.855H23Z" transform="translate(-5.413 -1.546)" fill="#19cffc"/>
      <path id="Path_883398" data-name="Path 883398" d="M51.206,57v1.485a2.969,2.969,0,0,1-2.969,2.969H25.969A2.969,2.969,0,0,1,23,58.485V57Z" transform="translate(-5.413 -14.692)" fill="#f2f6fc"/>
      <path id="Path_883399" data-name="Path 883399" d="M25.227,58.485V57H23v1.485a2.969,2.969,0,0,0,2.969,2.969H28.2A2.969,2.969,0,0,1,25.227,58.485Z" transform="translate(-5.413 -14.692)" fill="#dce1eb"/>
      <path id="Path_883400" data-name="Path 883400" d="M51.206,3.969v.742h-6.68A2.181,2.181,0,0,1,42.3,6.938H31.907A2.181,2.181,0,0,1,29.68,4.711H23V3.969A2.969,2.969,0,0,1,25.969,1H48.237A2.969,2.969,0,0,1,51.206,3.969Z" transform="translate(-5.413 -0.258)" fill="#f2f6fc"/>
      <path id="Path_883401" data-name="Path 883401" d="M28.2,1H25.969A2.969,2.969,0,0,0,23,3.969v.742h2.227V3.969A2.969,2.969,0,0,1,28.2,1Z" transform="translate(-5.413 -0.258)" fill="#dce1eb"/>
      <path id="Path_883402" data-name="Path 883402" d="M34.227,6H32a2.181,2.181,0,0,0,2.227,2.227h2.227A2.181,2.181,0,0,1,34.227,6Z" transform="translate(-7.732 -1.546)" fill="#dce1eb"/>
      <path id="Path_883403" data-name="Path 883403" d="M38,4h5.938V5.485H38Z" transform="translate(-9.279 -1.031)" fill="#9196aa"/>
      <rect id="Rectangle_406081" data-name="Rectangle 406081" width="6" height="6" rx="2" transform="translate(37.268 19.752)" fill="#ffe45c"/>
      <rect id="Rectangle_406082" data-name="Rectangle 406082" width="6" height="6" rx="2" transform="translate(37.268 10.752)" fill="#19cffc"/>
      <rect id="Rectangle_406083" data-name="Rectangle 406083" width="6" height="6" rx="2" transform="translate(28.268 19.752)" fill="#f2f6fc"/>
      <rect id="Rectangle_406084" data-name="Rectangle 406084" width="5" height="6" rx="2" transform="translate(20.268 19.752)" fill="#f2f6fc"/>
      <rect id="Rectangle_406085" data-name="Rectangle 406085" width="6" height="6" rx="2" transform="translate(28.268 10.752)" fill="#ffcdbe"/>
      <path id="Path_883404" data-name="Path 883404" d="M40.227,19.454V16.485A1.489,1.489,0,0,1,41.711,15H39.485A1.489,1.489,0,0,0,38,16.485v2.969a1.489,1.489,0,0,0,1.485,1.485h2.227A1.489,1.489,0,0,1,40.227,19.454Z" transform="translate(-9.279 -3.866)" fill="#faa68e"/>
      <path id="Path_883405" data-name="Path 883405" d="M40.227,31.454V28.485A1.489,1.489,0,0,1,41.711,27H39.485A1.489,1.489,0,0,0,38,28.485v2.969a1.489,1.489,0,0,0,1.485,1.485h2.227A1.489,1.489,0,0,1,40.227,31.454Z" transform="translate(-9.279 -6.959)" fill="#dce1eb"/>
      <path id="Path_883406" data-name="Path 883406" d="M28.227,31.454V28.485A1.489,1.489,0,0,1,29.711,27H27.485A1.489,1.489,0,0,0,26,28.485v2.969a1.489,1.489,0,0,0,1.485,1.485h2.227A1.489,1.489,0,0,1,28.227,31.454Z" transform="translate(-6.186 -6.959)" fill="#dce1eb"/>
      <path id="Path_883407" data-name="Path 883407" d="M52.227,31.454V28.485A1.489,1.489,0,0,1,53.711,27H51.485A1.489,1.489,0,0,0,50,28.485v2.969a1.489,1.489,0,0,0,1.485,1.485h2.227A1.489,1.489,0,0,1,52.227,31.454Z" transform="translate(-12.372 -6.959)" fill="#ffa426"/>
      <path id="Path_883408" data-name="Path 883408" d="M52.227,19.454V16.485A1.489,1.489,0,0,1,53.711,15H51.485A1.489,1.489,0,0,0,50,16.485v2.969a1.489,1.489,0,0,0,1.485,1.485h2.227A1.489,1.489,0,0,1,52.227,19.454Z" transform="translate(-12.372 -3.866)" fill="#1ea1e3"/>
      <path id="Path_883409" data-name="Path 883409" d="M8.2,37.618v2.227H3V25H8.2V37.618Z" transform="translate(-0.258 -6.444)" fill="#ffcdbe"/>
      <path id="Path_883410" data-name="Path 883410" d="M9.227,37.618v2.227H7V25H9.227V37.618Z" transform="translate(-1.289 -6.444)" fill="#faa68e"/>
      <path id="Path_883411" data-name="Path 883411" d="M19.62,27.112l.03.022V39.752c-7.423,0-7.423-4.454-7.423-4.454H10V24.165h2.227s0-3.711,2.969-5.2a23.071,23.071,0,0,1,4.483-1.358C23.695,16.7,28.556,16,28.556,16s0,4.454-3.711,5.2l-3.711.742a10.311,10.311,0,0,1-1.514,5.173Z" transform="translate(-2.062 -4.124)" fill="#ffdecf"/>
      <path id="Path_883412" data-name="Path 883412" d="M28.877,16.35c-.088,1.056-.607,4.231-3.692,4.846l-3.711.742a10.311,10.311,0,0,1-1.514,5.173l.03.022V39.593a14.73,14.73,0,0,0,2.227.159V27.134l-.03-.022A10.311,10.311,0,0,0,23.7,21.938l3.711-.742c3.711-.742,3.711-5.2,3.711-5.2S30.222,16.13,28.877,16.35Z" transform="translate(-4.629 -4.124)" fill="#ffbeaa"/>
      <g id="Group_1106158" data-name="Group 1106158" transform="translate(7.938 5.938)">
        <path id="Path_883413" data-name="Path 883413" d="M0,0H1.485V4.2H0Z" transform="translate(1.7 2.752) rotate(-45)" fill="#19cffc"/>
        <path id="Path_883414" data-name="Path 883414" d="M18,8h1.485v3.711H18Z" transform="translate(-12.062 -8)" fill="#19cffc"/>
        <path id="Path_883415" data-name="Path 883415" d="M10,16h3.711v1.485H10Z" transform="translate(-10 -10.062)" fill="#19cffc"/>
      </g>
      <path id="Path_883416" data-name="Path 883416" d="M26,52h1.485v1.485H26Z" transform="translate(-6.186 -13.403)" fill="#e3fbff"/>
      <path id="Path_883417" data-name="Path 883417" d="M30,52H50.783v1.485H30Z" transform="translate(-7.217 -13.403)" fill="#e3fbff"/>
      <path id="Path_883418" data-name="Path 883418" d="M42.824,0H20.556a3.716,3.716,0,0,0-3.711,3.711V12.9A20.518,20.518,0,0,0,12.8,14.181,6.509,6.509,0,0,0,9.48,19.3h-.8v-.742a.742.742,0,0,0-.742-.742h-5.2A.742.742,0,0,0,2,18.556V33.4a.742.742,0,0,0,.742.742h5.2A.742.742,0,0,0,8.68,33.4V31.917h.859c.349,1.375,1.754,4.2,7.306,4.431v7.446A3.716,3.716,0,0,0,20.556,47.5H42.824a3.716,3.716,0,0,0,3.711-3.711V3.711A3.716,3.716,0,0,0,42.824,0ZM7.2,32.659H3.485V19.3H7.2ZM20.556,1.485H42.824a2.227,2.227,0,0,1,2.227,2.227H39.113a.742.742,0,0,0-.742.742,1.4,1.4,0,0,1-1.485,1.485H26.494A1.4,1.4,0,0,1,25.01,4.454a.742.742,0,0,0-.742-.742H18.33A2.227,2.227,0,0,1,20.556,1.485ZM45.051,41.566H18.33V23.148a8.431,8.431,0,0,0,.742-1.5v2.844A2.227,2.227,0,0,0,21.3,26.721h2.969a2.227,2.227,0,0,0,2.227-2.227V21.525A2.227,2.227,0,0,0,24.268,19.3H21.3a2.219,2.219,0,0,0-1.793.918,12.728,12.728,0,0,0,.278-1.788l3.147-.629c3.4-.681,4.305-4.172,4.305-5.923a.742.742,0,0,0-.848-.735c-.045.007-4.258.615-8.059,1.429V5.2h5.289a2.812,2.812,0,0,0,2.875,2.227H36.886A2.812,2.812,0,0,0,39.761,5.2h5.289ZM20.556,24.494V21.525a.742.742,0,0,1,.742-.742h2.969a.742.742,0,0,1,.742.742v2.969a.742.742,0,0,1-.742.742H21.3A.742.742,0,0,1,20.556,24.494Zm-9.649,6.68a.742.742,0,0,0-.742-.742H8.68V20.783h1.485a.742.742,0,0,0,.742-.742c0-.033.03-3.266,2.559-4.528a21.957,21.957,0,0,1,4.316-1.3c2.895-.658,6.272-1.209,7.878-1.458a4.064,4.064,0,0,1-3.025,3.588l-3.711.742a.742.742,0,0,0-.594.727,9.614,9.614,0,0,1-1.381,4.75,4.4,4.4,0,0,1-3.815,1.93v1.485a6.006,6.006,0,0,0,3.711-1.194V34.86c-5.779-.265-5.938-3.546-5.938-3.685ZM42.824,46.02H20.556a2.227,2.227,0,0,1-2.227-2.227v-.742H45.051v.742a2.227,2.227,0,0,1-2.227,2.227Z"/>
      <path id="Path_883419" data-name="Path 883419" d="M38,4h5.938V5.485H38Z" transform="translate(-9.279 -1.031)"/>
      <path id="Path_883420" data-name="Path 883420" d="M0,0H1.485V4.2H0Z" transform="translate(9.638 8.69) rotate(-45)"/>
      <path id="Path_883421" data-name="Path 883421" d="M18,8h1.485v3.711H18Z" transform="translate(-4.124 -2.062)"/>
      <path id="Path_883422" data-name="Path 883422" d="M10,16h3.711v1.485H10Z" transform="translate(-2.062 -4.124)"/>
      <path id="Path_883423" data-name="Path 883423" d="M39.227,21.423H42.2A2.227,2.227,0,0,0,44.423,19.2V16.227A2.227,2.227,0,0,0,42.2,14H39.227A2.227,2.227,0,0,0,37,16.227V19.2A2.227,2.227,0,0,0,39.227,21.423Zm-.742-5.2a.742.742,0,0,1,.742-.742H42.2a.742.742,0,0,1,.742.742V19.2a.742.742,0,0,1-.742.742H39.227a.742.742,0,0,1-.742-.742Z" transform="translate(-9.021 -3.608)"/>
      <path id="Path_883424" data-name="Path 883424" d="M49,16.227V19.2a2.227,2.227,0,0,0,2.227,2.227H54.2A2.227,2.227,0,0,0,56.423,19.2V16.227A2.227,2.227,0,0,0,54.2,14H51.227A2.227,2.227,0,0,0,49,16.227Zm5.938,0V19.2a.742.742,0,0,1-.742.742H51.227a.742.742,0,0,1-.742-.742V16.227a.742.742,0,0,1,.742-.742H54.2A.742.742,0,0,1,54.938,16.227Z" transform="translate(-12.114 -3.608)"/>
      <path id="Path_883425" data-name="Path 883425" d="M39.227,33.423H42.2A2.227,2.227,0,0,0,44.423,31.2V28.227A2.227,2.227,0,0,0,42.2,26H39.227A2.227,2.227,0,0,0,37,28.227V31.2A2.227,2.227,0,0,0,39.227,33.423Zm-.742-5.2a.742.742,0,0,1,.742-.742H42.2a.742.742,0,0,1,.742.742V31.2a.742.742,0,0,1-.742.742H39.227a.742.742,0,0,1-.742-.742Z" transform="translate(-9.021 -6.701)"/>
      <path id="Path_883426" data-name="Path 883426" d="M54.2,26H51.227A2.227,2.227,0,0,0,49,28.227V31.2a2.227,2.227,0,0,0,2.227,2.227H54.2A2.227,2.227,0,0,0,56.423,31.2V28.227A2.227,2.227,0,0,0,54.2,26Zm.742,5.2a.742.742,0,0,1-.742.742H51.227a.742.742,0,0,1-.742-.742V28.227a.742.742,0,0,1,.742-.742H54.2a.742.742,0,0,1,.742.742Z" transform="translate(-12.114 -6.701)"/>
      <path id="Path_883427" data-name="Path 883427" d="M26,52h1.485v1.485H26Z" transform="translate(-6.186 -13.403)"/>
      <path id="Path_883428" data-name="Path 883428" d="M30,52H50.783v1.485H30Z" transform="translate(-7.217 -13.403)"/>
    </g>
  </g>
</svg>
