<svg id="Group_1105825" data-name="Group 1105825" xmlns="http://www.w3.org/2000/svg" width="110" height="110" viewBox="0 0 110 110">
  <rect id="Rectangle_402033" data-name="Rectangle 402033" width="110" height="110" rx="5" transform="translate(0)" fill="#bfa2f7"/>
  <g id="Group_1106212" data-name="Group 1106212" transform="translate(17.218 3.987)">
    <g id="Group_1106210" data-name="Group 1106210" transform="translate(1.107 16.628)">
      <path id="Path_883554" data-name="Path 883554" d="M9.716,54.49H78.639A2.214,2.214,0,0,1,80.852,56.7V105a2.214,2.214,0,0,1-2.214,2.214H9.716A2.214,2.214,0,0,1,7.5,105V56.7A2.214,2.214,0,0,1,9.716,54.49Z" transform="translate(-7.502 -49.846)" fill="#e9efff"/>
      <path id="Path_883555" data-name="Path 883555" d="M38.564,85.309h64.182v39H38.564Z" transform="translate(-33.98 -76.116)" fill="#9bd8f9"/>
      <path id="Path_883556" data-name="Path 883556" d="M157.48,462.5H116.22l1.681-3.362a2.214,2.214,0,0,1,1.981-1.223h33.936a2.214,2.214,0,0,1,1.981,1.223Z" transform="translate(-100.175 -393.728)" fill="#e9efff"/>
      <path id="Path_883557" data-name="Path 883557" d="M347.377,459.136a2.214,2.214,0,0,0-1.981-1.223h-4.428a2.214,2.214,0,0,1,1.981,1.223l1.681,3.362h4.428Z" transform="translate(-291.753 -393.728)" fill="#d3dcfb"/>
      <path id="Path_883558" data-name="Path 883558" d="M223.16,418.526H209.407l2.292-6.82h9.169Z" transform="translate(-179.608 -354.341)" fill="#d3dcfb"/>
      <path id="Path_883559" data-name="Path 883559" d="M224.128,415.4l1.052,3.129h5.43l-2.292-6.82h-9.169l-1,2.982h5A1.034,1.034,0,0,1,224.128,415.4Z" transform="translate(-187.058 -354.34)" fill="#bec8f7"/>
      <path id="Path_883560" data-name="Path 883560" d="M463.02,54.49h-4.584A2.214,2.214,0,0,1,460.65,56.7V105a2.214,2.214,0,0,1-2.214,2.214h4.584A2.214,2.214,0,0,0,465.234,105V56.7a2.214,2.214,0,0,0-2.214-2.214Z" transform="translate(-391.884 -49.846)" fill="#d3dcfb"/>
      <ellipse id="Ellipse_11852" data-name="Ellipse 11852" cx="13.753" cy="4.584" rx="13.753" ry="4.584" transform="translate(22.922 29.811)" fill="#ffe98d"/>
      <path id="Path_883561" data-name="Path 883561" d="M189.805,23.021a11.461,11.461,0,0,0-11.461,11.461c0,6.33,11.461,22.925,11.461,22.925s11.461-16.6,11.461-22.925A11.461,11.461,0,0,0,189.805,23.021Zm0,18.341a6.878,6.878,0,1,1,6.878-6.878A6.878,6.878,0,0,1,189.805,41.362Z" transform="translate(-153.13 -23.021)" fill="#ff4155"/>
      <path id="Path_883562" data-name="Path 883562" d="M243.214,23.021a11.515,11.515,0,0,0-2.214.214,11.465,11.465,0,0,1,9.247,11.247c0,4.548-5.916,14.394-9.247,19.578,1.305,2.031,2.214,3.347,2.214,3.347s11.461-16.6,11.461-22.925a11.461,11.461,0,0,0-11.461-11.461Z" transform="translate(-206.539 -23.021)" fill="#f32155"/>
      <circle id="Ellipse_11853" data-name="Ellipse 11853" cx="6.878" cy="6.878" r="6.878" transform="translate(29.797 4.584)" fill="#ff7186"/>
    </g>
    <g id="Group_1106211" data-name="Group 1106211" transform="translate(0 15.521)">
      <path id="Path_883563" data-name="Path 883563" d="M218.545,373.144a1.107,1.107,0,1,0,0,2.214h9.169a1.107,1.107,0,0,0,0-2.214Z" transform="translate(-185.347 -320.363)"/>
      <path id="Path_883564" data-name="Path 883564" d="M72.244,20.165H62.509a1.107,1.107,0,1,0,0,2.214h9.735a1.108,1.108,0,0,1,1.107,1.107V71.78a1.108,1.108,0,0,1-1.107,1.107H3.321A1.108,1.108,0,0,1,2.214,71.78V23.486a1.108,1.108,0,0,1,1.107-1.107H26.588a12.48,12.48,0,0,0-.913,2.335H5.691a1.107,1.107,0,0,0-1.107,1.107v18.2a1.107,1.107,0,0,0,2.214,0v-17.1h18.47q-.053.574-.053,1.161c0,4.121,4.361,12.013,7.752,17.526-4.973.61-10.045,2.3-10.045,5.408,0,3.736,7.476,5.691,14.861,5.691s14.861-1.955,14.861-5.691c0-3.11-5.072-4.8-10.045-5.408,3.391-5.513,7.752-13.4,7.752-17.526q0-.587-.053-1.161h18.47V63.717H6.8V48.85a1.107,1.107,0,0,0-2.214,0V64.824a1.107,1.107,0,0,0,1.107,1.107H69.874a1.107,1.107,0,0,0,1.107-1.107v-39a1.107,1.107,0,0,0-1.107-1.107H49.89a12.48,12.48,0,0,0-.913-2.335h8.709a1.107,1.107,0,1,0,0-2.214H47.531a12.554,12.554,0,0,0-19.5,0H3.321A3.324,3.324,0,0,0,0,23.486V71.78A3.324,3.324,0,0,0,3.321,75.1H31.658l-1.548,4.6h-9.3a3.3,3.3,0,0,0-2.971,1.835L16.163,84.9a1.107,1.107,0,0,0,.99,1.6h25.1a1.107,1.107,0,1,0,0-2.214h-23.3l.88-1.76a1.1,1.1,0,0,1,.991-.612H54.75a1.1,1.1,0,0,1,.991.612l.88,1.76H47.073a1.107,1.107,0,1,0,0,2.214H58.412a1.107,1.107,0,0,0,.99-1.6L57.721,81.54a3.3,3.3,0,0,0-2.971-1.835h-9.3l-1.548-4.6H72.244a3.324,3.324,0,0,0,3.321-3.321V23.486a3.324,3.324,0,0,0-3.321-3.321ZM50.429,51.023c0,1.18-4.464,3.477-12.647,3.477s-12.647-2.3-12.647-3.477c0-2.545,7.857-3.206,9.137-3.322,1.414,2.219,2.46,3.741,2.6,3.942a1.107,1.107,0,0,0,1.822,0c.139-.2,1.185-1.722,2.6-3.942,2.644.239,9.137,1.517,9.137,3.322ZM37.782,17.735A10.366,10.366,0,0,1,48.137,28.089c0,4.891-9.773,20.08-10.354,20.951C37.2,48.169,27.428,32.98,27.428,28.089A10.366,10.366,0,0,1,37.782,17.735Zm5.337,61.97H32.446l1.548-4.6h7.578Z" transform="translate(0 -15.521)"/>
      <path id="Path_883565" data-name="Path 883565" d="M209.879,62.55a7.985,7.985,0,1,0-7.985-7.985A7.994,7.994,0,0,0,209.879,62.55Zm0-13.757a5.771,5.771,0,1,1-5.772,5.771A5.778,5.778,0,0,1,209.879,48.793Z" transform="translate(-172.097 -41.995)"/>
      <path id="Path_883566" data-name="Path 883566" d="M370.852,119v-9.169a1.107,1.107,0,1,0-2.214,0V119a1.107,1.107,0,1,0,2.214,0Z" transform="translate(-314.232 -94.972)"/>
      <path id="Path_883567" data-name="Path 883567" d="M401.914,119v-2.871H403.4a3.7,3.7,0,0,0,0-7.4h-2.6a1.107,1.107,0,0,0-1.107,1.107V119a1.107,1.107,0,0,0,2.214,0Zm0-8.062H403.4a1.489,1.489,0,0,1,0,2.977h-1.489Z" transform="translate(-340.709 -94.971)"/>
      <path id="Path_883568" data-name="Path 883568" d="M63.234,312.846H72.4a1.107,1.107,0,0,0,0-2.214H63.234a1.107,1.107,0,1,0,0,2.214Z" transform="translate(-52.958 -267.077)"/>
      <path id="Path_883569" data-name="Path 883569" d="M63.234,281.845H72.4a1.107,1.107,0,0,0,0-2.214H63.234a1.107,1.107,0,1,0,0,2.214Z" transform="translate(-52.958 -240.652)"/>
    </g>
  </g>
</svg>
