<svg xmlns="http://www.w3.org/2000/svg" width="130" height="137.884" viewBox="0 0 130 137.884">
  <g id="Group_1105779" data-name="Group 1105779" transform="translate(-280.01 -5846.501)">
    <path id="Path_873448" data-name="Path 873448" d="M130,133.973A3.976,3.976,0,0,0,126.024,130H3.976A3.976,3.976,0,0,0,0,133.973v73.452c0,.055,0,.109,0,.163a7.565,7.565,0,0,0,3.453,6.532l57.4,29.89a7.6,7.6,0,0,0,8.277,0l57.4-29.89A7.565,7.565,0,0,0,130,207.589c0-.054,0-.109,0-.163Z" transform="translate(280.01 5739.148)" fill="#fff"/>
    <path id="Path_873449" data-name="Path 873449" d="M121.194,83.7A3.707,3.707,0,0,0,117.487,80H3.707A3.707,3.707,0,0,0,0,83.7V169c0,.051,0,.1,0,.152a7.053,7.053,0,0,0,3.219,6.09l53.516,27.865a7.083,7.083,0,0,0,7.716,0l53.516-27.865a7.053,7.053,0,0,0,3.219-6.09c0-.051,0-.1,0-.152Z" transform="translate(284.343 5774.085)" fill="#6018ec"/>
    <path id="Path_873665" data-name="Path 873665" d="M108.068,12.3A3.305,3.305,0,0,0,104.763,9H3.305A3.305,3.305,0,0,0,0,12.3v89.87c0,.046,0,.091,0,.136a6.289,6.289,0,0,0,2.87,5.43l47.72,24.847a6.316,6.316,0,0,0,6.881,0l47.72-24.847a6.289,6.289,0,0,0,2.87-5.43c0-.045,0-.09,0-.136Z" transform="translate(290.843 5838.004)" fill="none" stroke="#fff" stroke-width="1"/>
    <g id="Group_1106168" data-name="Group 1106168" transform="translate(255.342 5869.375)">
      <path id="Path_883484" data-name="Path 883484" d="M85.766,21.824a2.693,2.693,0,0,1-.492-.541,2.966,2.966,0,0,0-3.525-1.36c-.574.191-.813.054-.891.009-.767-.441-1.136-2.372-1.317-3.239-.2-.928-1.321-3.878-7.606-2.855-1.306.212-1.831-1.2-2.4-4.047-.433-2.172-.659-3.249-2.991-3.433-.858-.068-1.536-.121-2.266-1.735C63.15,2.133,60.239.8,58,.116a2.6,2.6,0,0,0-3.241,3.269c1.039,3.253,1.376,7.773,6.234,12.776,3.671,3.781,7.8,4.689,10.54,5.29.883.194,2.526.555,2.628.872.576,1.791,2.11,2.414,3.463,2.964a7.117,7.117,0,0,1,3.135,2c.746.918.583,1.481-.436,3.491a15.843,15.843,0,0,0-1.81,5.136c-.708,4.958,3.048,7.231,6.361,9.237.5.305,1.026.621,1.517.937,3.558,2.289,3.321,5.02,2.864,6.443-.849,2.641-.441,6.593.127,10.471a26.261,26.261,0,0,1-.994,9.9c-.866,2.814.451,8.9,5.2,10.4,3.164,1,5.252-.223,5.754-1.8a2.552,2.552,0,0,0-1.9-3.2c-1.533-.493-1.289-4.133-.8-7.994.2-1.575.861-1.869,2.177-2.456a7.936,7.936,0,0,0,5.021-5.525,5.574,5.574,0,0,1,3.127-3.714,1.225,1.225,0,0,0-1.153-2.163,7.97,7.97,0,0,0-4.311,5.14,5.558,5.558,0,0,1-3.681,4.022c-1.442.642-3.237,1.442-3.611,4.385-.634,4.981-.921,9.543,2.48,10.637a.834.834,0,0,1,.3.153c-.226.354-1.2.637-2.664.173-3.321-1.05-4.128-5.615-3.6-7.342A28.746,28.746,0,0,0,91.8,62.654c-.47-3.214-.92-7.183-.218-9.366,1.128-3.509-.319-6.969-3.871-9.254-.519-.334-1.055-.659-1.574-.972-3.524-2.133-5.66-3.6-5.2-6.794A13.593,13.593,0,0,1,82.5,31.893c.972-1.917,1.977-3.9.152-6.146a9.353,9.353,0,0,0-4.114-2.73c-1.3-.527-1.848-.806-2.053-1.443-.533-1.659-2.342-2.056-4.435-2.516-2.6-.57-6.149-1.352-9.307-4.6-4.363-4.493-4.581-8.448-5.657-11.815a.121.121,0,0,1,.034-.137.148.148,0,0,1,.16-.041c2.486.755,4.177,1.882,4.761,3.173C63.6,9.063,65.883,8.68,66.8,8.85c.323.846.527,3.47,1.507,5.285a3.7,3.7,0,0,0,4.022,2.123c1.6-.26,4.523-.454,4.851,1.121.289,1.387.771,3.709,2.455,4.678a3.429,3.429,0,0,0,2.889.192c.283-.094.312-.1.818.543a3.146,3.146,0,0,0,2.251,1.474,4.631,4.631,0,0,0,3.214-1.511,14.064,14.064,0,0,0,6.6,7.812c.611.333.759.346.907.607l4.08,7.23a2.031,2.031,0,0,0,3.535,0l3.991-7.072a6.3,6.3,0,0,0,4.309,3.112c3.035.68,5.024,1.275,5.558,2.141.174.282.362.828-.011,2.317a9.05,9.05,0,0,1-2.417,3.617,18.707,18.707,0,0,0-5,8.814,9.143,9.143,0,0,1-.69,1.959,1.225,1.225,0,0,0,2.189,1.1,11.415,11.415,0,0,0,.883-2.487,16.384,16.384,0,0,1,4.44-7.746,11.08,11.08,0,0,0,2.975-4.664,5.392,5.392,0,0,0-.281-4.2c-1.007-1.632-3.095-2.347-7.109-3.245a3.864,3.864,0,0,1-2.813-2.108,14.119,14.119,0,0,0,5.8-7.975,1.225,1.225,0,0,0-2.361-.657,11.659,11.659,0,0,1-5.6,7.075,3.916,3.916,0,0,0-1.919,1.583l-3.713,6.58-3.713-6.58a3.2,3.2,0,0,0-1.394-1.308,11.666,11.666,0,1,1,16.584-12.528,1.226,1.226,0,1,0,2.414-.427A14.145,14.145,0,0,0,92.544,7.822c-.925-.641-2.163-.581-3.729-.506-2.231.109-5.007.243-7.483-1.66-2.225-1.709-3.919-2.05-5.034-1.012-1.377,1.281-.688,3.87.257,5.355.3.576,1.248,1.6,4.232,1.8a2.492,2.492,0,0,1,2.042,1.364,3.783,3.783,0,0,0,2.312,1.763,32.112,32.112,0,0,0,3.1.873,14.392,14.392,0,0,0-.076,4.236,5.057,5.057,0,0,0-.4.342c-1.488,1.463-2.005,1.446-2,1.449Zm1.163-8.918a9.7,9.7,0,0,0-1.319-.389c-.232-.045-.458-.338-.808-.812A4.862,4.862,0,0,0,80.948,9.35a4.1,4.1,0,0,1-2.261-.566c-.012-.02-.024-.04-.037-.059a3.892,3.892,0,0,1-.675-2.188A5.281,5.281,0,0,1,79.839,7.6c3.19,2.451,6.744,2.279,9.1,2.164a14.134,14.134,0,0,1,1.884-.014,13.936,13.936,0,0,0-1.953,3.659,8.87,8.87,0,0,1-1.937-.5Z" transform="translate(0 0)" fill="#fff"/>
      <path id="Path_883485" data-name="Path 883485" d="M301.733,58.909a8.552,8.552,0,1,0,8.552,8.552A8.561,8.561,0,0,0,301.733,58.909Zm0,14.652a6.1,6.1,0,1,1,6.1-6.1A6.107,6.107,0,0,1,301.733,73.561Z" transform="translate(-199.572 -49.283)" fill="#fff"/>
    </g>
  </g>
</svg>
