<svg id="Group_1105810" data-name="Group 1105810" xmlns="http://www.w3.org/2000/svg" width="110" height="110" viewBox="0 0 110 110">
  <rect id="Rectangle_402033" data-name="Rectangle 402033" width="110" height="110" rx="5" transform="translate(0)" fill="#bfa2f7"/>
  <g id="Group_1106209" data-name="Group 1106209" transform="translate(20.518 20.858)">
    <g id="Group_1106207" data-name="Group 1106207" transform="translate(2.073 2.073)">
      <g id="Group_1106188" data-name="Group 1106188" transform="translate(38.638)">
        <circle id="Ellipse_11851" data-name="Ellipse 11851" cx="13" cy="13" r="13" transform="translate(-0.439 0.198)" fill="#69d6f4"/>
      </g>
      <g id="Group_1106189" data-name="Group 1106189" transform="translate(0 21.465)">
        <path id="Path_883525" data-name="Path 883525" d="M14.879,54.2H4.147A2.153,2.153,0,0,1,2,52.052V22H43.911a12.835,12.835,0,0,0,9.606,4.293v5.42c-1.492,1.213-3.22,3.671-3.22,8.533,0-8.586-6.44-9.659-6.44-9.659,0,6.44-4.293,5.366-4.293,12.879,0,.172,0,.343.011.515l-.011.011a8.531,8.531,0,0,0-3.22-2.672,9.824,9.824,0,0,1-.869,4.293h-20.6V54.2Z" transform="translate(-2 -22)" fill="#e6e9ed"/>
      </g>
      <g id="Group_1106190" data-name="Group 1106190" transform="translate(4.293 25.759)">
        <path id="Path_883526" data-name="Path 883526" d="M6,26H23.172V41.026H6Z" transform="translate(-6 -26)" fill="#fcd770"/>
      </g>
      <g id="Group_1106191" data-name="Group 1106191" transform="translate(0 8.586)">
        <path id="Path_883527" data-name="Path 883527" d="M43.911,22.879H2V12.147A2.153,2.153,0,0,1,4.147,10H41.368a12.924,12.924,0,0,0-.73,4.293,12.768,12.768,0,0,0,1.728,6.45A12.581,12.581,0,0,0,43.911,22.879Z" transform="translate(-2 -10)" fill="#d7db72"/>
      </g>
      <g id="Group_1106192" data-name="Group 1106192" transform="translate(21.465 12.879)">
        <path id="Path_883528" data-name="Path 883528" d="M22,14h4.293v4.293H22Z" transform="translate(-22 -14)" fill="#e6e9ed"/>
      </g>
      <g id="Group_1106193" data-name="Group 1106193" transform="translate(12.879 12.879)">
        <path id="Path_883529" data-name="Path 883529" d="M14,14h4.293v4.293H14Z" transform="translate(-14 -14)" fill="#e6e9ed"/>
      </g>
      <g id="Group_1106194" data-name="Group 1106194" transform="translate(4.293 12.879)">
        <path id="Path_883530" data-name="Path 883530" d="M6,14h4.293v4.293H6Z" transform="translate(-6 -14)" fill="#e6e9ed"/>
      </g>
      <g id="Group_1106195" data-name="Group 1106195" transform="translate(17.172 57.957)">
        <path id="Path_883531" data-name="Path 883531" d="M20.147,56H24.44v6.44H18V56Z" transform="translate(-18 -56)" fill="#d3a06c"/>
      </g>
      <g id="Group_1106196" data-name="Group 1106196" transform="translate(25.759 51.517)">
        <path id="Path_883532" data-name="Path 883532" d="M30.7,56.44H26V50h4.615a14.544,14.544,0,0,0-.322,3.22A12.011,12.011,0,0,0,30.7,56.44Z" transform="translate(-26 -50)" fill="#d3a06c"/>
      </g>
      <g id="Group_1106197" data-name="Group 1106197" transform="translate(12.879 51.517)">
        <path id="Path_883533" data-name="Path 883533" d="M20.44,50v6.44H14V50h6.44Z" transform="translate(-14 -50)" fill="#d3a06c"/>
      </g>
      <g id="Group_1106198" data-name="Group 1106198" transform="translate(17.172 45.077)">
        <path id="Path_883534" data-name="Path 883534" d="M24.44,44v6.44H18V44Z" transform="translate(-18 -44)" fill="#d3a06c"/>
      </g>
      <g id="Group_1106199" data-name="Group 1106199" transform="translate(23.612 57.957)">
        <path id="Path_883535" data-name="Path 883535" d="M26.147,56h4.712c1.191,4.293,4.862,6.44,9.241,6.44H24V56Z" transform="translate(-24 -56)" fill="#b27946"/>
      </g>
      <g id="Group_1106200" data-name="Group 1106200" transform="translate(12.879 57.957)">
        <path id="Path_883536" data-name="Path 883536" d="M14,56h4.293v6.44H14Z" transform="translate(-14 -56)" fill="#b27946"/>
      </g>
      <g id="Group_1106201" data-name="Group 1106201" transform="translate(19.319 51.517)">
        <path id="Path_883537" data-name="Path 883537" d="M26.44,50v6.44H20V50h6.44Z" transform="translate(-20 -50)" fill="#b27946"/>
      </g>
      <g id="Group_1106202" data-name="Group 1106202" transform="translate(23.612 45.077)">
        <path id="Path_883538" data-name="Path 883538" d="M24,44h9.863c-.955,2.114-2.447,3.51-3.1,6.44H24Z" transform="translate(-24 -44)" fill="#b27946"/>
      </g>
      <g id="Group_1106203" data-name="Group 1106203" transform="translate(12.879 45.077)">
        <path id="Path_883539" data-name="Path 883539" d="M14,44h4.293v6.44H14Z" transform="translate(-14 -44)" fill="#b27946"/>
      </g>
      <g id="Group_1106204" data-name="Group 1106204" transform="translate(30.052 30.052)">
        <path id="Path_883540" data-name="Path 883540" d="M60.052,40.733a7.732,7.732,0,0,0-2.147,1.481l-.011-.011c-.247-6.847-4.282-5.967-4.282-12.2a5.532,5.532,0,0,0-2.147,1.127c-1.492,1.213-3.22,3.671-3.22,8.533,0-8.586-6.44-9.659-6.44-9.659,0,6.44-4.293,5.366-4.293,12.879,0,.172,0,.343.011.515l-.011.011a8.531,8.531,0,0,0-3.22-2.672,9.824,9.824,0,0,1-.869,4.293c-.955,2.114-2.447,3.51-3.1,6.44A14.544,14.544,0,0,0,30,54.685a12.011,12.011,0,0,0,.408,3.22h.011c1.191,4.293,4.862,6.44,9.241,6.44H54.685c5.366,0,9.659-3.22,9.659-9.659C64.345,47.172,60.052,47.172,60.052,40.733Z" transform="translate(-30 -30)" fill="#ff826e"/>
      </g>
      <g id="Group_1106205" data-name="Group 1106205" transform="translate(42.931 53.911)">
        <path id="Path_883541" data-name="Path 883541" d="M49.985,57.511a3.248,3.248,0,0,1,.6,1.9,3.3,3.3,0,0,1-2.973,3.284,1.734,1.734,0,0,1-.333.021H45.306a1.734,1.734,0,0,1-.333-.021A3.3,3.3,0,0,1,42,59.41a3.248,3.248,0,0,1,.6-1.9l3.692-5.281Z" transform="translate(-42 -52.23)" fill="#ff826e"/>
      </g>
      <g id="Group_1106206" data-name="Group 1106206" transform="translate(39.711 45.077)">
        <path id="Path_883542" data-name="Path 883542" d="M54.026,56.793a6.5,6.5,0,0,1-6.193,6.5,3.3,3.3,0,0,0,2.973-3.284,3.248,3.248,0,0,0-.6-1.9l-3.692-5.281-3.692,5.281a3.248,3.248,0,0,0-.6,1.9A3.3,3.3,0,0,0,45.193,63.3a6.517,6.517,0,0,1-5.012-10.25l1.342-1.921L46.513,44,51.5,51.127l1.342,1.921A6.49,6.49,0,0,1,54.026,56.793Z" transform="translate(-39 -44)" fill="#fc6e51"/>
      </g>
    </g>
    <g id="Group_1106208" data-name="Group 1106208" transform="translate(1 1)">
      <path id="Path_883543" data-name="Path 883543" d="M63.25,42.858V41.272l-1.471.588a7.021,7.021,0,0,0-.894.468,10.719,10.719,0,0,0-2.268-5.008,7.431,7.431,0,0,1-1.806-5.2V30.816l-1.284.257a5.213,5.213,0,0,0-.863.288V28.85A13.946,13.946,0,1,0,40.714,9.586H4.22A3.224,3.224,0,0,0,1,12.806V53.59a3.224,3.224,0,0,0,3.22,3.22h9.659V67.543H56.81c6.52,0,10.733-4.213,10.733-10.733a13.578,13.578,0,0,0-2.431-8.144,9.636,9.636,0,0,1-1.862-5.809ZM53.59,3.147c1.154,0,2.383,1.639,3.229,4.293H50.36c.848-2.654,2.077-4.293,3.231-4.293Zm3.777,6.44a26.614,26.614,0,0,1,.494,4.293H49.32a26.735,26.735,0,0,1,.494-4.293Zm7.974,4.293H60.006a29.434,29.434,0,0,0-.439-4.293h4.525A11.678,11.678,0,0,1,65.342,13.879ZM53.59,26.759c-1.154,0-2.383-1.639-3.229-4.293h6.46c-.848,2.654-2.077,4.293-3.231,4.293Zm-3.777-6.44a26.614,26.614,0,0,1-.494-4.293h8.541a26.735,26.735,0,0,1-.494,4.293Zm10.193-4.293h5.335a11.7,11.7,0,0,1-1.249,4.293H59.567A29.287,29.287,0,0,0,60.006,16.026ZM47.174,13.879H41.839a11.7,11.7,0,0,1,1.249-4.293h4.525A29.287,29.287,0,0,0,47.174,13.879Zm0,2.147a29.434,29.434,0,0,0,.439,4.293H43.088a11.719,11.719,0,0,1-1.249-4.293Zm.937,6.44A14.833,14.833,0,0,0,49.6,26.051a11.837,11.837,0,0,1-5.113-3.586Zm9.465,3.586a14.876,14.876,0,0,0,1.493-3.586h3.62A11.846,11.846,0,0,1,57.577,26.051ZM62.691,7.44h-3.62a14.833,14.833,0,0,0-1.493-3.586A11.858,11.858,0,0,1,62.691,7.44ZM49.6,3.854A14.833,14.833,0,0,0,48.111,7.44h-3.62A11.846,11.846,0,0,1,49.6,3.854ZM4.22,11.733H40.027a13.75,13.75,0,0,0,1.825,10.733H3.147V12.806A1.074,1.074,0,0,1,4.22,11.733Zm0,42.931A1.074,1.074,0,0,1,3.147,53.59V24.612h40.4a13.9,13.9,0,0,0,8.971,4.238v3.908a8.982,8.982,0,0,0-2.244,3.328,9.192,9.192,0,0,0-6.166-5.02l-1.249-.209v1.268a7.529,7.529,0,0,1-1.816,5.234,10.748,10.748,0,0,0-2.353,5.655,8.305,8.305,0,0,0-1.872-1.153l-1.473-.589v1.585a9.213,9.213,0,0,1-.516,3.22H13.879v8.586Zm22.539,0v4.293H22.465V54.664Zm-6.44-2.147V48.224h4.293v4.293Zm-2.147,0H16.026V48.224h2.147Zm-2.147,2.147h4.293v4.293H16.026Zm8.586,6.44V65.4H20.319V61.1Zm4.293-6.44h2.287a16.85,16.85,0,0,0-.141,2.147,13.817,13.817,0,0,0,.17,2.147H28.905Zm2.726-2.147H26.759V48.224h6.995c-.089.147-.178.293-.27.442a15.42,15.42,0,0,0-1.851,3.851ZM16.026,61.1h2.147V65.4H16.026ZM26.759,65.4V61.1h5.01a9.377,9.377,0,0,0,3.1,4.293Zm27.905-2.238a4.349,4.349,0,0,0-.792-2.509L49.3,54.113l-4.574,6.536a4.346,4.346,0,0,0-.792,2.509,5.4,5.4,0,0,1-.087-6.345L49.3,49.023l5.453,7.792a5.4,5.4,0,0,1-.087,6.344ZM48.313,65.4a2.234,2.234,0,0,1-1.832-3.515L49.3,57.858l2.816,4.024a2.213,2.213,0,0,1,.4,1.279A2.239,2.239,0,0,1,50.282,65.4Zm8.5,0H55.563a7.585,7.585,0,0,0,.947-9.814L49.3,45.279l-7.212,10.3a7.585,7.585,0,0,0,.947,9.814H41.784c-4.15,0-8.586-2.256-8.586-8.586a11.458,11.458,0,0,1,2.111-7.016A12.174,12.174,0,0,0,37.37,44.7c1.39,1.109,3.341,3.444,3.341,7.818h2.147a12.375,12.375,0,0,0-2.142-7.349c0-.055,0-.109,0-.164a9.074,9.074,0,0,1,2.064-6.38,9.566,9.566,0,0,0,2.152-5.044c1.631.749,4.37,2.81,4.37,8.2h2.147c0-5.08,1.976-7.207,3.312-8.064a9.349,9.349,0,0,0,2.13,4.872,8.745,8.745,0,0,1,2.025,5.327,11.846,11.846,0,0,0-3.175,8.6h2.147c0-4.375,1.953-6.711,3.341-7.819a12.173,12.173,0,0,0,2.061,5.1A11.458,11.458,0,0,1,65.4,56.81c0,6.33-4.436,8.586-8.586,8.586Z" transform="translate(-1 -1)"/>
      <path id="Path_883544" data-name="Path 883544" d="M11.44,13H5v6.44h6.44ZM9.293,17.293H7.147V15.147H9.293Z" transform="translate(-0.707 -0.121)"/>
      <path id="Path_883545" data-name="Path 883545" d="M19.44,13H13v6.44h6.44Zm-2.147,4.293H15.147V15.147h2.147Z" transform="translate(-0.121 -0.121)"/>
      <path id="Path_883546" data-name="Path 883546" d="M27.44,13H21v6.44h6.44Zm-2.147,4.293H23.147V15.147h2.147Z" transform="translate(0.465 -0.121)"/>
      <path id="Path_883547" data-name="Path 883547" d="M24.319,25H5V42.172H24.319ZM22.172,40.026H7.147V27.147H22.172Z" transform="translate(-0.707 0.759)"/>
      <path id="Path_883548" data-name="Path 883548" d="M5,43h6.44v2.147H5Z" transform="translate(-0.707 2.077)"/>
      <path id="Path_883549" data-name="Path 883549" d="M5,47h6.44v2.147H5Z" transform="translate(-0.707 2.371)"/>
      <path id="Path_883550" data-name="Path 883550" d="M25,25H40.026v2.147H25Z" transform="translate(0.759 0.759)"/>
      <path id="Path_883551" data-name="Path 883551" d="M25,29H37.879v2.147H25Z" transform="translate(0.759 1.052)"/>
      <path id="Path_883552" data-name="Path 883552" d="M25,33H37.879v2.147H25Z" transform="translate(0.759 1.345)"/>
      <path id="Path_883553" data-name="Path 883553" d="M25,37h6.44v2.147H25Z" transform="translate(0.759 1.638)"/>
    </g>
  </g>
</svg>
