<svg id="Group_1101031" data-name="Group 1101031" xmlns="http://www.w3.org/2000/svg" width="110" height="110" viewBox="0 0 110 110">
  <rect id="Rectangle_402033" data-name="Rectangle 402033" width="110" height="110" rx="5" transform="translate(0)" fill="#bfa2f7"/>
  <g id="Group_1106182" data-name="Group 1106182" transform="translate(18.217 18.558)">
    <g id="Group_1106180" data-name="Group 1106180" transform="translate(2.147 2.147)">
      <g id="Group_1106169" data-name="Group 1106169" transform="translate(0 59.67)">
        <path id="Path_883486" data-name="Path 883486" d="M68.555,54H4.295A2.312,2.312,0,0,0,2,56.295,6.89,6.89,0,0,0,8.885,63.18h55.08a6.9,6.9,0,0,0,6.885-6.885A2.3,2.3,0,0,0,68.555,54Z" transform="translate(-2 -54)" fill="#969faa"/>
      </g>
      <g id="Group_1106170" data-name="Group 1106170" transform="translate(26.392 59.67)">
        <path id="Path_883487" data-name="Path 883487" d="M41.065,54v2.295A2.3,2.3,0,0,1,38.77,58.59H27.295A2.3,2.3,0,0,1,25,56.295V54Z" transform="translate(-25 -54)" fill="#ff826e"/>
      </g>
      <g id="Group_1106171" data-name="Group 1106171" transform="translate(4.59 16.065)">
        <path id="Path_883488" data-name="Path 883488" d="M65.67,59.6H6V20.59A4.59,4.59,0,0,1,10.59,16H65.67Z" transform="translate(-6 -16)" fill="#ccd1d9"/>
      </g>
      <g id="Group_1106172" data-name="Group 1106172" transform="translate(9.18 20.655)">
        <path id="Path_883489" data-name="Path 883489" d="M59.342,54.425H11.147A1.148,1.148,0,0,1,10,53.277V21.147A1.148,1.148,0,0,1,11.147,20H60.49V53.277A1.148,1.148,0,0,1,59.342,54.425Z" transform="translate(-10 -20)" fill="#69d6f4"/>
      </g>
      <g id="Group_1106173" data-name="Group 1106173" transform="translate(13.77 25.245)">
        <path id="Path_883490" data-name="Path 883490" d="M39.245,28.59v1.538A21.588,21.588,0,0,1,28.757,48.66a4.185,4.185,0,0,1-4.269,0A21.632,21.632,0,0,1,14,30.128V28.59a9.673,9.673,0,0,0,5.669-1.847C21.436,25.469,24.029,24,26.622,24s5.187,1.469,6.954,2.743a9.673,9.673,0,0,0,5.669,1.847Z" transform="translate(-14 -24)" fill="#fcd770"/>
      </g>
      <g id="Group_1106174" data-name="Group 1106174" transform="translate(18.509 29.835)">
        <path id="Path_883491" data-name="Path 883491" d="M33.9,31.775a17.119,17.119,0,0,1-7.883,12.209A17.119,17.119,0,0,1,18.13,31.775a14.182,14.182,0,0,0,3.615-1.9A8.587,8.587,0,0,1,26.013,28a8.587,8.587,0,0,1,4.269,1.87A14.182,14.182,0,0,0,33.9,31.775Z" transform="translate(-18.13 -28)" fill="#ffeaa7"/>
      </g>
      <g id="Group_1106175" data-name="Group 1106175" transform="translate(36.72)">
        <circle id="Ellipse_11846" data-name="Ellipse 11846" cx="16" cy="16" r="16" transform="translate(-0.295 0.425)" fill="#e6e9ed"/>
      </g>
      <g id="Group_1106176" data-name="Group 1106176" transform="translate(52.785 13.77)">
        <path id="Path_883492" data-name="Path 883492" d="M51.8,25.463A9.957,9.957,0,0,1,48,27.77V23.18A11.467,11.467,0,0,1,52.59,14a2.3,2.3,0,0,1,2.295,2.295v1.928A10.04,10.04,0,0,1,51.8,25.463Z" transform="translate(-48 -14)" fill="#dfb28b"/>
      </g>
      <g id="Group_1106177" data-name="Group 1106177" transform="translate(45.9 13.77)">
        <path id="Path_883493" data-name="Path 883493" d="M48.885,27.77a10.073,10.073,0,0,1-6.518-6.885A9.81,9.81,0,0,1,42,18.223V16.295A2.3,2.3,0,0,1,44.295,14a11.467,11.467,0,0,1,4.59,9.18Z" transform="translate(-42 -14)" fill="#dfb28b"/>
      </g>
      <g id="Group_1106178" data-name="Group 1106178" transform="translate(48.195 13.77)">
        <path id="Path_883494" data-name="Path 883494" d="M52.56,14h.62a11.467,11.467,0,0,0-4.59,9.18A11.467,11.467,0,0,0,44,14h8.56Z" transform="translate(-44 -14)" fill="#d3a06c"/>
      </g>
      <g id="Group_1106179" data-name="Group 1106179" transform="translate(48.195 6.885)">
        <path id="Path_883495" data-name="Path 883495" d="M44,12.59A4.589,4.589,0,0,1,48.59,8a4.51,4.51,0,0,1,1.584.287,4.576,4.576,0,0,1,2.387,6.6H44.62A4.578,4.578,0,0,1,44,12.59Z" transform="translate(-44 -8)" fill="#cf9e76"/>
      </g>
    </g>
    <g id="Group_1106181" data-name="Group 1106181" transform="translate(1 1)">
      <path id="Path_883496" data-name="Path 883496" d="M68.7,60.67H67.555V29.875A17.195,17.195,0,1,0,37.778,17.065H11.327A5.744,5.744,0,0,0,5.59,22.8V60.67H4.442A3.447,3.447,0,0,0,1,64.112a8.042,8.042,0,0,0,8.032,8.032h55.08a8.042,8.042,0,0,0,8.032-8.032A3.447,3.447,0,0,0,68.7,60.67ZM54.932,3.295A14.917,14.917,0,1,1,40.015,18.212,14.935,14.935,0,0,1,54.932,3.295Zm0,32.13a17.111,17.111,0,0,0,5.737-1V56.08H12.475V23.95H38.724A17.226,17.226,0,0,0,54.932,35.425ZM7.885,22.8a3.447,3.447,0,0,1,3.442-3.442H37.778a17.158,17.158,0,0,0,.289,2.295H12.475A2.3,2.3,0,0,0,10.18,23.95V56.08a2.3,2.3,0,0,0,2.295,2.295H60.67a2.3,2.3,0,0,0,2.295-2.295V33.424a17.126,17.126,0,0,0,2.295-1.475V60.67H7.885Zm21.8,40.162h13.77v1.147A1.149,1.149,0,0,1,42.31,65.26H30.835a1.149,1.149,0,0,1-1.147-1.147ZM64.112,69.85H9.032a5.744,5.744,0,0,1-5.737-5.737,1.149,1.149,0,0,1,1.147-1.147h22.95v1.147a3.447,3.447,0,0,0,3.442,3.442H42.31a3.447,3.447,0,0,0,3.442-3.442V62.965H68.7a1.149,1.149,0,0,1,1.147,1.147A5.744,5.744,0,0,1,64.112,69.85Z" transform="translate(-1 -1)"/>
      <ellipse id="Ellipse_11847" data-name="Ellipse 11847" cx="1.5" cy="1" rx="1.5" ry="1" transform="translate(61.572 64.572)"/>
      <circle id="Ellipse_11848" data-name="Ellipse 11848" cx="1" cy="1" r="1" transform="translate(57.572 64.572)"/>
      <ellipse id="Ellipse_11849" data-name="Ellipse 11849" cx="1.5" cy="1" rx="1.5" ry="1" transform="translate(52.572 64.572)"/>
      <path id="Path_883497" data-name="Path 883497" d="M24.048,49.786a5.29,5.29,0,0,0,5.444,0A22.871,22.871,0,0,0,40.54,30.273V27.59H39.392a8.5,8.5,0,0,1-5-1.632C32.526,24.609,29.687,23,26.77,23s-5.757,1.608-7.626,2.958a8.5,8.5,0,0,1-5,1.632H13v2.682A22.871,22.871,0,0,0,24.048,49.786ZM15.295,29.823a10.8,10.8,0,0,0,5.19-2c1.6-1.151,3.982-2.523,6.285-2.523s4.686,1.372,6.28,2.523a10.815,10.815,0,0,0,5.195,2.006v.449a20.563,20.563,0,0,1-9.934,17.545,3.048,3.048,0,0,1-3.082,0,20.564,20.564,0,0,1-9.934-17.544Z" transform="translate(0.77 2.245)"/>
      <path id="Path_883498" data-name="Path 883498" d="M25.569,45.109l.606.378.606-.378a18.386,18.386,0,0,0,8.413-13.032l.124-.924-.878-.311a13.277,13.277,0,0,1-3.33-1.752A9.448,9.448,0,0,0,26.175,27a9.481,9.481,0,0,0-4.94,2.088,13.256,13.256,0,0,1-3.327,1.752l-.878.311.124.924a18.392,18.392,0,0,0,8.415,13.033Zm-2.99-14.16a7.506,7.506,0,0,1,3.6-1.654,7.485,7.485,0,0,1,3.593,1.654,15.635,15.635,0,0,0,3.008,1.7,16.114,16.114,0,0,1-6.6,10.111,16.112,16.112,0,0,1-6.6-10.112,15.559,15.559,0,0,0,3-1.7Z" transform="translate(1.364 2.835)"/>
      <path id="Path_883499" data-name="Path 883499" d="M49,45h2.295v2.295H49Z" transform="translate(6.08 5.49)"/>
      <path id="Path_883500" data-name="Path 883500" d="M45,45h2.295v2.295H45Z" transform="translate(5.49 5.49)"/>
      <path id="Path_883501" data-name="Path 883501" d="M41,45h2.295v2.295H41Z" transform="translate(4.9 5.49)"/>
      <path id="Path_883502" data-name="Path 883502" d="M41,41H52.475v2.295H41Z" transform="translate(4.9 4.9)"/>
      <path id="Path_883503" data-name="Path 883503" d="M41,37H52.475v2.295H41Z" transform="translate(4.9 4.31)"/>
      <path id="Path_883504" data-name="Path 883504" d="M41,33H52.475v2.295H41Z" transform="translate(4.9 3.72)"/>
      <path id="Path_883505" data-name="Path 883505" d="M43.11,25.721H40.147v2.295h4.937a11.189,11.189,0,0,0,3.88,2.235l.364.122.363-.12a11.207,11.207,0,0,0,3.88-2.235h4.938V25.722H55.545a11.206,11.206,0,0,0,1.141-2.295h2.97V21.132H57.25a11.318,11.318,0,0,0,.11-1.52v-.776h2.295V16.541H57.149a3.432,3.432,0,0,0-2.243-2.133,5.667,5.667,0,0,0-2.465-6.116L53.8,5.579,51.744,4.552,50.291,7.459a4.806,4.806,0,0,0-1.927,0L46.912,4.553,44.859,5.58l1.356,2.713a5.657,5.657,0,0,0-2.465,6.115,3.435,3.435,0,0,0-2.243,2.133H39v2.295h2.295v.776a11.287,11.287,0,0,0,.11,1.519H39v2.295h2.97a11.206,11.206,0,0,0,1.141,2.295Zm11.955-6.109a8.9,8.9,0,0,1-4.59,7.793V24.573a10.372,10.372,0,0,1,3.78-7.965,1.137,1.137,0,0,1,.81,1.08Zm-5.737-.235a12.7,12.7,0,0,0-1.748-2.835h3.494a12.765,12.765,0,0,0-1.746,2.835Zm0-9.72a3.382,3.382,0,0,1,3.22,4.59h-6.44a3.382,3.382,0,0,1,3.22-4.59ZM43.59,17.688a1.137,1.137,0,0,1,.81-1.08,10.372,10.372,0,0,1,3.78,7.965V27.4a8.9,8.9,0,0,1-4.59-7.793Z" transform="translate(4.605 -0.476)"/>
    </g>
  </g>
</svg>
