<svg xmlns="http://www.w3.org/2000/svg" width="40" height="40" viewBox="0 0 40 40">
  <g id="Group_1117738" data-name="Group 1117738" transform="translate(-179.668 -742)">
    <rect id="Rectangle_402006" data-name="Rectangle 402006" width="40" height="40" transform="translate(179.668 742)" fill="#6018ec"/>
    <g id="Group_1100178" data-name="Group 1100178" transform="translate(-29.42 653.868)">
      <g id="Group_1100173" data-name="Group 1100173" transform="translate(215.087 92)">
        <path id="Path_874344" data-name="Path 874344" d="M229.279,124.263H228.9a2.963,2.963,0,0,1-1.041-.188,18.473,18.473,0,0,1-8.779-6.625,21.38,21.38,0,0,1-3.48-8.428,29.99,29.99,0,0,1-.159-10.109,2.963,2.963,0,0,1,1.777-2.2l10.728-4.482a2.972,2.972,0,0,1,2.292,0l10.728,4.482a2.963,2.963,0,0,1,1.777,2.2,29.994,29.994,0,0,1-.159,10.109,21.381,21.381,0,0,1-3.48,8.428,18.473,18.473,0,0,1-8.779,6.625,2.962,2.962,0,0,1-1.041.188Zm-.191-31.156a1.855,1.855,0,0,0-.719.144l-10.728,4.482a1.859,1.859,0,0,0-1.115,1.381,28.753,28.753,0,0,0,.158,9.7,20.283,20.283,0,0,0,3.295,8,17.385,17.385,0,0,0,8.265,6.23,1.859,1.859,0,0,0,.653.118h.381a1.859,1.859,0,0,0,.653-.118,17.385,17.385,0,0,0,8.265-6.23,20.283,20.283,0,0,0,3.295-8,28.757,28.757,0,0,0,.158-9.7,1.859,1.859,0,0,0-1.115-1.381l-10.728-4.482A1.855,1.855,0,0,0,229.088,93.108Z" transform="translate(-215.087 -92)" fill="#fff"/>
      </g>
      <g id="Group_1100174" data-name="Group 1100174" transform="translate(217.504 94.418)">
        <path id="Path_874345" data-name="Path 874345" d="M366.536,259.15h-.381a.554.554,0,0,1-.194-.035,16.1,16.1,0,0,1-7.656-5.762,18.986,18.986,0,0,1-3.076-7.484,27.849,27.849,0,0,1-.436-6.442,22.414,22.414,0,0,1,.28-2.769.554.554,0,0,1,.331-.41l10.728-4.482a.554.554,0,0,1,.427,0l10.728,4.482a.554.554,0,0,1,.331.41,22.423,22.423,0,0,1,.28,2.769,27.845,27.845,0,0,1-.436,6.442,18.986,18.986,0,0,1-3.076,7.484,16.1,16.1,0,0,1-7.656,5.762A.553.553,0,0,1,366.536,259.15Zm-.28-1.108h.18c5.408-2.056,8.751-6.221,9.939-12.383a26.938,26.938,0,0,0,.2-8.508l-10.229-4.274-10.23,4.274c-.061.416-.167,1.254-.218,2.362a26.693,26.693,0,0,0,.425,6.179C357.517,251.836,360.858,255.99,366.256,258.042Z" transform="translate(-354.762 -231.724)" fill="#fff"/>
      </g>
      <g id="Group_1100175" data-name="Group 1100175" transform="translate(223.818 105.448)">
        <path id="Path_874346" data-name="Path 874346" d="M727.479,878.519H722.14a2.6,2.6,0,0,1-2.6-2.6v-4.339a2.6,2.6,0,0,1,2.6-2.6h5.339a2.6,2.6,0,0,1,2.6,2.6v4.339A2.6,2.6,0,0,1,727.479,878.519Zm-5.339-8.432a1.494,1.494,0,0,0-1.493,1.493v4.339a1.494,1.494,0,0,0,1.493,1.493h5.339a1.494,1.494,0,0,0,1.492-1.493v-4.339a1.494,1.494,0,0,0-1.492-1.493Zm2.669,4.324a1.535,1.535,0,1,1,1.535-1.535A1.536,1.536,0,0,1,724.81,874.412Zm0-1.962a.427.427,0,1,0,.427.427A.427.427,0,0,0,724.81,872.45Z" transform="translate(-719.54 -868.98)" fill="#fff"/>
      </g>
      <g id="Group_1100176" data-name="Group 1100176" transform="translate(225.085 100.303)">
        <path id="Path_874347" data-name="Path 874347" d="M800.182,577.948a.554.554,0,0,1-.554-.554v-1.7a2.9,2.9,0,1,0-5.791,0v1.7a.554.554,0,0,1-1.108,0v-1.7a4,4,0,1,1,8.006,0v1.7A.554.554,0,0,1,800.182,577.948Z" transform="translate(-792.73 -571.695)" fill="#fff"/>
      </g>
      <g id="Group_1100177" data-name="Group 1100177" transform="translate(228.534 109.772)">
        <path id="Path_874348" data-name="Path 874348" d="M992.554,1121.551A.554.554,0,0,1,992,1121v-1.653a.554.554,0,0,1,1.108,0V1121A.554.554,0,0,1,992.554,1121.551Z" transform="translate(-992 -1118.79)" fill="#fff"/>
      </g>
    </g>
  </g>
</svg>
