<svg xmlns="http://www.w3.org/2000/svg" width="50" height="43.224" viewBox="0 0 50 43.224">
  <path id="Path_883248" data-name="Path 883248" d="M31.673,54.693V52.88a5.025,5.025,0,0,0-5.019-5.019H23.346a5.025,5.025,0,0,0-5.019,5.019v1.813a3.3,3.3,0,0,0-2.865,3.263v9.432a4.523,4.523,0,0,0,4.518,4.518H30.019a4.523,4.523,0,0,0,4.518-4.518V57.955A3.3,3.3,0,0,0,31.673,54.693Zm-8.326-4.879h3.307a3.069,3.069,0,0,1,3.066,3.066v1.784H20.281V52.88a3.069,3.069,0,0,1,3.066-3.066Zm9.238,17.574a2.568,2.568,0,0,1-2.565,2.565H19.981a2.568,2.568,0,0,1-2.565-2.565V57.956a1.34,1.34,0,0,1,1.338-1.338H31.246a1.34,1.34,0,0,1,1.338,1.338Zm13.675-32.7H3.741A3.745,3.745,0,0,0,0,38.433V74.175a3.745,3.745,0,0,0,3.741,3.741H46.259A3.745,3.745,0,0,0,50,74.175V38.433a3.745,3.745,0,0,0-3.741-3.741ZM3.741,36.645H46.259a1.79,1.79,0,0,1,1.788,1.788v3.418H1.953V38.433a1.79,1.79,0,0,1,1.788-1.788ZM46.259,75.963H3.741a1.79,1.79,0,0,1-1.788-1.788V43.8H48.047V74.175a1.79,1.79,0,0,1-1.788,1.788ZM9.07,39.248a1.062,1.062,0,1,1,1.062,1.062A1.062,1.062,0,0,1,9.07,39.248Zm4.211,0a1.062,1.062,0,1,1,1.062,1.062A1.062,1.062,0,0,1,13.281,39.248Zm-8.423,0A1.062,1.062,0,1,1,5.92,40.31,1.062,1.062,0,0,1,4.858,39.248ZM25,58.646a2.7,2.7,0,0,0-.977,5.212v2.4a.977.977,0,0,0,1.953,0v-2.4A2.7,2.7,0,0,0,25,58.646ZM25,60.6a.745.745,0,1,1-.745.745A.746.746,0,0,1,25,60.6Z" transform="translate(0 -34.692)" fill="#4dceff"/>
</svg>
