<svg xmlns="http://www.w3.org/2000/svg" width="80" height="80" viewBox="0 0 80 80">
  <g id="Group_1105629" data-name="Group 1105629" transform="translate(-199.711 -651)">
    <rect id="Rectangle_403232" data-name="Rectangle 403232" width="80" height="80" rx="10" transform="translate(199.711 651)" fill="#6018ec"/>
    <g id="Group_1106060" data-name="Group 1106060" transform="translate(210.486 632.117)">
      <g id="Group_1106047" data-name="Group 1106047" transform="translate(9.62 34.336)">
        <g id="Group_1106043" data-name="Group 1106043" transform="translate(0 0)">
          <path id="Path_883226" data-name="Path 883226" d="M107.767,88.872l4.564-3.117a25.571,25.571,0,0,0,11.15-21.116V49.717l-19.6-8.737-19.6,8.737V64.638a25.571,25.571,0,0,0,11.15,21.116l4.564,3.117a6.9,6.9,0,0,0,7.781,0Z" transform="translate(-84.272 -40.98)" fill="#e4936b"/>
        </g>
        <g id="Group_1106044" data-name="Group 1106044" transform="translate(5.04 14.125)">
          <path id="Path_883227" data-name="Path 883227" d="M162.589,164.71a45.354,45.354,0,0,1-8.94,12.527c-7.689,7.689-17.06,11.951-25.229,12.249a25.55,25.55,0,0,0,6.11,5.874l4.564,3.117a6.9,6.9,0,0,0,7.781,0l4.564-3.117a25.571,25.571,0,0,0,11.15-21.116V164.71Z" transform="translate(-128.42 -164.71)" fill="#e27d47"/>
        </g>
        <g id="Group_1106045" data-name="Group 1106045" transform="translate(3.409 3.733)">
          <path id="Path_883228" data-name="Path 883228" d="M130.333,115.628a3.475,3.475,0,0,1-1.968-.608L123.8,111.9a22.148,22.148,0,0,1-9.663-18.3V80.894l16.195-7.217,16.195,7.217V93.6a22.148,22.148,0,0,1-9.663,18.3L132.3,115.02A3.475,3.475,0,0,1,130.333,115.628Z" transform="translate(-114.138 -73.677)" fill="#ffe07d"/>
        </g>
        <g id="Group_1106046" data-name="Group 1106046" transform="translate(9.068 20.018)">
          <path id="Path_883229" data-name="Path 883229" d="M190.435,219.969v-3.64a47.315,47.315,0,0,1-5.53,6.634c-6.451,6.451-14.085,10.488-21.2,11.8a22.172,22.172,0,0,0,4.005,3.51l4.564,3.117a3.489,3.489,0,0,0,3.936,0l4.564-3.117A22.148,22.148,0,0,0,190.435,219.969Z" transform="translate(-163.703 -216.329)" fill="#ffd064"/>
        </g>
      </g>
      <g id="Group_1106048" data-name="Group 1106048" transform="translate(53.903 55.237)">
        <circle id="Ellipse_11809" data-name="Ellipse 11809" cx="1.845" cy="1.845" r="1.845" transform="translate(0 0)" fill="#ffe07d"/>
      </g>
      <g id="Group_1106049" data-name="Group 1106049" transform="translate(52.75 47.856)">
        <circle id="Ellipse_11810" data-name="Ellipse 11810" cx="1.845" cy="1.845" r="1.845" fill="#ffe07d"/>
      </g>
      <g id="Group_1106050" data-name="Group 1106050" transform="translate(52.75 62.617)">
        <circle id="Ellipse_11811" data-name="Ellipse 11811" cx="1.845" cy="1.845" r="1.845" transform="translate(0 0)" fill="#ffe07d"/>
      </g>
      <g id="Group_1106051" data-name="Group 1106051" transform="translate(0.856 55.237)">
        <circle id="Ellipse_11812" data-name="Ellipse 11812" cx="1.845" cy="1.845" r="1.845" transform="translate(0 0)" fill="#ffe07d"/>
      </g>
      <g id="Group_1106052" data-name="Group 1106052" transform="translate(2.009 47.856)">
        <circle id="Ellipse_11813" data-name="Ellipse 11813" cx="1.845" cy="1.845" r="1.845" fill="#ffe07d"/>
      </g>
      <g id="Group_1106053" data-name="Group 1106053" transform="translate(2.009 62.617)">
        <circle id="Ellipse_11814" data-name="Ellipse 11814" cx="1.845" cy="1.845" r="1.845" transform="translate(0 0)" fill="#ffe07d"/>
      </g>
      <g id="Group_1106055" data-name="Group 1106055" transform="translate(21.844 44.166)">
        <g id="Group_1106054" data-name="Group 1106054" transform="translate(0 0)">
          <path id="Path_883230" data-name="Path 883230" d="M206.111,137.7h-3.69V134.47a3.69,3.69,0,1,0-7.38,0V137.7h-3.69V134.47a7.38,7.38,0,1,1,14.761,0Z" transform="translate(-191.35 -127.09)" fill="#e6f7fe"/>
        </g>
      </g>
      <g id="Group_1106056" data-name="Group 1106056" transform="translate(18.846 54.775)">
        <path id="Path_883231" data-name="Path 883231" d="M184.689,233.862H166.238a1.153,1.153,0,0,1-1.153-1.153V221.177a1.153,1.153,0,0,1,1.153-1.153h18.451a1.153,1.153,0,0,1,1.153,1.153v11.532A1.153,1.153,0,0,1,184.689,233.862Z" transform="translate(-165.085 -220.024)" fill="#b3e59f"/>
      </g>
      <g id="Group_1106057" data-name="Group 1106057" transform="translate(35.568 54.775)">
        <path id="Path_883232" data-name="Path 883232" d="M314.442,220.025h-2.883a1.153,1.153,0,0,1,1.153,1.153V232.71a1.153,1.153,0,0,1-1.153,1.153h2.883a1.153,1.153,0,0,0,1.153-1.153V221.178A1.153,1.153,0,0,0,314.442,220.025Z" transform="translate(-311.559 -220.025)" fill="#95d6a4"/>
      </g>
      <g id="Group_1106058" data-name="Group 1106058" transform="translate(27.38 58.466)">
        <circle id="Ellipse_11815" data-name="Ellipse 11815" cx="1.845" cy="1.845" r="1.845" transform="translate(0 0)" fill="#d0cee7"/>
      </g>
      <g id="Group_1106059" data-name="Group 1106059" transform="translate(0 33.48)">
        <path id="Path_883233" data-name="Path 883233" d="M49.686,57.938h3.5a2.7,2.7,0,1,0,0-1.712h-3.5V50.558h2.348a2.7,2.7,0,1,0,0-1.712H49.686V43.072a.856.856,0,0,0-.508-.782l-19.6-8.737a.856.856,0,0,0-.7,0L9.272,42.29a.856.856,0,0,0-.508.782v1.393a.856.856,0,0,0,1.712,0v-.837l18.748-8.355,18.748,8.355V57.994A24.7,24.7,0,0,1,37.2,78.4L32.633,81.52a6.041,6.041,0,0,1-6.815,0L21.253,78.4A24.7,24.7,0,0,1,10.476,57.994V48.461a.856.856,0,1,0-1.712,0v.384H6.416a2.7,2.7,0,1,0,0,1.712H8.764v5.668h-3.5a2.7,2.7,0,1,0,0,1.712h3.5v.056a26.443,26.443,0,0,0,.6,5.612H6.416a2.7,2.7,0,1,0,0,1.712H9.8a26.413,26.413,0,0,0,10.488,14.5l4.564,3.116a7.75,7.75,0,0,0,8.747,0l4.564-3.117a26.413,26.413,0,0,0,10.488-14.5h3.384a2.7,2.7,0,1,0,0-1.712h-2.95a26.444,26.444,0,0,0,.6-5.612v-.056Zm6.063-1.845a.989.989,0,1,1-.989.989A.99.99,0,0,1,55.748,56.093ZM54.6,48.712a.989.989,0,1,1-.989.989A.99.99,0,0,1,54.6,48.712ZM3.855,50.69a.989.989,0,1,1,.989-.989A.99.99,0,0,1,3.855,50.69ZM2.7,58.071a.989.989,0,1,1,.989-.989A.99.99,0,0,1,2.7,58.071Zm1.153,7.38a.989.989,0,1,1,.989-.989A.99.99,0,0,1,3.855,65.451ZM54.6,63.473a.989.989,0,1,1-.989.989A.99.99,0,0,1,54.6,63.473Z" transform="translate(0 -33.48)"/>
        <path id="Path_883234" data-name="Path 883234" d="M139.886,77.839a.856.856,0,0,0,.856-.856v-2.73a.856.856,0,0,0-.508-.782L124.04,66.254a.856.856,0,0,0-.7,0l-16.195,7.217a.856.856,0,0,0-.508.782V86.961a23,23,0,0,0,10.037,19.008l4.563,3.117a4.349,4.349,0,0,0,4.9,0l4.563-3.117a23,23,0,0,0,10.037-19.008V80.978a.856.856,0,0,0-1.712,0v5.983a21.292,21.292,0,0,1-9.29,17.594l-4.563,3.116a2.637,2.637,0,0,1-2.971,0l-4.563-3.117a21.292,21.292,0,0,1-9.29-17.594V74.809l15.338-6.836,15.339,6.836v2.174a.856.856,0,0,0,.856.856Z" transform="translate(-94.467 -62.446)"/>
        <path id="Path_883235" data-name="Path 883235" d="M158.446,141.368a.856.856,0,0,0-.856.856v1.515a2.012,2.012,0,0,0,2.009,2.009h18.45a2.012,2.012,0,0,0,2.009-2.009V132.208a2.012,2.012,0,0,0-2.009-2.01h-.988v-2.372a8.237,8.237,0,1,0-16.473,0V130.2H159.6a2.012,2.012,0,0,0-2.009,2.01v6.021a.856.856,0,0,0,1.712,0v-6.021a.3.3,0,0,1,.3-.3h18.45a.3.3,0,0,1,.3.3V143.74a.3.3,0,0,1-.3.3H159.6a.3.3,0,0,1-.3-.3v-1.515a.856.856,0,0,0-.856-.856Zm3.854-13.543a6.524,6.524,0,1,1,13.048,0V130.2h-1.978v-2.372a4.546,4.546,0,1,0-9.093,0V130.2H162.3Zm9.358,2.372H165.99v-2.372a2.834,2.834,0,1,1,5.668,0Z" transform="translate(-139.6 -109.759)"/>
        <path id="Path_883236" data-name="Path 883236" d="M235.038,253.02a.856.856,0,0,0,.856-.856v-2.051a2.7,2.7,0,1,0-1.712,0v2.051A.856.856,0,0,0,235.038,253.02Zm0-6.458a.989.989,0,1,1-.989.989A.99.99,0,0,1,235.038,246.562Z" transform="translate(-205.813 -220.72)"/>
      </g>
    </g>
  </g>
</svg>
