<svg xmlns="http://www.w3.org/2000/svg" width="80" height="80" viewBox="0 0 80 80">
  <g id="Group_1105745" data-name="Group 1105745" transform="translate(-704.668 -6155.5)">
    <rect id="Rectangle_402033" data-name="Rectangle 402033" width="80" height="80" rx="40" transform="translate(704.668 6155.5)" fill="#bfa2f7"/>
    <g id="Group_1106157" data-name="Group 1106157" transform="translate(720.118 6170.956)">
      <g id="Group_1106155" data-name="Group 1106155" transform="translate(0.726 0.719)">
        <g id="Group_1106150" data-name="Group 1106150">
          <path id="Path_883381" data-name="Path 883381" d="M32.319,55.15H9.6a2.09,2.09,0,0,1-2.09-2.09V47.068L8.466,29.74,7.507,12.411V9.59A2.09,2.09,0,0,1,9.6,7.5H32.319a2.09,2.09,0,0,1,2.09,2.09v2.821L33.45,29.74l.959,17.329v5.991a2.09,2.09,0,0,1-2.09,2.09Z" transform="translate(-7.507 -7.5)" fill="#6b46cf"/>
          <path id="Path_883382" data-name="Path 883382" d="M232.226,9.59a2.09,2.09,0,0,0-2.09-2.09H226.3a2.09,2.09,0,0,1,2.09,2.09v2.821l-.959,17.329.959,17.329v5.991a2.09,2.09,0,0,1-2.09,2.09h3.835a2.09,2.09,0,0,0,2.09-2.09V47.068l-.959-17.329.959-17.329Z" transform="translate(-205.324 -7.5)" fill="#5f36cf"/>
          <path id="Path_883383" data-name="Path 883383" d="M7.507,58.722h26.9V93.379H7.507Z" transform="translate(-7.507 -53.811)" fill="#e1f3ff"/>
          <path id="Path_883384" data-name="Path 883384" d="M248.1,58.722h3.835V93.379H248.1Z" transform="translate(-225.037 -53.811)" fill="#ccebff"/>
          <path id="Path_883385" data-name="Path 883385" d="M118.527,452.261h-4.255a1.2,1.2,0,0,1,0-2.405h4.255a1.2,1.2,0,0,1,0,2.405Z" transform="translate(-102.948 -407.445)" fill="#5ed8f6"/>
        </g>
        <path id="Path_883386" data-name="Path 883386" d="M60.364,111.656h-18.6a.959.959,0,0,1-.959-.959v-5.139a.959.959,0,0,1,.959-.959h18.6a.959.959,0,0,1,.959.959V110.7A.959.959,0,0,1,60.364,111.656Z" transform="translate(-37.613 -95.291)" fill="#fe75a7"/>
        <g id="Group_1106151" data-name="Group 1106151" transform="translate(6.415 20.065)">
          <circle id="Ellipse_11845" data-name="Ellipse 11845" cx="7.036" cy="7.036" r="7.036" fill="#eecd7f"/>
          <path id="Path_883387" data-name="Path 883387" d="M129.723,216.786a7.038,7.038,0,0,0-1.917.267,7.036,7.036,0,0,1,0,13.539,7.036,7.036,0,1,0,1.917-13.806Z" transform="translate(-122.687 -216.786)" fill="#e1b858"/>
        </g>
        <g id="Group_1106154" data-name="Group 1106154" transform="translate(18.175 12.467)">
          <path id="Path_883388" data-name="Path 883388" d="M216.571,140.756a2.505,2.505,0,0,0-1.31,2.615,2.5,2.5,0,0,0-4.205,2.2,2.5,2.5,0,0,0-4.111,2.587l-4.862-9.279a2.506,2.506,0,0,0-4.439,2.326l6.894,13.16.1.191-3.973-2.092a2.506,2.506,0,0,0-2.153,4.526l10.9,5.394a3.957,3.957,0,0,1,1.8,1.8,3.957,3.957,0,0,0,5.386,1.758l7.837-4.106A3.957,3.957,0,0,0,226.1,156.5a7.725,7.725,0,0,1-.67-1.788l-.036-.149a35.764,35.764,0,0,0-3.1-8.28l-2.34-4.467A2.506,2.506,0,0,0,216.571,140.756Z" transform="translate(-197.082 -137.538)" fill="#fff1ab"/>
          <g id="Group_1106152" data-name="Group 1106152" transform="translate(15.764 2.931)">
            <path id="Path_883389" data-name="Path 883389" d="M374.762,184.139a7.72,7.72,0,0,1-.67-1.788l-.036-.149a35.763,35.763,0,0,0-3.1-8.28l-2.34-4.466a2.5,2.5,0,0,0-4.137-.45,2.514,2.514,0,0,1,.3.45l2.34,4.467a35.765,35.765,0,0,1,3.1,8.28l.036.149a7.727,7.727,0,0,0,.67,1.788,3.957,3.957,0,0,1-1.669,5.341l-7.754,4.062a3.952,3.952,0,0,0,3.753.043l7.837-4.106A3.957,3.957,0,0,0,374.762,184.139Z" transform="translate(-361.504 -168.113)" fill="#ffea80"/>
          </g>
          <g id="Group_1106153" data-name="Group 1106153" transform="translate(9.862 5.833)">
            <path id="Path_883390" data-name="Path 883390" d="M299.949,248.338l1.27,2.424" transform="translate(-299.949 -243.548)" fill="#fff1ab"/>
            <path id="Path_883391" data-name="Path 883391" d="M342.922,221.308l1.448,2.764" transform="translate(-338.802 -219.109)" fill="#fff1ab"/>
            <path id="Path_883392" data-name="Path 883392" d="M386.7,198.373l1.445,2.759" transform="translate(-378.381 -198.373)" fill="#fff1ab"/>
          </g>
        </g>
      </g>
      <g id="Group_1106156" data-name="Group 1106156" transform="translate(0.007 0)">
        <path id="Path_883393" data-name="Path 883393" d="M108.153,446.2h4.255c2.467,0,2.47-3.843,0-3.843h-4.255C105.687,442.356,105.683,446.2,108.153,446.2Zm0-2.405h4.255a.484.484,0,0,1,0,.967h-4.255A.484.484,0,0,1,108.153,443.794Z" transform="translate(-96.111 -399.945)" fill="#060606"/>
        <path id="Path_883394" data-name="Path 883394" d="M109.627,255.786l-4.684,4.684-1.622-1.622a.719.719,0,0,0-1.017,1.017L104.434,262a.719.719,0,0,0,1.017,0l5.193-5.193a.719.719,0,0,0-1.017-1.017Z" transform="translate(-92.303 -231.07)" fill="#060606"/>
        <path id="Path_883395" data-name="Path 883395" d="M48.56,31.811a7.544,7.544,0,0,1-.644-1.771,36.51,36.51,0,0,0-3.166-8.446l-2.34-4.466a3.256,3.256,0,0,0-5.972.665A3.255,3.255,0,0,0,32.233,20a3.264,3.264,0,0,0-3.886,1.424V2.809A2.813,2.813,0,0,0,25.538,0H8.786a.719.719,0,0,0,0,1.438H25.538a1.373,1.373,0,0,1,1.371,1.371v2.1H1.445v-2.1A1.373,1.373,0,0,1,2.816,1.438H4.76A.719.719,0,0,0,4.76,0H2.816A2.813,2.813,0,0,0,.007,2.809V46.278a2.813,2.813,0,0,0,2.809,2.809H25.538a2.813,2.813,0,0,0,2.81-2.809V37.407l2.57,1.271a3.255,3.255,0,0,1,1.47,1.473,4.725,4.725,0,0,0,6.365,2.077l4.284-2.244a.719.719,0,0,0-.667-1.274l-4.284,2.244a3.267,3.267,0,0,1-4.408-1.438,4.7,4.7,0,0,0-2.122-2.127L20.65,32c-2.048-.995-.567-4.208,1.513-3.237l3.959,2.084a.724.724,0,0,0,.972-.97L20.216,16.744c-1.129-2.123,1.9-4.083,3.049-1.881l4.862,9.279,1.27,2.424A.72.72,0,0,0,30.67,25.9l-1.236-2.36a1.794,1.794,0,0,1,2.885-1.85l1.376,2.626a.72.72,0,0,0,1.274-.667l-1.4-2.67A1.8,1.8,0,0,1,36.5,19.468l1.385,2.643a.72.72,0,0,0,1.274-.667L37.778,18.8a1.8,1.8,0,0,1,3.358-1.006l2.34,4.466a35.077,35.077,0,0,1,3.041,8.113,8.563,8.563,0,0,0,.768,2.1,3.241,3.241,0,0,1-1.365,4.37.719.719,0,0,0,.667,1.274,4.681,4.681,0,0,0,1.972-6.312ZM26.909,46.278a1.373,1.373,0,0,1-1.371,1.371H2.816a1.373,1.373,0,0,1-1.371-1.371V41.006H26.909ZM18.5,28.992a3.249,3.249,0,0,0,.243,3.2,6.316,6.316,0,1,1,1.732-4.9,3.283,3.283,0,0,0-1.975,1.7Zm5.221-15.8a3.222,3.222,0,0,0-1.072-.574,3.262,3.262,0,0,0-4.116,3.751H4.877a.24.24,0,0,1-.24-.24V10.987a.24.24,0,0,1,.24-.24h18.6a.24.24,0,0,1,.24.24Zm3.193,5.531-1.754-3.349V10.987a1.68,1.68,0,0,0-1.678-1.678H4.877A1.68,1.68,0,0,0,3.2,10.987v5.139A1.68,1.68,0,0,0,4.877,17.8H19.148l5.6,10.69-1.93-1.016-.026-.013a3.233,3.233,0,0,0-.889-.275,7.752,7.752,0,1,0-2.111,5.979c2.281,1.315,4.755,2.36,7.115,3.527v2.872H1.445V6.349H26.909Z" transform="translate(-0.007 0)" fill="#060606"/>
      </g>
    </g>
  </g>
</svg>
