<svg xmlns="http://www.w3.org/2000/svg" width="80" height="80" viewBox="0 0 80 80">
  <g id="Group_1105748" data-name="Group 1105748" transform="translate(-704.668 -6155.5)">
    <rect id="Rectangle_402033" data-name="Rectangle 402033" width="80" height="80" rx="40" transform="translate(704.668 6155.5)" fill="#bfa2f7"/>
    <g id="Group_1106164" data-name="Group 1106164" transform="translate(723.189 6174.021)">
      <path id="Path_883433" data-name="Path 883433" d="M30.818,21H11V44.782H25.533L30.818,39.5V21Z" transform="translate(-3.394 -6.788)" fill="#ffecae"/>
      <path id="Path_883434" data-name="Path 883434" d="M33,54.285V49h5.285Z" transform="translate(-10.861 -16.291)" fill="#ffd55d"/>
      <g id="Group_1106163" data-name="Group 1106163" transform="translate(1.661 1.661)">
        <path id="Path_883435" data-name="Path 883435" d="M18,34h2.642v2.642H18Z" transform="translate(-7.43 -12.861)" fill="#ffc239"/>
        <path id="Path_883436" data-name="Path 883436" d="M28,34h2.642v2.642H28Z" transform="translate(-10.824 -12.861)" fill="#ffc239"/>
        <path id="Path_883437" data-name="Path 883437" d="M28,24h2.642v2.642H28Z" transform="translate(-10.824 -9.467)" fill="#ffc239"/>
        <path id="Path_883438" data-name="Path 883438" d="M20,26h2.642v2.642H20Z" transform="translate(-8.109 -10.146)" fill="#ffc239"/>
        <path id="Path_883439" data-name="Path 883439" d="M36,30h5.285v5.285H36Z" transform="translate(-13.54 -11.503)" fill="#ffc239"/>
        <path id="Path_883440" data-name="Path 883440" d="M48,22h5.285v5.285H48Z" transform="translate(-17.613 -8.788)" fill="#ffc239"/>
        <path id="Path_883441" data-name="Path 883441" d="M48,10h5.285v5.285H48Z" transform="translate(-17.613 -4.715)" fill="#ffc239"/>
        <path id="Path_883442" data-name="Path 883442" d="M36,16h5.285v5.285H36Z" transform="translate(-13.54 -6.752)" fill="#ffc239"/>
        <path id="Path_883443" data-name="Path 883443" d="M27,7h3.964v3.964H27Z" transform="translate(-10.485 -3.697)" fill="#ffc239"/>
        <path id="Path_883444" data-name="Path 883444" d="M37,2h3.964V5.964H37Z" transform="translate(-13.879 -2)" fill="#ffc239"/>
        <path id="Path_883445" data-name="Path 883445" d="M58,2h2.642V4.642H58Z" transform="translate(-21.007 -2)" fill="#ffc239"/>
        <path id="Path_883446" data-name="Path 883446" d="M10.588,42,2,55.212H19.176Z" transform="translate(-2 -15.576)" fill="#ffc239"/>
      </g>
      <path id="Path_883447" data-name="Path 883447" d="M36,45h1.321v1.321H36Z" transform="translate(-11.879 -14.934)" fill="#5a5b5d"/>
      <path id="Path_883448" data-name="Path 883448" d="M22,45h8.588v1.321H22Z" transform="translate(-7.127 -14.934)" fill="#5a5b5d"/>
      <path id="Path_883449" data-name="Path 883449" d="M12.452,43.308,5.945,53.314A.661.661,0,0,0,6.5,54.335H19.62Z" transform="translate(-1.642 -14.359)" fill="#ffd55d"/>
      <path id="Path_883450" data-name="Path 883450" d="M36,42h1.321v1.321H36Z" transform="translate(-11.879 -13.916)" fill="#5a5b5d"/>
      <path id="Path_883451" data-name="Path 883451" d="M22,42h8.588v1.321H22Z" transform="translate(-7.127 -13.916)" fill="#5a5b5d"/>
      <path id="Path_883452" data-name="Path 883452" d="M14,57h1.321v1.321H14Z" transform="translate(-4.412 -19.007)"/>
      <path id="Path_883453" data-name="Path 883453" d="M14,49h1.321v3.964H14Z" transform="translate(-4.412 -16.291)"/>
      <path id="Path_883454" data-name="Path 883454" d="M29.406,21.606a.661.661,0,0,0,.661-.661V15.661A.661.661,0,0,0,29.406,15H24.121a.661.661,0,0,0-.661.661V18.3H7.606a.661.661,0,0,0-.661.661V36.705L1.107,45.689a.661.661,0,0,0,.554,1.019H18.836a.661.661,0,0,0,.554-1.021l-1.484-2.282h4.232a.661.661,0,0,0,.467-.193l5.285-5.285a.661.661,0,0,0,.194-.467V30.854h1.321a.661.661,0,0,0,.661-.661V24.909a.661.661,0,0,0-.661-.661H28.085V21.606ZM2.878,45.387l7.37-11.339,7.37,11.339ZM22.8,41.15V38.121h3.029ZM26.764,36.8H22.139a.661.661,0,0,0-.661.661v4.624H17.048L10.8,32.476a.687.687,0,0,0-1.108,0l-1.428,2.2V19.624H23.461v1.321a.661.661,0,0,0,.661.661h2.642v2.642H24.121a.661.661,0,0,0-.661.661v5.285a.661.661,0,0,0,.661.661h2.642Zm1.982-11.23v3.964H24.782V25.57Zm-3.964-5.285V16.321h3.964v3.964Z" transform="translate(0 -4.752)"/>
      <path id="Path_883455" data-name="Path 883455" d="M14,57h1.321v1.321H14Z" transform="translate(-4.412 -19.007)"/>
      <path id="Path_883456" data-name="Path 883456" d="M14,49h1.321v3.964H14Z" transform="translate(-4.412 -16.291)"/>
      <path id="Path_883457" data-name="Path 883457" d="M17,33.661V36.3a.661.661,0,0,0,.661.661H20.3a.661.661,0,0,0,.661-.661V33.661A.661.661,0,0,0,20.3,33H17.661A.661.661,0,0,0,17,33.661Zm1.321.661h1.321v1.321H18.321Z" transform="translate(-5.43 -10.861)"/>
      <path id="Path_883458" data-name="Path 883458" d="M27,36.3a.661.661,0,0,0,.661.661H30.3a.661.661,0,0,0,.661-.661V33.661A.661.661,0,0,0,30.3,33H27.661a.661.661,0,0,0-.661.661Zm1.321-1.982h1.321v1.321H28.321Z" transform="translate(-8.824 -10.861)"/>
      <path id="Path_883459" data-name="Path 883459" d="M27.661,26.964H30.3a.661.661,0,0,0,.661-.661V23.661A.661.661,0,0,0,30.3,23H27.661a.661.661,0,0,0-.661.661V26.3A.661.661,0,0,0,27.661,26.964Zm.661-2.642h1.321v1.321H28.321Z" transform="translate(-8.824 -7.467)"/>
      <path id="Path_883460" data-name="Path 883460" d="M22.3,25H19.661a.661.661,0,0,0-.661.661V28.3a.661.661,0,0,0,.661.661H22.3a.661.661,0,0,0,.661-.661V25.661A.661.661,0,0,0,22.3,25Zm-.661,2.642H20.321V26.321h1.321Z" transform="translate(-6.109 -8.146)"/>
      <path id="Path_883461" data-name="Path 883461" d="M47,26.945a.661.661,0,0,0,.661.661h5.285a.661.661,0,0,0,.661-.661V21.661A.661.661,0,0,0,52.945,21H47.661a.661.661,0,0,0-.661.661Zm1.321-4.624h3.964v3.964H48.321Z" transform="translate(-15.612 -6.788)"/>
      <path id="Path_883462" data-name="Path 883462" d="M47.661,15.606h5.285a.661.661,0,0,0,.661-.661V9.661A.661.661,0,0,0,52.945,9H47.661A.661.661,0,0,0,47,9.661v5.285A.661.661,0,0,0,47.661,15.606Zm.661-5.285h3.964v3.964H48.321Z" transform="translate(-15.612 -2.715)"/>
      <path id="Path_883463" data-name="Path 883463" d="M30.624,11.285a.661.661,0,0,0,.661-.661V6.661A.661.661,0,0,0,30.624,6H26.661A.661.661,0,0,0,26,6.661v3.964a.661.661,0,0,0,.661.661Zm-3.3-3.964h2.642V9.964H27.321Z" transform="translate(-8.485 -1.697)"/>
      <path id="Path_883464" data-name="Path 883464" d="M40.624,6.285a.661.661,0,0,0,.661-.661V1.661A.661.661,0,0,0,40.624,1H36.661A.661.661,0,0,0,36,1.661V5.624a.661.661,0,0,0,.661.661Zm-3.3-3.964h2.642V4.964H37.321Z" transform="translate(-11.879)"/>
      <path id="Path_883465" data-name="Path 883465" d="M60.3,1H57.661A.661.661,0,0,0,57,1.661V4.3a.661.661,0,0,0,.661.661H60.3a.661.661,0,0,0,.661-.661V1.661A.661.661,0,0,0,60.3,1Zm-.661,2.642H58.321V2.321h1.321Z" transform="translate(-19.006)"/>
      <path id="Path_883466" data-name="Path 883466" d="M36,45h1.321v1.321H36Z" transform="translate(-11.879 -14.934)"/>
      <path id="Path_883467" data-name="Path 883467" d="M22,45h8.588v1.321H22Z" transform="translate(-7.127 -14.934)"/>
      <path id="Path_883468" data-name="Path 883468" d="M36,42h1.321v1.321H36Z" transform="translate(-11.879 -13.916)"/>
      <path id="Path_883469" data-name="Path 883469" d="M22,42h8.588v1.321H22Z" transform="translate(-7.127 -13.916)"/>
    </g>
  </g>
</svg>
