<svg xmlns="http://www.w3.org/2000/svg" width="130" height="137.884" viewBox="0 0 130 137.884">
  <g id="Group_1105777" data-name="Group 1105777" transform="translate(-279.765 -5846.501)">
    <path id="Path_873448" data-name="Path 873448" d="M130,133.973A3.976,3.976,0,0,0,126.024,130H3.976A3.976,3.976,0,0,0,0,133.973v73.452c0,.055,0,.109,0,.163a7.565,7.565,0,0,0,3.453,6.532l57.4,29.89a7.6,7.6,0,0,0,8.277,0l57.4-29.89A7.565,7.565,0,0,0,130,207.589c0-.054,0-.109,0-.163Z" transform="translate(279.765 5739.148)" fill="#fff"/>
    <path id="Path_873449" data-name="Path 873449" d="M121.194,83.7A3.707,3.707,0,0,0,117.487,80H3.707A3.707,3.707,0,0,0,0,83.7V169c0,.051,0,.1,0,.152a7.053,7.053,0,0,0,3.219,6.09l53.516,27.865a7.083,7.083,0,0,0,7.716,0l53.516-27.865a7.053,7.053,0,0,0,3.219-6.09c0-.051,0-.1,0-.152Z" transform="translate(284.765 5774.085)" fill="#6018ec"/>
    <path id="Path_873665" data-name="Path 873665" d="M108.068,12.3A3.305,3.305,0,0,0,104.763,9H3.305A3.305,3.305,0,0,0,0,12.3v89.87c0,.046,0,.091,0,.136a6.289,6.289,0,0,0,2.87,5.43l47.72,24.847a6.316,6.316,0,0,0,6.881,0l47.72-24.847a6.289,6.289,0,0,0,2.87-5.43c0-.045,0-.09,0-.136Z" transform="translate(290.843 5838.004)" fill="none" stroke="#fff" stroke-width="1"/>
    <g id="Group_1106166" data-name="Group 1106166" transform="translate(-2008.5 4169.125)">
      <g id="Group_1106165" data-name="Group 1106165" transform="translate(2322.772 1699.39)">
        <g id="Icons" transform="translate(0 0)">
          <path id="Path_883470" data-name="Path 883470" d="M2403.178,1773.093a2.2,2.2,0,0,0-1.058.093,1.95,1.95,0,0,0-1.012,1.012,11.141,11.141,0,0,1-.974,1.743,6.336,6.336,0,0,1-1.232.915,2.084,2.084,0,0,0-.886,1.22,2.921,2.921,0,0,0,.885,2.231c.364.439.8.881,1.178,1.318a2.972,2.972,0,0,1,.661,1.01,3.451,3.451,0,0,1-.387,2.2,7.318,7.318,0,0,0-.78,2.841,23.332,23.332,0,0,0,.8,5.44,6.887,6.887,0,0,0,.819,1.456,1.461,1.461,0,0,1,.366.893,1.715,1.715,0,0,1-.316.645,11.511,11.511,0,0,1-1.407,1.591c-1.533,1.507-3.526,3.111-4.257,3.985a2.162,2.162,0,0,0-.466,1.227,5.353,5.353,0,0,1-.112,1.265,3.153,3.153,0,0,1-.624.982c-.32.375-.668.731-.951,1.134a.669.669,0,0,0,.086.872,35.585,35.585,0,0,0,5.543,4.217,7.286,7.286,0,0,1,1.141,1,3.293,3.293,0,0,0,1.784.908,6.439,6.439,0,0,0,2.634-.224,4.552,4.552,0,0,1,2.052-.17,2.739,2.739,0,0,1,1.094.695,3.959,3.959,0,0,0,1.688.976,2.807,2.807,0,0,0,1.8-.38c.256-.127.514-.268.772-.366a.773.773,0,0,1,.673-.036,3.91,3.91,0,0,1,1.543,2.126,13.993,13.993,0,0,0,1.423,3.035,10.86,10.86,0,0,0,2.868,2.4,11.238,11.238,0,0,1,2.624,2.072,3.619,3.619,0,0,1,.516,1.376,2.647,2.647,0,0,0,1.283,1.8,2.18,2.18,0,0,0,1.653-.027c.621-.21,1.3-.6,1.748-.681a38.266,38.266,0,0,1,5.449.377c.58.117,1.116.363,1.681.532a9.709,9.709,0,0,1,1.192.411c.432.194.692.348.757.568a.454.454,0,0,1-.071.322,3.43,3.43,0,0,1-.518.705c-.532.6-1.217,1.218-1.671,1.839a2.676,2.676,0,0,0-.606,1.633.687.687,0,0,0,.63.664c.359.055,2.15-.12,2.293-.112.244.014,2.23.537,2.7.516a.748.748,0,0,0,.633-.341,4.426,4.426,0,0,0,.559-2c.077-.946,0-1.982.115-2.773a17.88,17.88,0,0,1,1.493-4.093,6.853,6.853,0,0,0,.568-4.731,11.629,11.629,0,0,0-2.1-3.414,5.01,5.01,0,0,1-1.339-2.914,1.154,1.154,0,0,1,.613-1,9.914,9.914,0,0,1,1.683-.755,4.172,4.172,0,0,0,1.173-.657,1.476,1.476,0,0,0,.525-1.426.749.749,0,0,0-.231-.422,2.658,2.658,0,0,0-.385-.256,21.8,21.8,0,0,1-2.317-1.316,4.328,4.328,0,0,1-.413-.343,4.07,4.07,0,0,1,3.154-.568c1.569.164,3.19.494,4.537.076.463-.143,1.146-.573,1.836-.9a3.256,3.256,0,0,1,.8-.285.56.56,0,0,1,.385.024c.153.089.232.323.344.58a21.9,21.9,0,0,0,.884,2.061,2.2,2.2,0,0,0,1.249,1.1,1.818,1.818,0,0,0,1.287-.148,1.784,1.784,0,0,0,1.044-1.693,7.629,7.629,0,0,0-.179-1.5,14.989,14.989,0,0,0-.633-2.865,4.27,4.27,0,0,0-1.194-1.791,7.188,7.188,0,0,0-1.891-.876c-.361-.145-.728-.279-.853-.623.079-.112.328-.465.525-.7a3.412,3.412,0,0,0,.939-1.863,1.821,1.821,0,0,0-.647-1.326c-.361-.346-.874-.623-1.139-.945a2.049,2.049,0,0,1-.337-.774,9.041,9.041,0,0,1-.234-1.64,2.869,2.869,0,0,1,.134-.9,6.843,6.843,0,0,0,.251-1.242,5.555,5.555,0,0,0-.174-1.476,2.24,2.24,0,0,1-.047-1.015,10.227,10.227,0,0,1,.829-1.648,2.554,2.554,0,0,0,.243-1.677c-.222-.993-1.168-1.588-2.559-1.807a33.9,33.9,0,0,0-5.335-.04,6.855,6.855,0,0,1-2.38-.181,1.335,1.335,0,0,1-.552-.494,9.207,9.207,0,0,1-.566-.97,3.4,3.4,0,0,0-2.078-1.958,3.507,3.507,0,0,0-2.135.234,6.032,6.032,0,0,1-1.51.483c-2.306.22-4.807-.272-6.237-2.225a1.44,1.44,0,0,1-.234-.821,8.931,8.931,0,0,1,.1-1.29,4.514,4.514,0,0,0-.459-3.226c-.33-.475-.705-1.32-1.12-2.029a4.142,4.142,0,0,0-1.094-1.33,2.062,2.062,0,0,0-.554-.234c-.368-.107-.9-.2-1.33-.337a2.8,2.8,0,0,1-.284-.112,2.628,2.628,0,0,1,.533-1.084c.607-.855,1.478-1.674,1.915-2.23a6.576,6.576,0,0,0,1.018-2.2,7.391,7.391,0,0,1,.741-1.874,5.535,5.535,0,0,1,1.511-1.435,7.619,7.619,0,0,0,1.858-1.722c.229-.329,1.456-1.2,2.137-1.893a2.876,2.876,0,0,0,.58-.769.984.984,0,0,0,.086-.545,2.953,2.953,0,0,0-1.4-1.989,2.573,2.573,0,0,0-2.452-.236,10.218,10.218,0,0,0-3.105,2.761,11.5,11.5,0,0,1-2.667,2.6,2.246,2.246,0,0,1-1.345.186,13.456,13.456,0,0,0-1.925-.112,4.65,4.65,0,0,0-1.985.688,7.045,7.045,0,0,1-1.466.728.722.722,0,0,1-.508-.046c-.2-.077-.389-.17-.605-.241-.63-.2-1.444-.291-2.9.676a4.409,4.409,0,0,0-1.728,3.544,10.156,10.156,0,0,1-.547,3.338,8.7,8.7,0,0,1-2.293,2.591,30.415,30.415,0,0,0-2.947,2.639A3.342,3.342,0,0,0,2403.178,1773.093Zm27.4-18.839a7.3,7.3,0,0,1-.573.611c-.757.688-1.757,1.462-1.973,1.772a6.312,6.312,0,0,1-1.554,1.411,6.866,6.866,0,0,0-1.844,1.789,8.751,8.751,0,0,0-.895,2.206,5.279,5.279,0,0,1-.793,1.763c-.446.569-1.333,1.409-1.953,2.281a3.49,3.49,0,0,0-.783,2.135,1.258,1.258,0,0,0,.883.993,11.163,11.163,0,0,0,1.438.4,1.831,1.831,0,0,1,.442.127,2.8,2.8,0,0,1,.685.895c.434.741.831,1.621,1.177,2.118a2.058,2.058,0,0,1,.315,1.223c0,.549-.1,1.118-.151,1.662a3.473,3.473,0,0,0,.451,2.477c1.715,2.342,4.68,3.03,7.444,2.767a7.344,7.344,0,0,0,1.853-.563,2.219,2.219,0,0,1,1.349-.187,1.376,1.376,0,0,1,.764.554,9.706,9.706,0,0,1,.692,1.18,3.388,3.388,0,0,0,1.536,1.623,6.893,6.893,0,0,0,2.448.292c1.375-.01,3.066-.146,4.511-.083a6.292,6.292,0,0,1,1.887.3c.322.124.575.28.64.571a1.53,1.53,0,0,1-.28,1.075,7.456,7.456,0,0,0-.785,1.634,3.559,3.559,0,0,0,.035,1.6,4.265,4.265,0,0,1,.149,1.122,5.628,5.628,0,0,1-.21,1,4.153,4.153,0,0,0-.176,1.333,6.429,6.429,0,0,0,.876,3.178,8.611,8.611,0,0,0,1.084.914,2.05,2.05,0,0,1,.284.273.348.348,0,0,1,.11.222,1.2,1.2,0,0,1-.317.617c-.25.339-.552.669-.766.962a1.575,1.575,0,0,0-.377,1.184,2.175,2.175,0,0,0,1.291,1.5,11.93,11.93,0,0,0,1.163.456,2.581,2.581,0,0,1,.759.375,3.313,3.313,0,0,1,.943,1.645,18,18,0,0,1,.43,2.2,6.346,6.346,0,0,1,.162,1.232.53.53,0,0,1-.273.528.6.6,0,0,1-.337.076c-.153-.028-.253-.158-.356-.3a3.594,3.594,0,0,1-.344-.643c-.25-.568-.456-1.2-.691-1.688a2.233,2.233,0,0,0-.79-.974,2.3,2.3,0,0,0-2,.015c-.769.3-1.576.862-2.094,1.022-1.191.368-2.621.017-4-.127-1.688-.176-3.3-.077-4.53,1.227a.967.967,0,0,0,.031,1.363,4.653,4.653,0,0,0,1.052.886,22.571,22.571,0,0,0,2.1,1.18,1.233,1.233,0,0,1-.134.1,7.3,7.3,0,0,1-1.268.563c-1.294.513-2.533,1.23-2.528,2.76a6.32,6.32,0,0,0,1.612,3.721,10.258,10.258,0,0,1,1.887,2.989,5.563,5.563,0,0,1-.521,3.833,19.159,19.159,0,0,0-1.581,4.413c-.1.69-.067,1.559-.1,2.4a5.1,5.1,0,0,1-.219,1.507c-.626-.133-2.111-.446-2.292-.456-.079-.005-.816.038-1.409.076a5.664,5.664,0,0,1,.551-.68,18.324,18.324,0,0,0,1.645-1.841,1.954,1.954,0,0,0,.36-1.653,2.422,2.422,0,0,0-1.49-1.4,10.483,10.483,0,0,0-1.357-.473c-.6-.182-1.18-.439-1.8-.564a41.9,41.9,0,0,0-5.963-.378,11.745,11.745,0,0,0-1.633.619,3.6,3.6,0,0,1-.668.21.4.4,0,0,1-.236.007c-.506-.261-.566-.805-.7-1.311a3.945,3.945,0,0,0-.679-1.526,12.652,12.652,0,0,0-2.925-2.342,9.519,9.519,0,0,1-2.527-2.08,12.668,12.668,0,0,1-1.258-2.742,5.22,5.22,0,0,0-2.137-2.792,2.138,2.138,0,0,0-1.958.024c-.346.148-.693.349-1.036.5a1.041,1.041,0,0,1-.609.127,2.66,2.66,0,0,1-1.106-.688,4.034,4.034,0,0,0-1.662-.979,5.887,5.887,0,0,0-2.65.17,5.141,5.141,0,0,1-2.09.213,2.288,2.288,0,0,1-1.316-.766,6.434,6.434,0,0,0-1.134-.958,35.311,35.311,0,0,1-4.9-3.647,6.674,6.674,0,0,0,1.387-1.982,3.728,3.728,0,0,0,.163-1.151,1.405,1.405,0,0,1,.181-.927c.838-1,3.374-2.978,4.9-4.647a5,5,0,0,0,1.373-2.239,2.4,2.4,0,0,0-.38-1.509,9.051,9.051,0,0,1-.847-1.421,21.877,21.877,0,0,1-.747-5.1,6.013,6.013,0,0,1,.681-2.287,4.761,4.761,0,0,0,.437-3.064,7.532,7.532,0,0,0-1.736-2.407,6.547,6.547,0,0,1-.776-.977.873.873,0,0,1-.184-.576.365.365,0,0,1,.124-.172,2.97,2.97,0,0,1,.469-.368,5.466,5.466,0,0,0,1.289-1.041,9.5,9.5,0,0,0,.9-1.552c.158-.327.236-.6.447-.724s.494-.057,1,.077a.667.667,0,0,0,.785-.284.815.815,0,0,0,.136-.38,3.137,3.137,0,0,0-.014-.4,2.167,2.167,0,0,1,.586-1.253,28.953,28.953,0,0,1,2.815-2.508,10.051,10.051,0,0,0,2.629-3.026,11.523,11.523,0,0,0,.675-3.787,3.135,3.135,0,0,1,1.135-2.563,2.609,2.609,0,0,1,1.426-.576,2.355,2.355,0,0,1,.848.274,1.969,1.969,0,0,0,1.371.084,8.252,8.252,0,0,0,1.748-.848,3.372,3.372,0,0,1,1.43-.518,11.972,11.972,0,0,1,1.724.114,3.585,3.585,0,0,0,2.123-.368,12.811,12.811,0,0,0,3.008-2.887,8.9,8.9,0,0,1,2.665-2.421,1.242,1.242,0,0,1,1.168.167A1.656,1.656,0,0,1,2430.575,1754.254Z" transform="translate(-2393.303 -1751.76)" fill="#fff" stroke="#fff" stroke-width="1.028" fill-rule="evenodd"/>
        </g>
      </g>
    </g>
  </g>
</svg>
