<svg id="Group_1105795" data-name="Group 1105795" xmlns="http://www.w3.org/2000/svg" width="110" height="110" viewBox="0 0 110 110">
  <rect id="Rectangle_402033" data-name="Rectangle 402033" width="110" height="110" rx="5" transform="translate(0)" fill="#bfa2f7"/>
  <g id="Group_1106187" data-name="Group 1106187" transform="translate(-19.521 16.776)">
    <g id="Group_1106185" data-name="Group 1106185" transform="translate(43.941 1.274)">
      <path id="Path_883513" data-name="Path 883513" d="M111.359,10.081V52.51s-4.077,22.5-30.579,28.923c-.65-.153-1.287-.331-1.911-.51C54.073,73.916,50.2,52.51,50.2,52.51V10.081a2.556,2.556,0,0,1,2.548-2.548h56.062A2.556,2.556,0,0,1,111.359,10.081Z" transform="translate(-50.2 -7.533)" fill="#ac9e1e"/>
      <path id="Path_883514" data-name="Path 883514" d="M107.537,10.081V52.51s-3.873,21.406-28.668,28.413C54.073,73.916,50.2,52.51,50.2,52.51V10.081a2.556,2.556,0,0,1,2.548-2.548h52.24A2.556,2.556,0,0,1,107.537,10.081Z" transform="translate(-50.2 -7.533)" fill="#d8c836"/>
      <path id="Path_883515" data-name="Path 883515" d="M135.3,41.667V81.013c-.637,2.739-5.237,18.717-25.483,24.2q-.975-.268-1.911-.574c-18.59-5.925-22.96-21.061-23.572-23.623V41.667Z" transform="translate(-79.236 -36.57)" fill="#ac9e1e"/>
      <path id="Path_883516" data-name="Path 883516" d="M131.476,41.667V81.013c-.612,2.65-4.944,17.7-23.572,23.623-18.59-5.925-22.96-21.061-23.572-23.623V41.667Z" transform="translate(-79.236 -36.57)" fill="#d8d336"/>
      <rect id="Rectangle_406086" data-name="Rectangle 406086" width="50.966" height="19.112" transform="translate(5.097 5.097)" fill="#607d8b"/>
      <rect id="Rectangle_406087" data-name="Rectangle 406087" width="47.143" height="19.112" transform="translate(5.097 5.097)" fill="#cfd8dc"/>
      <path id="Path_883517" data-name="Path 883517" d="M189.281,280.6h15.29a2.548,2.548,0,0,1,2.548,2.548V295.89a2.548,2.548,0,0,1-2.548,2.548h-15.29a2.548,2.548,0,0,1-2.548-2.548V283.148A2.548,2.548,0,0,1,189.281,280.6Z" transform="translate(-166.347 -239.827)" fill="#00bcd4"/>
      <circle id="Ellipse_11850" data-name="Ellipse 11850" cx="2.548" cy="2.548" r="2.548" transform="translate(28.031 45.869)" fill="#009688"/>
    </g>
    <g id="Group_1106186" data-name="Group 1106186" transform="translate(42.667)">
      <path id="Path_883518" data-name="Path 883518" d="M102.552,0H46.489a3.827,3.827,0,0,0-3.822,3.822V46.257a1.28,1.28,0,0,0,.02.228c.042.233,4.537,23.381,31.533,29.927a1.27,1.27,0,0,0,.6,0c27-6.546,31.49-29.695,31.533-29.927a1.281,1.281,0,0,0,.02-.228V3.822A3.826,3.826,0,0,0,102.552,0Zm1.274,46.132c-.34,1.611-5.063,21.7-29.305,27.731C50.1,67.787,45.582,47.972,45.215,46.135V3.822a1.275,1.275,0,0,1,1.274-1.274h56.062a1.275,1.275,0,0,1,1.274,1.274V46.132Z" transform="translate(-42.667)"/>
      <path id="Path_883519" data-name="Path 883519" d="M129.039,34.133H78.073A1.274,1.274,0,0,0,76.8,35.407V74.755a1.292,1.292,0,0,0,.035.3c.766,3.21,5.641,19.512,26.389,25.128a1.259,1.259,0,0,0,.666,0c20.808-5.628,25.634-21.919,26.39-25.128a1.252,1.252,0,0,0,.034-.292V35.407a1.274,1.274,0,0,0-1.274-1.274ZM79.347,36.681h48.418V53.245H79.347Zm24.209,60.947C84.769,92.388,80.156,77.858,79.347,74.6V55.794h48.418V74.608C126.968,77.858,122.4,92.378,103.556,97.629Z" transform="translate(-71.703 -29.036)"/>
      <path id="Path_883520" data-name="Path 883520" d="M198.311,207.734v-5.1a6.378,6.378,0,0,0-6.371-6.371h-2.548a6.378,6.378,0,0,0-6.371,6.371v5.1a3.827,3.827,0,0,0-3.822,3.822V224.3a3.827,3.827,0,0,0,3.822,3.822h15.29a3.827,3.827,0,0,0,3.822-3.822V211.557A3.826,3.826,0,0,0,198.311,207.734Zm-12.741-5.1a3.827,3.827,0,0,1,3.822-3.822h2.548a3.827,3.827,0,0,1,3.822,3.822v5.1H185.57ZM199.585,224.3a1.275,1.275,0,0,1-1.274,1.274h-15.29a1.275,1.275,0,0,1-1.274-1.274V211.557a1.275,1.275,0,0,1,1.274-1.274h15.29a1.275,1.275,0,0,1,1.274,1.274Z" transform="translate(-158.813 -166.962)"/>
      <path id="Path_883521" data-name="Path 883521" d="M234.22,307.2a3.813,3.813,0,0,0-1.274,7.41v1.509a1.274,1.274,0,0,0,2.548,0V314.61a3.813,3.813,0,0,0-1.274-7.41Zm0,5.1a1.274,1.274,0,1,1,1.274-1.274A1.274,1.274,0,0,1,234.22,312.3Z" transform="translate(-202.367 -261.331)"/>
      <path id="Path_883522" data-name="Path 883522" d="M154.481,68.352a1.267,1.267,0,0,0-1.673.669l-2.652,6.185L147.5,69.021a1.274,1.274,0,1,0-2.342,1l3.822,8.919a1.274,1.274,0,0,0,2.342,0l3.822-8.919A1.274,1.274,0,0,0,154.481,68.352Z" transform="translate(-129.77 -58.055)"/>
      <path id="Path_883523" data-name="Path 883523" d="M234.222,68.267h-2.548a1.274,1.274,0,0,0-1.274,1.274V78.46a1.274,1.274,0,0,0,2.548,0V75.912h1.274a3.822,3.822,0,1,0,0-7.645Zm0,5.1h-1.274V70.815h1.274a1.274,1.274,0,0,1,0,2.548Z" transform="translate(-202.368 -58.074)"/>
      <path id="Path_883524" data-name="Path 883524" d="M306.312,68.267a1.274,1.274,0,0,0-1.274,1.274v4.943L300.978,68.8a1.274,1.274,0,0,0-2.311.74V78.46a1.274,1.274,0,1,0,2.548,0V73.517l4.059,5.684a1.274,1.274,0,0,0,2.311-.74V69.541a1.274,1.274,0,0,0-1.274-1.274Z" transform="translate(-260.443 -58.074)"/>
    </g>
  </g>
</svg>
