<svg xmlns="http://www.w3.org/2000/svg" width="100" height="100" viewBox="0 0 100 100">
  <g id="Group_1100965" data-name="Group 1100965" transform="translate(0.242)">
    <g id="Group_1098742" data-name="Group 1098742" transform="translate(0)">
      <rect id="Rectangle_400898" data-name="Rectangle 400898" width="100" height="100" rx="50" transform="translate(-0.242)" fill="#fff" opacity="0.859"/>
      <g id="Rectangle_400907" data-name="Rectangle 400907" transform="translate(-0.242)" fill="none" stroke="#6018ec" stroke-linecap="round" stroke-width="2" stroke-dasharray="7">
        <rect width="100" height="100" rx="50" stroke="none"/>
        <rect x="1" y="1" width="98" height="98" rx="49" fill="none"/>
      </g>
    </g>
    <g id="Group_1106109" data-name="Group 1106109" transform="translate(-18.932 18.115)">
      <g id="Group_1106107" data-name="Group 1106107" transform="translate(42.524 0.935)">
        <path id="Path_883343" data-name="Path 883343" d="M82.98,183.913l-11.826-2.407-4.7-5.911c-.008,0-.012,0-.02,0A20.585,20.585,0,0,0,50.2,208.849l3.639.815,13.927,5.093,12.679-7.067,2.707.52a20.6,20.6,0,0,0-.17-24.3Z" transform="translate(-45.837 -154.616)" fill="#b3dafe"/>
        <g id="Group_1106106" data-name="Group 1106106" transform="translate(4.359 39.464)">
          <path id="Path_883344" data-name="Path 883344" d="M113.7,337.778l.019.077a20.516,20.516,0,0,1-16.476,8.561,19.965,19.965,0,0,1-16.476-7.922l0-.716A16.513,16.513,0,0,1,86.41,326.95l5.014-3.225h12.04l4.6,3.225A16.524,16.524,0,0,1,113.7,337.778Z" transform="translate(-80.769 -323.725)" fill="#efedef"/>
        </g>
        <path id="Path_883345" data-name="Path 883345" d="M224.238,183.115l-.545,2.54h-4.638a21.35,21.35,0,0,0,11.432,12l2.89,1.26a3.394,3.394,0,0,0,2.712,0l2-.871A20.633,20.633,0,0,0,224.238,183.115Z" transform="translate(-197.439 -161.198)" fill="#8ac9fe"/>
        <circle id="Ellipse_11832" data-name="Ellipse 11832" cx="13.726" cy="13.726" r="13.726" transform="translate(6.869 20.965)" fill="#f9f7f8"/>
        <path id="Path_883346" data-name="Path 883346" d="M211.066,175.492a21.356,21.356,0,0,0,12.429,15.493l1.09.475a13.732,13.732,0,0,0-13.519-15.968Z" transform="translate(-190.447 -154.527)" fill="#efedef"/>
        <path id="Path_883347" data-name="Path 883347" d="M242.12,42.921l-2.889-1.26A18.864,18.864,0,0,1,227.906,24.37V13.611a.787.787,0,0,1,.677-.779l2.647-.374a20.387,20.387,0,0,0,9.551-4.006l.9-.691a1.307,1.307,0,0,1,1.59,0l.9.691a20.388,20.388,0,0,0,9.551,4.006l2.647.374a.787.787,0,0,1,.677.779V24.37a18.863,18.863,0,0,1-11.325,17.292l-2.889,1.26A.9.9,0,0,1,242.12,42.921Z" transform="translate(-205.185 -7.491)" fill="#d7d0d6"/>
        <circle id="Ellipse_11833" data-name="Ellipse 11833" cx="10.239" cy="10.239" r="10.239" transform="translate(27.055 7.253)" fill="#ffe5df"/>
      </g>
      <g id="Group_1106108" data-name="Group 1106108" transform="translate(42.052 0)">
        <path id="Path_883348" data-name="Path 883348" d="M83.269,186.936a.936.936,0,0,0-.766,1.079,19.63,19.63,0,0,1,.277,3.28,19.309,19.309,0,0,1-2.456,9.445,17.4,17.4,0,0,0-4.908-8.432,14.328,14.328,0,0,0,1.859-4.137.936.936,0,0,0-1.807-.487,12.548,12.548,0,1,1-13.442-15.748.934.934,0,0,0,.748-.532h-.016a.934.934,0,0,0-.9-1.355c-.047,0-1.227.113-1.8.2A21.325,21.325,0,0,0,43.1,184.674a.936.936,0,1,0,1.779.582,19.436,19.436,0,0,1,5.842-8.722c.408-.35.831-.679,1.264-.992a14.4,14.4,0,0,0-.7,16.764,17.4,17.4,0,0,0-4.911,8.434,19.307,19.307,0,0,1-2.455-9.444,19.728,19.728,0,0,1,.138-2.324.936.936,0,1,0-1.859-.221,21.6,21.6,0,0,0-.151,2.545,21.3,21.3,0,1,0,42.3-3.594A.937.937,0,0,0,83.269,186.936ZM63.352,210.724A19.409,19.409,0,0,1,47.859,203a15.524,15.524,0,0,1,4.567-9.192,14.406,14.406,0,0,0,21.855,0A15.522,15.522,0,0,1,78.845,203,19.409,19.409,0,0,1,63.352,210.724Z" transform="translate(-42.052 -148.826)"/>
        <path id="Path_883349" data-name="Path 883349" d="M250.487,11.291a.936.936,0,0,0,.936-.936v-3.3a1.731,1.731,0,0,0-1.482-1.706l-2.647-.374a19.487,19.487,0,0,1-9.113-3.822l-.9-.692a2.247,2.247,0,0,0-2.728,0l-.9.691a19.488,19.488,0,0,1-9.113,3.822l-2.647.374a1.731,1.731,0,0,0-1.482,1.706V17.814a19.8,19.8,0,0,0,11.887,18.15l3.248,1.416a.936.936,0,0,0,.748,0l3.248-1.416a19.8,19.8,0,0,0,11.887-18.15V14.344a.936.936,0,1,0-1.872,0v3.469a17.924,17.924,0,0,1-10.763,16.434L235.914,35.5l-2.874-1.253a17.924,17.924,0,0,1-10.763-16.434V7.184l2.519-.356a21.364,21.364,0,0,0,9.99-4.19l.9-.691a.372.372,0,0,1,.451,0l.9.691a21.362,21.362,0,0,0,9.99,4.19l2.519.356v3.171a.936.936,0,0,0,.936.936Z" transform="translate(-198.149 0)"/>
        <path id="Path_883350" data-name="Path 883350" d="M257.174,64.566a.936.936,0,0,0-1.22.514,11.184,11.184,0,1,0,2.4-3.641.936.936,0,0,0,1.332,1.315,9.291,9.291,0,1,1-2,3.031A.936.936,0,0,0,257.174,64.566Z" transform="translate(-228.541 -50.862)"/>
        <path id="Path_883351" data-name="Path 883351" d="M312.112,117.775a.936.936,0,0,0,.585.205.951.951,0,0,0,.116-.007.936.936,0,0,0,.63-.364l5.933-7.844a.936.936,0,1,0-1.493-1.129l-5.353,7.077-1.26-1.008a.936.936,0,1,0-1.169,1.462Z" transform="translate(-276.342 -94.754)"/>
      </g>
    </g>
  </g>
</svg>
