<svg xmlns="http://www.w3.org/2000/svg" width="33.333" height="40" viewBox="0 0 33.333 40">
  <path id="iso-file" d="M18.01,21.667a5.2,5.2,0,0,1,2.358,1.012l.8.67-1.342,1.6-.793-.665a2.6,2.6,0,0,0-2.15-.5.756.756,0,0,0-.6.6.5.5,0,0,0,.217.5c.027,0,1.023.438,2.12.843,2.038.752,2.548,2.227,2.347,3.357a3.322,3.322,0,0,1-3.337,2.582,4.792,4.792,0,0,1-3.613-1.518v-.005l-.7-.77,1.543-1.4.7.772a2.734,2.734,0,0,0,2.007.84,1.3,1.3,0,0,0,1.35-.868c.1-.575-.752-.937-1.017-1.035-1.253-.462-2.383-.967-2.383-.967a2.62,2.62,0,0,1-1.3-2.632,2.851,2.851,0,0,1,2.065-2.3,6.437,6.437,0,0,1,1.728-.117Zm-8.945,0,.01,10h2.092c0-2.208-.007-7.135-.01-10Zm13.768,6.722-.013-3.443A3.279,3.279,0,0,1,26.1,21.667a3.336,3.336,0,0,1,3.353,3.308V25l.013,3.333v.025a3.335,3.335,0,0,1-3.353,3.308,3.279,3.279,0,0,1-3.278-3.278Zm2.078-3.408c0,.158.013,3.143.013,3.373a1.226,1.226,0,0,0,1.207,1.227,1.262,1.262,0,0,0,1.25-1.222L27.368,25v-.025a1.263,1.263,0,0,0-1.25-1.222,1.225,1.225,0,0,0-1.207,1.227ZM35.333,12.643V40H2V5A5.006,5.006,0,0,1,7,0H22.69Zm-11.667-.977h5.977L23.667,5.69ZM32,15H20.333V3.333H7A1.669,1.669,0,0,0,5.333,5V36.667H32Z" transform="translate(-2)" fill="#4dceff"/>
</svg>
