<svg id="Group_1101061" data-name="Group 1101061" xmlns="http://www.w3.org/2000/svg" width="110" height="110" viewBox="0 0 110 110">
  <rect id="Rectangle_402033" data-name="Rectangle 402033" width="110" height="110" rx="5" transform="translate(0)" fill="#bfa2f7"/>
  <g id="Group_1106184" data-name="Group 1106184" transform="translate(-25.003 -60.22)">
    <path id="Path_883506" data-name="Path 883506" d="M82.209,91.043h52.219A3.061,3.061,0,0,1,137.48,94.1v39.657a3.061,3.061,0,0,1-3.052,3.052H82.209a3.061,3.061,0,0,1-3.053-3.052V94.1a3.061,3.061,0,0,1,3.053-3.052Z" transform="translate(-30.859 -5.323)" fill="#60b7fe" fill-rule="evenodd"/>
    <path id="Path_883507" data-name="Path 883507" d="M116.371,307.918c0,5.054-3.672,9.189-8.16,9.189H55.983c-4.488,0-8.16-4.135-8.16-9.189Z" transform="translate(-5.341 -181.95)" fill="#19cfba" fill-rule="evenodd"/>
    <path id="Path_883508" data-name="Path 883508" d="M194.531,307.918h14.094l-1.326,4.595H195.857Z" transform="translate(-124.822 -181.95)" fill="#fa6e85" fill-rule="evenodd"/>
    <path id="Path_883509" data-name="Path 883509" d="M195.63,161.721H208.4a1.431,1.431,0,0,1,1.426,1.426V170.4a1.431,1.431,0,0,1-1.426,1.426H195.63A1.431,1.431,0,0,1,194.2,170.4v-7.256A1.431,1.431,0,0,1,195.63,161.721Z" transform="translate(-124.556 -62.884)" fill="#bfa2f7" fill-rule="evenodd"/>
    <path id="Path_883510" data-name="Path 883510" d="M316.606,156.848h20.581a2.582,2.582,0,0,1,2.575,2.575v41.716a2.582,2.582,0,0,1-2.575,2.575H316.606a2.582,2.582,0,0,1-2.575-2.575V159.423A2.582,2.582,0,0,1,316.606,156.848Z" transform="translate(-222.145 -58.916)" fill="#fa6e85" fill-rule="evenodd"/>
    <path id="Path_883511" data-name="Path 883511" d="M342.691,237.513H355.46a1.431,1.431,0,0,1,1.426,1.426v7.256a1.431,1.431,0,0,1-1.426,1.426H342.691a1.431,1.431,0,0,1-1.426-1.426v-7.256A1.431,1.431,0,0,1,342.691,237.513Z" transform="translate(-244.325 -124.611)" fill="#bfa2f7" fill-rule="evenodd"/>
    <path id="Path_883512" data-name="Path 883512" d="M76.343,116.078a1.174,1.174,0,0,1-.762,1.479l-2.137.7,1.316,1.822a1.175,1.175,0,0,1-.94,1.865,1.162,1.162,0,0,1-.95-.484l-1.326-1.822-1.326,1.822a1.174,1.174,0,1,1-1.9-1.381l1.326-1.822-2.147-.7a1.174,1.174,0,1,1,.732-2.232l2.137.694v-2.25a1.172,1.172,0,1,1,2.344,0v2.25l2.147-.694A1.182,1.182,0,0,1,76.343,116.078Zm12.375,0a1.161,1.161,0,0,1-.752,1.479l-2.137.7,1.316,1.822a1.175,1.175,0,0,1-.94,1.865,1.162,1.162,0,0,1-.95-.484l-1.326-1.822L82.6,121.456a1.174,1.174,0,1,1-1.9-1.381l1.326-1.822-2.147-.7a1.174,1.174,0,1,1,.732-2.232l2.137.694v-2.25a1.172,1.172,0,1,1,2.344,0v2.25l2.147-.694a1.167,1.167,0,0,1,1.474.753ZM109.5,131.22a1.178,1.178,0,0,1-.752,1.48l-2.147.694,1.326,1.822a1.177,1.177,0,0,1-.95,1.865,1.165,1.165,0,0,1-.95-.484l-1.325-1.822-1.326,1.822a1.164,1.164,0,0,1-1.632.259,1.18,1.18,0,0,1-.267-1.64l1.326-1.822-2.137-.694a1.174,1.174,0,0,1,.722-2.234l2.147.7V128.91a1.172,1.172,0,1,1,2.344,0v2.252l2.137-.7A1.177,1.177,0,0,1,109.5,131.22Zm-1.692,9.326a1.181,1.181,0,0,1-1.177,1.174h-3.848a1.174,1.174,0,1,1,0-2.348h3.848A1.179,1.179,0,0,1,107.81,140.546ZM63.958,116.078a1.174,1.174,0,0,1-.762,1.479l-2.137.7,1.326,1.822a1.185,1.185,0,0,1-.95,1.865,1.162,1.162,0,0,1-.95-.484l-1.326-1.822-1.326,1.822a1.174,1.174,0,1,1-1.9-1.381l1.326-1.822-2.147-.7a1.174,1.174,0,1,1,.732-2.232l2.137.694v-2.25a1.172,1.172,0,1,1,2.344,0v2.25l2.147-.694a1.182,1.182,0,0,1,1.484.753ZM116.4,142.183V100.467a1.4,1.4,0,0,0-1.4-1.4H94.416a1.406,1.406,0,0,0-1.4,1.4v41.716a1.407,1.407,0,0,0,1.4,1.4h20.576A1.4,1.4,0,0,0,116.4,142.183ZM90.667,100.467a3.752,3.752,0,0,1,3.749-3.747h10.99V88.734a1.885,1.885,0,0,0-1.88-1.878H51.306a1.879,1.879,0,0,0-1.88,1.878v36.022h41.24V100.467ZM71.228,127.1H82.2l-.653,2.246H71.871Zm19.438,6.84V127.1H84.642l-1.078,3.745a1.175,1.175,0,0,1-1.128.849H70.991a1.166,1.166,0,0,1-1.128-.849L68.785,127.1h-25.1c.495,3.865,3.4,6.84,6.9,6.84ZM114.991,96.72H107.75V88.734a4.233,4.233,0,0,0-4.224-4.227H51.306a4.226,4.226,0,0,0-4.224,4.227v36.022H42.432a1.17,1.17,0,0,0-1.167,1.173c0,5.714,4.184,10.362,9.328,10.362H90.666v5.892a3.754,3.754,0,0,0,3.749,3.749h20.576a3.754,3.754,0,0,0,3.749-3.749V100.467A3.752,3.752,0,0,0,114.991,96.72Zm-44.218,3.5a.26.26,0,0,1,.257-.254H83.8a.251.251,0,0,1,.247.254v7.255a.25.25,0,0,1-.247.252H71.031a.259.259,0,0,1-.257-.252Zm3.68-7.6h5.925v5H74.453Zm-3.423,17.459a2.6,2.6,0,0,1-2.6-2.6v-7.255a2.6,2.6,0,0,1,2.6-2.6h1.078V92.414a2.141,2.141,0,0,1,2.137-2.142h6.341a2.141,2.141,0,0,1,2.137,2.142v5.209H83.8a2.6,2.6,0,0,1,2.6,2.6v7.255a2.6,2.6,0,0,1-2.6,2.6Zm40.311,11.466a.257.257,0,0,1-.247.252H98.323a.259.259,0,0,1-.257-.252v-7.255a.259.259,0,0,1,.257-.254h12.771a.258.258,0,0,1,.247.254Zm-9.6-14.859h5.925v5h-5.925Zm9.348,5a2.6,2.6,0,0,1,2.592,2.6v7.255a2.6,2.6,0,0,1-2.592,2.6H98.323a2.6,2.6,0,0,1-2.6-2.6V114.29a2.6,2.6,0,0,1,2.6-2.6h1.068V106.48a2.15,2.15,0,0,1,2.147-2.142h6.331a2.144,2.144,0,0,1,2.147,2.142v5.209Z" fill-rule="evenodd"/>
  </g>
</svg>
