<svg xmlns="http://www.w3.org/2000/svg" width="100" height="100" viewBox="0 0 100 100">
  <g id="Group_1100965" data-name="Group 1100965" transform="translate(0.242)">
    <g id="Group_1098742" data-name="Group 1098742" transform="translate(0)">
      <rect id="Rectangle_400898" data-name="Rectangle 400898" width="100" height="100" rx="50" transform="translate(-0.242)" fill="#fff" opacity="0.859"/>
      <g id="Rectangle_400907" data-name="Rectangle 400907" transform="translate(-0.242)" fill="none" stroke="#6018ec" stroke-linecap="round" stroke-width="2" stroke-dasharray="7">
        <rect width="100" height="100" rx="50" stroke="none"/>
        <rect x="1" y="1" width="98" height="98" rx="49" fill="none"/>
      </g>
    </g>
    <g id="Group_1106099" data-name="Group 1106099" transform="translate(20.951 16.069)">
      <g id="Group_1106097" data-name="Group 1106097" transform="translate(0.843 14.055)">
        <path id="Path_883308" data-name="Path 883308" d="M212.042,145.309a6.2,6.2,0,1,0-12.4,0v7.2h3.372v-7.2a2.829,2.829,0,1,1,5.657,0v6.817h3.372Z" transform="translate(-178.047 -132.406)" fill="#e2dee2"/>
        <path id="Path_883309" data-name="Path 883309" d="M395.755,105.895h4.317l-1-25.321a1.157,1.157,0,0,0-2.313,0Z" transform="translate(-352.119 -79.464)" fill="#cbc4cc"/>
        <path id="Path_883310" data-name="Path 883310" d="M83.77,106.232H79.453l1-25.658a1.157,1.157,0,0,1,2.313,0Z" transform="translate(-71.366 -79.464)" fill="#cbc4cc"/>
        <path id="Path_883311" data-name="Path 883311" d="M389.033,308.593h5.828V304.7a1.066,1.066,0,0,0-1.066-1.066h-3.7a1.066,1.066,0,0,0-1.066,1.066v3.893Z" transform="translate(-346.153 -278.44)" fill="#b5adb6"/>
        <path id="Path_883312" data-name="Path 883312" d="M78.559,308.48H72.731V304.7a1.066,1.066,0,0,1,1.066-1.066h3.7a1.066,1.066,0,0,1,1.066,1.066Z" transform="translate(-65.4 -278.44)" fill="#b5adb6"/>
        <path id="Path_883313" data-name="Path 883313" d="M375.688,339.325h8.828V335.98a1.227,1.227,0,0,0-1.227-1.227h-6.374a1.227,1.227,0,0,0-1.227,1.227Z" transform="translate(-334.307 -306.061)" fill="#a79ba7"/>
        <path id="Path_883314" data-name="Path 883314" d="M68.214,339.1H59.386v-3.12a1.227,1.227,0,0,1,1.227-1.227h6.374a1.227,1.227,0,0,1,1.227,1.227Z" transform="translate(-53.555 -306.061)" fill="#a79ba7"/>
        <path id="Path_883315" data-name="Path 883315" d="M384.239,442.242l.81,2.284,1.02,3.192a1.354,1.354,0,0,0,1.29.942h5.6a1.354,1.354,0,0,0,1.29-.942l1.02-3.192.241-2.284Z" transform="translate(-341.897 -401.47)" fill="#b5adb6"/>
        <path id="Path_883316" data-name="Path 883316" d="M24.975,438.79l.591,2.672,1.02,3.192a1.354,1.354,0,0,0,1.29.942h5.6a1.354,1.354,0,0,0,1.29-.942l1.02-3.192.2-2.672Z" transform="translate(-23.011 -398.405)" fill="#b5adb6"/>
        <g id="Group_1106096" data-name="Group 1106096" transform="translate(0 15.744)">
          <path id="Path_883317" data-name="Path 883317" d="M61.776,376.345H9.151A1.651,1.651,0,0,1,7.5,374.695v-5.409a3.856,3.856,0,0,1,3.856-3.856H59.571a3.856,3.856,0,0,1,3.856,3.856v5.409A1.651,1.651,0,0,1,61.776,376.345Z" transform="translate(-7.5 -349.033)" fill="#cbc4cc"/>
          <path id="Path_883318" data-name="Path 883318" d="M14.395,374.7v-5.409a3.856,3.856,0,0,1,3.856-3.856H11.356A3.856,3.856,0,0,0,7.5,369.286V374.7a1.651,1.651,0,0,0,1.651,1.651h6.895A1.651,1.651,0,0,1,14.395,374.7Z" transform="translate(-7.5 -349.034)" fill="#b5adb6"/>
          <g id="Group_1106095" data-name="Group 1106095" transform="translate(4.943 20.282)">
            <circle id="Ellipse_11829" data-name="Ellipse 11829" cx="1.572" cy="1.572" r="1.572" fill="#fee45a"/>
            <circle id="Ellipse_11830" data-name="Ellipse 11830" cx="1.572" cy="1.572" r="1.572" transform="translate(7.007)" fill="#fee45a"/>
            <circle id="Ellipse_11831" data-name="Ellipse 11831" cx="1.572" cy="1.572" r="1.572" transform="translate(14.013)" fill="#fee45a"/>
          </g>
          <path id="Path_883319" data-name="Path 883319" d="M190.284,232.829a8.4,8.4,0,0,1-8.4-8.4v-2.733a2.147,2.147,0,0,1,2.147-2.147H196.54a2.147,2.147,0,0,1,2.147,2.147v2.733A8.4,8.4,0,0,1,190.284,232.829Z" transform="translate(-162.283 -219.547)" fill="#f79595"/>
          <path id="Path_883320" data-name="Path 883320" d="M242.384,252.447l-.558-1.761a.554.554,0,0,1,.1-.52,2.046,2.046,0,1,0-3.159,0,.556.556,0,0,1,.106.522l-.558,1.761a.653.653,0,0,0,.622.849h2.819A.653.653,0,0,0,242.384,252.447Z" transform="translate(-212.352 -243.754)" fill="#f37c7c"/>
        </g>
      </g>
      <g id="Group_1106098" data-name="Group 1106098" transform="translate(0 5.773)">
        <path id="Path_883321" data-name="Path 883321" d="M56.77,110.334a.843.843,0,0,0,.843-.843V108.8a4.7,4.7,0,0,0-4.7-4.7h-1.02v-1.378a2.072,2.072,0,0,0-1.5-1.988v-1.67a1.905,1.905,0,0,0-.774-1.531l-.141-3.393a.843.843,0,1,0-1.684.07l.123,2.945h-2.56l.966-23.207a.315.315,0,0,1,.628,0l.694,16.67a.843.843,0,0,0,1.684-.07l-.694-16.67a2,2,0,0,0-4,0l-.984,23.654a1.905,1.905,0,0,0-.774,1.531v1.67a2.072,2.072,0,0,0-1.5,1.988V104.1H16.345v-1.378a2.072,2.072,0,0,0-1.5-1.988v-1.67a1.905,1.905,0,0,0-.774-1.531L13.087,73.88a2,2,0,0,0-4,0L8.105,97.535a1.905,1.905,0,0,0-.774,1.531v1.67a2.072,2.072,0,0,0-1.5,1.988V104.1H4.7A4.7,4.7,0,0,0,0,108.8v5.409a2.5,2.5,0,0,0,2.494,2.494h.289l.833,2.606a2.19,2.19,0,0,0,2.093,1.528h5.6a2.19,2.19,0,0,0,2.093-1.528l.833-2.606H43.379l.833,2.606A2.19,2.19,0,0,0,46.3,120.84h5.6A2.19,2.19,0,0,0,54,119.311l.833-2.606h.289a2.5,2.5,0,0,0,2.494-2.494v-1.128a.843.843,0,0,0-1.686,0v1.128a.809.809,0,0,1-.808.808H2.494a.809.809,0,0,1-.808-.808V108.8A3.017,3.017,0,0,1,4.7,105.788H52.914a3.017,3.017,0,0,1,3.013,3.014v.689a.843.843,0,0,0,.843.843ZM11.8,118.8a.51.51,0,0,1-.487.356h-5.6a.51.51,0,0,1-.487-.356L4.552,116.7h7.912Zm40.6,0a.51.51,0,0,1-.487.356H46.3a.51.51,0,0,1-.487-.356l-.669-2.093h7.912ZM44.566,99.066a.223.223,0,0,1,.223-.223h3.7a.223.223,0,0,1,.223.223v1.589H44.566V99.066Zm-1.5,3.658a.384.384,0,0,1,.384-.384h6.374a.384.384,0,0,1,.384.384V104.1H43.066ZM9.017,99.066a.223.223,0,0,1,.223-.223h3.7a.223.223,0,0,1,.223.223v1.589H9.017Zm2.071-25.417a.314.314,0,0,1,.314.3l.966,23.207H9.808l.966-23.207A.314.314,0,0,1,11.088,73.649ZM7.517,102.725a.384.384,0,0,1,.384-.384h6.374a.384.384,0,0,1,.384.384V104.1H7.517Z" transform="translate(0 -64.524)"/>
        <path id="Path_883322" data-name="Path 883322" d="M43.985,394.926a2.415,2.415,0,1,0,2.415-2.414A2.417,2.417,0,0,0,43.985,394.926Zm3.143,0a.729.729,0,1,1-.729-.729A.73.73,0,0,1,47.128,394.926Z" transform="translate(-39.042 -349.047)"/>
        <path id="Path_883323" data-name="Path 883323" d="M106.328,394.926a2.415,2.415,0,1,0,2.415-2.414,2.417,2.417,0,0,0-2.415,2.414Zm3.143,0a.729.729,0,1,1-.729-.729A.729.729,0,0,1,109.471,394.926Z" transform="translate(-94.378 -349.047)"/>
        <path id="Path_883324" data-name="Path 883324" d="M168.671,394.926a2.415,2.415,0,1,0,2.414-2.414A2.417,2.417,0,0,0,168.671,394.926Zm3.143,0a.729.729,0,1,1-.729-.729A.73.73,0,0,1,171.814,394.926Z" transform="translate(-149.714 -349.047)"/>
        <path id="Path_883325" data-name="Path 883325" d="M241.174,406.495a.843.843,0,0,0,0,1.686h.561a.843.843,0,0,0,0-1.686Z" transform="translate(-213.32 -361.458)"/>
        <path id="Path_883326" data-name="Path 883326" d="M278.147,406.495a.843.843,0,0,0,0,1.686H299.56a.843.843,0,0,0,0-1.686Z" transform="translate(-246.138 -361.458)"/>
        <path id="Path_883327" data-name="Path 883327" d="M190.622,149.238a.843.843,0,0,0,1.56.64,9.192,9.192,0,0,0,.69-3.506v-2.733a2.994,2.994,0,0,0-2.408-2.932v-2.055a7.043,7.043,0,1,0-14.086,0v2.168a2.994,2.994,0,0,0-2,2.819v2.733a9.243,9.243,0,0,0,15.55,6.759.843.843,0,1,0-1.15-1.233,7.557,7.557,0,0,1-12.714-5.526v-2.733a1.305,1.305,0,0,1,1.3-1.3h12.511a1.305,1.305,0,0,1,1.3,1.3v2.733A7.51,7.51,0,0,1,190.622,149.238Zm-7.2-15.944a5.363,5.363,0,0,1,5.357,5.357v2h-1.686v-2a3.671,3.671,0,1,0-7.343,0v2h-1.686v-2A5.363,5.363,0,0,1,183.42,133.295Zm1.985,7.355h-3.971v-2a1.986,1.986,0,0,1,3.971,0v2Z" transform="translate(-154.782 -117.466)"/>
        <path id="Path_883328" data-name="Path 883328" d="M231.088,246.868a1.5,1.5,0,0,0,1.207.612h2.819a1.5,1.5,0,0,0,1.426-1.947l-.511-1.613a2.889,2.889,0,1,0-4.649,0l-.511,1.613A1.5,1.5,0,0,0,231.088,246.868Zm1.793-5.54a1.193,1.193,0,0,1,.9-.324,1.215,1.215,0,0,1,1.122,1.126,1.2,1.2,0,0,1-.272.839,1.393,1.393,0,0,0-.258,1.311l.479,1.513h-2.3l.479-1.513a1.4,1.4,0,0,0-.259-1.313,1.2,1.2,0,0,1,.106-1.64Z" transform="translate(-204.86 -213.068)"/>
        <path id="Path_883329" data-name="Path 883329" d="M217.441,97.044a.843.843,0,1,0,1,1.355,5.121,5.121,0,0,1,6.125,0,.843.843,0,1,0,1-1.355A6.8,6.8,0,0,0,217.441,97.044Z" transform="translate(-192.699 -85.588)"/>
        <path id="Path_883330" data-name="Path 883330" d="M211.235,69.3a.843.843,0,0,0,.5-1.52,10.205,10.205,0,0,0-12.142,0,.843.843,0,0,0,1,1.355,8.519,8.519,0,0,1,10.136,0,.839.839,0,0,0,.5.165Z" transform="translate(-176.859 -59.031)"/>
        <path id="Path_883331" data-name="Path 883331" d="M197.4,39.957a.843.843,0,0,0,.5-1.52,13.577,13.577,0,0,0-16.154,0,.843.843,0,0,0,1,1.355,11.891,11.891,0,0,1,14.148,0A.838.838,0,0,0,197.4,39.957Z" transform="translate(-161.018 -32.401)"/>
        <path id="Path_883332" data-name="Path 883332" d="M164.9,10.453a15.263,15.263,0,0,1,18.16,0,.843.843,0,1,0,1-1.355,16.949,16.949,0,0,0-20.166,0,.843.843,0,0,0,1,1.355Z" transform="translate(-145.177 -5.773)"/>
      </g>
    </g>
  </g>
</svg>
