<svg xmlns="http://www.w3.org/2000/svg" width="100" height="100" viewBox="0 0 100 100">
  <g id="Group_1100965" data-name="Group 1100965" transform="translate(0.242)">
    <g id="Group_1098742" data-name="Group 1098742" transform="translate(0)">
      <rect id="Rectangle_400898" data-name="Rectangle 400898" width="100" height="100" rx="50" transform="translate(-0.242)" fill="#fff" opacity="0.859"/>
      <g id="Rectangle_400907" data-name="Rectangle 400907" transform="translate(-0.242)" fill="none" stroke="#6018ec" stroke-linecap="round" stroke-width="2" stroke-dasharray="7">
        <rect width="100" height="100" rx="50" stroke="none"/>
        <rect x="1" y="1" width="98" height="98" rx="49" fill="none"/>
      </g>
    </g>
    <g id="Group_1106087" data-name="Group 1106087" transform="translate(0.595 21.639)">
      <g id="Group_1106085" data-name="Group 1106085" transform="translate(24.225 0.831)">
        <g id="Group_1106084" data-name="Group 1106084" transform="translate(0)">
          <path id="Path_883262" data-name="Path 883262" d="M118.921,391.206h-40.1a2.362,2.362,0,0,1-2.362-2.362v-9.393a2.362,2.362,0,0,1,2.362-2.362h40.1a2.362,2.362,0,0,1,2.362,2.362v9.393A2.362,2.362,0,0,1,118.921,391.206Z" transform="translate(-71.407 -336.147)" fill="#b3dafe"/>
          <g id="Group_1106082" data-name="Group 1106082" transform="translate(30.638 46.394)">
            <circle id="Ellipse_11819" data-name="Ellipse 11819" cx="1.606" cy="1.606" r="1.606" fill="#eaf6ff"/>
            <circle id="Ellipse_11820" data-name="Ellipse 11820" cx="1.606" cy="1.606" r="1.606" transform="translate(6.419)" fill="#eaf6ff"/>
            <circle id="Ellipse_11821" data-name="Ellipse 11821" cx="1.606" cy="1.606" r="1.606" transform="translate(12.838)" fill="#eaf6ff"/>
          </g>
          <path id="Path_883263" data-name="Path 883263" d="M82.848,381.362a2.06,2.06,0,0,1,2.06-2.058h34.013a4.548,4.548,0,0,0,2.244-.59,2.362,2.362,0,0,0-2.244-1.626h-40.1a2.362,2.362,0,0,0-2.362,2.362v9.393a2.362,2.362,0,0,0,2.362,2.362h6.389a2.362,2.362,0,0,1-2.362-2.362S82.845,384.166,82.848,381.362Z" transform="translate(-71.407 -336.146)" fill="#8ac9fe"/>
          <path id="Path_883264" data-name="Path 883264" d="M118.921,263.769h-40.1a2.362,2.362,0,0,1-2.362-2.362v-9.393a2.362,2.362,0,0,1,2.362-2.362h40.1a2.362,2.362,0,0,1,2.362,2.362v9.393A2.362,2.362,0,0,1,118.921,263.769Z" transform="translate(-71.407 -222.827)" fill="#b3dafe"/>
          <path id="Path_883265" data-name="Path 883265" d="M118.921,252.1a4.548,4.548,0,0,0,2.3-.622,2.362,2.362,0,0,0-2.3-1.829h-40.1a2.362,2.362,0,0,0-2.362,2.362v9.393a2.362,2.362,0,0,0,2.362,2.362h5.655a2.362,2.362,0,0,1-2.362-2.362v-7.094a2.21,2.21,0,0,1,2.21-2.21Z" transform="translate(-71.407 -222.826)" fill="#8ac9fe"/>
          <path id="Path_883266" data-name="Path 883266" d="M119.351,138.454h-40.1a2.362,2.362,0,0,1-2.362-2.362V126.7a2.362,2.362,0,0,1,2.362-2.362h40.1a2.362,2.362,0,0,1,2.362,2.362v9.393A2.362,2.362,0,0,1,119.351,138.454Z" transform="translate(-71.789 -111.394)" fill="#b3dafe"/>
          <path id="Path_883267" data-name="Path 883267" d="M82.843,136.092V126.7a2.362,2.362,0,0,1,2.362-2.362H78.816a2.362,2.362,0,0,0-2.362,2.362v9.393a2.362,2.362,0,0,0,2.362,2.362h6.389A2.362,2.362,0,0,1,82.843,136.092Z" transform="translate(-71.407 -111.394)" fill="#8ac9fe"/>
          <g id="Group_1106083" data-name="Group 1106083" transform="translate(30.638 18.16)">
            <circle id="Ellipse_11822" data-name="Ellipse 11822" cx="1.606" cy="1.606" r="1.606" transform="translate(0 14.117)" fill="#eaf6ff"/>
            <circle id="Ellipse_11823" data-name="Ellipse 11823" cx="1.606" cy="1.606" r="1.606" transform="translate(6.419 14.117)" fill="#eaf6ff"/>
            <circle id="Ellipse_11824" data-name="Ellipse 11824" cx="1.606" cy="1.606" r="1.606" transform="translate(12.838 14.117)" fill="#eaf6ff"/>
            <circle id="Ellipse_11825" data-name="Ellipse 11825" cx="1.606" cy="1.606" r="1.606" fill="#eaf6ff"/>
            <circle id="Ellipse_11826" data-name="Ellipse 11826" cx="1.606" cy="1.606" r="1.606" transform="translate(6.419)" fill="#eaf6ff"/>
            <circle id="Ellipse_11827" data-name="Ellipse 11827" cx="1.606" cy="1.606" r="1.606" transform="translate(12.838)" fill="#eaf6ff"/>
          </g>
          <path id="Path_883268" data-name="Path 883268" d="M79.246,124.336a2.362,2.362,0,0,0-2.362,2.362v8.014a13.52,13.52,0,0,0,19.64-10.376Z" transform="translate(-71.789 -111.393)" fill="#8ac9fe"/>
          <circle id="Ellipse_11828" data-name="Ellipse 11828" cx="11.309" cy="11.309" r="11.309" fill="#f9f7f8"/>
          <path id="Path_883269" data-name="Path 883269" d="M87.321,97.289H80.407a2.662,2.662,0,0,1-2.662-2.662V90.934a1.265,1.265,0,0,1,1.265-1.265h9.708a1.265,1.265,0,0,1,1.265,1.265v3.693A2.661,2.661,0,0,1,87.321,97.289Z" transform="translate(-72.555 -80.567)" fill="#f79595"/>
        </g>
      </g>
      <g id="Group_1106086" data-name="Group 1106086" transform="translate(23.394 0)">
        <path id="Path_883270" data-name="Path 883270" d="M304.841,421.243a2.437,2.437,0,1,0-2.437,2.437A2.44,2.44,0,0,0,304.841,421.243Zm-3.213,0a.776.776,0,1,1,.776.776A.776.776,0,0,1,301.629,421.243Z" transform="translate(-269.329 -372.412)"/>
        <path id="Path_883271" data-name="Path 883271" d="M362.786,421.243a2.437,2.437,0,1,0-2.437,2.437A2.44,2.44,0,0,0,362.786,421.243Zm-3.213,0a.776.776,0,1,1,.776.776A.776.776,0,0,1,359.574,421.243Z" transform="translate(-320.855 -372.412)"/>
        <path id="Path_883272" data-name="Path 883272" d="M420.731,421.243a2.437,2.437,0,1,0-2.437,2.437A2.44,2.44,0,0,0,420.731,421.243Zm-3.213,0a.776.776,0,1,1,.776.776A.776.776,0,0,1,417.519,421.243Z" transform="translate(-372.381 -372.412)"/>
        <path id="Path_883273" data-name="Path 883273" d="M236.286,415.966a.831.831,0,0,0,0-1.662H233.4a.831.831,0,1,0,0,1.662Z" transform="translate(-209.396 -368.409)"/>
        <path id="Path_883274" data-name="Path 883274" d="M103.636,415.966h11.193a.831.831,0,0,0,0-1.662H103.636a.831.831,0,0,0,0,1.662Z" transform="translate(-94.008 -368.409)"/>
        <path id="Path_883275" data-name="Path 883275" d="M103.636,453.973H120.9a.831.831,0,1,0,0-1.662H103.636a.831.831,0,1,0,0,1.662Z" transform="translate(-94.008 -402.205)"/>
        <path id="Path_883276" data-name="Path 883276" d="M302.4,296.243a2.437,2.437,0,1,0-2.437-2.437A2.44,2.44,0,0,0,302.4,296.243Zm0-3.213a.776.776,0,1,1-.776.776A.776.776,0,0,1,302.4,293.031Z" transform="translate(-269.329 -259.092)"/>
        <path id="Path_883277" data-name="Path 883277" d="M360.349,296.243a2.437,2.437,0,1,0-2.437-2.437A2.44,2.44,0,0,0,360.349,296.243Zm0-3.213a.776.776,0,1,1-.776.776A.776.776,0,0,1,360.349,293.031Z" transform="translate(-320.855 -259.092)"/>
        <path id="Path_883278" data-name="Path 883278" d="M418.294,296.243a2.437,2.437,0,1,0-2.437-2.437A2.44,2.44,0,0,0,418.294,296.243Zm0-3.213a.776.776,0,1,1-.776.776A.776.776,0,0,1,418.294,293.031Z" transform="translate(-372.381 -259.092)"/>
        <path id="Path_883279" data-name="Path 883279" d="M233.4,288.528h2.887a.831.831,0,1,0,0-1.662H233.4a.831.831,0,1,0,0,1.662Z" transform="translate(-209.396 -255.088)"/>
        <path id="Path_883280" data-name="Path 883280" d="M103.636,288.528h11.193a.831.831,0,0,0,0-1.662H103.636a.831.831,0,1,0,0,1.662Z" transform="translate(-94.008 -255.088)"/>
        <path id="Path_883281" data-name="Path 883281" d="M103.636,326.535H120.9a.831.831,0,1,0,0-1.662H103.636a.831.831,0,1,0,0,1.662Z" transform="translate(-94.008 -288.884)"/>
        <path id="Path_883282" data-name="Path 883282" d="M257.792,116.377h15.832a.831.831,0,1,0,0-1.662H257.792a.831.831,0,0,0,0,1.662Z" transform="translate(-231.087 -102.007)"/>
        <path id="Path_883283" data-name="Path 883283" d="M115.445,127.3v-9.393a3.2,3.2,0,0,0-3.193-3.193h-2.268a.831.831,0,0,0,0,1.662h2.268a1.533,1.533,0,0,1,1.531,1.531V127.3a1.533,1.533,0,0,1-1.531,1.531h-40.1a1.522,1.522,0,0,1-1.528-1.485.831.831,0,1,0-1.661.049A3.182,3.182,0,0,0,70,129.667a3.185,3.185,0,0,0-1.043,2.358v9.393A3.185,3.185,0,0,0,70,143.78a3.185,3.185,0,0,0-1.047,2.362v4.7a.831.831,0,0,0,1.662,0v-4.7a1.533,1.533,0,0,1,1.531-1.531h40.1a1.533,1.533,0,0,1,1.531,1.531v9.393a1.533,1.533,0,0,1-1.531,1.531h-40.1a1.533,1.533,0,0,1-1.531-1.531v-1.156a.831.831,0,0,0-1.662,0v1.156a3.2,3.2,0,0,0,3.193,3.193h40.1a3.2,3.2,0,0,0,3.193-3.193v-9.393a3.186,3.186,0,0,0-1.047-2.362,3.185,3.185,0,0,0,1.047-2.362v-9.393a3.186,3.186,0,0,0-1.047-2.362,3.186,3.186,0,0,0,1.047-2.362Zm-1.662,4.724v9.393a1.533,1.533,0,0,1-1.531,1.531h-40.1a1.533,1.533,0,0,1-1.531-1.531v-9.393a1.533,1.533,0,0,1,1.531-1.531h40.1A1.533,1.533,0,0,1,113.783,132.025Z" transform="translate(-63.907 -102.007)"/>
        <path id="Path_883284" data-name="Path 883284" d="M299.967,166.369a2.437,2.437,0,1,0,2.437-2.437A2.44,2.44,0,0,0,299.967,166.369Zm3.213,0a.776.776,0,1,1-.776-.776A.777.777,0,0,1,303.18,166.369Z" transform="translate(-269.329 -145.772)"/>
        <path id="Path_883285" data-name="Path 883285" d="M357.912,166.369a2.437,2.437,0,1,0,2.437-2.437A2.44,2.44,0,0,0,357.912,166.369Zm3.213,0a.776.776,0,1,1-.776-.776A.776.776,0,0,1,361.125,166.369Z" transform="translate(-320.855 -145.772)"/>
        <path id="Path_883286" data-name="Path 883286" d="M418.294,168.807a2.437,2.437,0,1,0-2.437-2.437A2.44,2.44,0,0,0,418.294,168.807Zm0-3.213a.776.776,0,1,1-.776.776A.776.776,0,0,1,418.294,165.594Z" transform="translate(-372.381 -145.772)"/>
        <path id="Path_883287" data-name="Path 883287" d="M245.29,161.092h1.57a.831.831,0,0,0,0-1.662h-1.57a.831.831,0,0,0,0,1.662Z" transform="translate(-219.97 -141.769)"/>
        <path id="Path_883288" data-name="Path 883288" d="M222.261,197.437h-4.634a.831.831,0,1,0,0,1.662h4.634a.831.831,0,1,0,0-1.662Z" transform="translate(-195.371 -175.565)"/>
        <path id="Path_883289" data-name="Path 883289" d="M47.673,12.14A12.031,12.031,0,0,0,46.5,6.931a.831.831,0,1,0-1.5.714,10.382,10.382,0,0,1,1.011,4.495A10.478,10.478,0,1,1,35.534,1.662a10.384,10.384,0,0,1,7.6,3.27.831.831,0,0,0,1.206-1.143A12.03,12.03,0,0,0,35.534,0a12.14,12.14,0,1,0,12.14,12.14Z" transform="translate(-23.394 0)"/>
        <path id="Path_883290" data-name="Path 883290" d="M77.195,41.192a5.369,5.369,0,0,0-5.3,4.589,2.1,2.1,0,0,0-1.646,2.046V51.52a3.5,3.5,0,0,0,3.492,3.492h6.915a3.5,3.5,0,0,0,3.492-3.492V47.827A2.1,2.1,0,0,0,82.5,45.781,5.369,5.369,0,0,0,77.195,41.192Zm0,1.662A3.705,3.705,0,0,1,80.8,45.731H73.587A3.707,3.707,0,0,1,77.195,42.854Zm5.288,8.667a1.833,1.833,0,0,1-1.831,1.831H73.737a1.833,1.833,0,0,1-1.831-1.831V47.827a.434.434,0,0,1,.434-.434h9.708a.434.434,0,0,1,.434.434Z" transform="translate(-65.055 -36.629)"/>
      </g>
    </g>
  </g>
</svg>
