<svg xmlns="http://www.w3.org/2000/svg" width="130" height="137.884" viewBox="0 0 130 137.884">
  <g id="Group_1107158" data-name="Group 1107158" transform="translate(-734.791 -3157.246)">
    <g id="Group_1105778" data-name="Group 1105778" transform="translate(454.781 -2689.255)">
      <path id="Path_873448" data-name="Path 873448" d="M130,133.973A3.976,3.976,0,0,0,126.024,130H3.976A3.976,3.976,0,0,0,0,133.973v73.452c0,.055,0,.109,0,.163a7.565,7.565,0,0,0,3.453,6.532l57.4,29.89a7.6,7.6,0,0,0,8.277,0l57.4-29.89A7.565,7.565,0,0,0,130,207.589c0-.054,0-.109,0-.163Z" transform="translate(280.01 5739.148)" fill="#fff"/>
      <path id="Path_873449" data-name="Path 873449" d="M121.194,83.7A3.707,3.707,0,0,0,117.487,80H3.707A3.707,3.707,0,0,0,0,83.7V169c0,.051,0,.1,0,.152a7.053,7.053,0,0,0,3.219,6.09l53.516,27.865a7.083,7.083,0,0,0,7.716,0l53.516-27.865a7.053,7.053,0,0,0,3.219-6.09c0-.051,0-.1,0-.152Z" transform="translate(284.343 5774.085)" fill="#6018ec"/>
      <path id="Path_873665" data-name="Path 873665" d="M108.068,12.3A3.305,3.305,0,0,0,104.763,9H3.305A3.305,3.305,0,0,0,0,12.3v89.87c0,.046,0,.091,0,.136a6.289,6.289,0,0,0,2.87,5.43l47.72,24.847a6.316,6.316,0,0,0,6.881,0l47.72-24.847a6.289,6.289,0,0,0,2.87-5.43c0-.045,0-.09,0-.136Z" transform="translate(290.843 5838.004)" fill="none" stroke="#fff" stroke-width="1"/>
      <g id="Group_1106167" data-name="Group 1106167" transform="translate(310.908 5875.203)">
        <path id="Path_883471" data-name="Path 883471" d="M227.309,33.743a1,1,0,0,0-.806-.68l-2.384-.346-1.066-2.16a1,1,0,0,0-1.792,0l-1.066,2.16-2.384.346a1,1,0,0,0-.554,1.7l1.725,1.681-.407,2.374a1,1,0,0,0,1.45,1.053l2.132-1.121,2.132,1.121a1,1,0,0,0,1.45-1.053l-.407-2.374,1.725-1.681A1,1,0,0,0,227.309,33.743Zm-3.749,1.641a1,1,0,0,0-.287.884l.154.9-.805-.423a1,1,0,0,0-.93,0l-.805.423.154-.9a1,1,0,0,0-.287-.884l-.651-.635.9-.131a1,1,0,0,0,.752-.547l.4-.816.4.816a1,1,0,0,0,.752.547l.9.131Z" transform="translate(-188.055 -26.004)" fill="#fff"/>
        <path id="Path_883472" data-name="Path 883472" d="M310.953,66.3a1,1,0,0,0,.873.592l2.407.1,1.286,2.037a1,1,0,0,0,.845.466,1.03,1.03,0,0,0,.1-.005,1,1,0,0,0,.833-.648l.834-2.259,2.335-.594a1,1,0,0,0,.372-1.753l-1.891-1.492.157-2.4a1,1,0,0,0-1.552-.9l-2,1.338-2.238-.892a1,1,0,0,0-1.332,1.2l.653,2.319-1.54,1.852A1,1,0,0,0,310.953,66.3Zm3.75-2.934-.247-.876.845.337a1,1,0,0,0,.925-.1l.756-.505-.059.908a1,1,0,0,0,.378.849l.714.563-.882.224a1,1,0,0,0-.691.622l-.315.853-.486-.769a1,1,0,0,0-.805-.465l-.909-.036.581-.7a1,1,0,0,0,.193-.909Z" transform="translate(-269.456 -51.378)" fill="#fff"/>
        <path id="Path_883473" data-name="Path 883473" d="M385.171,125.505l-2.4.157-1.492-1.891a1,1,0,0,0-1.753.372l-.594,2.334-2.26.834a1,1,0,0,0-.187,1.782l2.037,1.286.1,2.407a1,1,0,0,0,1.637.729l1.852-1.54,2.319.653a1,1,0,0,0,1.2-1.332l-.892-2.238,1.338-2a1,1,0,0,0-.9-1.552Zm-2.492,3.807.337.845-.876-.247a1,1,0,0,0-.91.193l-.7.581-.036-.909a1,1,0,0,0-.465-.805l-.769-.486.853-.315a1,1,0,0,0,.622-.691l.224-.882.563.714a1,1,0,0,0,.849.378l.908-.059-.505.756A1,1,0,0,0,382.679,129.312Z" transform="translate(-325.928 -106.954)" fill="#fff"/>
        <path id="Path_883474" data-name="Path 883474" d="M413.927,226.5l.346-2.384,2.16-1.066a1,1,0,0,0,0-1.792l-2.16-1.066-.346-2.384a1,1,0,0,0-1.7-.554l-1.681,1.725-2.374-.407a1,1,0,0,0-1.053,1.45l1.121,2.132-1.121,2.132a1,1,0,0,0,1.053,1.45l2.374-.407,1.681,1.725a1,1,0,0,0,1.7-.553Zm-1.009-3.943a1,1,0,0,0-.547.752l-.131.9-.635-.651a1,1,0,0,0-.884-.287l-.9.154.423-.805a1,1,0,0,0,0-.93l-.423-.805.9.154a1,1,0,0,0,.884-.287l.635-.651.131.9a1,1,0,0,0,.547.752l.816.4Z" transform="translate(-352.784 -188.055)" fill="#fff"/>
        <path id="Path_883475" data-name="Path 883475" d="M385.437,312.277a1,1,0,0,0-1.013-.293l-2.319.653-1.852-1.54a1,1,0,0,0-1.637.729l-.1,2.407-2.037,1.286a1,1,0,0,0,.187,1.782l2.259.834.594,2.334a1,1,0,0,0,1.753.373l1.492-1.891,2.4.157a1,1,0,0,0,.9-1.552l-1.338-2,.892-2.238A1,1,0,0,0,385.437,312.277Zm-3.062,4.646a1,1,0,0,0-.849.378l-.563.714-.224-.882a1,1,0,0,0-.622-.691l-.853-.315.769-.486a1,1,0,0,0,.465-.805l.036-.909.7.581a1,1,0,0,0,.91.193l.876-.247-.337.845a1,1,0,0,0,.1.925l.505.757Z" transform="translate(-325.929 -269.456)" fill="#fff"/>
        <path id="Path_883476" data-name="Path 883476" d="M311.1,380.254l1.54,1.852-.653,2.319a1,1,0,0,0,1.332,1.2l2.238-.892,2,1.338a1,1,0,0,0,1.552-.9l-.157-2.4,1.891-1.492a1,1,0,0,0-.372-1.753l-2.335-.594-.834-2.259a1,1,0,0,0-1.782-.187l-1.286,2.037-2.407.1a1,1,0,0,0-.729,1.637Zm3.739.243a1,1,0,0,0,.805-.465l.486-.769.315.853a1,1,0,0,0,.691.622l.882.224-.714.563a1,1,0,0,0-.378.849l.059.908-.757-.505a1,1,0,0,0-.925-.1l-.845.337.247-.876a1,1,0,0,0-.193-.91l-.581-.7Z" transform="translate(-269.457 -325.93)" fill="#fff"/>
        <path id="Path_883477" data-name="Path 883477" d="M217,413.248a1,1,0,0,0,.806.68l2.384.346,1.066,2.16a1,1,0,0,0,1.792,0l1.066-2.16,2.384-.346a1,1,0,0,0,.554-1.7l-1.725-1.681.407-2.374a1,1,0,0,0-1.45-1.053l-2.132,1.121-2.132-1.121a1,1,0,0,0-1.45,1.053l.407,2.374-1.725,1.681A1,1,0,0,0,217,413.248Zm3.749-1.641a1,1,0,0,0,.287-.884l-.154-.9.805.423a1,1,0,0,0,.93,0l.805-.423-.154.9a1,1,0,0,0,.287.884l.651.635-.9.131a1,1,0,0,0-.752.547l-.4.816-.4-.816a1,1,0,0,0-.752-.547l-.9-.131Z" transform="translate(-188.055 -352.784)" fill="#fff"/>
        <path id="Path_883478" data-name="Path 883478" d="M133.66,379.207a1,1,0,0,0-.873-.592l-2.407-.1-1.286-2.037a1,1,0,0,0-1.782.187l-.834,2.259-2.334.594a1,1,0,0,0-.372,1.753l1.891,1.492-.157,2.4a1,1,0,0,0,1.552.9l2-1.338,2.238.892a1,1,0,0,0,1.332-1.2l-.653-2.319,1.54-1.852A1,1,0,0,0,133.66,379.207Zm-3.75,2.934.247.876-.845-.337a1,1,0,0,0-.925.1l-.756.505.059-.908a1,1,0,0,0-.378-.849l-.714-.563.882-.224a1,1,0,0,0,.691-.622l.315-.853.486.769a1,1,0,0,0,.805.465l.909.036-.581.7A1,1,0,0,0,129.911,382.141Z" transform="translate(-106.954 -325.928)" fill="#fff"/>
        <path id="Path_883479" data-name="Path 883479" d="M60.337,319.107l2.4-.157,1.492,1.891a1,1,0,0,0,1.753-.373l.594-2.334,2.259-.834a1,1,0,0,0,.187-1.782l-2.037-1.286-.1-2.407a1,1,0,0,0-1.637-.729l-1.852,1.54-2.319-.653a1,1,0,0,0-1.2,1.332l.892,2.238-1.338,2a1,1,0,0,0,.9,1.552ZM62.83,315.3l-.337-.845.876.247a1,1,0,0,0,.91-.193l.7-.581.036.909a1,1,0,0,0,.465.805l.769.486-.853.315a1,1,0,0,0-.622.691l-.224.882-.563-.714a1,1,0,0,0-.784-.38l-.065,0-.908.059.505-.757A1,1,0,0,0,62.83,315.3Z" transform="translate(-51.377 -269.455)" fill="#fff"/>
        <path id="Path_883480" data-name="Path 883480" d="M39.8,218.974a1,1,0,0,0-.977-.4l-2.374.407-1.681-1.725a1,1,0,0,0-1.7.554l-.346,2.384-2.16,1.066a1,1,0,0,0,0,1.792l2.16,1.066.346,2.384a1,1,0,0,0,1.7.554l1.681-1.725,2.374.407a1,1,0,0,0,1.053-1.45l-1.121-2.132,1.121-2.132A1,1,0,0,0,39.8,218.974Zm-3.058,3.649.423.805-.9-.154a1,1,0,0,0-.884.287l-.635.651-.131-.9a1,1,0,0,0-.547-.752l-.816-.4.816-.4a1,1,0,0,0,.547-.752l.131-.9.635.651a1,1,0,0,0,.884.287l.9-.154-.423.805a1,1,0,0,0,0,.93Z" transform="translate(-26.004 -188.056)" fill="#fff"/>
        <path id="Path_883481" data-name="Path 883481" d="M65.986,124.144a1,1,0,0,0-1.753-.372l-1.492,1.891-2.4-.157a1,1,0,0,0-.9,1.552l1.338,2-.892,2.238a1,1,0,0,0,1.2,1.332l2.319-.653,1.852,1.54a1,1,0,0,0,1.637-.729l.1-2.407,2.037-1.286a1,1,0,0,0-.187-1.782l-2.259-.834Zm-.507,4.828a1,1,0,0,0-.465.805l-.036.909-.7-.581a1,1,0,0,0-.909-.193l-.876.247.337-.845a1,1,0,0,0-.1-.925l-.505-.757.908.059a1,1,0,0,0,.849-.378l.563-.714.224.882a1,1,0,0,0,.622.691l.853.315Z" transform="translate(-51.378 -106.954)" fill="#fff"/>
        <path id="Path_883482" data-name="Path 883482" d="M123.413,65.225a1,1,0,0,0,.731.76l2.334.594.834,2.259a1,1,0,0,0,.833.648,1.026,1.026,0,0,0,.1.005,1,1,0,0,0,.845-.466l1.286-2.037,2.407-.1a1,1,0,0,0,.729-1.637l-1.54-1.852.653-2.319a1,1,0,0,0-1.332-1.2l-2.238.892-2-1.338a1,1,0,0,0-1.552.9l.157,2.4-1.891,1.492a1,1,0,0,0-.358.992Zm3.9-1.241a1,1,0,0,0,.378-.849l-.059-.908.757.505a1,1,0,0,0,.925.1l.845-.337-.247.876a1,1,0,0,0,.193.91l.581.7-.909.036a1,1,0,0,0-.805.465l-.486.769-.315-.853a1,1,0,0,0-.691-.622l-.882-.224Z" transform="translate(-106.954 -51.377)" fill="#fff"/>
        <path id="Path_883483" data-name="Path 883483" d="M58.215,9.988a34.1,34.1,0,0,0-46.726-1.41,1,1,0,1,0,1.326,1.5,32.11,32.11,0,1,1-2.741,2.741,1,1,0,1,0-1.5-1.326,34.1,34.1,0,1,0,49.637-1.5Z" fill="#fff"/>
      </g>
    </g>
  </g>
</svg>
