<svg id="Group_1101046" data-name="Group 1101046" xmlns="http://www.w3.org/2000/svg" width="110" height="110" viewBox="0 0 110 110">
  <rect id="Rectangle_402033" data-name="Rectangle 402033" width="110" height="110" rx="5" transform="translate(0)" fill="#bfa2f7"/>
  <g id="Page-1" transform="translate(21.02 21.361)">
    <g id="_010---Secure-Password" data-name="010---Secure-Password">
      <g id="Icons_copy" transform="translate(1.126 1.126)">
        <rect id="Rectangle-path" width="66" height="15" rx="2" transform="translate(-0.356 37.643)" fill="#00bcd4"/>
        <path id="Shape" d="M56.377,33H53a2.258,2.258,0,0,1,2.251,2.251V46.508A2.258,2.258,0,0,1,53,48.759h3.377a2.258,2.258,0,0,0,2.251-2.251V35.251A2.258,2.258,0,0,0,56.377,33Z" transform="translate(6.659 4.146)" fill="#00838f"/>
        <path id="Shape-2" data-name="Shape" d="M55.277,26.5v7.879H8V26.5A4.5,4.5,0,0,1,12.5,22H50.774A4.5,4.5,0,0,1,55.277,26.5Z" transform="translate(1.005 2.764)" fill="#ffeb3a"/>
        <path id="Shape-3" data-name="Shape" d="M55.277,47v7.879a4.5,4.5,0,0,1-4.5,4.5H12.5a4.5,4.5,0,0,1-4.5-4.5V47Z" transform="translate(1.005 5.905)" fill="#ffeb3a"/>
        <path id="Shape-4" data-name="Shape" d="M49.02,18.01v6.754H42.267V18.01a11.256,11.256,0,0,0-22.513,0v6.754H13V18.01a18.01,18.01,0,1,1,36.02,0Z" transform="translate(1.633 0)" fill="#9e9e9e"/>
        <g id="Group_1106183" data-name="Group 1106183" transform="translate(18.01 0)">
          <path id="Shape-5" data-name="Shape" d="M27.256,6A11.274,11.274,0,0,0,16,17.256V24.01h3.377V17.256A11.272,11.272,0,0,1,28.945,6.141,11.289,11.289,0,0,0,27.256,6Z" transform="translate(-16 0.754)" fill="#707070"/>
          <path id="Shape-6" data-name="Shape" d="M41.931,5.268A18,18,0,0,0,29.188,0c-.57,0-1.132.034-1.688.086A17.97,17.97,0,0,1,43.822,18.01v6.754H47.2V18.01A18,18,0,0,0,41.931,5.268Z" transform="translate(-14.555 0)" fill="#707070"/>
        </g>
      </g>
      <g id="Icons">
        <path id="Shape-7" data-name="Shape" d="M3.377,55.156H9.005V61.91a5.635,5.635,0,0,0,5.628,5.628H52.9a5.635,5.635,0,0,0,5.628-5.628V55.156h5.628a3.377,3.377,0,0,0,3.377-3.377V40.523a3.377,3.377,0,0,0-3.377-3.377H58.533V30.392A5.635,5.635,0,0,0,52.9,24.764V19.136a19.136,19.136,0,1,0-38.272,0v5.628a5.635,5.635,0,0,0-5.628,5.628v6.754H3.377A3.377,3.377,0,0,0,0,40.523V51.779A3.377,3.377,0,0,0,3.377,55.156Zm52.9,6.754A3.377,3.377,0,0,1,52.9,65.287H14.633a3.377,3.377,0,0,1-3.377-3.377V55.156H56.282Zm-39.4-42.774a16.885,16.885,0,1,1,33.769,0v5.628h-4.5V19.136a12.382,12.382,0,0,0-24.764,0v5.628h-4.5Zm6.754,5.628V19.136a10.131,10.131,0,1,1,20.261,0v5.628ZM11.256,30.392a3.377,3.377,0,0,1,3.377-3.377H52.9a3.377,3.377,0,0,1,3.377,3.377v6.754H11.256ZM2.251,40.523A1.126,1.126,0,0,1,3.377,39.4H64.161a1.126,1.126,0,0,1,1.126,1.126V51.779A1.126,1.126,0,0,1,64.161,52.9H3.377a1.126,1.126,0,0,1-1.126-1.126Z"/>
        <path id="Shape-8" data-name="Shape" d="M4.189,44.379a1.126,1.126,0,0,0,1.561.312l1.627-1.085v1.274a1.126,1.126,0,0,0,2.251,0V43.605l1.627,1.085A1.126,1.126,0,0,0,12.5,42.817L10.529,41.5,12.5,40.188a1.126,1.126,0,0,0-1.249-1.873L9.628,39.4V38.126a1.126,1.126,0,0,0-2.251,0V39.4L5.75,38.315A1.126,1.126,0,0,0,4.5,40.188L6.476,41.5,4.5,42.817a1.126,1.126,0,0,0-.312,1.561Z" transform="translate(0.503 4.648)"/>
        <path id="Shape-9" data-name="Shape" d="M15.189,44.379a1.126,1.126,0,0,0,1.561.312l1.627-1.085v1.274a1.126,1.126,0,0,0,2.251,0V43.605l1.627,1.085A1.126,1.126,0,0,0,23.5,42.817L21.529,41.5,23.5,40.188a1.126,1.126,0,0,0-1.249-1.873L20.628,39.4V38.126a1.126,1.126,0,0,0-2.251,0V39.4L16.75,38.315A1.126,1.126,0,0,0,15.5,40.188L17.476,41.5,15.5,42.817a1.126,1.126,0,0,0-.315,1.561Z" transform="translate(1.884 4.648)"/>
        <path id="Shape-10" data-name="Shape" d="M37.189,44.379a1.126,1.126,0,0,0,1.561.312l1.627-1.085v1.274a1.126,1.126,0,0,0,2.251,0V43.605l1.627,1.085A1.126,1.126,0,0,0,45.5,42.817L43.529,41.5,45.5,40.188a1.126,1.126,0,0,0-1.249-1.873L42.628,39.4V38.126a1.126,1.126,0,0,0-2.251,0V39.4L38.75,38.315A1.126,1.126,0,1,0,37.5,40.188L39.476,41.5,37.5,42.817a1.126,1.126,0,0,0-.315,1.561Z" transform="translate(4.648 4.648)"/>
        <path id="Shape-11" data-name="Shape" d="M26.189,44.379a1.126,1.126,0,0,0,1.561.312l1.627-1.085v1.274a1.126,1.126,0,0,0,2.251,0V43.605l1.627,1.085A1.126,1.126,0,0,0,34.5,42.817L32.529,41.5,34.5,40.188a1.126,1.126,0,0,0-1.249-1.873L31.628,39.4V38.126a1.126,1.126,0,0,0-2.251,0V39.4L27.75,38.315A1.126,1.126,0,0,0,26.5,40.188L28.476,41.5,26.5,42.817a1.126,1.126,0,0,0-.315,1.561Z" transform="translate(3.266 4.648)"/>
        <path id="Shape-12" data-name="Shape" d="M16.5,26H13.126A1.126,1.126,0,0,0,12,27.126V30.5a1.126,1.126,0,1,0,2.251,0V28.251H16.5A1.126,1.126,0,1,0,16.5,26Z" transform="translate(1.508 3.267)"/>
        <path id="Shape-13" data-name="Shape" d="M49.126,45.251h6.754a1.126,1.126,0,1,0,0-2.251H49.126a1.126,1.126,0,0,0,0,2.251Z" transform="translate(6.03 5.402)"/>
      </g>
    </g>
  </g>
</svg>
