<svg xmlns="http://www.w3.org/2000/svg" width="100" height="100" viewBox="0 0 100 100">
  <g id="Group_1100965" data-name="Group 1100965" transform="translate(0.242)">
    <g id="Group_1098742" data-name="Group 1098742" transform="translate(0)">
      <rect id="Rectangle_400898" data-name="Rectangle 400898" width="100" height="100" rx="50" transform="translate(-0.242)" fill="#fff" opacity="0.859"/>
      <g id="Rectangle_400907" data-name="Rectangle 400907" transform="translate(-0.242)" fill="none" stroke="#6018ec" stroke-linecap="round" stroke-width="2" stroke-dasharray="7">
        <rect width="100" height="100" rx="50" stroke="none"/>
        <rect x="1" y="1" width="98" height="98" rx="49" fill="none"/>
      </g>
    </g>
    <g id="Group_1106081" data-name="Group 1106081" transform="translate(-21.147 17.93)">
      <g id="Group_1106079" data-name="Group 1106079" transform="translate(45.347 0.953)">
        <path id="Path_883252" data-name="Path 883252" d="M163.523,280.528l-2.615-1.14a16.969,16.969,0,0,1-10.187-15.555v-9.678a.708.708,0,0,1,.609-.7l2.381-.336a18.339,18.339,0,0,0,8.592-3.6l.811-.622a1.175,1.175,0,0,1,1.43,0l.811.622a18.339,18.339,0,0,0,8.592,3.6l2.381.336a.708.708,0,0,1,.609.7v9.678a16.969,16.969,0,0,1-10.187,15.555l-2.615,1.14A.768.768,0,0,1,163.523,280.528Z" transform="translate(-138.329 -218.416)" fill="#faf7f7"/>
        <circle id="Ellipse_11818" data-name="Ellipse 11818" cx="8.941" cy="8.941" r="8.941" transform="translate(16.561 37.036)" fill="#ffe5df"/>
        <g id="Group_1106076" data-name="Group 1106076" transform="translate(0)">
          <path id="Path_883253" data-name="Path 883253" d="M53,17.369l-.9-1.541a1.363,1.363,0,0,1,.515-1.882,51.807,51.807,0,0,1,49.7-.009,1.369,1.369,0,0,1,.531,1.891l-.9,1.541a1.363,1.363,0,0,1-1.828.513,47.285,47.285,0,0,0-45.289,0A1.363,1.363,0,0,1,53,17.369Z" transform="translate(-51.914 -7.594)" fill="#d1f19e"/>
        </g>
        <g id="Group_1106077" data-name="Group 1106077" transform="translate(5.061 10.031)">
          <path id="Path_883254" data-name="Path 883254" d="M93.352,95.989l-.9-1.541a1.368,1.368,0,0,1,.536-1.894,41.758,41.758,0,0,1,39.552,0,1.368,1.368,0,0,1,.536,1.894l-.9,1.541a1.364,1.364,0,0,1-1.823.515,37.236,37.236,0,0,0-35.178,0A1.364,1.364,0,0,1,93.352,95.989Z" transform="translate(-92.266 -87.574)" fill="#bbec6c"/>
        </g>
        <g id="Group_1106078" data-name="Group 1106078" transform="translate(10.122 20.063)">
          <path id="Path_883255" data-name="Path 883255" d="M160.587,175.131a27.189,27.189,0,0,0-25.066,0,1.369,1.369,0,0,1-1.818-.519l-.9-1.541a1.365,1.365,0,0,1,.541-1.9,31.71,31.71,0,0,1,29.418,0,1.365,1.365,0,0,1,.541,1.9l-.9,1.541A1.369,1.369,0,0,1,160.587,175.131Z" transform="translate(-132.617 -167.556)" fill="#bbec6c"/>
        </g>
      </g>
      <g id="Group_1106080" data-name="Group 1106080" transform="translate(44.405 0)">
        <path id="Path_883256" data-name="Path 883256" d="M169.9,245.967l-2.381-.336a17.434,17.434,0,0,1-8.151-3.419l-.812-.622a2.119,2.119,0,0,0-2.575,0l-.811.622a17.434,17.434,0,0,1-8.151,3.419l-2.382.336a1.657,1.657,0,0,0-1.418,1.633v9.678A17.906,17.906,0,0,0,153.974,273.7l2.922,1.274a.94.94,0,0,0,.752,0l2.922-1.274a17.906,17.906,0,0,0,10.752-16.417v-2.99a.941.941,0,1,0-1.881,0v2.99a16.025,16.025,0,0,1-9.623,14.693l-2.546,1.11-2.546-1.11a16.026,16.026,0,0,1-9.623-14.693V247.8l2.181-.308a19.32,19.32,0,0,0,9.033-3.788l.811-.622a.235.235,0,0,1,.285,0l.812.622a19.321,19.321,0,0,0,9.033,3.788l2.181.308v2.478a.941.941,0,1,0,1.881,0V247.6A1.657,1.657,0,0,0,169.9,245.967Z" transform="translate(-130.828 -210.909)"/>
        <path id="Path_883257" data-name="Path 883257" d="M178.758,300.436a.941.941,0,0,0-1.262.421,9.781,9.781,0,0,0-1.04,4.412,9.881,9.881,0,1,0,9.881-9.882,9.789,9.789,0,0,0-6.025,2.051.941.941,0,0,0,1.148,1.49,7.924,7.924,0,0,1,4.877-1.66,8,8,0,1,1-8,8,7.918,7.918,0,0,1,.841-3.571A.941.941,0,0,0,178.758,300.436Z" transform="translate(-159.894 -258.34)"/>
        <path id="Path_883258" data-name="Path 883258" d="M226.022,347.486a.941.941,0,0,0,.588.206.956.956,0,0,0,.117-.007.941.941,0,0,0,.634-.366l5.181-6.849a.941.941,0,0,0-1.5-1.135l-4.6,6.079-1-.8a.941.941,0,1,0-1.175,1.469Z" transform="translate(-201.399 -296.448)"/>
        <path id="Path_883259" data-name="Path 883259" d="M97.32,7.885A2.3,2.3,0,0,0,96.2,6.471c-.975-.534-1.98-1.043-2.987-1.514a.941.941,0,0,0-.8,1.7c.971.454,1.94.945,2.88,1.46a.436.436,0,0,1,.213.267.419.419,0,0,1-.042.325l-.9,1.541a.424.424,0,0,1-.564.162,48.225,48.225,0,0,0-46.192,0,.424.424,0,0,1-.564-.162l-.9-1.541a.427.427,0,0,1-.043-.331.409.409,0,0,1,.2-.251A50.761,50.761,0,0,1,88.785,5.136a.941.941,0,0,0,.661-1.761A52.641,52.641,0,0,0,45.6,6.48a2.3,2.3,0,0,0-.876,3.181l.9,1.541a2.29,2.29,0,0,0,3.091.865,46.344,46.344,0,0,1,44.387,0,2.291,2.291,0,0,0,3.091-.865l.9-1.541a2.284,2.284,0,0,0,.23-1.776Z" transform="translate(-44.405 0)"/>
        <path id="Path_883260" data-name="Path 883260" d="M126.421,85.166a42.7,42.7,0,0,0-40.444,0,2.309,2.309,0,0,0-.9,3.2l.9,1.541h0a2.3,2.3,0,0,0,3.081.87,36.295,36.295,0,0,1,34.288,0,2.3,2.3,0,0,0,3.081-.87l.9-1.541a2.309,2.309,0,0,0-.9-3.2Zm-.723,2.248-.9,1.541a.422.422,0,0,1-.566.161,38.176,38.176,0,0,0-36.068,0,.422.422,0,0,1-.566-.161l-.9-1.541a.422.422,0,0,1-.042-.328.429.429,0,0,1,.211-.263,40.818,40.818,0,0,1,38.66,0,.43.43,0,0,1,.211.263.422.422,0,0,1-.042.329Z" transform="translate(-79.698 -70.031)"/>
        <path id="Path_883261" data-name="Path 883261" d="M156.648,163.736a32.6,32.6,0,0,0-30.292,0,2.28,2.28,0,0,0-1.142,1.4,2.32,2.32,0,0,0,.225,1.8l.9,1.541a2.308,2.308,0,0,0,3.064.879,26.227,26.227,0,0,1,24.2,0h0a2.31,2.31,0,0,0,3.064-.879l.9-1.541a2.321,2.321,0,0,0,.225-1.8,2.281,2.281,0,0,0-1.142-1.4Zm-.708,2.256-.9,1.541a.429.429,0,0,1-.571.159,28.108,28.108,0,0,0-25.935,0,.429.429,0,0,1-.571-.159l-.9-1.541a.425.425,0,0,1-.042-.334.416.416,0,0,1,.207-.256,30.72,30.72,0,0,1,28.544,0,.415.415,0,0,1,.207.256A.425.425,0,0,1,155.94,165.992Z" transform="translate(-115.002 -139.937)"/>
      </g>
    </g>
  </g>
</svg>
