<svg xmlns="http://www.w3.org/2000/svg" width="100" height="100" viewBox="0 0 100 100">
  <g id="Group_1100965" data-name="Group 1100965" transform="translate(0.242)">
    <g id="Group_1098742" data-name="Group 1098742" transform="translate(0)">
      <rect id="Rectangle_400898" data-name="Rectangle 400898" width="100" height="100" rx="50" transform="translate(-0.242)" fill="#fff" opacity="0.859"/>
      <g id="Rectangle_400907" data-name="Rectangle 400907" transform="translate(-0.242)" fill="none" stroke="#6018ec" stroke-linecap="round" stroke-width="2" stroke-dasharray="7">
        <rect width="100" height="100" rx="50" stroke="none"/>
        <rect x="1" y="1" width="98" height="98" rx="49" fill="none"/>
      </g>
    </g>
    <g id="Group_1105030" data-name="Group 1105030" transform="translate(19.613 16.775)">
      <g id="Group_1105028" data-name="Group 1105028" transform="translate(0.883 4.375)">
        <g id="Group_1105026" data-name="Group 1105026" transform="translate(0 4.051)">
          <path id="Path_881535" data-name="Path 881535" d="M192.9,404.2l-9.72,2.258-9.72-2.258,2.924-5.064,5.829-2.737,7.763,2.737Z" transform="translate(-153.915 -355.071)" fill="#596c76"/>
          <path id="Path_881536" data-name="Path 881536" d="M61.406,89.462H12.116A4.616,4.616,0,0,1,7.5,84.846V50.009a4.616,4.616,0,0,1,4.616-4.616h49.29a4.616,4.616,0,0,1,4.616,4.616V84.846A4.616,4.616,0,0,1,61.406,89.462Z" transform="translate(-7.5 -45.393)" fill="#7a8c98"/>
          <path id="Path_881537" data-name="Path 881537" d="M425.492,50.013V84.85a4.616,4.616,0,0,1-4.616,4.617h-5.929a4.616,4.616,0,0,0,4.616-4.617V50.013a4.615,4.615,0,0,0-4.616-4.616h5.929a4.615,4.615,0,0,1,4.616,4.616Z" transform="translate(-366.969 -45.397)" fill="#596c76"/>
          <path id="Path_881538" data-name="Path 881538" d="M89.622,78.511v29.552a2.242,2.242,0,0,1-2.241,2.242H40.612a2.242,2.242,0,0,1-2.242-2.242V78.511a2.241,2.241,0,0,1,2.242-2.242H87.381A2.241,2.241,0,0,1,89.622,78.511Z" transform="translate(-34.735 -72.633)" fill="#60b7ff"/>
          <path id="Path_881539" data-name="Path 881539" d="M455.657,78.511v29.552a2.242,2.242,0,0,1-2.241,2.242h-.052V77.25a4.636,4.636,0,0,0-.1-.981h.157A2.241,2.241,0,0,1,455.657,78.511Z" transform="translate(-400.771 -72.633)" fill="#26a6fe"/>
          <path id="Path_881540" data-name="Path 881540" d="M158.946,467.168H134.26a2.258,2.258,0,1,1,0-4.516h24.686a2.258,2.258,0,1,1,0,4.516Z" transform="translate(-117.342 -413.519)" fill="#7a8c98"/>
          <path id="Path_881541" data-name="Path 881541" d="M317.289,464.907a2.259,2.259,0,0,1-2.258,2.258h-6.112a2.258,2.258,0,1,0,0-4.516h6.112A2.258,2.258,0,0,1,317.289,464.907Z" transform="translate(-273.426 -413.515)" fill="#596c76"/>
        </g>
        <g id="Group_1105027" data-name="Group 1105027" transform="translate(16.385 0)">
          <path id="Path_881542" data-name="Path 881542" d="M188.991,21.313V31.922H184.5V21.313a5.831,5.831,0,0,0-2.765-4.957h0a5.826,5.826,0,0,0-8.893,4.957V31.922h-4.491V21.313a10.319,10.319,0,0,1,15.435-8.963v0A10.327,10.327,0,0,1,188.991,21.313Z" transform="translate(-165.793 -10.992)" fill="#eef5f6"/>
          <path id="Path_881543" data-name="Path 881543" d="M289.284,31.5V42.107h-4.491V31.5a5.831,5.831,0,0,0-2.765-4.957,3.2,3.2,0,0,0,2.05-4A10.327,10.327,0,0,1,289.284,31.5Z" transform="translate(-266.085 -21.177)" fill="#d9e7ec"/>
          <path id="Path_881544" data-name="Path 881544" d="M168.756,172.625H150.287a3.642,3.642,0,0,0-3.642,3.642v12.08a3.642,3.642,0,0,0,3.642,3.642h18.469a3.642,3.642,0,0,0,3.642-3.642v-12.08A3.642,3.642,0,0,0,168.756,172.625Z" transform="translate(-146.645 -153.592)" fill="#fe646f"/>
          <path id="Path_881545" data-name="Path 881545" d="M305.848,176.267v12.08a3.642,3.642,0,0,1-3.643,3.643h-4.3a3.643,3.643,0,0,0,3.643-3.643v-12.08a3.643,3.643,0,0,0-3.643-3.643h4.3A3.642,3.642,0,0,1,305.848,176.267Z" transform="translate(-280.095 -153.591)" fill="#fd4755"/>
        </g>
      </g>
      <g id="Group_1105029" data-name="Group 1105029" transform="translate(0 3.492)">
        <path id="Path_881546" data-name="Path 881546" d="M59.406,44.921a.883.883,0,0,0,.883-.883V13.043a5.506,5.506,0,0,0-5.5-5.5H38.761a11.19,11.19,0,0,0-17.233,0H5.5a5.506,5.506,0,0,0-5.5,5.5V47.878a5.506,5.506,0,0,0,5.5,5.5h16.32l-1.9,3.3H17.8a3.141,3.141,0,1,0,0,6.283H42.487a3.141,3.141,0,1,0,0-6.283H40.374l-1.9-3.3H54.79a5.5,5.5,0,0,0,5.489-5.167.883.883,0,0,0-1.763-.106,3.736,3.736,0,0,1-3.726,3.506H5.5a3.738,3.738,0,0,1-3.733-3.734V13.043A3.738,3.738,0,0,1,5.5,9.309H20.323a11.132,11.132,0,0,0-.817,1.87H6.76A3.129,3.129,0,0,0,3.635,14.3V43.855A3.129,3.129,0,0,0,6.76,46.981H53.528a3.13,3.13,0,0,0,3.126-3.126V14.3a3.129,3.129,0,0,0-3.126-3.125H40.783a11.155,11.155,0,0,0-.817-1.87H54.79a3.738,3.738,0,0,1,3.733,3.734V44.037a.883.883,0,0,0,.883.883Zm-15.543,14.9a1.377,1.377,0,0,1-1.375,1.375H17.8a1.375,1.375,0,1,1,0-2.75H42.487A1.377,1.377,0,0,1,43.863,59.817Zm-5.528-3.142H21.955l1.9-3.3H36.431ZM30.145,5.258A9.449,9.449,0,0,1,39.583,14.7v7.833c-.068,0-.136-.005-.2-.005H36.858V20.157a.883.883,0,1,0-1.766,0v2.367H25.2V14.7a4.921,4.921,0,0,1,.321-1.751H34.77a4.921,4.921,0,0,1,.321,1.751v1.34a.883.883,0,1,0,1.766,0V14.7a6.713,6.713,0,1,0-13.426,0v7.828H20.91c-.068,0-.136,0-.2.005V14.7a9.449,9.449,0,0,1,9.438-9.438Zm-3.474,5.92a4.936,4.936,0,0,1,6.948,0ZM6.76,12.945H19.077A11.243,11.243,0,0,0,18.94,14.7v8.28a4.554,4.554,0,0,0-2.211,2.343c-.107-.008-.214-.012-.322-.012a4.441,4.441,0,0,0-3.024,1.187l-1.277-.981A4.456,4.456,0,0,0,5.4,20.022V14.3A1.361,1.361,0,0,1,6.76,12.945ZM13.813,29.05l.064.049a.883.883,0,0,0,1.076-1.4l-.136-.1a2.677,2.677,0,0,1,1.567-.521v5.382a2.689,2.689,0,0,1-2.571-3.4ZM10.554,24.32a.883.883,0,1,0-1.076,1.4l.114.087a2.691,2.691,0,1,1,1.064-1.41Zm42.974,20.9H6.76A1.361,1.361,0,0,1,5.4,43.855V27.124a4.446,4.446,0,0,0,5.635-.206l1.312,1.008a4.454,4.454,0,0,0,4.036,6.3v4.909A4.52,4.52,0,0,0,19.8,43.52a.883.883,0,0,0,.431-1.713,2.755,2.755,0,0,1-2.084-2.676V27.05a2.763,2.763,0,0,1,2.76-2.76H39.379a2.763,2.763,0,0,1,2.76,2.76v12.08a2.763,2.763,0,0,1-2.76,2.759H24.138a.883.883,0,1,0,0,1.766H39.379a4.531,4.531,0,0,0,4.526-4.525V34.221a4.454,4.454,0,0,0,4.035-6.3l1.312-1.008a4.446,4.446,0,0,0,5.636.205V43.855A1.362,1.362,0,0,1,53.528,45.215ZM45.173,28.937a.883.883,0,0,0,1.238.162l.064-.049a2.69,2.69,0,0,1-2.57,3.4V27.073a2.677,2.677,0,0,1,1.566.521l-.135.1a.883.883,0,0,0-.162,1.238Zm4.33-5.364A2.694,2.694,0,1,1,50.7,25.808l.114-.087a.883.883,0,0,0-1.076-1.4l-.1.078A2.685,2.685,0,0,1,49.5,23.573Zm4.025-10.628a1.361,1.361,0,0,1,1.36,1.359v5.719a4.456,4.456,0,0,0-6.706,5.489l-1.277.981a4.44,4.44,0,0,0-3.024-1.187c-.107,0-.214,0-.32.012a4.554,4.554,0,0,0-2.211-2.342V14.7a11.244,11.244,0,0,0-.137-1.751Z" transform="translate(0 -3.492)"/>
        <path id="Path_881547" data-name="Path 881547" d="M227.287,204.225a4.442,4.442,0,0,0,2.266.837v.614a.883.883,0,0,0,1.766,0v-.7a3.721,3.721,0,0,0,2.743-2.974,3.234,3.234,0,0,0-2.225-3.7,10.2,10.2,0,0,1-2.608-1.216,1,1,0,0,1-.254-.971,1.327,1.327,0,0,1,.883-1.048,2.24,2.24,0,0,1,2.053.331.883.883,0,1,0,1.13-1.358,3.922,3.922,0,0,0-1.722-.782v-.549a.883.883,0,1,0-1.766,0v.611c-.067.017-.135.035-.2.056a3.077,3.077,0,0,0-2.11,2.412,2.729,2.729,0,0,0,.9,2.688,10.853,10.853,0,0,0,3.109,1.491,1.506,1.506,0,0,1,1.072,1.744,1.906,1.906,0,0,1-1.891,1.607,3.059,3.059,0,0,1-2.176-.573.883.883,0,0,0-.967,1.478Z" transform="translate(-200.171 -169.651)"/>
      </g>
    </g>
  </g>
</svg>
