<svg xmlns="http://www.w3.org/2000/svg" width="40" height="40" viewBox="0 0 40 40">
  <g id="Group_1106123" data-name="Group 1106123" transform="translate(-205 -4722)">
    <rect id="Rectangle_405650" data-name="Rectangle 405650" width="40" height="40" rx="5" transform="translate(205 4722)" fill="#6018ec"/>
    <path id="network-analytic" d="M15,13.039l2.266-.22a3.5,3.5,0,1,0-.194-1.99l-2.458.238a4.99,4.99,0,0,0-.957-1.456l1.839-2.776A3.445,3.445,0,0,0,16.5,7,3.5,3.5,0,1,0,13,3.5a3.467,3.467,0,0,0,.824,2.229l-1.8,2.711a4.9,4.9,0,0,0-4.058,0l-1.8-2.711A3.465,3.465,0,0,0,7,3.5,3.5,3.5,0,1,0,3.5,7a3.445,3.445,0,0,0,1.009-.166L6.348,9.611A4.921,4.921,0,0,0,6.026,16L4.914,17.3a3.521,3.521,0,1,0,1.521,1.3l1.094-1.283a4.877,4.877,0,0,0,5.421-.3l2.367,2.049a3.524,3.524,0,1,0,1.31-1.511l-2.338-2.023A4.942,4.942,0,0,0,15,13.042ZM20.5,10A1.5,1.5,0,1,1,19,11.5,1.5,1.5,0,0,1,20.5,10Zm-4-8A1.5,1.5,0,1,1,15,3.5,1.5,1.5,0,0,1,16.5,2ZM2,3.5A1.5,1.5,0,1,1,3.5,5,1.5,1.5,0,0,1,2,3.5ZM3.5,22A1.5,1.5,0,1,1,5,20.5,1.5,1.5,0,0,1,3.5,22ZM7,13a3,3,0,1,1,3,3A3,3,0,0,1,7,13Zm13,7.5A1.5,1.5,0,1,1,18.5,19,1.5,1.5,0,0,1,20,20.5Z" transform="translate(213 4729.999)" fill="#fff"/>
  </g>
</svg>
