<svg xmlns="http://www.w3.org/2000/svg" width="40" height="40" viewBox="0 0 40 40">
  <g id="Group_1106119" data-name="Group 1106119" transform="translate(-205 -4433)">
    <rect id="Rectangle_402033" data-name="Rectangle 402033" width="40" height="40" rx="5" transform="translate(205 4433)" fill="#6018ec"/>
    <path id="block-brick-fire_1_" data-name="block-brick-fire(1)" d="M10,22H5a3,3,0,0,1-3-3H9a1,1,0,0,0,0-2H8V13h4a1,1,0,0,0,1-1V7h9v3a1,1,0,0,0,2,0V5a5.006,5.006,0,0,0-5-5H5A5.006,5.006,0,0,0,0,5V19a5.006,5.006,0,0,0,5,5h5a1,1,0,0,0,0-2ZM6,17H2V13H6Zm5-6H2V7h9ZM8,5V2h8V5ZM22,5H18V2h1A3,3,0,0,1,22,5ZM5,2H6V5H2A3,3,0,0,1,5,2Zm14.565,8.5a1.563,1.563,0,0,0-1.412-.429,1.536,1.536,0,0,0-1.073.964,10.927,10.927,0,0,0-.607,2.326,11.984,11.984,0,0,1-.3,1.349c-.05-.129-.095-.257-.124-.338-.047-.134-.089-.252-.126-.342A1.539,1.539,0,0,0,14.624,13a1.491,1.491,0,0,0-1.379.829A11.112,11.112,0,0,0,12,18a6,6,0,0,0,5.638,5.989c.1.006.209.009.314.009a6.171,6.171,0,0,0,5.171-3.042c1.908-3.16.711-6.68-3.558-10.461Zm1.846,9.427a4.456,4.456,0,0,1-1.519,1.518,2.17,2.17,0,0,0-.566-2.112l-.769-1.1a.788.788,0,0,0-1.115,0l-.77,1.1a2.156,2.156,0,0,0-.532,2.2A4,4,0,0,1,14,18a7.7,7.7,0,0,1,.514-2.111A1.731,1.731,0,0,0,16.024,17c1.817,0,2.163-1.9,2.416-3.285.08-.436.161-.882.273-1.292,3.152,2.936,4.008,5.328,2.7,7.5Z" transform="translate(212.998 4441)" fill="#fff"/>
  </g>
</svg>
