<svg xmlns="http://www.w3.org/2000/svg" width="40" height="40" viewBox="0 0 40 40">
  <g id="Group_1106121" data-name="Group 1106121" transform="translate(-205 -4573)">
    <rect id="Rectangle_405648" data-name="Rectangle 405648" width="40" height="40" rx="5" transform="translate(205 4573)" fill="#6018ec"/>
    <path id="back-up" d="M24,0V5H19V3h1.644a3.985,3.985,0,0,0-6.5,2H12.09A5.989,5.989,0,0,1,22,1.534V0ZM18,10a4,4,0,0,1-2.646-1H17V7H12v5h2V10.469A5.992,5.992,0,0,0,23.91,7H21.858A4,4,0,0,1,18,10Zm-3,3.413a7.909,7.909,0,0,0,2,.518v5.855C17,22.553,12.724,24,8.5,24S0,22.553,0,19.786V4.5a6.686,6.686,0,0,1,.127-.786C.791,1.551,4.164,0,8.5,0a15.635,15.635,0,0,1,3.757.438,8.022,8.022,0,0,0-1.3,1.77A14.251,14.251,0,0,0,8.5,2C4.532,2,2,3.48,2,4.5S4.532,7,8.5,7A14.828,14.828,0,0,0,10,6.921v2C9.514,8.969,9.018,9,8.5,9A12.626,12.626,0,0,1,2,7.459V9.5C2,10.52,4.532,12,8.5,12c.527,0,1.026-.028,1.5-.075v2.007c-.486.042-.984.069-1.5.069A12.626,12.626,0,0,1,2,12.46V14.5C2,15.521,4.532,17,8.5,17s6.5-1.48,6.5-2.5V13.414Zm0,6.373V17.459A12.616,12.616,0,0,1,8.5,19,12.626,12.626,0,0,1,2,17.459v2.327C2,20.537,4.294,22,8.5,22S15,20.537,15,19.786Z" transform="translate(212.711 4581)" fill="#fff"/>
  </g>
</svg>
