<svg xmlns="http://www.w3.org/2000/svg" width="40" height="40" viewBox="0 0 40 40">
  <g id="Group_1106122" data-name="Group 1106122" transform="translate(-205 -4648)">
    <rect id="Rectangle_405647" data-name="Rectangle 405647" width="40" height="40" rx="5" transform="translate(205 4648)" fill="#6018ec"/>
    <path id="entrance" d="M9.414,15.415l-2.7,2.727a1,1,0,1,1-1.42-1.408L7.008,15H1a1,1,0,0,1,0-2H7L5.29,11.268A1,1,0,0,1,6.71,9.86l2.707,2.73a2,2,0,0,1,0,2.826ZM17.5,11A1.5,1.5,0,1,0,19,12.5,1.5,1.5,0,0,0,17.5,11ZM24,5.621V21a3,3,0,0,1-3,3H11a3,3,0,0,1-3-3V20a1,1,0,0,1,2,0v1a1,1,0,0,0,1,1h1V4h0a2,2,0,0,0-2,2V8A1,1,0,0,1,8,8V6a4,4,0,0,1,4-4h.561A3.91,3.91,0,0,1,16.784.08l3.2.64A5.012,5.012,0,0,1,24,5.622Zm-2,0A3.008,3.008,0,0,0,19.588,2.68l-3.2-.64A2,2,0,0,0,14,4V22h7a1,1,0,0,0,1-1V5.621Z" transform="translate(212.711 4656)" fill="#fff"/>
  </g>
</svg>
