<svg xmlns="http://www.w3.org/2000/svg" xmlns:xlink="http://www.w3.org/1999/xlink" width="180" height="180" viewBox="0 0 180 180">
  <defs>
    <filter id="Rectangle_405780" x="0" y="0" width="180" height="180" filterUnits="userSpaceOnUse">
      <feOffset dy="3" input="SourceAlpha"/>
      <feGaussianBlur stdDeviation="10" result="blur"/>
      <feFlood flood-color="#0f1f33" flood-opacity="0.235"/>
      <feComposite operator="in" in2="blur"/>
      <feComposite in="SourceGraphic"/>
    </filter>
  </defs>
  <g id="Group_1106931" data-name="Group 1106931" transform="translate(-966.711 -5820)">
    <g transform="matrix(1, 0, 0, 1, 966.71, 5820)" filter="url(#Rectangle_405780)">
      <rect id="Rectangle_405780-2" data-name="Rectangle 405780" width="120" height="120" rx="14" transform="translate(30 27)" fill="#fff"/>
    </g>
    <g id="Group_1106930" data-name="Group 1106930" transform="translate(1011.711 5824.2)">
      <path id="Path_884806" data-name="Path 884806" d="M68.9,237.3H100.73v38.91H68.9Z" transform="translate(-56.79 -157.845)" fill="#ffe07d"/>
      <path id="Path_884807" data-name="Path 884807" d="M229.353,237.3h3.632v38.91h-3.632Z" transform="translate(-189.045 -157.845)" fill="#ffd064"/>
      <path id="Path_884808" data-name="Path 884808" d="M20.039,349.3h8.587v19.227H20.039Z" transform="translate(-16.517 -250.161)" fill="#a0aab7"/>
      <path id="Path_884809" data-name="Path 884809" d="M250.02,288.3h8.994v29.947H250.02Z" transform="translate(-206.08 -199.882)" fill="#a0aab7"/>
      <path id="Path_884810" data-name="Path 884810" d="M132.222,402.321H117.459v-8.866a3.155,3.155,0,0,1,3.155-3.155h8.453a3.155,3.155,0,0,1,3.155,3.155Z" transform="translate(-96.816 -283.956)" fill="#698ed5"/>
      <path id="Path_884811" data-name="Path 884811" d="M167.3,390.3h-3.456A3.155,3.155,0,0,1,167,393.455v8.866h3.456v-8.866A3.155,3.155,0,0,0,167.3,390.3Z" transform="translate(-135.047 -283.956)" fill="#4073c8"/>
      <path id="Path_884812" data-name="Path 884812" d="M155.974,53.3H164.2V85.637h-8.229Z" transform="translate(-128.562 -6.182)" fill="#efecef"/>
      <path id="Path_884813" data-name="Path 884813" d="M182.872,53.3h3.5V85.637h-3.5Z" transform="translate(-150.733 -6.182)" fill="#e2dfe2"/>
      <g id="Group_1106929" data-name="Group 1106929" transform="translate(0 45.8)">
        <path id="Path_884814" data-name="Path 884814" d="M89.982,118.365a1.318,1.318,0,0,0-1.318-1.318H87.617l-1.429-10.958.593-.3a1.318,1.318,0,0,0-.026-2.369l-.975-.463L84.548,93.51l1.025-.487a1.318,1.318,0,0,0,.061-2.35l-1.567-.847-1.206-9.244,1.581-.854a1.318,1.318,0,0,0,.066-2.281l-2.237-1.382-1.138-8.726,1.478-.914a1.318,1.318,0,0,0,.165-2.121l-2.3-1.971-1.17-8.975H83.2v2.812h-.354a1.318,1.318,0,1,0,0,2.636h3.343a1.318,1.318,0,0,0,0-2.636h-.354v-4.13a1.318,1.318,0,0,0-1.318-1.318H78.967l-.492-3.773A1.318,1.318,0,0,0,77.168,45.8H67.108A1.318,1.318,0,0,0,65.8,46.948l-.492,3.773H59.761a1.318,1.318,0,0,0-1.318,1.318v4.13h-.354a1.318,1.318,0,0,0,0,2.636h3.343a1.318,1.318,0,0,0,0-2.636h-.354V53.357h3.887l-1.17,8.975L61.5,64.3a1.318,1.318,0,0,0,.165,2.121l1.478.914-.285,2.187H55.923A9.229,9.229,0,0,0,46.7,78.744V87.1H45.258V79.455a1.318,1.318,0,0,0-1.318-1.318H36.959v-6.62h.233a1.318,1.318,0,0,0,0-2.636h-.233v-4.8h.233a1.318,1.318,0,1,0,0-2.636h-.233v-4.8h.233a1.318,1.318,0,1,0,0-2.636h-.233V48.436h.233a1.318,1.318,0,1,0,0-2.636H25.86a1.318,1.318,0,1,0,0,2.636h.233V54H25.86a1.318,1.318,0,1,0,0,2.636h.233v4.8H25.86a1.318,1.318,0,1,0,0,2.636h.233v4.8H25.86a1.318,1.318,0,0,0,0,2.636h.233v6.62H21.521a1.318,1.318,0,1,0,0,2.636h21.1v36.274h-5.9V109.5a4.478,4.478,0,0,0-4.473-4.473H23.8a4.478,4.478,0,0,0-4.473,4.473v7.548h-5.9V80.773h2.822a1.318,1.318,0,1,0,0-2.636H12.108a1.318,1.318,0,0,0-1.318,1.318V97.821H3.522A1.318,1.318,0,0,0,2.2,99.139v10.58a1.318,1.318,0,0,0,2.636,0v-9.262h5.951v16.59H4.84v-2.056a1.318,1.318,0,0,0-2.636,0v2.056H1.318a1.318,1.318,0,0,0,0,2.636H88.664a1.318,1.318,0,0,0,1.318-1.318ZM28.73,48.436h5.593V54H28.73Zm0,8.2h5.593v4.8H28.73Zm0,7.44h5.593v4.8H28.73Zm0,14.06v-6.62h5.593v6.62Zm51.283.988L72.138,83.38l-7.875-4.255.193-1.477L72.138,72.9l7.682,4.749ZM69.366,84.878l-6.3,3.4.829-6.357Zm12.32,7.072-9.548,4.532-9.548-4.532.058-.446,9.489-5.128L81.627,91.5ZM69.065,97.942l-7.734,3.672.9-6.915ZM72.138,99.4l11.048,5.245-11.048,5.545-11.048-5.545ZM69.2,111.665l-9.823,4.93,1.207-9.255Zm2.938,1.475,7.784,3.907H64.354ZM84.9,116.6l-9.823-4.93,8.616-4.325Zm-1.954-14.982-7.734-3.672L82.044,94.7ZM81.207,88.281l-6.3-3.4,5.467-2.954Zm-1.826-14-4.736-2.927,4.029-2.491Zm-13.1-10.6,5.86-5.03L78,63.674l.3,2.317L72.138,69.8l-6.162-3.809Zm7.884-6.767,2.656-2.28.67,5.135ZM72.138,55.17l-2.112-1.813h4.225Zm-3.873-6.734h7.745l.3,2.285H67.967Zm-.807,6.191,2.656,2.28-3.326,2.855Zm2.173,16.722L64.9,74.277l.706-5.418Zm-47.67,45.7V109.5a1.839,1.839,0,0,1,1.837-1.837h8.453a1.839,1.839,0,0,1,1.837,1.837v7.548Zm23.3,0V89.736h6.357v5.22a1.318,1.318,0,0,0,2.636,0V88.418A1.318,1.318,0,0,0,52.933,87.1H49.341V78.744a6.59,6.59,0,0,1,6.582-6.582h6.589L62,76.064l-2.237,1.382a1.318,1.318,0,0,0,.066,2.281l1.581.854-1.206,9.244-1.567.847a1.318,1.318,0,0,0,.061,2.35l1.025.487L58.5,102.96l-.975.463a1.318,1.318,0,0,0-.026,2.369l.593.3-1.429,10.958H54.251V100.228a1.318,1.318,0,0,0-2.636,0v16.819Z" transform="translate(0 -45.8)"/>
        <path id="Path_884815" data-name="Path 884815" d="M141.849,269.769a1.318,1.318,0,0,0,1.858-.151l3.717-4.375a1.318,1.318,0,0,0-1-2.172h-.78l1.784-2.1a1.318,1.318,0,0,0-2.009-1.707l-3.629,4.272a1.318,1.318,0,0,0,1,2.172h.78l-1.872,2.2a1.318,1.318,0,0,0,.151,1.858Z" transform="translate(-116.537 -221.366)"/>
      </g>
    </g>
  </g>
</svg>
