<svg xmlns="http://www.w3.org/2000/svg" width="40" height="40" viewBox="0 0 40 40">
  <g id="Group_1106126" data-name="Group 1106126" transform="translate(-495 -4942)">
    <rect id="Rectangle_405659" data-name="Rectangle 405659" width="40" height="40" rx="5" transform="translate(495 4942)" fill="#6018ec"/>
    <path id="camera-cctv" d="M21.3,11.077l1.312-1.018A1,1,0,0,0,22.5,8.4L8.8.51A4,4,0,0,0,3.331,2.09L2.487,3.642A4.018,4.018,0,0,0,4.013,9.024l5.658,3.3L8.462,15.949A3,3,0,0,1,5.616,18H2V15a1,1,0,0,0-2,0v8a1,1,0,0,0,2,0V20H5.616a4.993,4.993,0,0,0,4.743-3.418l1.077-3.229,2.878,1.678a3.979,3.979,0,0,0,1.972.525,4.054,4.054,0,0,0,2.1-.591l1.592.883a1.218,1.218,0,0,0,1.66-.482l.844-1.547A1.218,1.218,0,0,0,22,12.17l-1.137-.63a1.987,1.987,0,0,1,.431-.461Zm-4.46,2.4a1.98,1.98,0,0,1-1.527-.18L5.011,7.291A2.012,2.012,0,0,1,4.243,4.6l.844-1.552a1.983,1.983,0,0,1,1.2-.966A2.044,2.044,0,0,1,6.85,2a1.947,1.947,0,0,1,.959.25l12.4,7.143-.135.1a3.97,3.97,0,0,0-1.06,1.245l-.966,1.77a1.985,1.985,0,0,1-1.208.966Z" transform="translate(503.501 4950.001)" fill="#fff"/>
  </g>
</svg>
